<svg version="1.1" viewBox="0.0 0.0 600.0 371.0" fill="none" stroke="none" stroke-linecap="square" stroke-miterlimit="10" width="600" height="371" xmlns:xlink="http://www.w3.org/1999/xlink" xmlns="http://www.w3.org/2000/svg"><path fill="#ffffff" d="M0 0L600.0 0L600.0 371.0L0 371.0L0 0Z" fill-rule="nonzero"/><path stroke="#333333" stroke-width="1.0" stroke-linecap="butt" d="M87.5 332.5L581.5 332.5" fill-rule="nonzero"/><path stroke="#cccccc" stroke-width="1.0" stroke-linecap="butt" d="M87.5 271.5L581.5 271.5" fill-rule="nonzero"/><path stroke="#cccccc" stroke-width="1.0" stroke-linecap="butt" d="M87.5 210.5L581.5 210.5" fill-rule="nonzero"/><path stroke="#cccccc" stroke-width="1.0" stroke-linecap="butt" d="M87.5 149.5L581.5 149.5" fill-rule="nonzero"/><path stroke="#cccccc" stroke-width="1.0" stroke-linecap="butt" d="M87.5 88.5L581.5 88.5" fill-rule="nonzero"/><clipPath id="id_0"><path d="M87.55 88.28333L581.45 88.28333L581.45 332.45L87.55 332.45L87.55 88.28333Z" clip-rule="nonzero"/></clipPath><path stroke="#34a853" stroke-width="2.0" stroke-linecap="butt" clip-path="url(#id_0)" d="M128.70833 332.3975L211.025 332.3775L293.34167 332.18497L375.65833 330.24976L457.975 310.30014L540.2917 105.06325" fill-rule="nonzero"/><path stroke="#ff6d01" stroke-width="2.0" stroke-linecap="butt" clip-path="url(#id_0)" d="M128.70833 332.4453L211.025 332.4373L293.34167 332.38455L375.65833 331.85504L457.975 326.55762L540.2917 273.582" fill-rule="nonzero"/><path stroke="#46bdc6" stroke-width="2.0" stroke-linecap="butt" clip-path="url(#id_0)" d="M128.70833 332.4453L211.025 332.4385L293.34167 332.38058L375.65833 331.84033L457.975 326.43393L540.2917 272.3717" fill-rule="nonzero"/><path fill="#000000" fill-opacity="0.0" clip-path="url(#id_0)" d="M131.70833 332.3975C131.70833 334.05435 130.36519 335.3975 128.70833 335.3975C127.051476 335.3975 125.708336 334.05435 125.708336 332.3975C125.708336 330.74063 127.051476 329.3975 128.70833 329.3975C130.36519 329.3975 131.70833 330.74063 131.70833 332.3975Z" fill-rule="nonzero"/><path fill="#000000" fill-opacity="0.0" clip-path="url(#id_0)" d="M214.025 332.3775C214.025 334.03433 212.68185 335.3775 211.025 335.3775C209.36815 335.3775 208.025 334.03433 208.025 332.3775C208.025 330.72064 209.36815 329.3775 211.025 329.3775C212.68185 329.3775 214.025 330.72064 214.025 332.3775Z" fill-rule="nonzero"/><path fill="#000000" fill-opacity="0.0" clip-path="url(#id_0)" d="M296.34167 332.18497C296.34167 333.84183 294.99854 335.18497 293.34167 335.18497C291.6848 335.18497 290.34167 333.84183 290.34167 332.18497C290.34167 330.5281 291.6848 329.18497 293.34167 329.18497C294.99854 329.18497 296.34167 330.5281 296.34167 332.18497Z" fill-rule="nonzero"/><path fill="#000000" fill-opacity="0.0" clip-path="url(#id_0)" d="M378.65833 330.24976C378.65833 331.90662 377.3152 333.24976 375.65833 333.24976C374.00146 333.24976 372.65833 331.90662 372.65833 330.24976C372.65833 328.59293 374.00146 327.24976 375.65833 327.24976C377.3152 327.24976 378.65833 328.59293 378.65833 330.24976Z" fill-rule="nonzero"/><path fill="#000000" fill-opacity="0.0" clip-path="url(#id_0)" d="M460.975 310.30014C460.975 311.957 459.63187 313.30014 457.975 313.30014C456.31815 313.30014 454.975 311.957 454.975 310.30014C454.975 308.64328 456.31815 307.30014 457.975 307.30014C459.63187 307.30014 460.975 308.64328 460.975 310.30014Z" fill-rule="nonzero"/><path fill="#000000" fill-opacity="0.0" clip-path="url(#id_0)" d="M543.2917 105.06325C543.2917 106.7201 541.94855 108.06325 540.2917 108.06325C538.6348 108.06325 537.2917 106.7201 537.2917 105.06325C537.2917 103.406395 538.6348 102.06325 540.2917 102.06325C541.94855 102.06325 543.2917 103.406395 543.2917 105.06325Z" fill-rule="nonzero"/><path fill="#000000" fill-opacity="0.0" clip-path="url(#id_0)" d="M131.70833 332.4453C131.70833 334.10217 130.36519 335.4453 128.70833 335.4453C127.051476 335.4453 125.708336 334.10217 125.708336 332.4453C125.708336 330.78845 127.051476 329.4453 128.70833 329.4453C130.36519 329.4453 131.70833 330.78845 131.70833 332.4453Z" fill-rule="nonzero"/><path fill="#000000" fill-opacity="0.0" clip-path="url(#id_0)" d="M214.025 332.4373C214.025 334.09412 212.68185 335.4373 211.025 335.4373C209.36815 335.4373 208.025 334.09412 208.025 332.4373C208.025 330.78043 209.36815 329.4373 211.025 329.4373C212.68185 329.4373 214.025 330.78043 214.025 332.4373Z" fill-rule="nonzero"/><path fill="#000000" fill-opacity="0.0" clip-path="url(#id_0)" d="M296.34167 332.38455C296.34167 334.0414 294.99854 335.38455 293.34167 335.38455C291.6848 335.38455 290.34167 334.0414 290.34167 332.38455C290.34167 330.7277 291.6848 329.38455 293.34167 329.38455C294.99854 329.38455 296.34167 330.7277 296.34167 332.38455Z" fill-rule="nonzero"/><path fill="#000000" fill-opacity="0.0" clip-path="url(#id_0)" d="M378.65833 331.85504C378.65833 333.5119 377.3152 334.85504 375.65833 334.85504C374.00146 334.85504 372.65833 333.5119 372.65833 331.85504C372.65833 330.19818 374.00146 328.85504 375.65833 328.85504C377.3152 328.85504 378.65833 330.19818 378.65833 331.85504Z" fill-rule="nonzero"/><path fill="#000000" fill-opacity="0.0" clip-path="url(#id_0)" d="M460.975 326.55762C460.975 328.21448 459.63187 329.55762 457.975 329.55762C456.31815 329.55762 454.975 328.21448 454.975 326.55762C454.975 324.90076 456.31815 323.55762 457.975 323.55762C459.63187 323.55762 460.975 324.90076 460.975 326.55762Z" fill-rule="nonzero"/><path fill="#000000" fill-opacity="0.0" clip-path="url(#id_0)" d="M543.2917 273.582C543.2917 275.23886 541.94855 276.582 540.2917 276.582C538.6348 276.582 537.2917 275.23886 537.2917 273.582C537.2917 271.92514 538.6348 270.582 540.2917 270.582C541.94855 270.582 543.2917 271.92514 543.2917 273.582Z" fill-rule="nonzero"/><path fill="#000000" fill-opacity="0.0" clip-path="url(#id_0)" d="M131.70833 332.4453C131.70833 334.10217 130.36519 335.4453 128.70833 335.4453C127.051476 335.4453 125.708336 334.10217 125.708336 332.4453C125.708336 330.78845 127.051476 329.4453 128.70833 329.4453C130.36519 329.4453 131.70833 330.78845 131.70833 332.4453Z" fill-rule="nonzero"/><path fill="#000000" fill-opacity="0.0" clip-path="url(#id_0)" d="M214.025 332.4385C214.025 334.09537 212.68185 335.4385 211.025 335.4385C209.36815 335.4385 208.025 334.09537 208.025 332.4385C208.025 330.78165 209.36815 329.4385 211.025 329.4385C212.68185 329.4385 214.025 330.78165 214.025 332.4385Z" fill-rule="nonzero"/><path fill="#000000" fill-opacity="0.0" clip-path="url(#id_0)" d="M296.34167 332.38058C296.34167 334.03745 294.99854 335.38058 293.34167 335.38058C291.6848 335.38058 290.34167 334.03745 290.34167 332.38058C290.34167 330.72372 291.6848 329.38058 293.34167 329.38058C294.99854 329.38058 296.34167 330.72372 296.34167 332.38058Z" fill-rule="nonzero"/><path fill="#000000" fill-opacity="0.0" clip-path="url(#id_0)" d="M378.65833 331.84033C378.65833 333.49716 377.3152 334.84033 375.65833 334.84033C374.00146 334.84033 372.65833 333.49716 372.65833 331.84033C372.65833 330.18347 374.00146 328.84033 375.65833 328.84033C377.3152 328.84033 378.65833 330.18347 378.65833 331.84033Z" fill-rule="nonzero"/><path fill="#000000" fill-opacity="0.0" clip-path="url(#id_0)" d="M460.975 326.43393C460.975 328.0908 459.63187 329.43393 457.975 329.43393C456.31815 329.43393 454.975 328.0908 454.975 326.43393C454.975 324.77707 456.31815 323.43393 457.975 323.43393C459.63187 323.43393 460.975 324.77707 460.975 326.43393Z" fill-rule="nonzero"/><path fill="#000000" fill-opacity="0.0" clip-path="url(#id_0)" d="M543.2917 272.3717C543.2917 274.02853 541.94855 275.3717 540.2917 275.3717C538.6348 275.3717 537.2917 274.02853 537.2917 272.3717C537.2917 270.71484 538.6348 269.3717 540.2917 269.3717C541.94855 269.3717 543.2917 270.71484 543.2917 272.3717Z" fill-rule="nonzero"/><path fill="#000000" d="M75.05 332.21564Q75.05 330.6844 75.3625 329.7625Q75.675 328.825 76.28438 328.325Q76.90938 327.825 77.84688 327.825Q78.53438 327.825 79.05 328.10626Q79.58125 328.3875 79.925 328.91876Q80.26875 329.4344 80.45625 330.1844Q80.64375 330.9344 80.64375 332.21564Q80.64375 333.73126 80.33125 334.65314Q80.03438 335.575 79.40938 336.09064Q78.8 336.59064 77.84688 336.59064Q76.6125 336.59064 75.89375 335.7Q75.05 334.6375 75.05 332.21564ZM76.12813 332.21564Q76.12813 334.325 76.62813 335.02814Q77.12813 335.73126 77.84688 335.73126Q78.58125 335.73126 79.06563 335.02814Q79.56563 334.325 79.56563 332.21564Q79.56563 330.09064 79.06563 329.40314Q78.58125 328.7 77.83125 328.7Q77.1125 328.7 76.675 329.3094Q76.12813 330.09064 76.12813 332.21564Z" fill-rule="nonzero"/><path fill="#000000" d="M23.01875 275.40833L21.971874 275.40833L21.971874 268.68958Q21.58125 269.04895 20.95625 269.42395Q20.346874 269.78333 19.8625 269.9552L19.8625 268.93958Q20.7375 268.5177 21.39375 267.93958Q22.065624 267.34583 22.346874 266.78333L23.01875 266.78333L23.01875 275.40833ZM26.05 271.17395Q26.05 269.6427 26.3625 268.72083Q26.675 267.78333 27.284374 267.28333Q27.909374 266.78333 28.846874 266.78333Q29.534374 266.78333 30.05 267.06458Q30.58125 267.34583 30.925 267.87708Q31.26875 268.3927 31.45625 269.1427Q31.64375 269.8927 31.64375 271.17395Q31.64375 272.68958 31.33125 273.61145Q31.034374 274.53333 30.409374 275.04895Q29.8 275.54895 28.846874 275.54895Q27.6125 275.54895 26.89375 274.65833Q26.05 273.59583 26.05 271.17395ZM27.128124 271.17395Q27.128124 273.28333 27.628124 273.98645Q28.128124 274.68958 28.846874 274.68958Q29.58125 274.68958 30.065624 273.98645Q30.565624 273.28333 30.565624 271.17395Q30.565624 269.04895 30.065624 268.36145Q29.58125 267.65833 28.83125 267.65833Q28.1125 267.65833 27.675 268.2677Q27.128124 269.04895 27.128124 271.17395ZM33.05 271.17395Q33.05 269.6427 33.3625 268.72083Q33.675 267.78333 34.284374 267.28333Q34.909374 266.78333 35.846874 266.78333Q36.534374 266.78333 37.05 267.06458Q37.58125 267.34583 37.925 267.87708Q38.26875 268.3927 38.45625 269.1427Q38.64375 269.8927 38.64375 271.17395Q38.64375 272.68958 38.33125 273.61145Q38.034374 274.53333 37.409374 275.04895Q36.8 275.54895 35.846874 275.54895Q34.6125 275.54895 33.89375 274.65833Q33.05 273.59583 33.05 271.17395ZM34.128124 271.17395Q34.128124 273.28333 34.628124 273.98645Q35.128124 274.68958 35.846874 274.68958Q36.58125 274.68958 37.065624 273.98645Q37.565624 273.28333 37.565624 271.17395Q37.565624 269.04895 37.065624 268.36145Q36.58125 267.65833 35.83125 267.65833Q35.1125 267.65833 34.675 268.2677Q34.128124 269.04895 34.128124 271.17395ZM40.05 271.17395Q40.05 269.6427 40.3625 268.72083Q40.675 267.78333 41.284374 267.28333Q41.909374 266.78333 42.846874 266.78333Q43.534374 266.78333 44.05 267.06458Q44.58125 267.34583 44.925 267.87708Q45.26875 268.3927 45.45625 269.1427Q45.64375 269.8927 45.64375 271.17395Q45.64375 272.68958 45.33125 273.61145Q45.034374 274.53333 44.409374 275.04895Q43.8 275.54895 42.846874 275.54895Q41.6125 275.54895 40.89375 274.65833Q40.05 273.59583 40.05 271.17395ZM41.128124 271.17395Q41.128124 273.28333 41.628124 273.98645Q42.128124 274.68958 42.846874 274.68958Q43.58125 274.68958 44.065624 273.98645Q44.565624 273.28333 44.565624 271.17395Q44.565624 269.04895 44.065624 268.36145Q43.58125 267.65833 42.83125 267.65833Q42.1125 267.65833 41.675 268.2677Q41.128124 269.04895 41.128124 271.17395ZM47.05 271.17395Q47.05 269.6427 47.3625 268.72083Q47.675 267.78333 48.284374 267.28333Q48.909374 266.78333 49.846874 266.78333Q50.534374 266.78333 51.05 267.06458Q51.58125 267.34583 51.925 267.87708Q52.26875 268.3927 52.45625 269.1427Q52.64375 269.8927 52.64375 271.17395Q52.64375 272.68958 52.33125 273.61145Q52.034374 274.53333 51.409374 275.04895Q50.8 275.54895 49.846874 275.54895Q48.6125 275.54895 47.89375 274.65833Q47.05 273.59583 47.05 271.17395ZM48.128124 271.17395Q48.128124 273.28333 48.628124 273.98645Q49.128124 274.68958 49.846874 274.68958Q50.58125 274.68958 51.065624 273.98645Q51.565624 273.28333 51.565624 271.17395Q51.565624 269.04895 51.065624 268.36145Q50.58125 267.65833 49.83125 267.65833Q49.1125 267.65833 48.675 268.2677Q48.128124 269.04895 48.128124 271.17395ZM54.05 271.17395Q54.05 269.6427 54.3625 268.72083Q54.675 267.78333 55.284374 267.28333Q55.909374 266.78333 56.846874 266.78333Q57.534374 266.78333 58.05 267.06458Q58.58125 267.34583 58.925 267.87708Q59.26875 268.3927 59.45625 269.1427Q59.64375 269.8927 59.64375 271.17395Q59.64375 272.68958 59.33125 273.61145Q59.034374 274.53333 58.409374 275.04895Q57.8 275.54895 56.846874 275.54895Q55.6125 275.54895 54.89375 274.65833Q54.05 273.59583 54.05 271.17395ZM55.128124 271.17395Q55.128124 273.28333 55.628124 273.98645Q56.128124 274.68958 56.846874 274.68958Q57.58125 274.68958 58.065624 273.98645Q58.565624 273.28333 58.565624 271.17395Q58.565624 269.04895 58.065624 268.36145Q57.58125 267.65833 56.83125 267.65833Q56.1125 267.65833 55.675 268.2677Q55.128124 269.04895 55.128124 271.17395ZM61.05 271.17395Q61.05 269.6427 61.3625 268.72083Q61.675 267.78333 62.284374 267.28333Q62.909374 266.78333 63.846874 266.78333Q64.53438 266.78333 65.05 267.06458Q65.58125 267.34583 65.925 267.87708Q66.26875 268.3927 66.45625 269.1427Q66.64375 269.8927 66.64375 271.17395Q66.64375 272.68958 66.33125 273.61145Q66.03438 274.53333 65.40938 275.04895Q64.8 275.54895 63.846874 275.54895Q62.6125 275.54895 61.89375 274.65833Q61.05 273.59583 61.05 271.17395ZM62.128124 271.17395Q62.128124 273.28333 62.628124 273.98645Q63.128124 274.68958 63.846874 274.68958Q64.58125 274.68958 65.06563 273.98645Q65.56563 273.28333 65.56563 271.17395Q65.56563 269.04895 65.06563 268.36145Q64.58125 267.65833 63.83125 267.65833Q63.1125 267.65833 62.675 268.2677Q62.128124 269.04895 62.128124 271.17395ZM68.05 271.17395Q68.05 269.6427 68.3625 268.72083Q68.675 267.78333 69.28438 267.28333Q69.90938 266.78333 70.84688 266.78333Q71.53438 266.78333 72.05 267.06458Q72.58125 267.34583 72.925 267.87708Q73.26875 268.3927 73.45625 269.1427Q73.64375 269.8927 73.64375 271.17395Q73.64375 272.68958 73.33125 273.61145Q73.03438 274.53333 72.40938 275.04895Q71.8 275.54895 70.84688 275.54895Q69.6125 275.54895 68.89375 274.65833Q68.05 273.59583 68.05 271.17395ZM69.12813 271.17395Q69.12813 273.28333 69.62813 273.98645Q70.12813 274.68958 70.84688 274.68958Q71.58125 274.68958 72.06563 273.98645Q72.56563 273.28333 72.56563 271.17395Q72.56563 269.04895 72.06563 268.36145Q71.58125 267.65833 70.83125 267.65833Q70.1125 267.65833 69.675 268.2677Q69.12813 269.04895 69.12813 271.17395ZM75.05 271.17395Q75.05 269.6427 75.3625 268.72083Q75.675 267.78333 76.28438 267.28333Q76.90938 266.78333 77.84688 266.78333Q78.53438 266.78333 79.05 267.06458Q79.58125 267.34583 79.925 267.87708Q80.26875 268.3927 80.45625 269.1427Q80.64375 269.8927 80.64375 271.17395Q80.64375 272.68958 80.33125 273.61145Q80.03438 274.53333 79.40938 275.04895Q78.8 275.54895 77.84688 275.54895Q76.6125 275.54895 75.89375 274.65833Q75.05 273.59583 75.05 271.17395ZM76.12813 271.17395Q76.12813 273.28333 76.62813 273.98645Q77.12813 274.68958 77.84688 274.68958Q78.58125 274.68958 79.06563 273.98645Q79.56563 273.28333 79.56563 271.17395Q79.56563 269.04895 79.06563 268.36145Q78.58125 267.65833 77.83125 267.65833Q77.1125 267.65833 76.675 268.2677Q76.12813 269.04895 76.12813 271.17395Z" fill-rule="nonzero"/><path fill="#000000" d="M24.596874 213.35104L24.596874 214.36667L18.909374 214.36667Q18.909374 213.99167 19.034374 213.6323Q19.253124 213.05417 19.721874 212.49167Q20.20625 211.92917 21.1125 211.1948Q22.51875 210.03854 23.003124 209.36667Q23.503124 208.6948 23.503124 208.10104Q23.503124 207.47604 23.05 207.05417Q22.596874 206.61667 21.878124 206.61667Q21.1125 206.61667 20.659374 207.0698Q20.20625 207.52292 20.190624 208.33542L19.1125 208.22604Q19.221874 207.0073 19.940624 206.3823Q20.675 205.74167 21.909374 205.74167Q23.14375 205.74167 23.8625 206.42917Q24.58125 207.11667 24.58125 208.1323Q24.58125 208.64792 24.3625 209.14792Q24.159374 209.6323 23.659374 210.1948Q23.175 210.74167 22.05 211.6948Q21.096874 212.49167 20.815624 212.78854Q20.55 213.0698 20.378124 213.35104L24.596874 213.35104ZM26.05 210.1323Q26.05 208.60104 26.3625 207.67917Q26.675 206.74167 27.284374 206.24167Q27.909374 205.74167 28.846874 205.74167Q29.534374 205.74167 30.05 206.02292Q30.58125 206.30417 30.925 206.83542Q31.26875 207.35104 31.45625 208.10104Q31.64375 208.85104 31.64375 210.1323Q31.64375 211.64792 31.33125 212.5698Q31.034374 213.49167 30.409374 214.0073Q29.8 214.5073 28.846874 214.5073Q27.6125 214.5073 26.89375 213.61667Q26.05 212.55417 26.05 210.1323ZM27.128124 210.1323Q27.128124 212.24167 27.628124 212.9448Q28.128124 213.64792 28.846874 213.64792Q29.58125 213.64792 30.065624 212.9448Q30.565624 212.24167 30.565624 210.1323Q30.565624 208.0073 30.065624 207.3198Q29.58125 206.61667 28.83125 206.61667Q28.1125 206.61667 27.675 207.22604Q27.128124 208.0073 27.128124 210.1323ZM33.05 210.1323Q33.05 208.60104 33.3625 207.67917Q33.675 206.74167 34.284374 206.24167Q34.909374 205.74167 35.846874 205.74167Q36.534374 205.74167 37.05 206.02292Q37.58125 206.30417 37.925 206.83542Q38.26875 207.35104 38.45625 208.10104Q38.64375 208.85104 38.64375 210.1323Q38.64375 211.64792 38.33125 212.5698Q38.034374 213.49167 37.409374 214.0073Q36.8 214.5073 35.846874 214.5073Q34.6125 214.5073 33.89375 213.61667Q33.05 212.55417 33.05 210.1323ZM34.128124 210.1323Q34.128124 212.24167 34.628124 212.9448Q35.128124 213.64792 35.846874 213.64792Q36.58125 213.64792 37.065624 212.9448Q37.565624 212.24167 37.565624 210.1323Q37.565624 208.0073 37.065624 207.3198Q36.58125 206.61667 35.83125 206.61667Q35.1125 206.61667 34.675 207.22604Q34.128124 208.0073 34.128124 210.1323ZM40.05 210.1323Q40.05 208.60104 40.3625 207.67917Q40.675 206.74167 41.284374 206.24167Q41.909374 205.74167 42.846874 205.74167Q43.534374 205.74167 44.05 206.02292Q44.58125 206.30417 44.925 206.83542Q45.26875 207.35104 45.45625 208.10104Q45.64375 208.85104 45.64375 210.1323Q45.64375 211.64792 45.33125 212.5698Q45.034374 213.49167 44.409374 214.0073Q43.8 214.5073 42.846874 214.5073Q41.6125 214.5073 40.89375 213.61667Q40.05 212.55417 40.05 210.1323ZM41.128124 210.1323Q41.128124 212.24167 41.628124 212.9448Q42.128124 213.64792 42.846874 213.64792Q43.58125 213.64792 44.065624 212.9448Q44.565624 212.24167 44.565624 210.1323Q44.565624 208.0073 44.065624 207.3198Q43.58125 206.61667 42.83125 206.61667Q42.1125 206.61667 41.675 207.22604Q41.128124 208.0073 41.128124 210.1323ZM47.05 210.1323Q47.05 208.60104 47.3625 207.67917Q47.675 206.74167 48.284374 206.24167Q48.909374 205.74167 49.846874 205.74167Q50.534374 205.74167 51.05 206.02292Q51.58125 206.30417 51.925 206.83542Q52.26875 207.35104 52.45625 208.10104Q52.64375 208.85104 52.64375 210.1323Q52.64375 211.64792 52.33125 212.5698Q52.034374 213.49167 51.409374 214.0073Q50.8 214.5073 49.846874 214.5073Q48.6125 214.5073 47.89375 213.61667Q47.05 212.55417 47.05 210.1323ZM48.128124 210.1323Q48.128124 212.24167 48.628124 212.9448Q49.128124 213.64792 49.846874 213.64792Q50.58125 213.64792 51.065624 212.9448Q51.565624 212.24167 51.565624 210.1323Q51.565624 208.0073 51.065624 207.3198Q50.58125 206.61667 49.83125 206.61667Q49.1125 206.61667 48.675 207.22604Q48.128124 208.0073 48.128124 210.1323ZM54.05 210.1323Q54.05 208.60104 54.3625 207.67917Q54.675 206.74167 55.284374 206.24167Q55.909374 205.74167 56.846874 205.74167Q57.534374 205.74167 58.05 206.02292Q58.58125 206.30417 58.925 206.83542Q59.26875 207.35104 59.45625 208.10104Q59.64375 208.85104 59.64375 210.1323Q59.64375 211.64792 59.33125 212.5698Q59.034374 213.49167 58.409374 214.0073Q57.8 214.5073 56.846874 214.5073Q55.6125 214.5073 54.89375 213.61667Q54.05 212.55417 54.05 210.1323ZM55.128124 210.1323Q55.128124 212.24167 55.628124 212.9448Q56.128124 213.64792 56.846874 213.64792Q57.58125 213.64792 58.065624 212.9448Q58.565624 212.24167 58.565624 210.1323Q58.565624 208.0073 58.065624 207.3198Q57.58125 206.61667 56.83125 206.61667Q56.1125 206.61667 55.675 207.22604Q55.128124 208.0073 55.128124 210.1323ZM61.05 210.1323Q61.05 208.60104 61.3625 207.67917Q61.675 206.74167 62.284374 206.24167Q62.909374 205.74167 63.846874 205.74167Q64.53438 205.74167 65.05 206.02292Q65.58125 206.30417 65.925 206.83542Q66.26875 207.35104 66.45625 208.10104Q66.64375 208.85104 66.64375 210.1323Q66.64375 211.64792 66.33125 212.5698Q66.03438 213.49167 65.40938 214.0073Q64.8 214.5073 63.846874 214.5073Q62.6125 214.5073 61.89375 213.61667Q61.05 212.55417 61.05 210.1323ZM62.128124 210.1323Q62.128124 212.24167 62.628124 212.9448Q63.128124 213.64792 63.846874 213.64792Q64.58125 213.64792 65.06563 212.9448Q65.56563 212.24167 65.56563 210.1323Q65.56563 208.0073 65.06563 207.3198Q64.58125 206.61667 63.83125 206.61667Q63.1125 206.61667 62.675 207.22604Q62.128124 208.0073 62.128124 210.1323ZM68.05 210.1323Q68.05 208.60104 68.3625 207.67917Q68.675 206.74167 69.28438 206.24167Q69.90938 205.74167 70.84688 205.74167Q71.53438 205.74167 72.05 206.02292Q72.58125 206.30417 72.925 206.83542Q73.26875 207.35104 73.45625 208.10104Q73.64375 208.85104 73.64375 210.1323Q73.64375 211.64792 73.33125 212.5698Q73.03438 213.49167 72.40938 214.0073Q71.8 214.5073 70.84688 214.5073Q69.6125 214.5073 68.89375 213.61667Q68.05 212.55417 68.05 210.1323ZM69.12813 210.1323Q69.12813 212.24167 69.62813 212.9448Q70.12813 213.64792 70.84688 213.64792Q71.58125 213.64792 72.06563 212.9448Q72.56563 212.24167 72.56563 210.1323Q72.56563 208.0073 72.06563 207.3198Q71.58125 206.61667 70.83125 206.61667Q70.1125 206.61667 69.675 207.22604Q69.12813 208.0073 69.12813 210.1323ZM75.05 210.1323Q75.05 208.60104 75.3625 207.67917Q75.675 206.74167 76.28438 206.24167Q76.90938 205.74167 77.84688 205.74167Q78.53438 205.74167 79.05 206.02292Q79.58125 206.30417 79.925 206.83542Q80.26875 207.35104 80.45625 208.10104Q80.64375 208.85104 80.64375 210.1323Q80.64375 211.64792 80.33125 212.5698Q80.03438 213.49167 79.40938 214.0073Q78.8 214.5073 77.84688 214.5073Q76.6125 214.5073 75.89375 213.61667Q75.05 212.55417 75.05 210.1323ZM76.12813 210.1323Q76.12813 212.24167 76.62813 212.9448Q77.12813 213.64792 77.84688 213.64792Q78.58125 213.64792 79.06563 212.9448Q79.56563 212.24167 79.56563 210.1323Q79.56563 208.0073 79.06563 207.3198Q78.58125 206.61667 77.83125 206.61667Q77.1125 206.61667 76.675 207.22604Q76.12813 208.0073 76.12813 210.1323Z" fill-rule="nonzero"/><path fill="#000000" d="M19.05 151.05937L20.1125 150.91875Q20.284374 151.80937 20.721874 152.21562Q21.159374 152.60625 21.784374 152.60625Q22.534374 152.60625 23.05 152.09062Q23.565624 151.575 23.565624 150.80937Q23.565624 150.09062 23.08125 149.62187Q22.6125 149.1375 21.878124 149.1375Q21.58125 149.1375 21.128124 149.2625L21.253124 148.325Q21.3625 148.34062 21.425 148.34062Q22.096874 148.34062 22.628124 147.99687Q23.175 147.6375 23.175 146.90312Q23.175 146.325 22.784374 145.95Q22.39375 145.55937 21.76875 145.55937Q21.159374 145.55937 20.7375 145.95Q20.33125 146.34062 20.221874 147.10625L19.159374 146.91875Q19.346874 145.87187 20.034374 145.29375Q20.721874 144.7 21.7375 144.7Q22.440624 144.7 23.034374 145.0125Q23.628124 145.30937 23.940624 145.825Q24.253124 146.34062 24.253124 146.93437Q24.253124 147.48125 23.95625 147.95Q23.659374 148.40312 23.08125 148.66875Q23.83125 148.84062 24.253124 149.40312Q24.675 149.95 24.675 150.79375Q24.675 151.91875 23.846874 152.7Q23.034374 153.48125 21.784374 153.48125Q20.659374 153.48125 19.909374 152.80937Q19.159374 152.12187 19.05 151.05937ZM26.05 149.09062Q26.05 147.55937 26.3625 146.6375Q26.675 145.7 27.284374 145.2Q27.909374 144.7 28.846874 144.7Q29.534374 144.7 30.05 144.98125Q30.58125 145.2625 30.925 145.79375Q31.26875 146.30937 31.45625 147.05937Q31.64375 147.80937 31.64375 149.09062Q31.64375 150.60625 31.33125 151.52812Q31.034374 152.45 30.409374 152.96562Q29.8 153.46562 28.846874 153.46562Q27.6125 153.46562 26.89375 152.575Q26.05 151.5125 26.05 149.09062ZM27.128124 149.09062Q27.128124 151.2 27.628124 151.90312Q28.128124 152.60625 28.846874 152.60625Q29.58125 152.60625 30.065624 151.90312Q30.565624 151.2 30.565624 149.09062Q30.565624 146.96562 30.065624 146.27812Q29.58125 145.575 28.83125 145.575Q28.1125 145.575 27.675 146.18437Q27.128124 146.96562 27.128124 149.09062ZM33.05 149.09062Q33.05 147.55937 33.3625 146.6375Q33.675 145.7 34.284374 145.2Q34.909374 144.7 35.846874 144.7Q36.534374 144.7 37.05 144.98125Q37.58125 145.2625 37.925 145.79375Q38.26875 146.30937 38.45625 147.05937Q38.64375 147.80937 38.64375 149.09062Q38.64375 150.60625 38.33125 151.52812Q38.034374 152.45 37.409374 152.96562Q36.8 153.46562 35.846874 153.46562Q34.6125 153.46562 33.89375 152.575Q33.05 151.5125 33.05 149.09062ZM34.128124 149.09062Q34.128124 151.2 34.628124 151.90312Q35.128124 152.60625 35.846874 152.60625Q36.58125 152.60625 37.065624 151.90312Q37.565624 151.2 37.565624 149.09062Q37.565624 146.96562 37.065624 146.27812Q36.58125 145.575 35.83125 145.575Q35.1125 145.575 34.675 146.18437Q34.128124 146.96562 34.128124 149.09062ZM40.05 149.09062Q40.05 147.55937 40.3625 146.6375Q40.675 145.7 41.284374 145.2Q41.909374 144.7 42.846874 144.7Q43.534374 144.7 44.05 144.98125Q44.58125 145.2625 44.925 145.79375Q45.26875 146.30937 45.45625 147.05937Q45.64375 147.80937 45.64375 149.09062Q45.64375 150.60625 45.33125 151.52812Q45.034374 152.45 44.409374 152.96562Q43.8 153.46562 42.846874 153.46562Q41.6125 153.46562 40.89375 152.575Q40.05 151.5125 40.05 149.09062ZM41.128124 149.09062Q41.128124 151.2 41.628124 151.90312Q42.128124 152.60625 42.846874 152.60625Q43.58125 152.60625 44.065624 151.90312Q44.565624 151.2 44.565624 149.09062Q44.565624 146.96562 44.065624 146.27812Q43.58125 145.575 42.83125 145.575Q42.1125 145.575 41.675 146.18437Q41.128124 146.96562 41.128124 149.09062ZM47.05 149.09062Q47.05 147.55937 47.3625 146.6375Q47.675 145.7 48.284374 145.2Q48.909374 144.7 49.846874 144.7Q50.534374 144.7 51.05 144.98125Q51.58125 145.2625 51.925 145.79375Q52.26875 146.30937 52.45625 147.05937Q52.64375 147.80937 52.64375 149.09062Q52.64375 150.60625 52.33125 151.52812Q52.034374 152.45 51.409374 152.96562Q50.8 153.46562 49.846874 153.46562Q48.6125 153.46562 47.89375 152.575Q47.05 151.5125 47.05 149.09062ZM48.128124 149.09062Q48.128124 151.2 48.628124 151.90312Q49.128124 152.60625 49.846874 152.60625Q50.58125 152.60625 51.065624 151.90312Q51.565624 151.2 51.565624 149.09062Q51.565624 146.96562 51.065624 146.27812Q50.58125 145.575 49.83125 145.575Q49.1125 145.575 48.675 146.18437Q48.128124 146.96562 48.128124 149.09062ZM54.05 149.09062Q54.05 147.55937 54.3625 146.6375Q54.675 145.7 55.284374 145.2Q55.909374 144.7 56.846874 144.7Q57.534374 144.7 58.05 144.98125Q58.58125 145.2625 58.925 145.79375Q59.26875 146.30937 59.45625 147.05937Q59.64375 147.80937 59.64375 149.09062Q59.64375 150.60625 59.33125 151.52812Q59.034374 152.45 58.409374 152.96562Q57.8 153.46562 56.846874 153.46562Q55.6125 153.46562 54.89375 152.575Q54.05 151.5125 54.05 149.09062ZM55.128124 149.09062Q55.128124 151.2 55.628124 151.90312Q56.128124 152.60625 56.846874 152.60625Q57.58125 152.60625 58.065624 151.90312Q58.565624 151.2 58.565624 149.09062Q58.565624 146.96562 58.065624 146.27812Q57.58125 145.575 56.83125 145.575Q56.1125 145.575 55.675 146.18437Q55.128124 146.96562 55.128124 149.09062ZM61.05 149.09062Q61.05 147.55937 61.3625 146.6375Q61.675 145.7 62.284374 145.2Q62.909374 144.7 63.846874 144.7Q64.53438 144.7 65.05 144.98125Q65.58125 145.2625 65.925 145.79375Q66.26875 146.30937 66.45625 147.05937Q66.64375 147.80937 66.64375 149.09062Q66.64375 150.60625 66.33125 151.52812Q66.03438 152.45 65.40938 152.96562Q64.8 153.46562 63.846874 153.46562Q62.6125 153.46562 61.89375 152.575Q61.05 151.5125 61.05 149.09062ZM62.128124 149.09062Q62.128124 151.2 62.628124 151.90312Q63.128124 152.60625 63.846874 152.60625Q64.58125 152.60625 65.06563 151.90312Q65.56563 151.2 65.56563 149.09062Q65.56563 146.96562 65.06563 146.27812Q64.58125 145.575 63.83125 145.575Q63.1125 145.575 62.675 146.18437Q62.128124 146.96562 62.128124 149.09062ZM68.05 149.09062Q68.05 147.55937 68.3625 146.6375Q68.675 145.7 69.28438 145.2Q69.90938 144.7 70.84688 144.7Q71.53438 144.7 72.05 144.98125Q72.58125 145.2625 72.925 145.79375Q73.26875 146.30937 73.45625 147.05937Q73.64375 147.80937 73.64375 149.09062Q73.64375 150.60625 73.33125 151.52812Q73.03438 152.45 72.40938 152.96562Q71.8 153.46562 70.84688 153.46562Q69.6125 153.46562 68.89375 152.575Q68.05 151.5125 68.05 149.09062ZM69.12813 149.09062Q69.12813 151.2 69.62813 151.90312Q70.12813 152.60625 70.84688 152.60625Q71.58125 152.60625 72.06563 151.90312Q72.56563 151.2 72.56563 149.09062Q72.56563 146.96562 72.06563 146.27812Q71.58125 145.575 70.83125 145.575Q70.1125 145.575 69.675 146.18437Q69.12813 146.96562 69.12813 149.09062ZM75.05 149.09062Q75.05 147.55937 75.3625 146.6375Q75.675 145.7 76.28438 145.2Q76.90938 144.7 77.84688 144.7Q78.53438 144.7 79.05 144.98125Q79.58125 145.2625 79.925 145.79375Q80.26875 146.30937 80.45625 147.05937Q80.64375 147.80937 80.64375 149.09062Q80.64375 150.60625 80.33125 151.52812Q80.03438 152.45 79.40938 152.96562Q78.8 153.46562 77.84688 153.46562Q76.6125 153.46562 75.89375 152.575Q75.05 151.5125 75.05 149.09062ZM76.12813 149.09062Q76.12813 151.2 76.62813 151.90312Q77.12813 152.60625 77.84688 152.60625Q78.58125 152.60625 79.06563 151.90312Q79.56563 151.2 79.56563 149.09062Q79.56563 146.96562 79.06563 146.27812Q78.58125 145.575 77.83125 145.575Q77.1125 145.575 76.675 146.18437Q76.12813 146.96562 76.12813 149.09062Z" fill-rule="nonzero"/><path fill="#000000" d="M22.425 92.28333L22.425 90.22083L18.70625 90.22083L18.70625 89.25208L22.628124 83.68958L23.4875 83.68958L23.4875 89.25208L24.64375 89.25208L24.64375 90.22083L23.4875 90.22083L23.4875 92.28333L22.425 92.28333ZM22.425 89.25208L22.425 85.39271L19.7375 89.25208L22.425 89.25208ZM26.05 88.04896Q26.05 86.51771 26.3625 85.59583Q26.675 84.65833 27.284374 84.15833Q27.909374 83.65833 28.846874 83.65833Q29.534374 83.65833 30.05 83.93958Q30.58125 84.22083 30.925 84.75208Q31.26875 85.26771 31.45625 86.01771Q31.64375 86.76771 31.64375 88.04896Q31.64375 89.56458 31.33125 90.48646Q31.034374 91.40833 30.409374 91.92396Q29.8 92.42396 28.846874 92.42396Q27.6125 92.42396 26.89375 91.53333Q26.05 90.47083 26.05 88.04896ZM27.128124 88.04896Q27.128124 90.15833 27.628124 90.86146Q28.128124 91.56458 28.846874 91.56458Q29.58125 91.56458 30.065624 90.86146Q30.565624 90.15833 30.565624 88.04896Q30.565624 85.92396 30.065624 85.23646Q29.58125 84.53333 28.83125 84.53333Q28.1125 84.53333 27.675 85.14271Q27.128124 85.92396 27.128124 88.04896ZM33.05 88.04896Q33.05 86.51771 33.3625 85.59583Q33.675 84.65833 34.284374 84.15833Q34.909374 83.65833 35.846874 83.65833Q36.534374 83.65833 37.05 83.93958Q37.58125 84.22083 37.925 84.75208Q38.26875 85.26771 38.45625 86.01771Q38.64375 86.76771 38.64375 88.04896Q38.64375 89.56458 38.33125 90.48646Q38.034374 91.40833 37.409374 91.92396Q36.8 92.42396 35.846874 92.42396Q34.6125 92.42396 33.89375 91.53333Q33.05 90.47083 33.05 88.04896ZM34.128124 88.04896Q34.128124 90.15833 34.628124 90.86146Q35.128124 91.56458 35.846874 91.56458Q36.58125 91.56458 37.065624 90.86146Q37.565624 90.15833 37.565624 88.04896Q37.565624 85.92396 37.065624 85.23646Q36.58125 84.53333 35.83125 84.53333Q35.1125 84.53333 34.675 85.14271Q34.128124 85.92396 34.128124 88.04896ZM40.05 88.04896Q40.05 86.51771 40.3625 85.59583Q40.675 84.65833 41.284374 84.15833Q41.909374 83.65833 42.846874 83.65833Q43.534374 83.65833 44.05 83.93958Q44.58125 84.22083 44.925 84.75208Q45.26875 85.26771 45.45625 86.01771Q45.64375 86.76771 45.64375 88.04896Q45.64375 89.56458 45.33125 90.48646Q45.034374 91.40833 44.409374 91.92396Q43.8 92.42396 42.846874 92.42396Q41.6125 92.42396 40.89375 91.53333Q40.05 90.47083 40.05 88.04896ZM41.128124 88.04896Q41.128124 90.15833 41.628124 90.86146Q42.128124 91.56458 42.846874 91.56458Q43.58125 91.56458 44.065624 90.86146Q44.565624 90.15833 44.565624 88.04896Q44.565624 85.92396 44.065624 85.23646Q43.58125 84.53333 42.83125 84.53333Q42.1125 84.53333 41.675 85.14271Q41.128124 85.92396 41.128124 88.04896ZM47.05 88.04896Q47.05 86.51771 47.3625 85.59583Q47.675 84.65833 48.284374 84.15833Q48.909374 83.65833 49.846874 83.65833Q50.534374 83.65833 51.05 83.93958Q51.58125 84.22083 51.925 84.75208Q52.26875 85.26771 52.45625 86.01771Q52.64375 86.76771 52.64375 88.04896Q52.64375 89.56458 52.33125 90.48646Q52.034374 91.40833 51.409374 91.92396Q50.8 92.42396 49.846874 92.42396Q48.6125 92.42396 47.89375 91.53333Q47.05 90.47083 47.05 88.04896ZM48.128124 88.04896Q48.128124 90.15833 48.628124 90.86146Q49.128124 91.56458 49.846874 91.56458Q50.58125 91.56458 51.065624 90.86146Q51.565624 90.15833 51.565624 88.04896Q51.565624 85.92396 51.065624 85.23646Q50.58125 84.53333 49.83125 84.53333Q49.1125 84.53333 48.675 85.14271Q48.128124 85.92396 48.128124 88.04896ZM54.05 88.04896Q54.05 86.51771 54.3625 85.59583Q54.675 84.65833 55.284374 84.15833Q55.909374 83.65833 56.846874 83.65833Q57.534374 83.65833 58.05 83.93958Q58.58125 84.22083 58.925 84.75208Q59.26875 85.26771 59.45625 86.01771Q59.64375 86.76771 59.64375 88.04896Q59.64375 89.56458 59.33125 90.48646Q59.034374 91.40833 58.409374 91.92396Q57.8 92.42396 56.846874 92.42396Q55.6125 92.42396 54.89375 91.53333Q54.05 90.47083 54.05 88.04896ZM55.128124 88.04896Q55.128124 90.15833 55.628124 90.86146Q56.128124 91.56458 56.846874 91.56458Q57.58125 91.56458 58.065624 90.86146Q58.565624 90.15833 58.565624 88.04896Q58.565624 85.92396 58.065624 85.23646Q57.58125 84.53333 56.83125 84.53333Q56.1125 84.53333 55.675 85.14271Q55.128124 85.92396 55.128124 88.04896ZM61.05 88.04896Q61.05 86.51771 61.3625 85.59583Q61.675 84.65833 62.284374 84.15833Q62.909374 83.65833 63.846874 83.65833Q64.53438 83.65833 65.05 83.93958Q65.58125 84.22083 65.925 84.75208Q66.26875 85.26771 66.45625 86.01771Q66.64375 86.76771 66.64375 88.04896Q66.64375 89.56458 66.33125 90.48646Q66.03438 91.40833 65.40938 91.92396Q64.8 92.42396 63.846874 92.42396Q62.6125 92.42396 61.89375 91.53333Q61.05 90.47083 61.05 88.04896ZM62.128124 88.04896Q62.128124 90.15833 62.628124 90.86146Q63.128124 91.56458 63.846874 91.56458Q64.58125 91.56458 65.06563 90.86146Q65.56563 90.15833 65.56563 88.04896Q65.56563 85.92396 65.06563 85.23646Q64.58125 84.53333 63.83125 84.53333Q63.1125 84.53333 62.675 85.14271Q62.128124 85.92396 62.128124 88.04896ZM68.05 88.04896Q68.05 86.51771 68.3625 85.59583Q68.675 84.65833 69.28438 84.15833Q69.90938 83.65833 70.84688 83.65833Q71.53438 83.65833 72.05 83.93958Q72.58125 84.22083 72.925 84.75208Q73.26875 85.26771 73.45625 86.01771Q73.64375 86.76771 73.64375 88.04896Q73.64375 89.56458 73.33125 90.48646Q73.03438 91.40833 72.40938 91.92396Q71.8 92.42396 70.84688 92.42396Q69.6125 92.42396 68.89375 91.53333Q68.05 90.47083 68.05 88.04896ZM69.12813 88.04896Q69.12813 90.15833 69.62813 90.86146Q70.12813 91.56458 70.84688 91.56458Q71.58125 91.56458 72.06563 90.86146Q72.56563 90.15833 72.56563 88.04896Q72.56563 85.92396 72.06563 85.23646Q71.58125 84.53333 70.83125 84.53333Q70.1125 84.53333 69.675 85.14271Q69.12813 85.92396 69.12813 88.04896ZM75.05 88.04896Q75.05 86.51771 75.3625 85.59583Q75.675 84.65833 76.28438 84.15833Q76.90938 83.65833 77.84688 83.65833Q78.53438 83.65833 79.05 83.93958Q79.58125 84.22083 79.925 84.75208Q80.26875 85.26771 80.45625 86.01771Q80.64375 86.76771 80.64375 88.04896Q80.64375 89.56458 80.33125 90.48646Q80.03438 91.40833 79.40938 91.92396Q78.8 92.42396 77.84688 92.42396Q76.6125 92.42396 75.89375 91.53333Q75.05 90.47083 75.05 88.04896ZM76.12813 88.04896Q76.12813 90.15833 76.62813 90.86146Q77.12813 91.56458 77.84688 91.56458Q78.58125 91.56458 79.06563 90.86146Q79.56563 90.15833 79.56563 88.04896Q79.56563 85.92396 79.06563 85.23646Q78.58125 84.53333 77.83125 84.53333Q77.1125 84.53333 76.675 85.14271Q76.12813 85.92396 76.12813 88.04896Z" fill-rule="nonzero"/><path fill="#000000" d="M129.6771 349.45L128.63022 349.45L128.63022 342.73126Q128.2396 343.09064 127.614586 343.46564Q127.00521 343.825 126.520836 343.9969L126.520836 342.98126Q127.395836 342.5594 128.0521 341.98126Q128.72397 341.3875 129.00522 340.825L129.6771 340.825L129.6771 349.45Z" fill-rule="nonzero"/><path fill="#000000" d="M208.49374 349.45L207.44687 349.45L207.44687 342.73126Q207.05624 343.09064 206.43124 343.46564Q205.82187 343.825 205.3375 343.9969L205.3375 342.98126Q206.2125 342.5594 206.86874 341.98126Q207.54062 341.3875 207.82187 340.825L208.49374 340.825L208.49374 349.45ZM211.525 345.21564Q211.525 343.6844 211.8375 342.7625Q212.15 341.825 212.75937 341.325Q213.38437 340.825 214.32187 340.825Q215.00937 340.825 215.525 341.10626Q216.05624 341.3875 216.4 341.91876Q216.74374 342.4344 216.93124 343.1844Q217.11874 343.9344 217.11874 345.21564Q217.11874 346.73126 216.80624 347.65314Q216.50937 348.575 215.88437 349.09064Q215.275 349.59064 214.32187 349.59064Q213.0875 349.59064 212.36874 348.7Q211.525 347.6375 211.525 345.21564ZM212.60312 345.21564Q212.60312 347.325 213.10312 348.02814Q213.60312 348.73126 214.32187 348.73126Q215.05624 348.73126 215.54062 348.02814Q216.04062 347.325 216.04062 345.21564Q216.04062 343.09064 215.54062 342.40314Q215.05624 341.7 214.30624 341.7Q213.5875 341.7 213.15 342.3094Q212.60312 343.09064 212.60312 345.21564Z" fill-rule="nonzero"/><path fill="#000000" d="M287.31042 349.45L286.26355 349.45L286.26355 342.73126Q285.87292 343.09064 285.24792 343.46564Q284.63855 343.825 284.15417 343.9969L284.15417 342.98126Q285.02917 342.5594 285.68542 341.98126Q286.3573 341.3875 286.63855 340.825L287.31042 340.825L287.31042 349.45ZM290.34167 345.21564Q290.34167 343.6844 290.65417 342.7625Q290.96667 341.825 291.57605 341.325Q292.20105 340.825 293.13855 340.825Q293.82605 340.825 294.34167 341.10626Q294.87292 341.3875 295.21667 341.91876Q295.56042 342.4344 295.74792 343.1844Q295.93542 343.9344 295.93542 345.21564Q295.93542 346.73126 295.62292 347.65314Q295.32605 348.575 294.70105 349.09064Q294.09167 349.59064 293.13855 349.59064Q291.90417 349.59064 291.18542 348.7Q290.34167 347.6375 290.34167 345.21564ZM291.4198 345.21564Q291.4198 347.325 291.9198 348.02814Q292.4198 348.73126 293.13855 348.73126Q293.87292 348.73126 294.3573 348.02814Q294.8573 347.325 294.8573 345.21564Q294.8573 343.09064 294.3573 342.40314Q293.87292 341.7 293.12292 341.7Q292.40417 341.7 291.96667 342.3094Q291.4198 343.09064 291.4198 345.21564ZM297.34167 345.21564Q297.34167 343.6844 297.65417 342.7625Q297.96667 341.825 298.57605 341.325Q299.20105 340.825 300.13855 340.825Q300.82605 340.825 301.34167 341.10626Q301.87292 341.3875 302.21667 341.91876Q302.56042 342.4344 302.74792 343.1844Q302.93542 343.9344 302.93542 345.21564Q302.93542 346.73126 302.62292 347.65314Q302.32605 348.575 301.70105 349.09064Q301.09167 349.59064 300.13855 349.59064Q298.90417 349.59064 298.18542 348.7Q297.34167 347.6375 297.34167 345.21564ZM298.4198 345.21564Q298.4198 347.325 298.9198 348.02814Q299.4198 348.73126 300.13855 348.73126Q300.87292 348.73126 301.3573 348.02814Q301.8573 347.325 301.8573 345.21564Q301.8573 343.09064 301.3573 342.40314Q300.87292 341.7 300.12292 341.7Q299.40417 341.7 298.96667 342.3094Q298.4198 343.09064 298.4198 345.21564Z" fill-rule="nonzero"/><path fill="#000000" d="M366.12708 349.45L365.0802 349.45L365.0802 342.73126Q364.68958 343.09064 364.06458 343.46564Q363.4552 343.825 362.97083 343.9969L362.97083 342.98126Q363.84583 342.5594 364.50208 341.98126Q365.17395 341.3875 365.4552 340.825L366.12708 340.825L366.12708 349.45ZM369.15833 345.21564Q369.15833 343.6844 369.47083 342.7625Q369.78333 341.825 370.3927 341.325Q371.0177 340.825 371.9552 340.825Q372.6427 340.825 373.15833 341.10626Q373.68958 341.3875 374.03333 341.91876Q374.37708 342.4344 374.56458 343.1844Q374.75208 343.9344 374.75208 345.21564Q374.75208 346.73126 374.43958 347.65314Q374.1427 348.575 373.5177 349.09064Q372.90833 349.59064 371.9552 349.59064Q370.72083 349.59064 370.00208 348.7Q369.15833 347.6375 369.15833 345.21564ZM370.23645 345.21564Q370.23645 347.325 370.73645 348.02814Q371.23645 348.73126 371.9552 348.73126Q372.68958 348.73126 373.17395 348.02814Q373.67395 347.325 373.67395 345.21564Q373.67395 343.09064 373.17395 342.40314Q372.68958 341.7 371.93958 341.7Q371.22083 341.7 370.78333 342.3094Q370.23645 343.09064 370.23645 345.21564ZM376.15833 345.21564Q376.15833 343.6844 376.47083 342.7625Q376.78333 341.825 377.3927 341.325Q378.0177 340.825 378.9552 340.825Q379.6427 340.825 380.15833 341.10626Q380.68958 341.3875 381.03333 341.91876Q381.37708 342.4344 381.56458 343.1844Q381.75208 343.9344 381.75208 345.21564Q381.75208 346.73126 381.43958 347.65314Q381.1427 348.575 380.5177 349.09064Q379.90833 349.59064 378.9552 349.59064Q377.72083 349.59064 377.00208 348.7Q376.15833 347.6375 376.15833 345.21564ZM377.23645 345.21564Q377.23645 347.325 377.73645 348.02814Q378.23645 348.73126 378.9552 348.73126Q379.68958 348.73126 380.17395 348.02814Q380.67395 347.325 380.67395 345.21564Q380.67395 343.09064 380.17395 342.40314Q379.68958 341.7 378.93958 341.7Q378.22083 341.7 377.78333 342.3094Q377.23645 343.09064 377.23645 345.21564ZM383.15833 345.21564Q383.15833 343.6844 383.47083 342.7625Q383.78333 341.825 384.3927 341.325Q385.0177 340.825 385.9552 340.825Q386.6427 340.825 387.15833 341.10626Q387.68958 341.3875 388.03333 341.91876Q388.37708 342.4344 388.56458 343.1844Q388.75208 343.9344 388.75208 345.21564Q388.75208 346.73126 388.43958 347.65314Q388.1427 348.575 387.5177 349.09064Q386.90833 349.59064 385.9552 349.59064Q384.72083 349.59064 384.00208 348.7Q383.15833 347.6375 383.15833 345.21564ZM384.23645 345.21564Q384.23645 347.325 384.73645 348.02814Q385.23645 348.73126 385.9552 348.73126Q386.68958 348.73126 387.17395 348.02814Q387.67395 347.325 387.67395 345.21564Q387.67395 343.09064 387.17395 342.40314Q386.68958 341.7 385.93958 341.7Q385.22083 341.7 384.78333 342.3094Q384.23645 343.09064 384.23645 345.21564Z" fill-rule="nonzero"/><path fill="#000000" d="M444.94376 349.45L443.89688 349.45L443.89688 342.73126Q443.50626 343.09064 442.88126 343.46564Q442.27188 343.825 441.7875 343.9969L441.7875 342.98126Q442.6625 342.5594 443.31876 341.98126Q443.99063 341.3875 444.27188 340.825L444.94376 340.825L444.94376 349.45ZM447.975 345.21564Q447.975 343.6844 448.2875 342.7625Q448.6 341.825 449.20938 341.325Q449.83438 340.825 450.77188 340.825Q451.45938 340.825 451.975 341.10626Q452.50626 341.3875 452.85 341.91876Q453.19376 342.4344 453.38126 343.1844Q453.56876 343.9344 453.56876 345.21564Q453.56876 346.73126 453.25626 347.65314Q452.95938 348.575 452.33438 349.09064Q451.725 349.59064 450.77188 349.59064Q449.5375 349.59064 448.81876 348.7Q447.975 347.6375 447.975 345.21564ZM449.05313 345.21564Q449.05313 347.325 449.55313 348.02814Q450.05313 348.73126 450.77188 348.73126Q451.50626 348.73126 451.99063 348.02814Q452.49063 347.325 452.49063 345.21564Q452.49063 343.09064 451.99063 342.40314Q451.50626 341.7 450.75626 341.7Q450.0375 341.7 449.6 342.3094Q449.05313 343.09064 449.05313 345.21564ZM454.975 345.21564Q454.975 343.6844 455.2875 342.7625Q455.6 341.825 456.20938 341.325Q456.83438 340.825 457.77188 340.825Q458.45938 340.825 458.975 341.10626Q459.50626 341.3875 459.85 341.91876Q460.19376 342.4344 460.38126 343.1844Q460.56876 343.9344 460.56876 345.21564Q460.56876 346.73126 460.25626 347.65314Q459.95938 348.575 459.33438 349.09064Q458.725 349.59064 457.77188 349.59064Q456.5375 349.59064 455.81876 348.7Q454.975 347.6375 454.975 345.21564ZM456.05313 345.21564Q456.05313 347.325 456.55313 348.02814Q457.05313 348.73126 457.77188 348.73126Q458.50626 348.73126 458.99063 348.02814Q459.49063 347.325 459.49063 345.21564Q459.49063 343.09064 458.99063 342.40314Q458.50626 341.7 457.75626 341.7Q457.0375 341.7 456.6 342.3094Q456.05313 343.09064 456.05313 345.21564ZM461.975 345.21564Q461.975 343.6844 462.2875 342.7625Q462.6 341.825 463.20938 341.325Q463.83438 340.825 464.77188 340.825Q465.45938 340.825 465.975 341.10626Q466.50626 341.3875 466.85 341.91876Q467.19376 342.4344 467.38126 343.1844Q467.56876 343.9344 467.56876 345.21564Q467.56876 346.73126 467.25626 347.65314Q466.95938 348.575 466.33438 349.09064Q465.725 349.59064 464.77188 349.59064Q463.5375 349.59064 462.81876 348.7Q461.975 347.6375 461.975 345.21564ZM463.05313 345.21564Q463.05313 347.325 463.55313 348.02814Q464.05313 348.73126 464.77188 348.73126Q465.50626 348.73126 465.99063 348.02814Q466.49063 347.325 466.49063 345.21564Q466.49063 343.09064 465.99063 342.40314Q465.50626 341.7 464.75626 341.7Q464.0375 341.7 463.6 342.3094Q463.05313 343.09064 463.05313 345.21564ZM468.975 345.21564Q468.975 343.6844 469.2875 342.7625Q469.6 341.825 470.20938 341.325Q470.83438 340.825 471.77188 340.825Q472.45938 340.825 472.975 341.10626Q473.50626 341.3875 473.85 341.91876Q474.19376 342.4344 474.38126 343.1844Q474.56876 343.9344 474.56876 345.21564Q474.56876 346.73126 474.25626 347.65314Q473.95938 348.575 473.33438 349.09064Q472.725 349.59064 471.77188 349.59064Q470.5375 349.59064 469.81876 348.7Q468.975 347.6375 468.975 345.21564ZM470.05313 345.21564Q470.05313 347.325 470.55313 348.02814Q471.05313 348.73126 471.77188 348.73126Q472.50626 348.73126 472.99063 348.02814Q473.49063 347.325 473.49063 345.21564Q473.49063 343.09064 472.99063 342.40314Q472.50626 341.7 471.75626 341.7Q471.0375 341.7 470.6 342.3094Q470.05313 343.09064 470.05313 345.21564Z" fill-rule="nonzero"/><path fill="#000000" d="M523.76044 349.45L522.71356 349.45L522.71356 342.73126Q522.32294 343.09064 521.69794 343.46564Q521.08856 343.825 520.6042 343.9969L520.6042 342.98126Q521.4792 342.5594 522.13544 341.98126Q522.8073 341.3875 523.08856 340.825L523.76044 340.825L523.76044 349.45ZM526.7917 345.21564Q526.7917 343.6844 527.1042 342.7625Q527.4167 341.825 528.02606 341.325Q528.65106 340.825 529.58856 340.825Q530.27606 340.825 530.7917 341.10626Q531.32294 341.3875 531.6667 341.91876Q532.01044 342.4344 532.19794 343.1844Q532.38544 343.9344 532.38544 345.21564Q532.38544 346.73126 532.07294 347.65314Q531.77606 348.575 531.15106 349.09064Q530.5417 349.59064 529.58856 349.59064Q528.3542 349.59064 527.63544 348.7Q526.7917 347.6375 526.7917 345.21564ZM527.8698 345.21564Q527.8698 347.325 528.3698 348.02814Q528.8698 348.73126 529.58856 348.73126Q530.32294 348.73126 530.8073 348.02814Q531.3073 347.325 531.3073 345.21564Q531.3073 343.09064 530.8073 342.40314Q530.32294 341.7 529.57294 341.7Q528.8542 341.7 528.4167 342.3094Q527.8698 343.09064 527.8698 345.21564ZM533.7917 345.21564Q533.7917 343.6844 534.1042 342.7625Q534.4167 341.825 535.02606 341.325Q535.65106 340.825 536.58856 340.825Q537.27606 340.825 537.7917 341.10626Q538.32294 341.3875 538.6667 341.91876Q539.01044 342.4344 539.19794 343.1844Q539.38544 343.9344 539.38544 345.21564Q539.38544 346.73126 539.07294 347.65314Q538.77606 348.575 538.15106 349.09064Q537.5417 349.59064 536.58856 349.59064Q535.3542 349.59064 534.63544 348.7Q533.7917 347.6375 533.7917 345.21564ZM534.8698 345.21564Q534.8698 347.325 535.3698 348.02814Q535.8698 348.73126 536.58856 348.73126Q537.32294 348.73126 537.8073 348.02814Q538.3073 347.325 538.3073 345.21564Q538.3073 343.09064 537.8073 342.40314Q537.32294 341.7 536.57294 341.7Q535.8542 341.7 535.4167 342.3094Q534.8698 343.09064 534.8698 345.21564ZM540.7917 345.21564Q540.7917 343.6844 541.1042 342.7625Q541.4167 341.825 542.02606 341.325Q542.65106 340.825 543.58856 340.825Q544.27606 340.825 544.7917 341.10626Q545.32294 341.3875 545.6667 341.91876Q546.01044 342.4344 546.19794 343.1844Q546.38544 343.9344 546.38544 345.21564Q546.38544 346.73126 546.07294 347.65314Q545.77606 348.575 545.15106 349.09064Q544.5417 349.59064 543.58856 349.59064Q542.3542 349.59064 541.63544 348.7Q540.7917 347.6375 540.7917 345.21564ZM541.8698 345.21564Q541.8698 347.325 542.3698 348.02814Q542.8698 348.73126 543.58856 348.73126Q544.32294 348.73126 544.8073 348.02814Q545.3073 347.325 545.3073 345.21564Q545.3073 343.09064 544.8073 342.40314Q544.32294 341.7 543.57294 341.7Q542.8542 341.7 542.4167 342.3094Q541.8698 343.09064 541.8698 345.21564ZM547.7917 345.21564Q547.7917 343.6844 548.1042 342.7625Q548.4167 341.825 549.02606 341.325Q549.65106 340.825 550.58856 340.825Q551.27606 340.825 551.7917 341.10626Q552.32294 341.3875 552.6667 341.91876Q553.01044 342.4344 553.19794 343.1844Q553.38544 343.9344 553.38544 345.21564Q553.38544 346.73126 553.07294 347.65314Q552.77606 348.575 552.15106 349.09064Q551.5417 349.59064 550.58856 349.59064Q549.3542 349.59064 548.63544 348.7Q547.7917 347.6375 547.7917 345.21564ZM548.8698 345.21564Q548.8698 347.325 549.3698 348.02814Q549.8698 348.73126 550.58856 348.73126Q551.32294 348.73126 551.8073 348.02814Q552.3073 347.325 552.3073 345.21564Q552.3073 343.09064 551.8073 342.40314Q551.32294 341.7 550.57294 341.7Q549.8542 341.7 549.4167 342.3094Q548.8698 343.09064 548.8698 345.21564ZM554.7917 345.21564Q554.7917 343.6844 555.1042 342.7625Q555.4167 341.825 556.02606 341.325Q556.65106 340.825 557.58856 340.825Q558.27606 340.825 558.7917 341.10626Q559.32294 341.3875 559.6667 341.91876Q560.01044 342.4344 560.19794 343.1844Q560.38544 343.9344 560.38544 345.21564Q560.38544 346.73126 560.07294 347.65314Q559.77606 348.575 559.15106 349.09064Q558.5417 349.59064 557.58856 349.59064Q556.3542 349.59064 555.63544 348.7Q554.7917 347.6375 554.7917 345.21564ZM555.8698 345.21564Q555.8698 347.325 556.3698 348.02814Q556.8698 348.73126 557.58856 348.73126Q558.32294 348.73126 558.8073 348.02814Q559.3073 347.325 559.3073 345.21564Q559.3073 343.09064 558.8073 342.40314Q558.32294 341.7 557.57294 341.7Q556.8542 341.7 556.4167 342.3094Q555.8698 343.09064 555.8698 345.21564Z" fill-rule="nonzero"/><path stroke="#34a853" stroke-width="4.0" stroke-linecap="butt" d="M175.5 61.916668L187.5 61.916668" fill-rule="nonzero"/><path fill="#1a1a1a" d="M196.04688 63.15104L197.10938 63.05729Q197.1875 63.71354 197.46875 64.11979Q197.75 64.52604 198.32812 64.791664Q198.92188 65.041664 199.65625 65.041664Q200.29688 65.041664 200.79688 64.854164Q201.29688 64.65104 201.53125 64.322914Q201.78125 63.979164 201.78125 63.58854Q201.78125 63.18229 201.54688 62.885414Q201.3125 62.572914 200.78125 62.36979Q200.42188 62.229164 199.23438 61.947914Q198.0625 61.666664 197.59375 61.416664Q196.96875 61.08854 196.67188 60.61979Q196.375 60.135414 196.375 59.541664Q196.375 58.90104 196.73438 58.33854Q197.10938 57.760414 197.8125 57.479164Q198.53125 57.18229 199.39062 57.18229Q200.34375 57.18229 201.07812 57.49479Q201.8125 57.791664 202.20312 58.40104Q202.59375 58.99479 202.625 59.74479L201.53125 59.822914Q201.4375 59.010414 200.92188 58.604164Q200.42188 58.18229 199.4375 58.18229Q198.40625 58.18229 197.9375 58.55729Q197.46875 58.93229 197.46875 59.46354Q197.46875 59.93229 197.79688 60.229164Q198.125 60.52604 199.5 60.83854Q200.89062 61.15104 201.40625 61.385414Q202.15625 61.74479 202.51562 62.27604Q202.875 62.791664 202.875 63.49479Q202.875 64.18229 202.48438 64.791664Q202.09375 65.385414 201.35938 65.729164Q200.625 66.05729 199.70312 66.05729Q198.53125 66.05729 197.73438 65.729164Q196.95312 65.385414 196.5 64.697914Q196.0625 64.010414 196.04688 63.15104ZM210.9375 64.99479Q211.73438 65.541664 212.39062 65.791664L212.0625 66.58854Q211.14062 66.24479 210.21875 65.52604Q209.26562 66.05729 208.10938 66.05729Q206.9375 66.05729 205.98438 65.49479Q205.04688 64.93229 204.53125 63.916664Q204.01562 62.90104 204.01562 61.61979Q204.01562 60.354164 204.53125 59.30729Q205.04688 58.260414 206.0 57.71354Q206.95312 57.166664 208.125 57.166664Q209.3125 57.166664 210.26562 57.74479Q211.23438 58.30729 211.73438 59.322914Q212.23438 60.33854 212.23438 61.61979Q212.23438 62.68229 211.90625 63.52604Q211.59375 64.36979 210.9375 64.99479ZM208.4375 63.541664Q209.42188 63.822914 210.0625 64.36979Q211.0625 63.447914 211.0625 61.61979Q211.0625 60.572914 210.70312 59.791664Q210.34375 59.010414 209.65625 58.58854Q208.98438 58.15104 208.14062 58.15104Q206.85938 58.15104 206.01562 59.02604Q205.1875 59.885414 205.1875 61.61979Q205.1875 63.291664 206.01562 64.197914Q206.84375 65.08854 208.14062 65.08854Q208.75 65.08854 209.28125 64.854164Q208.75 64.510414 208.15625 64.36979L208.4375 63.541664ZM213.375 65.916664L213.375 57.322914L214.51562 57.322914L214.51562 64.90104L218.75 64.90104L218.75 65.916664L213.375 65.916664ZM220.29688 58.541664L220.29688 57.322914L221.35938 57.322914L221.35938 58.541664L220.29688 58.541664ZM220.29688 65.916664L220.29688 59.697914L221.35938 59.697914L221.35938 65.916664L220.29688 65.916664ZM225.59375 64.979164L225.75 65.90104Q225.29688 65.99479 224.95312 65.99479Q224.375 65.99479 224.0625 65.822914Q223.75 65.635414 223.60938 65.33854Q223.48438 65.041664 223.48438 64.08854L223.48438 60.510414L222.71875 60.510414L222.71875 59.697914L223.48438 59.697914L223.48438 58.15104L224.53125 57.52604L224.53125 59.697914L225.59375 59.697914L225.59375 60.510414L224.53125 60.510414L224.53125 64.15104Q224.53125 64.604164 224.57812 64.729164Q224.64062 64.854164 224.76562 64.93229Q224.89062 65.010414 225.125 65.010414Q225.3125 65.010414 225.59375 64.979164ZM230.54688 63.916664L231.64062 64.041664Q231.39062 64.99479 230.6875 65.52604Q229.98438 66.05729 228.90625 66.05729Q227.54688 66.05729 226.73438 65.21354Q225.9375 64.36979 225.9375 62.854164Q225.9375 61.291664 226.75 60.43229Q227.5625 59.55729 228.84375 59.55729Q230.09375 59.55729 230.875 60.40104Q231.67188 61.24479 231.67188 62.791664Q231.67188 62.885414 231.67188 63.072914L227.03125 63.072914Q227.09375 64.104164 227.60938 64.65104Q228.125 65.18229 228.90625 65.18229Q229.48438 65.18229 229.89062 64.885414Q230.3125 64.572914 230.54688 63.916664ZM227.09375 62.21354L230.5625 62.21354Q230.5 61.416664 230.17188 61.02604Q229.65625 60.416664 228.85938 60.416664Q228.125 60.416664 227.625 60.90104Q227.14062 61.385414 227.09375 62.21354Z" fill-rule="nonzero"/><path stroke="#ff6d01" stroke-width="4.0" stroke-linecap="butt" d="M248.5 61.916668L260.5 61.916668" fill-rule="nonzero"/><path fill="#1a1a1a" d="M269.42188 65.916664L269.42188 57.322914L272.67188 57.322914Q273.51562 57.322914 273.96875 57.40104Q274.60938 57.510414 275.03125 57.80729Q275.46875 58.104164 275.71875 58.635414Q275.98438 59.166664 275.98438 59.80729Q275.98438 60.90104 275.28125 61.666664Q274.59375 62.416664 272.76562 62.416664L270.5625 62.416664L270.5625 65.916664L269.42188 65.916664ZM270.5625 61.416664L272.78125 61.416664Q273.89062 61.416664 274.34375 61.010414Q274.8125 60.58854 274.8125 59.83854Q274.8125 59.30729 274.53125 58.93229Q274.26562 58.541664 273.82812 58.416664Q273.53125 58.33854 272.76562 58.33854L270.5625 58.33854L270.5625 61.416664ZM281.35938 65.15104Q280.76562 65.65104 280.21875 65.854164Q279.6875 66.05729 279.0625 66.05729Q278.03125 66.05729 277.48438 65.55729Q276.9375 65.05729 276.9375 64.27604Q276.9375 63.822914 277.14062 63.447914Q277.34375 63.05729 277.6875 62.83854Q278.03125 62.604164 278.45312 62.49479Q278.75 62.40104 279.39062 62.322914Q280.65625 62.18229 281.26562 61.96354Q281.26562 61.74479 281.26562 61.697914Q281.26562 61.041664 280.96875 60.77604Q280.5625 60.43229 279.76562 60.43229Q279.03125 60.43229 278.67188 60.697914Q278.3125 60.947914 278.14062 61.604164L277.10938 61.46354Q277.25 60.80729 277.57812 60.40104Q277.90625 59.99479 278.51562 59.77604Q279.125 59.55729 279.92188 59.55729Q280.71875 59.55729 281.21875 59.74479Q281.71875 59.93229 281.95312 60.21354Q282.1875 60.49479 282.28125 60.93229Q282.32812 61.197914 282.32812 61.90104L282.32812 63.30729Q282.32812 64.77604 282.39062 65.166664Q282.46875 65.55729 282.67188 65.916664L281.5625 65.916664Q281.40625 65.58854 281.35938 65.15104ZM281.26562 62.791664Q280.6875 63.02604 279.54688 63.197914Q278.89062 63.291664 278.625 63.416664Q278.35938 63.52604 278.20312 63.74479Q278.0625 63.96354 278.0625 64.24479Q278.0625 64.666664 278.375 64.947914Q278.70312 65.229164 279.3125 65.229164Q279.92188 65.229164 280.39062 64.96354Q280.875 64.697914 281.09375 64.229164Q281.26562 63.86979 281.26562 63.18229L281.26562 62.791664ZM284.28125 65.916664L284.28125 59.697914L285.23438 59.697914L285.23438 60.635414Q285.59375 59.979164 285.89062 59.77604Q286.20312 59.55729 286.57812 59.55729Q287.10938 59.55729 287.65625 59.885414L287.29688 60.86979Q286.90625 60.635414 286.53125 60.635414Q286.17188 60.635414 285.89062 60.854164Q285.625 61.05729 285.51562 61.43229Q285.32812 61.99479 285.32812 62.65104L285.32812 65.916664L284.28125 65.916664ZM292.26562 68.30729L292.26562 65.260414Q292.01562 65.604164 291.5625 65.83854Q291.125 66.05729 290.625 66.05729Q289.51562 66.05729 288.71875 65.18229Q287.92188 64.291664 287.92188 62.74479Q287.92188 61.80729 288.25 61.072914Q288.57812 60.322914 289.1875 59.947914Q289.8125 59.55729 290.54688 59.55729Q291.70312 59.55729 292.35938 60.52604L292.35938 59.697914L293.3125 59.697914L293.3125 68.30729L292.26562 68.30729ZM289.0 62.791664Q289.0 63.99479 289.5 64.58854Q290.01562 65.18229 290.71875 65.18229Q291.39062 65.18229 291.875 64.61979Q292.35938 64.041664 292.35938 62.885414Q292.35938 61.635414 291.84375 61.010414Q291.34375 60.385414 290.64062 60.385414Q289.96875 60.385414 289.48438 60.979164Q289.0 61.55729 289.0 62.791664ZM299.375 65.916664L299.375 64.99479Q298.64062 66.05729 297.39062 66.05729Q296.84375 66.05729 296.35938 65.854164Q295.89062 65.635414 295.65625 65.322914Q295.42188 64.99479 295.32812 64.52604Q295.26562 64.229164 295.26562 63.541664L295.26562 59.697914L296.32812 59.697914L296.32812 63.15104Q296.32812 63.96354 296.39062 64.260414Q296.48438 64.666664 296.79688 64.916664Q297.125 65.15104 297.60938 65.15104Q298.07812 65.15104 298.48438 64.916664Q298.90625 64.666664 299.07812 64.24479Q299.26562 63.822914 299.26562 63.02604L299.26562 59.697914L300.3125 59.697914L300.3125 65.916664L299.375 65.916664ZM306.54688 63.916664L307.64062 64.041664Q307.39062 64.99479 306.6875 65.52604Q305.98438 66.05729 304.90625 66.05729Q303.54688 66.05729 302.73438 65.21354Q301.9375 64.36979 301.9375 62.854164Q301.9375 61.291664 302.75 60.43229Q303.5625 59.55729 304.84375 59.55729Q306.09375 59.55729 306.875 60.40104Q307.67188 61.24479 307.67188 62.791664Q307.67188 62.885414 307.67188 63.072914L303.03125 63.072914Q303.09375 64.104164 303.60938 64.65104Q304.125 65.18229 304.90625 65.18229Q305.48438 65.18229 305.89062 64.885414Q306.3125 64.572914 306.54688 63.916664ZM303.09375 62.21354L306.5625 62.21354Q306.5 61.416664 306.17188 61.02604Q305.65625 60.416664 304.85938 60.416664Q304.125 60.416664 303.625 60.90104Q303.14062 61.385414 303.09375 62.21354ZM311.59375 64.979164L311.75 65.90104Q311.29688 65.99479 310.95312 65.99479Q310.375 65.99479 310.0625 65.822914Q309.75 65.635414 309.60938 65.33854Q309.48438 65.041664 309.48438 64.08854L309.48438 60.510414L308.71875 60.510414L308.71875 59.697914L309.48438 59.697914L309.48438 58.15104L310.53125 57.52604L310.53125 59.697914L311.59375 59.697914L311.59375 60.510414L310.53125 60.510414L310.53125 64.15104Q310.53125 64.604164 310.57812 64.729164Q310.64062 64.854164 310.76562 64.93229Q310.89062 65.010414 311.125 65.010414Q311.3125 65.010414 311.59375 64.979164Z" fill-rule="nonzero"/><path stroke="#46bdc6" stroke-width="4.0" stroke-linecap="butt" d="M327.5 61.916668L339.5 61.916668" fill-rule="nonzero"/><path fill="#1a1a1a" d="M348.42188 65.916664L348.42188 57.322914L351.67188 57.322914Q352.51562 57.322914 352.96875 57.40104Q353.60938 57.510414 354.03125 57.80729Q354.46875 58.104164 354.71875 58.635414Q354.98438 59.166664 354.98438 59.80729Q354.98438 60.90104 354.28125 61.666664Q353.59375 62.416664 351.76562 62.416664L349.5625 62.416664L349.5625 65.916664L348.42188 65.916664ZM349.5625 61.416664L351.78125 61.416664Q352.89062 61.416664 353.34375 61.010414Q353.8125 60.58854 353.8125 59.83854Q353.8125 59.30729 353.53125 58.93229Q353.26562 58.541664 352.82812 58.416664Q352.53125 58.33854 351.76562 58.33854L349.5625 58.33854L349.5625 61.416664ZM360.35938 65.15104Q359.76562 65.65104 359.21875 65.854164Q358.6875 66.05729 358.0625 66.05729Q357.03125 66.05729 356.48438 65.55729Q355.9375 65.05729 355.9375 64.27604Q355.9375 63.822914 356.14062 63.447914Q356.34375 63.05729 356.6875 62.83854Q357.03125 62.604164 357.45312 62.49479Q357.75 62.40104 358.39062 62.322914Q359.65625 62.18229 360.26562 61.96354Q360.26562 61.74479 360.26562 61.697914Q360.26562 61.041664 359.96875 60.77604Q359.5625 60.43229 358.76562 60.43229Q358.03125 60.43229 357.67188 60.697914Q357.3125 60.947914 357.14062 61.604164L356.10938 61.46354Q356.25 60.80729 356.57812 60.40104Q356.90625 59.99479 357.51562 59.77604Q358.125 59.55729 358.92188 59.55729Q359.71875 59.55729 360.21875 59.74479Q360.71875 59.93229 360.95312 60.21354Q361.1875 60.49479 361.28125 60.93229Q361.32812 61.197914 361.32812 61.90104L361.32812 63.30729Q361.32812 64.77604 361.39062 65.166664Q361.46875 65.55729 361.67188 65.916664L360.5625 65.916664Q360.40625 65.58854 360.35938 65.15104ZM360.26562 62.791664Q359.6875 63.02604 358.54688 63.197914Q357.89062 63.291664 357.625 63.416664Q357.35938 63.52604 357.20312 63.74479Q357.0625 63.96354 357.0625 64.24479Q357.0625 64.666664 357.375 64.947914Q357.70312 65.229164 358.3125 65.229164Q358.92188 65.229164 359.39062 64.96354Q359.875 64.697914 360.09375 64.229164Q360.26562 63.86979 360.26562 63.18229L360.26562 62.791664ZM363.28125 65.916664L363.28125 59.697914L364.23438 59.697914L364.23438 60.635414Q364.59375 59.979164 364.89062 59.77604Q365.20312 59.55729 365.57812 59.55729Q366.10938 59.55729 366.65625 59.885414L366.29688 60.86979Q365.90625 60.635414 365.53125 60.635414Q365.17188 60.635414 364.89062 60.854164Q364.625 61.05729 364.51562 61.43229Q364.32812 61.99479 364.32812 62.65104L364.32812 65.916664L363.28125 65.916664ZM371.26562 68.30729L371.26562 65.260414Q371.01562 65.604164 370.5625 65.83854Q370.125 66.05729 369.625 66.05729Q368.51562 66.05729 367.71875 65.18229Q366.92188 64.291664 366.92188 62.74479Q366.92188 61.80729 367.25 61.072914Q367.57812 60.322914 368.1875 59.947914Q368.8125 59.55729 369.54688 59.55729Q370.70312 59.55729 371.35938 60.52604L371.35938 59.697914L372.3125 59.697914L372.3125 68.30729L371.26562 68.30729ZM368.0 62.791664Q368.0 63.99479 368.5 64.58854Q369.01562 65.18229 369.71875 65.18229Q370.39062 65.18229 370.875 64.61979Q371.35938 64.041664 371.35938 62.885414Q371.35938 61.635414 370.84375 61.010414Q370.34375 60.385414 369.64062 60.385414Q368.96875 60.385414 368.48438 60.979164Q368.0 61.55729 368.0 62.791664ZM378.375 65.916664L378.375 64.99479Q377.64062 66.05729 376.39062 66.05729Q375.84375 66.05729 375.35938 65.854164Q374.89062 65.635414 374.65625 65.322914Q374.42188 64.99479 374.32812 64.52604Q374.26562 64.229164 374.26562 63.541664L374.26562 59.697914L375.32812 59.697914L375.32812 63.15104Q375.32812 63.96354 375.39062 64.260414Q375.48438 64.666664 375.79688 64.916664Q376.125 65.15104 376.60938 65.15104Q377.07812 65.15104 377.48438 64.916664Q377.90625 64.666664 378.07812 64.24479Q378.26562 63.822914 378.26562 63.02604L378.26562 59.697914L379.3125 59.697914L379.3125 65.916664L378.375 65.916664ZM385.54688 63.916664L386.64062 64.041664Q386.39062 64.99479 385.6875 65.52604Q384.98438 66.05729 383.90625 66.05729Q382.54688 66.05729 381.73438 65.21354Q380.9375 64.36979 380.9375 62.854164Q380.9375 61.291664 381.75 60.43229Q382.5625 59.55729 383.84375 59.55729Q385.09375 59.55729 385.875 60.40104Q386.67188 61.24479 386.67188 62.791664Q386.67188 62.885414 386.67188 63.072914L382.03125 63.072914Q382.09375 64.104164 382.60938 64.65104Q383.125 65.18229 383.90625 65.18229Q384.48438 65.18229 384.89062 64.885414Q385.3125 64.572914 385.54688 63.916664ZM382.09375 62.21354L385.5625 62.21354Q385.5 61.416664 385.17188 61.02604Q384.65625 60.416664 383.85938 60.416664Q383.125 60.416664 382.625 60.90104Q382.14062 61.385414 382.09375 62.21354ZM390.59375 64.979164L390.75 65.90104Q390.29688 65.99479 389.95312 65.99479Q389.375 65.99479 389.0625 65.822914Q388.75 65.635414 388.60938 65.33854Q388.48438 65.041664 388.48438 64.08854L388.48438 60.510414L387.71875 60.510414L387.71875 59.697914L388.48438 59.697914L388.48438 58.15104L389.53125 57.52604L389.53125 59.697914L390.59375 59.697914L390.59375 60.510414L389.53125 60.510414L389.53125 64.15104Q389.53125 64.604164 389.57812 64.729164Q389.64062 64.854164 389.76562 64.93229Q389.89062 65.010414 390.125 65.010414Q390.3125 65.010414 390.59375 64.979164ZM391.39062 65.916664L391.39062 57.322914L393.10938 57.322914L395.14062 63.40104Q395.42188 64.260414 395.54688 64.68229Q395.6875 64.21354 396.0 63.30729L398.0625 57.322914L399.59375 57.322914L399.59375 65.916664L398.5 65.916664L398.5 58.729164L396.0 65.916664L394.96875 65.916664L392.48438 58.604164L392.48438 65.916664L391.39062 65.916664ZM404.54688 63.916664L405.64062 64.041664Q405.39062 64.99479 404.6875 65.52604Q403.98438 66.05729 402.90625 66.05729Q401.54688 66.05729 400.73438 65.21354Q399.9375 64.36979 399.9375 62.854164Q399.9375 61.291664 400.75 60.43229Q401.5625 59.55729 402.84375 59.55729Q404.09375 59.55729 404.875 60.40104Q405.67188 61.24479 405.67188 62.791664Q405.67188 62.885414 405.67188 63.072914L401.03125 63.072914Q401.09375 64.104164 401.60938 64.65104Q402.125 65.18229 402.90625 65.18229Q403.48438 65.18229 403.89062 64.885414Q404.3125 64.572914 404.54688 63.916664ZM401.09375 62.21354L404.5625 62.21354Q404.5 61.416664 404.17188 61.02604Q403.65625 60.416664 402.85938 60.416664Q402.125 60.416664 401.625 60.90104Q401.14062 61.385414 401.09375 62.21354ZM407.28125 65.916664L407.28125 59.697914L408.23438 59.697914L408.23438 60.635414Q408.59375 59.979164 408.89062 59.77604Q409.20312 59.55729 409.57812 59.55729Q410.10938 59.55729 410.65625 59.885414L410.29688 60.86979Q409.90625 60.635414 409.53125 60.635414Q409.17188 60.635414 408.89062 60.854164Q408.625 61.05729 408.51562 61.43229Q408.32812 61.99479 408.32812 62.65104L408.32812 65.916664L407.28125 65.916664ZM411.09375 66.43229L412.125 66.58854Q412.1875 67.05729 412.48438 67.27604Q412.875 67.572914 413.54688 67.572914Q414.28125 67.572914 414.67188 67.27604Q415.07812 66.979164 415.21875 66.46354Q415.3125 66.135414 415.29688 65.104164Q414.60938 65.916664 413.57812 65.916664Q412.29688 65.916664 411.59375 64.99479Q410.89062 64.05729 410.89062 62.77604Q410.89062 61.885414 411.20312 61.135414Q411.53125 60.36979 412.14062 59.96354Q412.75 59.55729 413.57812 59.55729Q414.6875 59.55729 415.40625 60.447914L415.40625 59.697914L416.375 59.697914L416.375 65.072914Q416.375 66.52604 416.07812 67.135414Q415.78125 67.74479 415.14062 68.08854Q414.5 68.447914 413.5625 68.447914Q412.45312 68.447914 411.76562 67.947914Q411.07812 67.447914 411.09375 66.43229ZM411.96875 62.697914Q411.96875 63.916664 412.45312 64.479164Q412.9375 65.041664 413.67188 65.041664Q414.40625 65.041664 414.89062 64.479164Q415.39062 63.916664 415.39062 62.729164Q415.39062 61.58854 414.875 61.010414Q414.375 60.43229 413.65625 60.43229Q412.95312 60.43229 412.45312 61.010414Q411.96875 61.572914 411.96875 62.697914ZM422.54688 63.916664L423.64062 64.041664Q423.39062 64.99479 422.6875 65.52604Q421.98438 66.05729 420.90625 66.05729Q419.54688 66.05729 418.73438 65.21354Q417.9375 64.36979 417.9375 62.854164Q417.9375 61.291664 418.75 60.43229Q419.5625 59.55729 420.84375 59.55729Q422.09375 59.55729 422.875 60.40104Q423.67188 61.24479 423.67188 62.791664Q423.67188 62.885414 423.67188 63.072914L419.03125 63.072914Q419.09375 64.104164 419.60938 64.65104Q420.125 65.18229 420.90625 65.18229Q421.48438 65.18229 421.89062 64.885414Q422.3125 64.572914 422.54688 63.916664ZM419.09375 62.21354L422.5625 62.21354Q422.5 61.416664 422.17188 61.02604Q421.65625 60.416664 420.85938 60.416664Q420.125 60.416664 419.625 60.90104Q419.14062 61.385414 419.09375 62.21354Z" fill-rule="nonzero"/><path fill="#757575" d="M20.190624 37.55L20.190624 23.2375L29.846874 23.2375L29.846874 24.925L22.08125 24.925L22.08125 29.3625L28.8 29.3625L28.8 31.05L22.08125 31.05L22.08125 37.55L20.190624 37.55ZM31.878124 25.253124L31.878124 23.2375L33.64375 23.2375L33.64375 25.253124L31.878124 25.253124ZM31.878124 37.55L31.878124 27.175L33.64375 27.175L33.64375 37.55L31.878124 37.55ZM35.83125 37.55L35.83125 23.2375L37.58125 23.2375L37.58125 37.55L35.83125 37.55ZM46.971874 34.20625L48.784374 34.440624Q48.3625 36.01875 47.190624 36.909374Q46.034374 37.784374 44.221874 37.784374Q41.95625 37.784374 40.6125 36.39375Q39.284374 34.9875 39.284374 32.45625Q39.284374 29.83125 40.628124 28.39375Q41.971874 26.940624 44.128124 26.940624Q46.20625 26.940624 47.51875 28.3625Q48.846874 29.76875 48.846874 32.346874Q48.846874 32.503124 48.83125 32.815624L41.096874 32.815624Q41.190624 34.51875 42.065624 35.425Q42.940624 36.33125 44.2375 36.33125Q45.20625 36.33125 45.878124 35.83125Q46.565624 35.315624 46.971874 34.20625ZM41.190624 31.3625L46.9875 31.3625Q46.878124 30.065624 46.33125 29.409374Q45.4875 28.39375 44.14375 28.39375Q42.940624 28.39375 42.1125 29.20625Q41.284374 30.003124 41.190624 31.3625ZM56.159374 34.45625L57.909374 34.175Q58.05 35.221874 58.721874 35.784374Q59.39375 36.33125 60.596874 36.33125Q61.8 36.33125 62.378124 35.846874Q62.971874 35.346874 62.971874 34.690624Q62.971874 34.096874 62.45625 33.753124Q62.096874 33.51875 60.659374 33.159374Q58.721874 32.659374 57.971874 32.315624Q57.2375 31.95625 56.846874 31.33125Q56.45625 30.690624 56.45625 29.925Q56.45625 29.2375 56.76875 28.64375Q57.096874 28.05 57.64375 27.659374Q58.05 27.3625 58.753124 27.159374Q59.471874 26.940624 60.284374 26.940624Q61.503124 26.940624 62.425 27.3Q63.346874 27.64375 63.784374 28.253124Q64.22188 28.846874 64.39375 29.846874L62.675 30.08125Q62.55 29.284374 61.9875 28.846874Q61.425 28.39375 60.409374 28.39375Q59.190624 28.39375 58.675 28.8Q58.159374 29.190624 58.159374 29.721874Q58.159374 30.065624 58.378124 30.346874Q58.58125 30.628124 59.05 30.815624Q59.315624 30.909374 60.596874 31.253124Q62.471874 31.753124 63.20625 32.08125Q63.940624 32.39375 64.3625 33.003124Q64.78438 33.596874 64.78438 34.503124Q64.78438 35.378124 64.26875 36.159374Q63.753124 36.940624 62.784374 37.3625Q61.815624 37.784374 60.596874 37.784374Q58.58125 37.784374 57.51875 36.940624Q56.45625 36.096874 56.159374 34.45625ZM66.87813 25.253124L66.87813 23.2375L68.64375 23.2375L68.64375 25.253124L66.87813 25.253124ZM66.87813 37.55L66.87813 27.175L68.64375 27.175L68.64375 37.55L66.87813 37.55ZM69.94063 37.55L69.94063 36.128124L76.55 28.55Q75.425 28.596874 74.56563 28.596874L70.33125 28.596874L70.33125 27.175L78.81563 27.175L78.81563 28.346874L73.19063 34.925L72.1125 36.128124Q73.28438 36.034374 74.33125 36.034374L79.12813 36.034374L79.12813 37.55L69.94063 37.55ZM86.97188 34.20625L88.78438 34.440624Q88.3625 36.01875 87.19063 36.909374Q86.03438 37.784374 84.22188 37.784374Q81.95625 37.784374 80.6125 36.39375Q79.28438 34.9875 79.28438 32.45625Q79.28438 29.83125 80.62813 28.39375Q81.97188 26.940624 84.12813 26.940624Q86.20625 26.940624 87.51875 28.3625Q88.84688 29.76875 88.84688 32.346874Q88.84688 32.503124 88.83125 32.815624L81.09688 32.815624Q81.19063 34.51875 82.06563 35.425Q82.94063 36.33125 84.2375 36.33125Q85.20625 36.33125 85.87813 35.83125Q86.56563 35.315624 86.97188 34.20625ZM81.19063 31.3625L86.9875 31.3625Q86.87813 30.065624 86.33125 29.409374Q85.4875 28.39375 84.14375 28.39375Q82.94063 28.39375 82.1125 29.20625Q81.28438 30.003124 81.19063 31.3625ZM100.22188 41.753124Q98.76875 39.925 97.76875 37.471874Q96.76875 35.003124 96.76875 32.3625Q96.76875 30.034374 97.51875 27.909374Q98.39375 25.440624 100.22188 22.9875L101.4875 22.9875Q100.3 25.01875 99.925 25.89375Q99.33125 27.2375 98.9875 28.70625Q98.56563 30.534374 98.56563 32.378124Q98.56563 37.065624 101.4875 41.753124L100.22188 41.753124ZM104.01875 37.55L104.01875 23.2375L109.39375 23.2375Q111.03438 23.2375 112.01875 23.675Q113.00313 24.096874 113.56563 25.003124Q114.12813 25.909374 114.12813 26.89375Q114.12813 27.815624 113.62813 28.628124Q113.14375 29.440624 112.12813 29.925Q113.425 30.315624 114.12813 31.2375Q114.83125 32.14375 114.83125 33.39375Q114.83125 34.409374 114.39375 35.26875Q113.97188 36.128124 113.34688 36.596874Q112.72188 37.065624 111.78438 37.315624Q110.84688 37.55 109.47188 37.55L104.01875 37.55ZM105.90938 29.253124L109.00313 29.253124Q110.26875 29.253124 110.81563 29.08125Q111.53438 28.8625 111.89375 28.378124Q112.26875 27.878124 112.26875 27.1125Q112.26875 26.409374 111.925 25.8625Q111.58125 25.315624 110.94063 25.128124Q110.31563 24.925 108.76875 24.925L105.90938 24.925L105.90938 29.253124ZM105.90938 35.8625L109.47188 35.8625Q110.39375 35.8625 110.76875 35.784374Q111.425 35.675 111.8625 35.409374Q112.3 35.128124 112.58125 34.6125Q112.8625 34.08125 112.8625 33.39375Q112.8625 32.596874 112.45625 32.003124Q112.05 31.409374 111.31563 31.175Q110.58125 30.940624 109.22188 30.940624L105.90938 30.940624L105.90938 35.8625ZM118.01875 41.753124L116.76875 41.753124Q119.675 37.065624 119.675 32.378124Q119.675 30.534374 119.26875 28.7375Q118.925 27.26875 118.33125 25.925Q117.95625 25.034374 116.76875 22.9875L118.01875 22.9875Q119.8625 25.440624 120.7375 27.909374Q121.4875 30.034374 121.4875 32.3625Q121.4875 35.003124 120.47188 37.471874Q119.47188 39.925 118.01875 41.753124Z" fill-rule="nonzero"/></svg>