<svg version="1.1" viewBox="0.0 0.0 600.0 371.0" fill="none" stroke="none" stroke-linecap="square" stroke-miterlimit="10" width="600" height="371" xmlns:xlink="http://www.w3.org/1999/xlink" xmlns="http://www.w3.org/2000/svg"><path fill="#ffffff" d="M0 0L600.0 0L600.0 371.0L0 371.0L0 0Z" fill-rule="nonzero"/><path stroke="#333333" stroke-width="1.0" stroke-linecap="butt" d="M87.5 332.5L464.5 332.5" fill-rule="nonzero"/><path stroke="#cccccc" stroke-width="1.0" stroke-linecap="butt" d="M87.5 264.5L464.5 264.5" fill-rule="nonzero"/><path stroke="#cccccc" stroke-width="1.0" stroke-linecap="butt" d="M87.5 197.5L464.5 197.5" fill-rule="nonzero"/><path stroke="#cccccc" stroke-width="1.0" stroke-linecap="butt" d="M87.5 129.5L464.5 129.5" fill-rule="nonzero"/><path stroke="#cccccc" stroke-width="1.0" stroke-linecap="butt" d="M87.5 61.5L464.5 61.5" fill-rule="nonzero"/><clipPath id="id_0"><path d="M87.55 61.916668L464.61444 61.916668L464.61444 332.45L87.55 332.45L87.55 61.916668Z" clip-rule="nonzero"/></clipPath><path stroke="#4285f4" stroke-width="2.0" stroke-linecap="butt" clip-path="url(#id_0)" d="M118.97204 332.45L181.81612 332.45L244.66019 332.45L307.50427 332.45L370.34833 332.45L433.1924 332.45" fill-rule="nonzero"/><path stroke="#ea4335" stroke-width="2.0" stroke-linecap="butt" clip-path="url(#id_0)" d="M118.97204 332.45L181.81612 332.42773L244.66019 332.22754L307.50427 330.2283L370.34833 310.2417L433.1924 110.36812" fill-rule="nonzero"/><path stroke="#fbbc04" stroke-width="2.0" stroke-linecap="butt" clip-path="url(#id_0)" d="M118.97204 332.44913L181.81612 332.42377L244.66019 332.19894L307.50427 329.94583L370.34833 307.3174" fill-rule="nonzero"/><path stroke="#34a853" stroke-width="2.0" stroke-linecap="butt" clip-path="url(#id_0)" d="M118.97204 332.4209L181.81612 332.40982L244.66019 332.30316L307.50427 331.23108L370.34833 320.17914L433.1924 206.4793" fill-rule="nonzero"/><path stroke="#ff6d01" stroke-width="2.0" stroke-linecap="butt" clip-path="url(#id_0)" d="M118.97204 332.4474L181.81612 332.44296L244.66019 332.41373L307.50427 332.1204L370.34833 329.18567L433.1924 299.83752" fill-rule="nonzero"/><path stroke="#46bdc6" stroke-width="2.0" stroke-linecap="butt" clip-path="url(#id_0)" d="M118.97204 332.4474L181.81612 332.44363L244.66019 332.41153L307.50427 332.11224L370.34833 329.11713L433.1924 299.16702" fill-rule="nonzero"/><path fill="#000000" fill-opacity="0.0" clip-path="url(#id_0)" d="M121.97204 332.45C121.97204 334.10684 120.62889 335.45 118.97204 335.45C117.315186 335.45 115.97204 334.10684 115.97204 332.45C115.97204 330.79315 117.315186 329.45 118.97204 329.45C120.62889 329.45 121.97204 330.79315 121.97204 332.45Z" fill-rule="nonzero"/><path fill="#000000" fill-opacity="0.0" clip-path="url(#id_0)" d="M184.81612 332.45C184.81612 334.10684 183.47296 335.45 181.81612 335.45C180.15926 335.45 178.81612 334.10684 178.81612 332.45C178.81612 330.79315 180.15926 329.45 181.81612 329.45C183.47296 329.45 184.81612 330.79315 184.81612 332.45Z" fill-rule="nonzero"/><path fill="#000000" fill-opacity="0.0" clip-path="url(#id_0)" d="M247.66019 332.45C247.66019 334.10684 246.31703 335.45 244.66019 335.45C243.00333 335.45 241.66019 334.10684 241.66019 332.45C241.66019 330.79315 243.00333 329.45 244.66019 329.45C246.31703 329.45 247.66019 330.79315 247.66019 332.45Z" fill-rule="nonzero"/><path fill="#000000" fill-opacity="0.0" clip-path="url(#id_0)" d="M310.50427 332.45C310.50427 334.10684 309.1611 335.45 307.50427 335.45C305.8474 335.45 304.50427 334.10684 304.50427 332.45C304.50427 330.79315 305.8474 329.45 307.50427 329.45C309.1611 329.45 310.50427 330.79315 310.50427 332.45Z" fill-rule="nonzero"/><path fill="#000000" fill-opacity="0.0" clip-path="url(#id_0)" d="M373.34833 332.45C373.34833 334.10684 372.0052 335.45 370.34833 335.45C368.69147 335.45 367.34833 334.10684 367.34833 332.45C367.34833 330.79315 368.69147 329.45 370.34833 329.45C372.0052 329.45 373.34833 330.79315 373.34833 332.45Z" fill-rule="nonzero"/><path fill="#000000" fill-opacity="0.0" clip-path="url(#id_0)" d="M436.1924 332.45C436.1924 334.10684 434.84927 335.45 433.1924 335.45C431.53555 335.45 430.1924 334.10684 430.1924 332.45C430.1924 330.79315 431.53555 329.45 433.1924 329.45C434.84927 329.45 436.1924 330.79315 436.1924 332.45Z" fill-rule="nonzero"/><path fill="#000000" fill-opacity="0.0" clip-path="url(#id_0)" d="M121.97204 332.45C121.97204 334.10684 120.62889 335.45 118.97204 335.45C117.315186 335.45 115.97204 334.10684 115.97204 332.45C115.97204 330.79315 117.315186 329.45 118.97204 329.45C120.62889 329.45 121.97204 330.79315 121.97204 332.45Z" fill-rule="nonzero"/><path fill="#000000" fill-opacity="0.0" clip-path="url(#id_0)" d="M184.81612 332.42773C184.81612 334.0846 183.47296 335.42773 181.81612 335.42773C180.15926 335.42773 178.81612 334.0846 178.81612 332.42773C178.81612 330.77087 180.15926 329.42773 181.81612 329.42773C183.47296 329.42773 184.81612 330.77087 184.81612 332.42773Z" fill-rule="nonzero"/><path fill="#000000" fill-opacity="0.0" clip-path="url(#id_0)" d="M247.66019 332.22754C247.66019 333.8844 246.31703 335.22754 244.66019 335.22754C243.00333 335.22754 241.66019 333.8844 241.66019 332.22754C241.66019 330.57068 243.00333 329.22754 244.66019 329.22754C246.31703 329.22754 247.66019 330.57068 247.66019 332.22754Z" fill-rule="nonzero"/><path fill="#000000" fill-opacity="0.0" clip-path="url(#id_0)" d="M310.50427 330.2283C310.50427 331.88513 309.1611 333.2283 307.50427 333.2283C305.8474 333.2283 304.50427 331.88513 304.50427 330.2283C304.50427 328.57144 305.8474 327.2283 307.50427 327.2283C309.1611 327.2283 310.50427 328.57144 310.50427 330.2283Z" fill-rule="nonzero"/><path fill="#000000" fill-opacity="0.0" clip-path="url(#id_0)" d="M373.34833 310.2417C373.34833 311.89856 372.0052 313.2417 370.34833 313.2417C368.69147 313.2417 367.34833 311.89856 367.34833 310.2417C367.34833 308.58484 368.69147 307.2417 370.34833 307.2417C372.0052 307.2417 373.34833 308.58484 373.34833 310.2417Z" fill-rule="nonzero"/><path fill="#000000" fill-opacity="0.0" clip-path="url(#id_0)" d="M436.1924 110.36812C436.1924 112.02497 434.84927 113.36812 433.1924 113.36812C431.53555 113.36812 430.1924 112.02497 430.1924 110.36812C430.1924 108.711266 431.53555 107.36812 433.1924 107.36812C434.84927 107.36812 436.1924 108.711266 436.1924 110.36812Z" fill-rule="nonzero"/><path fill="#000000" fill-opacity="0.0" clip-path="url(#id_0)" d="M121.97204 332.44913C121.97204 334.106 120.62889 335.44913 118.97204 335.44913C117.315186 335.44913 115.97204 334.106 115.97204 332.44913C115.97204 330.79227 117.315186 329.44913 118.97204 329.44913C120.62889 329.44913 121.97204 330.79227 121.97204 332.44913Z" fill-rule="nonzero"/><path fill="#000000" fill-opacity="0.0" clip-path="url(#id_0)" d="M184.81612 332.42377C184.81612 334.08063 183.47296 335.42377 181.81612 335.42377C180.15926 335.42377 178.81612 334.08063 178.81612 332.42377C178.81612 330.76694 180.15926 329.42377 181.81612 329.42377C183.47296 329.42377 184.81612 330.76694 184.81612 332.42377Z" fill-rule="nonzero"/><path fill="#000000" fill-opacity="0.0" clip-path="url(#id_0)" d="M247.66019 332.19894C247.66019 333.85577 246.31703 335.19894 244.66019 335.19894C243.00333 335.19894 241.66019 333.85577 241.66019 332.19894C241.66019 330.54208 243.00333 329.19894 244.66019 329.19894C246.31703 329.19894 247.66019 330.54208 247.66019 332.19894Z" fill-rule="nonzero"/><path fill="#000000" fill-opacity="0.0" clip-path="url(#id_0)" d="M310.50427 329.94583C310.50427 331.6027 309.1611 332.94583 307.50427 332.94583C305.8474 332.94583 304.50427 331.6027 304.50427 329.94583C304.50427 328.28897 305.8474 326.94583 307.50427 326.94583C309.1611 326.94583 310.50427 328.28897 310.50427 329.94583Z" fill-rule="nonzero"/><path fill="#000000" fill-opacity="0.0" clip-path="url(#id_0)" d="M373.34833 307.3174C373.34833 308.97427 372.0052 310.3174 370.34833 310.3174C368.69147 310.3174 367.34833 308.97427 367.34833 307.3174C367.34833 305.66058 368.69147 304.3174 370.34833 304.3174C372.0052 304.3174 373.34833 305.66058 373.34833 307.3174Z" fill-rule="nonzero"/><path fill="#000000" fill-opacity="0.0" clip-path="url(#id_0)" d="M121.97204 332.4209C121.97204 334.07776 120.62889 335.4209 118.97204 335.4209C117.315186 335.4209 115.97204 334.07776 115.97204 332.4209C115.97204 330.76407 117.315186 329.4209 118.97204 329.4209C120.62889 329.4209 121.97204 330.76407 121.97204 332.4209Z" fill-rule="nonzero"/><path fill="#000000" fill-opacity="0.0" clip-path="url(#id_0)" d="M184.81612 332.40982C184.81612 334.06668 183.47296 335.40982 181.81612 335.40982C180.15926 335.40982 178.81612 334.06668 178.81612 332.40982C178.81612 330.753 180.15926 329.40982 181.81612 329.40982C183.47296 329.40982 184.81612 330.753 184.81612 332.40982Z" fill-rule="nonzero"/><path fill="#000000" fill-opacity="0.0" clip-path="url(#id_0)" d="M247.66019 332.30316C247.66019 333.96002 246.31703 335.30316 244.66019 335.30316C243.00333 335.30316 241.66019 333.96002 241.66019 332.30316C241.66019 330.64633 243.00333 329.30316 244.66019 329.30316C246.31703 329.30316 247.66019 330.64633 247.66019 332.30316Z" fill-rule="nonzero"/><path fill="#000000" fill-opacity="0.0" clip-path="url(#id_0)" d="M310.50427 331.23108C310.50427 332.88794 309.1611 334.23108 307.50427 334.23108C305.8474 334.23108 304.50427 332.88794 304.50427 331.23108C304.50427 329.57422 305.8474 328.23108 307.50427 328.23108C309.1611 328.23108 310.50427 329.57422 310.50427 331.23108Z" fill-rule="nonzero"/><path fill="#000000" fill-opacity="0.0" clip-path="url(#id_0)" d="M373.34833 320.17914C373.34833 321.83597 372.0052 323.17914 370.34833 323.17914C368.69147 323.17914 367.34833 321.83597 367.34833 320.17914C367.34833 318.52228 368.69147 317.17914 370.34833 317.17914C372.0052 317.17914 373.34833 318.52228 373.34833 320.17914Z" fill-rule="nonzero"/><path fill="#000000" fill-opacity="0.0" clip-path="url(#id_0)" d="M436.1924 206.4793C436.1924 208.13614 434.84927 209.4793 433.1924 209.4793C431.53555 209.4793 430.1924 208.13614 430.1924 206.4793C430.1924 204.82243 431.53555 203.4793 433.1924 203.4793C434.84927 203.4793 436.1924 204.82243 436.1924 206.4793Z" fill-rule="nonzero"/><path fill="#000000" fill-opacity="0.0" clip-path="url(#id_0)" d="M121.97204 332.4474C121.97204 334.10425 120.62889 335.4474 118.97204 335.4474C117.315186 335.4474 115.97204 334.10425 115.97204 332.4474C115.97204 330.79056 117.315186 329.4474 118.97204 329.4474C120.62889 329.4474 121.97204 330.79056 121.97204 332.4474Z" fill-rule="nonzero"/><path fill="#000000" fill-opacity="0.0" clip-path="url(#id_0)" d="M184.81612 332.44296C184.81612 334.0998 183.47296 335.44296 181.81612 335.44296C180.15926 335.44296 178.81612 334.0998 178.81612 332.44296C178.81612 330.7861 180.15926 329.44296 181.81612 329.44296C183.47296 329.44296 184.81612 330.7861 184.81612 332.44296Z" fill-rule="nonzero"/><path fill="#000000" fill-opacity="0.0" clip-path="url(#id_0)" d="M247.66019 332.41373C247.66019 334.0706 246.31703 335.41373 244.66019 335.41373C243.00333 335.41373 241.66019 334.0706 241.66019 332.41373C241.66019 330.7569 243.00333 329.41373 244.66019 329.41373C246.31703 329.41373 247.66019 330.7569 247.66019 332.41373Z" fill-rule="nonzero"/><path fill="#000000" fill-opacity="0.0" clip-path="url(#id_0)" d="M310.50427 332.1204C310.50427 333.77725 309.1611 335.1204 307.50427 335.1204C305.8474 335.1204 304.50427 333.77725 304.50427 332.1204C304.50427 330.46356 305.8474 329.1204 307.50427 329.1204C309.1611 329.1204 310.50427 330.46356 310.50427 332.1204Z" fill-rule="nonzero"/><path fill="#000000" fill-opacity="0.0" clip-path="url(#id_0)" d="M373.34833 329.18567C373.34833 330.8425 372.0052 332.18567 370.34833 332.18567C368.69147 332.18567 367.34833 330.8425 367.34833 329.18567C367.34833 327.5288 368.69147 326.18567 370.34833 326.18567C372.0052 326.18567 373.34833 327.5288 373.34833 329.18567Z" fill-rule="nonzero"/><path fill="#000000" fill-opacity="0.0" clip-path="url(#id_0)" d="M436.1924 299.83752C436.1924 301.4944 434.84927 302.83752 433.1924 302.83752C431.53555 302.83752 430.1924 301.4944 430.1924 299.83752C430.1924 298.18066 431.53555 296.83752 433.1924 296.83752C434.84927 296.83752 436.1924 298.18066 436.1924 299.83752Z" fill-rule="nonzero"/><path fill="#000000" fill-opacity="0.0" clip-path="url(#id_0)" d="M121.97204 332.4474C121.97204 334.10425 120.62889 335.4474 118.97204 335.4474C117.315186 335.4474 115.97204 334.10425 115.97204 332.4474C115.97204 330.79056 117.315186 329.4474 118.97204 329.4474C120.62889 329.4474 121.97204 330.79056 121.97204 332.4474Z" fill-rule="nonzero"/><path fill="#000000" fill-opacity="0.0" clip-path="url(#id_0)" d="M184.81612 332.44363C184.81612 334.1005 183.47296 335.44363 181.81612 335.44363C180.15926 335.44363 178.81612 334.1005 178.81612 332.44363C178.81612 330.78677 180.15926 329.44363 181.81612 329.44363C183.47296 329.44363 184.81612 330.78677 184.81612 332.44363Z" fill-rule="nonzero"/><path fill="#000000" fill-opacity="0.0" clip-path="url(#id_0)" d="M247.66019 332.41153C247.66019 334.0684 246.31703 335.41153 244.66019 335.41153C243.00333 335.41153 241.66019 334.0684 241.66019 332.41153C241.66019 330.7547 243.00333 329.41153 244.66019 329.41153C246.31703 329.41153 247.66019 330.7547 247.66019 332.41153Z" fill-rule="nonzero"/><path fill="#000000" fill-opacity="0.0" clip-path="url(#id_0)" d="M310.50427 332.11224C310.50427 333.7691 309.1611 335.11224 307.50427 335.11224C305.8474 335.11224 304.50427 333.7691 304.50427 332.11224C304.50427 330.45538 305.8474 329.11224 307.50427 329.11224C309.1611 329.11224 310.50427 330.45538 310.50427 332.11224Z" fill-rule="nonzero"/><path fill="#000000" fill-opacity="0.0" clip-path="url(#id_0)" d="M373.34833 329.11713C373.34833 330.774 372.0052 332.11713 370.34833 332.11713C368.69147 332.11713 367.34833 330.774 367.34833 329.11713C367.34833 327.4603 368.69147 326.11713 370.34833 326.11713C372.0052 326.11713 373.34833 327.4603 373.34833 329.11713Z" fill-rule="nonzero"/><path fill="#000000" fill-opacity="0.0" clip-path="url(#id_0)" d="M436.1924 299.16702C436.1924 300.82388 434.84927 302.16702 433.1924 302.16702C431.53555 302.16702 430.1924 300.82388 430.1924 299.16702C430.1924 297.51016 431.53555 296.16702 433.1924 296.16702C434.84927 296.16702 436.1924 297.51016 436.1924 299.16702Z" fill-rule="nonzero"/><path fill="#000000" d="M75.05 332.21564Q75.05 330.6844 75.3625 329.7625Q75.675 328.825 76.28438 328.325Q76.90938 327.825 77.84688 327.825Q78.53438 327.825 79.05 328.10626Q79.58125 328.3875 79.925 328.91876Q80.26875 329.4344 80.45625 330.1844Q80.64375 330.9344 80.64375 332.21564Q80.64375 333.73126 80.33125 334.65314Q80.03438 335.575 79.40938 336.09064Q78.8 336.59064 77.84688 336.59064Q76.6125 336.59064 75.89375 335.7Q75.05 334.6375 75.05 332.21564ZM76.12813 332.21564Q76.12813 334.325 76.62813 335.02814Q77.12813 335.73126 77.84688 335.73126Q78.58125 335.73126 79.06563 335.02814Q79.56563 334.325 79.56563 332.21564Q79.56563 330.09064 79.06563 329.40314Q78.58125 328.7 77.83125 328.7Q77.1125 328.7 76.675 329.3094Q76.12813 330.09064 76.12813 332.21564Z" fill-rule="nonzero"/><path fill="#000000" d="M24.596874 267.80106L24.596874 268.81668L18.909374 268.81668Q18.909374 268.44168 19.034374 268.0823Q19.253124 267.50418 19.721874 266.94168Q20.20625 266.37918 21.1125 265.6448Q22.51875 264.48856 23.003124 263.81668Q23.503124 263.1448 23.503124 262.55106Q23.503124 261.92606 23.05 261.50418Q22.596874 261.06668 21.878124 261.06668Q21.1125 261.06668 20.659374 261.5198Q20.20625 261.97293 20.190624 262.78543L19.1125 262.67606Q19.221874 261.4573 19.940624 260.8323Q20.675 260.19168 21.909374 260.19168Q23.14375 260.19168 23.8625 260.87918Q24.58125 261.56668 24.58125 262.5823Q24.58125 263.09793 24.3625 263.59793Q24.159374 264.0823 23.659374 264.6448Q23.175 265.19168 22.05 266.1448Q21.096874 266.94168 20.815624 267.23856Q20.55 267.5198 20.378124 267.80106L24.596874 267.80106ZM26.05 264.5823Q26.05 263.05106 26.3625 262.12918Q26.675 261.19168 27.284374 260.69168Q27.909374 260.19168 28.846874 260.19168Q29.534374 260.19168 30.05 260.47293Q30.58125 260.75418 30.925 261.28543Q31.26875 261.80106 31.45625 262.55106Q31.64375 263.30106 31.64375 264.5823Q31.64375 266.09793 31.33125 267.0198Q31.034374 267.94168 30.409374 268.4573Q29.8 268.9573 28.846874 268.9573Q27.6125 268.9573 26.89375 268.06668Q26.05 267.00418 26.05 264.5823ZM27.128124 264.5823Q27.128124 266.69168 27.628124 267.3948Q28.128124 268.09793 28.846874 268.09793Q29.58125 268.09793 30.065624 267.3948Q30.565624 266.69168 30.565624 264.5823Q30.565624 262.4573 30.065624 261.7698Q29.58125 261.06668 28.83125 261.06668Q28.1125 261.06668 27.675 261.67606Q27.128124 262.4573 27.128124 264.5823ZM33.05 264.5823Q33.05 263.05106 33.3625 262.12918Q33.675 261.19168 34.284374 260.69168Q34.909374 260.19168 35.846874 260.19168Q36.534374 260.19168 37.05 260.47293Q37.58125 260.75418 37.925 261.28543Q38.26875 261.80106 38.45625 262.55106Q38.64375 263.30106 38.64375 264.5823Q38.64375 266.09793 38.33125 267.0198Q38.034374 267.94168 37.409374 268.4573Q36.8 268.9573 35.846874 268.9573Q34.6125 268.9573 33.89375 268.06668Q33.05 267.00418 33.05 264.5823ZM34.128124 264.5823Q34.128124 266.69168 34.628124 267.3948Q35.128124 268.09793 35.846874 268.09793Q36.58125 268.09793 37.065624 267.3948Q37.565624 266.69168 37.565624 264.5823Q37.565624 262.4573 37.065624 261.7698Q36.58125 261.06668 35.83125 261.06668Q35.1125 261.06668 34.675 261.67606Q34.128124 262.4573 34.128124 264.5823ZM40.05 264.5823Q40.05 263.05106 40.3625 262.12918Q40.675 261.19168 41.284374 260.69168Q41.909374 260.19168 42.846874 260.19168Q43.534374 260.19168 44.05 260.47293Q44.58125 260.75418 44.925 261.28543Q45.26875 261.80106 45.45625 262.55106Q45.64375 263.30106 45.64375 264.5823Q45.64375 266.09793 45.33125 267.0198Q45.034374 267.94168 44.409374 268.4573Q43.8 268.9573 42.846874 268.9573Q41.6125 268.9573 40.89375 268.06668Q40.05 267.00418 40.05 264.5823ZM41.128124 264.5823Q41.128124 266.69168 41.628124 267.3948Q42.128124 268.09793 42.846874 268.09793Q43.58125 268.09793 44.065624 267.3948Q44.565624 266.69168 44.565624 264.5823Q44.565624 262.4573 44.065624 261.7698Q43.58125 261.06668 42.83125 261.06668Q42.1125 261.06668 41.675 261.67606Q41.128124 262.4573 41.128124 264.5823ZM47.05 264.5823Q47.05 263.05106 47.3625 262.12918Q47.675 261.19168 48.284374 260.69168Q48.909374 260.19168 49.846874 260.19168Q50.534374 260.19168 51.05 260.47293Q51.58125 260.75418 51.925 261.28543Q52.26875 261.80106 52.45625 262.55106Q52.64375 263.30106 52.64375 264.5823Q52.64375 266.09793 52.33125 267.0198Q52.034374 267.94168 51.409374 268.4573Q50.8 268.9573 49.846874 268.9573Q48.6125 268.9573 47.89375 268.06668Q47.05 267.00418 47.05 264.5823ZM48.128124 264.5823Q48.128124 266.69168 48.628124 267.3948Q49.128124 268.09793 49.846874 268.09793Q50.58125 268.09793 51.065624 267.3948Q51.565624 266.69168 51.565624 264.5823Q51.565624 262.4573 51.065624 261.7698Q50.58125 261.06668 49.83125 261.06668Q49.1125 261.06668 48.675 261.67606Q48.128124 262.4573 48.128124 264.5823ZM54.05 264.5823Q54.05 263.05106 54.3625 262.12918Q54.675 261.19168 55.284374 260.69168Q55.909374 260.19168 56.846874 260.19168Q57.534374 260.19168 58.05 260.47293Q58.58125 260.75418 58.925 261.28543Q59.26875 261.80106 59.45625 262.55106Q59.64375 263.30106 59.64375 264.5823Q59.64375 266.09793 59.33125 267.0198Q59.034374 267.94168 58.409374 268.4573Q57.8 268.9573 56.846874 268.9573Q55.6125 268.9573 54.89375 268.06668Q54.05 267.00418 54.05 264.5823ZM55.128124 264.5823Q55.128124 266.69168 55.628124 267.3948Q56.128124 268.09793 56.846874 268.09793Q57.58125 268.09793 58.065624 267.3948Q58.565624 266.69168 58.565624 264.5823Q58.565624 262.4573 58.065624 261.7698Q57.58125 261.06668 56.83125 261.06668Q56.1125 261.06668 55.675 261.67606Q55.128124 262.4573 55.128124 264.5823ZM61.05 264.5823Q61.05 263.05106 61.3625 262.12918Q61.675 261.19168 62.284374 260.69168Q62.909374 260.19168 63.846874 260.19168Q64.53438 260.19168 65.05 260.47293Q65.58125 260.75418 65.925 261.28543Q66.26875 261.80106 66.45625 262.55106Q66.64375 263.30106 66.64375 264.5823Q66.64375 266.09793 66.33125 267.0198Q66.03438 267.94168 65.40938 268.4573Q64.8 268.9573 63.846874 268.9573Q62.6125 268.9573 61.89375 268.06668Q61.05 267.00418 61.05 264.5823ZM62.128124 264.5823Q62.128124 266.69168 62.628124 267.3948Q63.128124 268.09793 63.846874 268.09793Q64.58125 268.09793 65.06563 267.3948Q65.56563 266.69168 65.56563 264.5823Q65.56563 262.4573 65.06563 261.7698Q64.58125 261.06668 63.83125 261.06668Q63.1125 261.06668 62.675 261.67606Q62.128124 262.4573 62.128124 264.5823ZM68.05 264.5823Q68.05 263.05106 68.3625 262.12918Q68.675 261.19168 69.28438 260.69168Q69.90938 260.19168 70.84688 260.19168Q71.53438 260.19168 72.05 260.47293Q72.58125 260.75418 72.925 261.28543Q73.26875 261.80106 73.45625 262.55106Q73.64375 263.30106 73.64375 264.5823Q73.64375 266.09793 73.33125 267.0198Q73.03438 267.94168 72.40938 268.4573Q71.8 268.9573 70.84688 268.9573Q69.6125 268.9573 68.89375 268.06668Q68.05 267.00418 68.05 264.5823ZM69.12813 264.5823Q69.12813 266.69168 69.62813 267.3948Q70.12813 268.09793 70.84688 268.09793Q71.58125 268.09793 72.06563 267.3948Q72.56563 266.69168 72.56563 264.5823Q72.56563 262.4573 72.06563 261.7698Q71.58125 261.06668 70.83125 261.06668Q70.1125 261.06668 69.675 261.67606Q69.12813 262.4573 69.12813 264.5823ZM75.05 264.5823Q75.05 263.05106 75.3625 262.12918Q75.675 261.19168 76.28438 260.69168Q76.90938 260.19168 77.84688 260.19168Q78.53438 260.19168 79.05 260.47293Q79.58125 260.75418 79.925 261.28543Q80.26875 261.80106 80.45625 262.55106Q80.64375 263.30106 80.64375 264.5823Q80.64375 266.09793 80.33125 267.0198Q80.03438 267.94168 79.40938 268.4573Q78.8 268.9573 77.84688 268.9573Q76.6125 268.9573 75.89375 268.06668Q75.05 267.00418 75.05 264.5823ZM76.12813 264.5823Q76.12813 266.69168 76.62813 267.3948Q77.12813 268.09793 77.84688 268.09793Q78.58125 268.09793 79.06563 267.3948Q79.56563 266.69168 79.56563 264.5823Q79.56563 262.4573 79.06563 261.7698Q78.58125 261.06668 77.83125 261.06668Q77.1125 261.06668 76.675 261.67606Q76.12813 262.4573 76.12813 264.5823Z" fill-rule="nonzero"/><path fill="#000000" d="M22.425 201.18333L22.425 199.12083L18.70625 199.12083L18.70625 198.15208L22.628124 192.58958L23.4875 192.58958L23.4875 198.15208L24.64375 198.15208L24.64375 199.12083L23.4875 199.12083L23.4875 201.18333L22.425 201.18333ZM22.425 198.15208L22.425 194.29271L19.7375 198.15208L22.425 198.15208ZM26.05 196.94896Q26.05 195.41771 26.3625 194.49583Q26.675 193.55833 27.284374 193.05833Q27.909374 192.55833 28.846874 192.55833Q29.534374 192.55833 30.05 192.83958Q30.58125 193.12083 30.925 193.65208Q31.26875 194.16771 31.45625 194.91771Q31.64375 195.66771 31.64375 196.94896Q31.64375 198.46458 31.33125 199.38646Q31.034374 200.30833 30.409374 200.82396Q29.8 201.32396 28.846874 201.32396Q27.6125 201.32396 26.89375 200.43333Q26.05 199.37083 26.05 196.94896ZM27.128124 196.94896Q27.128124 199.05833 27.628124 199.76146Q28.128124 200.46458 28.846874 200.46458Q29.58125 200.46458 30.065624 199.76146Q30.565624 199.05833 30.565624 196.94896Q30.565624 194.82396 30.065624 194.13646Q29.58125 193.43333 28.83125 193.43333Q28.1125 193.43333 27.675 194.04271Q27.128124 194.82396 27.128124 196.94896ZM33.05 196.94896Q33.05 195.41771 33.3625 194.49583Q33.675 193.55833 34.284374 193.05833Q34.909374 192.55833 35.846874 192.55833Q36.534374 192.55833 37.05 192.83958Q37.58125 193.12083 37.925 193.65208Q38.26875 194.16771 38.45625 194.91771Q38.64375 195.66771 38.64375 196.94896Q38.64375 198.46458 38.33125 199.38646Q38.034374 200.30833 37.409374 200.82396Q36.8 201.32396 35.846874 201.32396Q34.6125 201.32396 33.89375 200.43333Q33.05 199.37083 33.05 196.94896ZM34.128124 196.94896Q34.128124 199.05833 34.628124 199.76146Q35.128124 200.46458 35.846874 200.46458Q36.58125 200.46458 37.065624 199.76146Q37.565624 199.05833 37.565624 196.94896Q37.565624 194.82396 37.065624 194.13646Q36.58125 193.43333 35.83125 193.43333Q35.1125 193.43333 34.675 194.04271Q34.128124 194.82396 34.128124 196.94896ZM40.05 196.94896Q40.05 195.41771 40.3625 194.49583Q40.675 193.55833 41.284374 193.05833Q41.909374 192.55833 42.846874 192.55833Q43.534374 192.55833 44.05 192.83958Q44.58125 193.12083 44.925 193.65208Q45.26875 194.16771 45.45625 194.91771Q45.64375 195.66771 45.64375 196.94896Q45.64375 198.46458 45.33125 199.38646Q45.034374 200.30833 44.409374 200.82396Q43.8 201.32396 42.846874 201.32396Q41.6125 201.32396 40.89375 200.43333Q40.05 199.37083 40.05 196.94896ZM41.128124 196.94896Q41.128124 199.05833 41.628124 199.76146Q42.128124 200.46458 42.846874 200.46458Q43.58125 200.46458 44.065624 199.76146Q44.565624 199.05833 44.565624 196.94896Q44.565624 194.82396 44.065624 194.13646Q43.58125 193.43333 42.83125 193.43333Q42.1125 193.43333 41.675 194.04271Q41.128124 194.82396 41.128124 196.94896ZM47.05 196.94896Q47.05 195.41771 47.3625 194.49583Q47.675 193.55833 48.284374 193.05833Q48.909374 192.55833 49.846874 192.55833Q50.534374 192.55833 51.05 192.83958Q51.58125 193.12083 51.925 193.65208Q52.26875 194.16771 52.45625 194.91771Q52.64375 195.66771 52.64375 196.94896Q52.64375 198.46458 52.33125 199.38646Q52.034374 200.30833 51.409374 200.82396Q50.8 201.32396 49.846874 201.32396Q48.6125 201.32396 47.89375 200.43333Q47.05 199.37083 47.05 196.94896ZM48.128124 196.94896Q48.128124 199.05833 48.628124 199.76146Q49.128124 200.46458 49.846874 200.46458Q50.58125 200.46458 51.065624 199.76146Q51.565624 199.05833 51.565624 196.94896Q51.565624 194.82396 51.065624 194.13646Q50.58125 193.43333 49.83125 193.43333Q49.1125 193.43333 48.675 194.04271Q48.128124 194.82396 48.128124 196.94896ZM54.05 196.94896Q54.05 195.41771 54.3625 194.49583Q54.675 193.55833 55.284374 193.05833Q55.909374 192.55833 56.846874 192.55833Q57.534374 192.55833 58.05 192.83958Q58.58125 193.12083 58.925 193.65208Q59.26875 194.16771 59.45625 194.91771Q59.64375 195.66771 59.64375 196.94896Q59.64375 198.46458 59.33125 199.38646Q59.034374 200.30833 58.409374 200.82396Q57.8 201.32396 56.846874 201.32396Q55.6125 201.32396 54.89375 200.43333Q54.05 199.37083 54.05 196.94896ZM55.128124 196.94896Q55.128124 199.05833 55.628124 199.76146Q56.128124 200.46458 56.846874 200.46458Q57.58125 200.46458 58.065624 199.76146Q58.565624 199.05833 58.565624 196.94896Q58.565624 194.82396 58.065624 194.13646Q57.58125 193.43333 56.83125 193.43333Q56.1125 193.43333 55.675 194.04271Q55.128124 194.82396 55.128124 196.94896ZM61.05 196.94896Q61.05 195.41771 61.3625 194.49583Q61.675 193.55833 62.284374 193.05833Q62.909374 192.55833 63.846874 192.55833Q64.53438 192.55833 65.05 192.83958Q65.58125 193.12083 65.925 193.65208Q66.26875 194.16771 66.45625 194.91771Q66.64375 195.66771 66.64375 196.94896Q66.64375 198.46458 66.33125 199.38646Q66.03438 200.30833 65.40938 200.82396Q64.8 201.32396 63.846874 201.32396Q62.6125 201.32396 61.89375 200.43333Q61.05 199.37083 61.05 196.94896ZM62.128124 196.94896Q62.128124 199.05833 62.628124 199.76146Q63.128124 200.46458 63.846874 200.46458Q64.58125 200.46458 65.06563 199.76146Q65.56563 199.05833 65.56563 196.94896Q65.56563 194.82396 65.06563 194.13646Q64.58125 193.43333 63.83125 193.43333Q63.1125 193.43333 62.675 194.04271Q62.128124 194.82396 62.128124 196.94896ZM68.05 196.94896Q68.05 195.41771 68.3625 194.49583Q68.675 193.55833 69.28438 193.05833Q69.90938 192.55833 70.84688 192.55833Q71.53438 192.55833 72.05 192.83958Q72.58125 193.12083 72.925 193.65208Q73.26875 194.16771 73.45625 194.91771Q73.64375 195.66771 73.64375 196.94896Q73.64375 198.46458 73.33125 199.38646Q73.03438 200.30833 72.40938 200.82396Q71.8 201.32396 70.84688 201.32396Q69.6125 201.32396 68.89375 200.43333Q68.05 199.37083 68.05 196.94896ZM69.12813 196.94896Q69.12813 199.05833 69.62813 199.76146Q70.12813 200.46458 70.84688 200.46458Q71.58125 200.46458 72.06563 199.76146Q72.56563 199.05833 72.56563 196.94896Q72.56563 194.82396 72.06563 194.13646Q71.58125 193.43333 70.83125 193.43333Q70.1125 193.43333 69.675 194.04271Q69.12813 194.82396 69.12813 196.94896ZM75.05 196.94896Q75.05 195.41771 75.3625 194.49583Q75.675 193.55833 76.28438 193.05833Q76.90938 192.55833 77.84688 192.55833Q78.53438 192.55833 79.05 192.83958Q79.58125 193.12083 79.925 193.65208Q80.26875 194.16771 80.45625 194.91771Q80.64375 195.66771 80.64375 196.94896Q80.64375 198.46458 80.33125 199.38646Q80.03438 200.30833 79.40938 200.82396Q78.8 201.32396 77.84688 201.32396Q76.6125 201.32396 75.89375 200.43333Q75.05 199.37083 75.05 196.94896ZM76.12813 196.94896Q76.12813 199.05833 76.62813 199.76146Q77.12813 200.46458 77.84688 200.46458Q78.58125 200.46458 79.06563 199.76146Q79.56563 199.05833 79.56563 196.94896Q79.56563 194.82396 79.06563 194.13646Q78.58125 193.43333 77.83125 193.43333Q77.1125 193.43333 76.675 194.04271Q76.12813 194.82396 76.12813 196.94896Z" fill-rule="nonzero"/><path fill="#000000" d="M24.51875 127.06563L23.471874 127.14375Q23.33125 126.51875 23.08125 126.2375Q22.64375 125.78438 22.01875 125.78438Q21.51875 125.78438 21.128124 126.06563Q20.64375 126.44063 20.346874 127.14375Q20.065624 127.83125 20.05 129.1125Q20.425 128.53438 20.971874 128.25313Q21.534374 127.97188 22.14375 127.97188Q23.190624 127.97188 23.925 128.75313Q24.675 129.53438 24.675 130.75313Q24.675 131.56563 24.315624 132.26875Q23.971874 132.95625 23.3625 133.33125Q22.753124 133.69063 21.9875 133.69063Q20.659374 133.69063 19.83125 132.72188Q19.003124 131.75313 19.003124 129.53438Q19.003124 127.03438 19.925 125.90938Q20.721874 124.925 22.08125 124.925Q23.096874 124.925 23.7375 125.50313Q24.39375 126.06563 24.51875 127.06563ZM20.221874 130.76875Q20.221874 131.31563 20.440624 131.81563Q20.675 132.3 21.08125 132.56563Q21.503124 132.83125 21.971874 132.83125Q22.628124 132.83125 23.1125 132.3Q23.596874 131.75313 23.596874 130.83125Q23.596874 129.94063 23.1125 129.425Q22.64375 128.90938 21.925 128.90938Q21.20625 128.90938 20.70625 129.425Q20.221874 129.94063 20.221874 130.76875ZM26.05 129.31563Q26.05 127.78438 26.3625 126.8625Q26.675 125.925 27.284374 125.425Q27.909374 124.925 28.846874 124.925Q29.534374 124.925 30.05 125.20625Q30.58125 125.4875 30.925 126.01875Q31.26875 126.53438 31.45625 127.28438Q31.64375 128.03438 31.64375 129.31563Q31.64375 130.83125 31.33125 131.75313Q31.034374 132.675 30.409374 133.19063Q29.8 133.69063 28.846874 133.69063Q27.6125 133.69063 26.89375 132.8Q26.05 131.7375 26.05 129.31563ZM27.128124 129.31563Q27.128124 131.425 27.628124 132.12813Q28.128124 132.83125 28.846874 132.83125Q29.58125 132.83125 30.065624 132.12813Q30.565624 131.425 30.565624 129.31563Q30.565624 127.19063 30.065624 126.50313Q29.58125 125.8 28.83125 125.8Q28.1125 125.8 27.675 126.40938Q27.128124 127.19063 27.128124 129.31563ZM33.05 129.31563Q33.05 127.78438 33.3625 126.8625Q33.675 125.925 34.284374 125.425Q34.909374 124.925 35.846874 124.925Q36.534374 124.925 37.05 125.20625Q37.58125 125.4875 37.925 126.01875Q38.26875 126.53438 38.45625 127.28438Q38.64375 128.03438 38.64375 129.31563Q38.64375 130.83125 38.33125 131.75313Q38.034374 132.675 37.409374 133.19063Q36.8 133.69063 35.846874 133.69063Q34.6125 133.69063 33.89375 132.8Q33.05 131.7375 33.05 129.31563ZM34.128124 129.31563Q34.128124 131.425 34.628124 132.12813Q35.128124 132.83125 35.846874 132.83125Q36.58125 132.83125 37.065624 132.12813Q37.565624 131.425 37.565624 129.31563Q37.565624 127.19063 37.065624 126.50313Q36.58125 125.8 35.83125 125.8Q35.1125 125.8 34.675 126.40938Q34.128124 127.19063 34.128124 129.31563ZM40.05 129.31563Q40.05 127.78438 40.3625 126.8625Q40.675 125.925 41.284374 125.425Q41.909374 124.925 42.846874 124.925Q43.534374 124.925 44.05 125.20625Q44.58125 125.4875 44.925 126.01875Q45.26875 126.53438 45.45625 127.28438Q45.64375 128.03438 45.64375 129.31563Q45.64375 130.83125 45.33125 131.75313Q45.034374 132.675 44.409374 133.19063Q43.8 133.69063 42.846874 133.69063Q41.6125 133.69063 40.89375 132.8Q40.05 131.7375 40.05 129.31563ZM41.128124 129.31563Q41.128124 131.425 41.628124 132.12813Q42.128124 132.83125 42.846874 132.83125Q43.58125 132.83125 44.065624 132.12813Q44.565624 131.425 44.565624 129.31563Q44.565624 127.19063 44.065624 126.50313Q43.58125 125.8 42.83125 125.8Q42.1125 125.8 41.675 126.40938Q41.128124 127.19063 41.128124 129.31563ZM47.05 129.31563Q47.05 127.78438 47.3625 126.8625Q47.675 125.925 48.284374 125.425Q48.909374 124.925 49.846874 124.925Q50.534374 124.925 51.05 125.20625Q51.58125 125.4875 51.925 126.01875Q52.26875 126.53438 52.45625 127.28438Q52.64375 128.03438 52.64375 129.31563Q52.64375 130.83125 52.33125 131.75313Q52.034374 132.675 51.409374 133.19063Q50.8 133.69063 49.846874 133.69063Q48.6125 133.69063 47.89375 132.8Q47.05 131.7375 47.05 129.31563ZM48.128124 129.31563Q48.128124 131.425 48.628124 132.12813Q49.128124 132.83125 49.846874 132.83125Q50.58125 132.83125 51.065624 132.12813Q51.565624 131.425 51.565624 129.31563Q51.565624 127.19063 51.065624 126.50313Q50.58125 125.8 49.83125 125.8Q49.1125 125.8 48.675 126.40938Q48.128124 127.19063 48.128124 129.31563ZM54.05 129.31563Q54.05 127.78438 54.3625 126.8625Q54.675 125.925 55.284374 125.425Q55.909374 124.925 56.846874 124.925Q57.534374 124.925 58.05 125.20625Q58.58125 125.4875 58.925 126.01875Q59.26875 126.53438 59.45625 127.28438Q59.64375 128.03438 59.64375 129.31563Q59.64375 130.83125 59.33125 131.75313Q59.034374 132.675 58.409374 133.19063Q57.8 133.69063 56.846874 133.69063Q55.6125 133.69063 54.89375 132.8Q54.05 131.7375 54.05 129.31563ZM55.128124 129.31563Q55.128124 131.425 55.628124 132.12813Q56.128124 132.83125 56.846874 132.83125Q57.58125 132.83125 58.065624 132.12813Q58.565624 131.425 58.565624 129.31563Q58.565624 127.19063 58.065624 126.50313Q57.58125 125.8 56.83125 125.8Q56.1125 125.8 55.675 126.40938Q55.128124 127.19063 55.128124 129.31563ZM61.05 129.31563Q61.05 127.78438 61.3625 126.8625Q61.675 125.925 62.284374 125.425Q62.909374 124.925 63.846874 124.925Q64.53438 124.925 65.05 125.20625Q65.58125 125.4875 65.925 126.01875Q66.26875 126.53438 66.45625 127.28438Q66.64375 128.03438 66.64375 129.31563Q66.64375 130.83125 66.33125 131.75313Q66.03438 132.675 65.40938 133.19063Q64.8 133.69063 63.846874 133.69063Q62.6125 133.69063 61.89375 132.8Q61.05 131.7375 61.05 129.31563ZM62.128124 129.31563Q62.128124 131.425 62.628124 132.12813Q63.128124 132.83125 63.846874 132.83125Q64.58125 132.83125 65.06563 132.12813Q65.56563 131.425 65.56563 129.31563Q65.56563 127.19063 65.06563 126.50313Q64.58125 125.8 63.83125 125.8Q63.1125 125.8 62.675 126.40938Q62.128124 127.19063 62.128124 129.31563ZM68.05 129.31563Q68.05 127.78438 68.3625 126.8625Q68.675 125.925 69.28438 125.425Q69.90938 124.925 70.84688 124.925Q71.53438 124.925 72.05 125.20625Q72.58125 125.4875 72.925 126.01875Q73.26875 126.53438 73.45625 127.28438Q73.64375 128.03438 73.64375 129.31563Q73.64375 130.83125 73.33125 131.75313Q73.03438 132.675 72.40938 133.19063Q71.8 133.69063 70.84688 133.69063Q69.6125 133.69063 68.89375 132.8Q68.05 131.7375 68.05 129.31563ZM69.12813 129.31563Q69.12813 131.425 69.62813 132.12813Q70.12813 132.83125 70.84688 132.83125Q71.58125 132.83125 72.06563 132.12813Q72.56563 131.425 72.56563 129.31563Q72.56563 127.19063 72.06563 126.50313Q71.58125 125.8 70.83125 125.8Q70.1125 125.8 69.675 126.40938Q69.12813 127.19063 69.12813 129.31563ZM75.05 129.31563Q75.05 127.78438 75.3625 126.8625Q75.675 125.925 76.28438 125.425Q76.90938 124.925 77.84688 124.925Q78.53438 124.925 79.05 125.20625Q79.58125 125.4875 79.925 126.01875Q80.26875 126.53438 80.45625 127.28438Q80.64375 128.03438 80.64375 129.31563Q80.64375 130.83125 80.33125 131.75313Q80.03438 132.675 79.40938 133.19063Q78.8 133.69063 77.84688 133.69063Q76.6125 133.69063 75.89375 132.8Q75.05 131.7375 75.05 129.31563ZM76.12813 129.31563Q76.12813 131.425 76.62813 132.12813Q77.12813 132.83125 77.84688 132.83125Q78.58125 132.83125 79.06563 132.12813Q79.56563 131.425 79.56563 129.31563Q79.56563 127.19063 79.06563 126.50313Q78.58125 125.8 77.83125 125.8Q77.1125 125.8 76.675 126.40938Q76.12813 127.19063 76.12813 129.31563Z" fill-rule="nonzero"/><path fill="#000000" d="M20.675 61.260414Q20.01875 61.010414 19.690624 60.572914Q19.378124 60.11979 19.378124 59.510414Q19.378124 58.572914 20.05 57.93229Q20.7375 57.291664 21.846874 57.291664Q22.971874 57.291664 23.659374 57.947914Q24.346874 58.604164 24.346874 59.541664Q24.346874 60.135414 24.034374 60.572914Q23.721874 61.010414 23.08125 61.260414Q23.878124 61.510414 24.284374 62.08854Q24.690624 62.666664 24.690624 63.46354Q24.690624 64.55729 23.909374 65.30729Q23.14375 66.05729 21.8625 66.05729Q20.596874 66.05729 19.815624 65.30729Q19.034374 64.55729 19.034374 63.43229Q19.034374 62.58854 19.45625 62.02604Q19.89375 61.46354 20.675 61.260414ZM20.45625 59.46354Q20.45625 60.072914 20.846874 60.46354Q21.253124 60.854164 21.878124 60.854164Q22.4875 60.854164 22.878124 60.479164Q23.26875 60.08854 23.26875 59.52604Q23.26875 58.947914 22.8625 58.55729Q22.45625 58.15104 21.8625 58.15104Q21.253124 58.15104 20.846874 58.541664Q20.45625 58.93229 20.45625 59.46354ZM20.128124 63.43229Q20.128124 63.885414 20.33125 64.30729Q20.55 64.729164 20.971874 64.96354Q21.39375 65.197914 21.878124 65.197914Q22.628124 65.197914 23.1125 64.71354Q23.6125 64.229164 23.6125 63.479164Q23.6125 62.71354 23.1125 62.21354Q22.6125 61.71354 21.846874 61.71354Q21.096874 61.71354 20.6125 62.21354Q20.128124 62.697914 20.128124 63.43229ZM26.05 61.68229Q26.05 60.15104 26.3625 59.229164Q26.675 58.291664 27.284374 57.791664Q27.909374 57.291664 28.846874 57.291664Q29.534374 57.291664 30.05 57.572914Q30.58125 57.854164 30.925 58.385414Q31.26875 58.90104 31.45625 59.65104Q31.64375 60.40104 31.64375 61.68229Q31.64375 63.197914 31.33125 64.11979Q31.034374 65.041664 30.409374 65.55729Q29.8 66.05729 28.846874 66.05729Q27.6125 66.05729 26.89375 65.166664Q26.05 64.104164 26.05 61.68229ZM27.128124 61.68229Q27.128124 63.791664 27.628124 64.49479Q28.128124 65.197914 28.846874 65.197914Q29.58125 65.197914 30.065624 64.49479Q30.565624 63.791664 30.565624 61.68229Q30.565624 59.55729 30.065624 58.86979Q29.58125 58.166664 28.83125 58.166664Q28.1125 58.166664 27.675 58.77604Q27.128124 59.55729 27.128124 61.68229ZM33.05 61.68229Q33.05 60.15104 33.3625 59.229164Q33.675 58.291664 34.284374 57.791664Q34.909374 57.291664 35.846874 57.291664Q36.534374 57.291664 37.05 57.572914Q37.58125 57.854164 37.925 58.385414Q38.26875 58.90104 38.45625 59.65104Q38.64375 60.40104 38.64375 61.68229Q38.64375 63.197914 38.33125 64.11979Q38.034374 65.041664 37.409374 65.55729Q36.8 66.05729 35.846874 66.05729Q34.6125 66.05729 33.89375 65.166664Q33.05 64.104164 33.05 61.68229ZM34.128124 61.68229Q34.128124 63.791664 34.628124 64.49479Q35.128124 65.197914 35.846874 65.197914Q36.58125 65.197914 37.065624 64.49479Q37.565624 63.791664 37.565624 61.68229Q37.565624 59.55729 37.065624 58.86979Q36.58125 58.166664 35.83125 58.166664Q35.1125 58.166664 34.675 58.77604Q34.128124 59.55729 34.128124 61.68229ZM40.05 61.68229Q40.05 60.15104 40.3625 59.229164Q40.675 58.291664 41.284374 57.791664Q41.909374 57.291664 42.846874 57.291664Q43.534374 57.291664 44.05 57.572914Q44.58125 57.854164 44.925 58.385414Q45.26875 58.90104 45.45625 59.65104Q45.64375 60.40104 45.64375 61.68229Q45.64375 63.197914 45.33125 64.11979Q45.034374 65.041664 44.409374 65.55729Q43.8 66.05729 42.846874 66.05729Q41.6125 66.05729 40.89375 65.166664Q40.05 64.104164 40.05 61.68229ZM41.128124 61.68229Q41.128124 63.791664 41.628124 64.49479Q42.128124 65.197914 42.846874 65.197914Q43.58125 65.197914 44.065624 64.49479Q44.565624 63.791664 44.565624 61.68229Q44.565624 59.55729 44.065624 58.86979Q43.58125 58.166664 42.83125 58.166664Q42.1125 58.166664 41.675 58.77604Q41.128124 59.55729 41.128124 61.68229ZM47.05 61.68229Q47.05 60.15104 47.3625 59.229164Q47.675 58.291664 48.284374 57.791664Q48.909374 57.291664 49.846874 57.291664Q50.534374 57.291664 51.05 57.572914Q51.58125 57.854164 51.925 58.385414Q52.26875 58.90104 52.45625 59.65104Q52.64375 60.40104 52.64375 61.68229Q52.64375 63.197914 52.33125 64.11979Q52.034374 65.041664 51.409374 65.55729Q50.8 66.05729 49.846874 66.05729Q48.6125 66.05729 47.89375 65.166664Q47.05 64.104164 47.05 61.68229ZM48.128124 61.68229Q48.128124 63.791664 48.628124 64.49479Q49.128124 65.197914 49.846874 65.197914Q50.58125 65.197914 51.065624 64.49479Q51.565624 63.791664 51.565624 61.68229Q51.565624 59.55729 51.065624 58.86979Q50.58125 58.166664 49.83125 58.166664Q49.1125 58.166664 48.675 58.77604Q48.128124 59.55729 48.128124 61.68229ZM54.05 61.68229Q54.05 60.15104 54.3625 59.229164Q54.675 58.291664 55.284374 57.791664Q55.909374 57.291664 56.846874 57.291664Q57.534374 57.291664 58.05 57.572914Q58.58125 57.854164 58.925 58.385414Q59.26875 58.90104 59.45625 59.65104Q59.64375 60.40104 59.64375 61.68229Q59.64375 63.197914 59.33125 64.11979Q59.034374 65.041664 58.409374 65.55729Q57.8 66.05729 56.846874 66.05729Q55.6125 66.05729 54.89375 65.166664Q54.05 64.104164 54.05 61.68229ZM55.128124 61.68229Q55.128124 63.791664 55.628124 64.49479Q56.128124 65.197914 56.846874 65.197914Q57.58125 65.197914 58.065624 64.49479Q58.565624 63.791664 58.565624 61.68229Q58.565624 59.55729 58.065624 58.86979Q57.58125 58.166664 56.83125 58.166664Q56.1125 58.166664 55.675 58.77604Q55.128124 59.55729 55.128124 61.68229ZM61.05 61.68229Q61.05 60.15104 61.3625 59.229164Q61.675 58.291664 62.284374 57.791664Q62.909374 57.291664 63.846874 57.291664Q64.53438 57.291664 65.05 57.572914Q65.58125 57.854164 65.925 58.385414Q66.26875 58.90104 66.45625 59.65104Q66.64375 60.40104 66.64375 61.68229Q66.64375 63.197914 66.33125 64.11979Q66.03438 65.041664 65.40938 65.55729Q64.8 66.05729 63.846874 66.05729Q62.6125 66.05729 61.89375 65.166664Q61.05 64.104164 61.05 61.68229ZM62.128124 61.68229Q62.128124 63.791664 62.628124 64.49479Q63.128124 65.197914 63.846874 65.197914Q64.58125 65.197914 65.06563 64.49479Q65.56563 63.791664 65.56563 61.68229Q65.56563 59.55729 65.06563 58.86979Q64.58125 58.166664 63.83125 58.166664Q63.1125 58.166664 62.675 58.77604Q62.128124 59.55729 62.128124 61.68229ZM68.05 61.68229Q68.05 60.15104 68.3625 59.229164Q68.675 58.291664 69.28438 57.791664Q69.90938 57.291664 70.84688 57.291664Q71.53438 57.291664 72.05 57.572914Q72.58125 57.854164 72.925 58.385414Q73.26875 58.90104 73.45625 59.65104Q73.64375 60.40104 73.64375 61.68229Q73.64375 63.197914 73.33125 64.11979Q73.03438 65.041664 72.40938 65.55729Q71.8 66.05729 70.84688 66.05729Q69.6125 66.05729 68.89375 65.166664Q68.05 64.104164 68.05 61.68229ZM69.12813 61.68229Q69.12813 63.791664 69.62813 64.49479Q70.12813 65.197914 70.84688 65.197914Q71.58125 65.197914 72.06563 64.49479Q72.56563 63.791664 72.56563 61.68229Q72.56563 59.55729 72.06563 58.86979Q71.58125 58.166664 70.83125 58.166664Q70.1125 58.166664 69.675 58.77604Q69.12813 59.55729 69.12813 61.68229ZM75.05 61.68229Q75.05 60.15104 75.3625 59.229164Q75.675 58.291664 76.28438 57.791664Q76.90938 57.291664 77.84688 57.291664Q78.53438 57.291664 79.05 57.572914Q79.58125 57.854164 79.925 58.385414Q80.26875 58.90104 80.45625 59.65104Q80.64375 60.40104 80.64375 61.68229Q80.64375 63.197914 80.33125 64.11979Q80.03438 65.041664 79.40938 65.55729Q78.8 66.05729 77.84688 66.05729Q76.6125 66.05729 75.89375 65.166664Q75.05 64.104164 75.05 61.68229ZM76.12813 61.68229Q76.12813 63.791664 76.62813 64.49479Q77.12813 65.197914 77.84688 65.197914Q78.58125 65.197914 79.06563 64.49479Q79.56563 63.791664 79.56563 61.68229Q79.56563 59.55729 79.06563 58.86979Q78.58125 58.166664 77.83125 58.166664Q77.1125 58.166664 76.675 58.77604Q76.12813 59.55729 76.12813 61.68229Z" fill-rule="nonzero"/><path fill="#000000" d="M119.94079 349.45L118.89391 349.45L118.89391 342.73126Q118.50329 343.09064 117.87829 343.46564Q117.26891 343.825 116.78454 343.9969L116.78454 342.98126Q117.65954 342.5594 118.31579 341.98126Q118.98766 341.3875 119.26891 340.825L119.94079 340.825L119.94079 349.45Z" fill-rule="nonzero"/><path fill="#000000" d="M179.28487 349.45L178.23799 349.45L178.23799 342.73126Q177.84737 343.09064 177.22237 343.46564Q176.61299 343.825 176.12862 343.9969L176.12862 342.98126Q177.00362 342.5594 177.65987 341.98126Q178.33174 341.3875 178.61299 340.825L179.28487 340.825L179.28487 349.45ZM182.31612 345.21564Q182.31612 343.6844 182.62862 342.7625Q182.94112 341.825 183.55049 341.325Q184.17549 340.825 185.11299 340.825Q185.80049 340.825 186.31612 341.10626Q186.84737 341.3875 187.19112 341.91876Q187.53487 342.4344 187.72237 343.1844Q187.90987 343.9344 187.90987 345.21564Q187.90987 346.73126 187.59737 347.65314Q187.30049 348.575 186.67549 349.09064Q186.06612 349.59064 185.11299 349.59064Q183.87862 349.59064 183.15987 348.7Q182.31612 347.6375 182.31612 345.21564ZM183.39424 345.21564Q183.39424 347.325 183.89424 348.02814Q184.39424 348.73126 185.11299 348.73126Q185.84737 348.73126 186.33174 348.02814Q186.83174 347.325 186.83174 345.21564Q186.83174 343.09064 186.33174 342.40314Q185.84737 341.7 185.09737 341.7Q184.37862 341.7 183.94112 342.3094Q183.39424 343.09064 183.39424 345.21564Z" fill-rule="nonzero"/><path fill="#000000" d="M238.62894 349.45L237.58206 349.45L237.58206 342.73126Q237.19144 343.09064 236.56644 343.46564Q235.95706 343.825 235.47269 343.9969L235.47269 342.98126Q236.34769 342.5594 237.00394 341.98126Q237.67581 341.3875 237.95706 340.825L238.62894 340.825L238.62894 349.45ZM241.66019 345.21564Q241.66019 343.6844 241.97269 342.7625Q242.28519 341.825 242.89456 341.325Q243.51956 340.825 244.45706 340.825Q245.14456 340.825 245.66019 341.10626Q246.19144 341.3875 246.53519 341.91876Q246.87894 342.4344 247.06644 343.1844Q247.25394 343.9344 247.25394 345.21564Q247.25394 346.73126 246.94144 347.65314Q246.64456 348.575 246.01956 349.09064Q245.41019 349.59064 244.45706 349.59064Q243.22269 349.59064 242.50394 348.7Q241.66019 347.6375 241.66019 345.21564ZM242.73831 345.21564Q242.73831 347.325 243.23831 348.02814Q243.73831 348.73126 244.45706 348.73126Q245.19144 348.73126 245.67581 348.02814Q246.17581 347.325 246.17581 345.21564Q246.17581 343.09064 245.67581 342.40314Q245.19144 341.7 244.44144 341.7Q243.72269 341.7 243.28519 342.3094Q242.73831 343.09064 242.73831 345.21564ZM248.66019 345.21564Q248.66019 343.6844 248.97269 342.7625Q249.28519 341.825 249.89456 341.325Q250.51956 340.825 251.45706 340.825Q252.14456 340.825 252.66019 341.10626Q253.19144 341.3875 253.53519 341.91876Q253.87894 342.4344 254.06644 343.1844Q254.25394 343.9344 254.25394 345.21564Q254.25394 346.73126 253.94144 347.65314Q253.64456 348.575 253.01956 349.09064Q252.41019 349.59064 251.45706 349.59064Q250.22269 349.59064 249.50394 348.7Q248.66019 347.6375 248.66019 345.21564ZM249.73831 345.21564Q249.73831 347.325 250.23831 348.02814Q250.73831 348.73126 251.45706 348.73126Q252.19144 348.73126 252.67581 348.02814Q253.17581 347.325 253.17581 345.21564Q253.17581 343.09064 252.67581 342.40314Q252.19144 341.7 251.44144 341.7Q250.72269 341.7 250.28519 342.3094Q249.73831 343.09064 249.73831 345.21564Z" fill-rule="nonzero"/><path fill="#000000" d="M297.97302 349.45L296.92615 349.45L296.92615 342.73126Q296.53552 343.09064 295.91052 343.46564Q295.30115 343.825 294.81677 343.9969L294.81677 342.98126Q295.69177 342.5594 296.34802 341.98126Q297.0199 341.3875 297.30115 340.825L297.97302 340.825L297.97302 349.45ZM301.00427 345.21564Q301.00427 343.6844 301.31677 342.7625Q301.62927 341.825 302.23865 341.325Q302.86365 340.825 303.80115 340.825Q304.48865 340.825 305.00427 341.10626Q305.53552 341.3875 305.87927 341.91876Q306.22302 342.4344 306.41052 343.1844Q306.59802 343.9344 306.59802 345.21564Q306.59802 346.73126 306.28552 347.65314Q305.98865 348.575 305.36365 349.09064Q304.75427 349.59064 303.80115 349.59064Q302.56677 349.59064 301.84802 348.7Q301.00427 347.6375 301.00427 345.21564ZM302.0824 345.21564Q302.0824 347.325 302.5824 348.02814Q303.0824 348.73126 303.80115 348.73126Q304.53552 348.73126 305.0199 348.02814Q305.5199 347.325 305.5199 345.21564Q305.5199 343.09064 305.0199 342.40314Q304.53552 341.7 303.78552 341.7Q303.06677 341.7 302.62927 342.3094Q302.0824 343.09064 302.0824 345.21564ZM308.00427 345.21564Q308.00427 343.6844 308.31677 342.7625Q308.62927 341.825 309.23865 341.325Q309.86365 340.825 310.80115 340.825Q311.48865 340.825 312.00427 341.10626Q312.53552 341.3875 312.87927 341.91876Q313.22302 342.4344 313.41052 343.1844Q313.59802 343.9344 313.59802 345.21564Q313.59802 346.73126 313.28552 347.65314Q312.98865 348.575 312.36365 349.09064Q311.75427 349.59064 310.80115 349.59064Q309.56677 349.59064 308.84802 348.7Q308.00427 347.6375 308.00427 345.21564ZM309.0824 345.21564Q309.0824 347.325 309.5824 348.02814Q310.0824 348.73126 310.80115 348.73126Q311.53552 348.73126 312.0199 348.02814Q312.5199 347.325 312.5199 345.21564Q312.5199 343.09064 312.0199 342.40314Q311.53552 341.7 310.78552 341.7Q310.06677 341.7 309.62927 342.3094Q309.0824 343.09064 309.0824 345.21564ZM315.00427 345.21564Q315.00427 343.6844 315.31677 342.7625Q315.62927 341.825 316.23865 341.325Q316.86365 340.825 317.80115 340.825Q318.48865 340.825 319.00427 341.10626Q319.53552 341.3875 319.87927 341.91876Q320.22302 342.4344 320.41052 343.1844Q320.59802 343.9344 320.59802 345.21564Q320.59802 346.73126 320.28552 347.65314Q319.98865 348.575 319.36365 349.09064Q318.75427 349.59064 317.80115 349.59064Q316.56677 349.59064 315.84802 348.7Q315.00427 347.6375 315.00427 345.21564ZM316.0824 345.21564Q316.0824 347.325 316.5824 348.02814Q317.0824 348.73126 317.80115 348.73126Q318.53552 348.73126 319.0199 348.02814Q319.5199 347.325 319.5199 345.21564Q319.5199 343.09064 319.0199 342.40314Q318.53552 341.7 317.78552 341.7Q317.06677 341.7 316.62927 342.3094Q316.0824 343.09064 316.0824 345.21564Z" fill-rule="nonzero"/><path fill="#000000" d="M357.31708 349.45L356.2702 349.45L356.2702 342.73126Q355.87958 343.09064 355.25458 343.46564Q354.6452 343.825 354.16083 343.9969L354.16083 342.98126Q355.03583 342.5594 355.69208 341.98126Q356.36395 341.3875 356.6452 340.825L357.31708 340.825L357.31708 349.45ZM360.34833 345.21564Q360.34833 343.6844 360.66083 342.7625Q360.97333 341.825 361.5827 341.325Q362.2077 340.825 363.1452 340.825Q363.8327 340.825 364.34833 341.10626Q364.87958 341.3875 365.22333 341.91876Q365.56708 342.4344 365.75458 343.1844Q365.94208 343.9344 365.94208 345.21564Q365.94208 346.73126 365.62958 347.65314Q365.3327 348.575 364.7077 349.09064Q364.09833 349.59064 363.1452 349.59064Q361.91083 349.59064 361.19208 348.7Q360.34833 347.6375 360.34833 345.21564ZM361.42645 345.21564Q361.42645 347.325 361.92645 348.02814Q362.42645 348.73126 363.1452 348.73126Q363.87958 348.73126 364.36395 348.02814Q364.86395 347.325 364.86395 345.21564Q364.86395 343.09064 364.36395 342.40314Q363.87958 341.7 363.12958 341.7Q362.41083 341.7 361.97333 342.3094Q361.42645 343.09064 361.42645 345.21564ZM367.34833 345.21564Q367.34833 343.6844 367.66083 342.7625Q367.97333 341.825 368.5827 341.325Q369.2077 340.825 370.1452 340.825Q370.8327 340.825 371.34833 341.10626Q371.87958 341.3875 372.22333 341.91876Q372.56708 342.4344 372.75458 343.1844Q372.94208 343.9344 372.94208 345.21564Q372.94208 346.73126 372.62958 347.65314Q372.3327 348.575 371.7077 349.09064Q371.09833 349.59064 370.1452 349.59064Q368.91083 349.59064 368.19208 348.7Q367.34833 347.6375 367.34833 345.21564ZM368.42645 345.21564Q368.42645 347.325 368.92645 348.02814Q369.42645 348.73126 370.1452 348.73126Q370.87958 348.73126 371.36395 348.02814Q371.86395 347.325 371.86395 345.21564Q371.86395 343.09064 371.36395 342.40314Q370.87958 341.7 370.12958 341.7Q369.41083 341.7 368.97333 342.3094Q368.42645 343.09064 368.42645 345.21564ZM374.34833 345.21564Q374.34833 343.6844 374.66083 342.7625Q374.97333 341.825 375.5827 341.325Q376.2077 340.825 377.1452 340.825Q377.8327 340.825 378.34833 341.10626Q378.87958 341.3875 379.22333 341.91876Q379.56708 342.4344 379.75458 343.1844Q379.94208 343.9344 379.94208 345.21564Q379.94208 346.73126 379.62958 347.65314Q379.3327 348.575 378.7077 349.09064Q378.09833 349.59064 377.1452 349.59064Q375.91083 349.59064 375.19208 348.7Q374.34833 347.6375 374.34833 345.21564ZM375.42645 345.21564Q375.42645 347.325 375.92645 348.02814Q376.42645 348.73126 377.1452 348.73126Q377.87958 348.73126 378.36395 348.02814Q378.86395 347.325 378.86395 345.21564Q378.86395 343.09064 378.36395 342.40314Q377.87958 341.7 377.12958 341.7Q376.41083 341.7 375.97333 342.3094Q375.42645 343.09064 375.42645 345.21564ZM381.34833 345.21564Q381.34833 343.6844 381.66083 342.7625Q381.97333 341.825 382.5827 341.325Q383.2077 340.825 384.1452 340.825Q384.8327 340.825 385.34833 341.10626Q385.87958 341.3875 386.22333 341.91876Q386.56708 342.4344 386.75458 343.1844Q386.94208 343.9344 386.94208 345.21564Q386.94208 346.73126 386.62958 347.65314Q386.3327 348.575 385.7077 349.09064Q385.09833 349.59064 384.1452 349.59064Q382.91083 349.59064 382.19208 348.7Q381.34833 347.6375 381.34833 345.21564ZM382.42645 345.21564Q382.42645 347.325 382.92645 348.02814Q383.42645 348.73126 384.1452 348.73126Q384.87958 348.73126 385.36395 348.02814Q385.86395 347.325 385.86395 345.21564Q385.86395 343.09064 385.36395 342.40314Q384.87958 341.7 384.12958 341.7Q383.41083 341.7 382.97333 342.3094Q382.42645 343.09064 382.42645 345.21564Z" fill-rule="nonzero"/><path fill="#000000" d="M416.66116 349.45L415.6143 349.45L415.6143 342.73126Q415.22366 343.09064 414.59866 343.46564Q413.9893 343.825 413.5049 343.9969L413.5049 342.98126Q414.3799 342.5594 415.03616 341.98126Q415.70804 341.3875 415.9893 340.825L416.66116 340.825L416.66116 349.45ZM419.6924 345.21564Q419.6924 343.6844 420.0049 342.7625Q420.3174 341.825 420.9268 341.325Q421.5518 340.825 422.4893 340.825Q423.1768 340.825 423.6924 341.10626Q424.22366 341.3875 424.5674 341.91876Q424.91116 342.4344 425.09866 343.1844Q425.28616 343.9344 425.28616 345.21564Q425.28616 346.73126 424.97366 347.65314Q424.6768 348.575 424.0518 349.09064Q423.4424 349.59064 422.4893 349.59064Q421.2549 349.59064 420.53616 348.7Q419.6924 347.6375 419.6924 345.21564ZM420.77054 345.21564Q420.77054 347.325 421.27054 348.02814Q421.77054 348.73126 422.4893 348.73126Q423.22366 348.73126 423.70804 348.02814Q424.20804 347.325 424.20804 345.21564Q424.20804 343.09064 423.70804 342.40314Q423.22366 341.7 422.47366 341.7Q421.7549 341.7 421.3174 342.3094Q420.77054 343.09064 420.77054 345.21564ZM426.6924 345.21564Q426.6924 343.6844 427.0049 342.7625Q427.3174 341.825 427.9268 341.325Q428.5518 340.825 429.4893 340.825Q430.1768 340.825 430.6924 341.10626Q431.22366 341.3875 431.5674 341.91876Q431.91116 342.4344 432.09866 343.1844Q432.28616 343.9344 432.28616 345.21564Q432.28616 346.73126 431.97366 347.65314Q431.6768 348.575 431.0518 349.09064Q430.4424 349.59064 429.4893 349.59064Q428.2549 349.59064 427.53616 348.7Q426.6924 347.6375 426.6924 345.21564ZM427.77054 345.21564Q427.77054 347.325 428.27054 348.02814Q428.77054 348.73126 429.4893 348.73126Q430.22366 348.73126 430.70804 348.02814Q431.20804 347.325 431.20804 345.21564Q431.20804 343.09064 430.70804 342.40314Q430.22366 341.7 429.47366 341.7Q428.7549 341.7 428.3174 342.3094Q427.77054 343.09064 427.77054 345.21564ZM433.6924 345.21564Q433.6924 343.6844 434.0049 342.7625Q434.3174 341.825 434.9268 341.325Q435.5518 340.825 436.4893 340.825Q437.1768 340.825 437.6924 341.10626Q438.22366 341.3875 438.5674 341.91876Q438.91116 342.4344 439.09866 343.1844Q439.28616 343.9344 439.28616 345.21564Q439.28616 346.73126 438.97366 347.65314Q438.6768 348.575 438.0518 349.09064Q437.4424 349.59064 436.4893 349.59064Q435.2549 349.59064 434.53616 348.7Q433.6924 347.6375 433.6924 345.21564ZM434.77054 345.21564Q434.77054 347.325 435.27054 348.02814Q435.77054 348.73126 436.4893 348.73126Q437.22366 348.73126 437.70804 348.02814Q438.20804 347.325 438.20804 345.21564Q438.20804 343.09064 437.70804 342.40314Q437.22366 341.7 436.47366 341.7Q435.7549 341.7 435.3174 342.3094Q434.77054 343.09064 434.77054 345.21564ZM440.6924 345.21564Q440.6924 343.6844 441.0049 342.7625Q441.3174 341.825 441.9268 341.325Q442.5518 340.825 443.4893 340.825Q444.1768 340.825 444.6924 341.10626Q445.22366 341.3875 445.5674 341.91876Q445.91116 342.4344 446.09866 343.1844Q446.28616 343.9344 446.28616 345.21564Q446.28616 346.73126 445.97366 347.65314Q445.6768 348.575 445.0518 349.09064Q444.4424 349.59064 443.4893 349.59064Q442.2549 349.59064 441.53616 348.7Q440.6924 347.6375 440.6924 345.21564ZM441.77054 345.21564Q441.77054 347.325 442.27054 348.02814Q442.77054 348.73126 443.4893 348.73126Q444.22366 348.73126 444.70804 348.02814Q445.20804 347.325 445.20804 345.21564Q445.20804 343.09064 444.70804 342.40314Q444.22366 341.7 443.47366 341.7Q442.7549 341.7 442.3174 342.3094Q441.77054 343.09064 441.77054 345.21564ZM447.6924 345.21564Q447.6924 343.6844 448.0049 342.7625Q448.3174 341.825 448.9268 341.325Q449.5518 340.825 450.4893 340.825Q451.1768 340.825 451.6924 341.10626Q452.22366 341.3875 452.5674 341.91876Q452.91116 342.4344 453.09866 343.1844Q453.28616 343.9344 453.28616 345.21564Q453.28616 346.73126 452.97366 347.65314Q452.6768 348.575 452.0518 349.09064Q451.4424 349.59064 450.4893 349.59064Q449.2549 349.59064 448.53616 348.7Q447.6924 347.6375 447.6924 345.21564ZM448.77054 345.21564Q448.77054 347.325 449.27054 348.02814Q449.77054 348.73126 450.4893 348.73126Q451.22366 348.73126 451.70804 348.02814Q452.20804 347.325 452.20804 345.21564Q452.20804 343.09064 451.70804 342.40314Q451.22366 341.7 450.47366 341.7Q449.7549 341.7 449.3174 342.3094Q448.77054 343.09064 448.77054 345.21564Z" fill-rule="nonzero"/><path stroke="#4285f4" stroke-width="4.0" stroke-linecap="butt" d="M484.45 61.916668L496.45 61.916668" fill-rule="nonzero"/><path fill="#1a1a1a" d="M505.325 65.916664L505.325 57.322914L508.5594 57.322914Q509.54376 57.322914 510.1375 57.58854Q510.73126 57.854164 511.0594 58.40104Q511.40314 58.93229 511.40314 59.52604Q511.40314 60.072914 511.10626 60.55729Q510.8094 61.041664 510.2 61.33854Q510.98126 61.572914 511.3875 62.135414Q511.8094 62.68229 511.8094 63.43229Q511.8094 64.02604 511.5594 64.55729Q511.3094 65.072914 510.9344 65.354164Q510.5594 65.635414 509.98126 65.77604Q509.41876 65.916664 508.60626 65.916664L505.325 65.916664ZM506.46564 60.93229L508.325 60.93229Q509.075 60.93229 509.40314 60.83854Q509.84064 60.71354 510.0594 60.416664Q510.27814 60.104164 510.27814 59.65104Q510.27814 59.229164 510.075 58.90104Q509.8719 58.572914 509.48126 58.46354Q509.10626 58.33854 508.1844 58.33854L506.46564 58.33854L506.46564 60.93229ZM506.46564 64.90104L508.60626 64.90104Q509.15314 64.90104 509.3719 64.854164Q509.77814 64.791664 510.02814 64.635414Q510.29376 64.46354 510.46564 64.15104Q510.6375 63.83854 510.6375 63.43229Q510.6375 62.947914 510.3875 62.58854Q510.15314 62.229164 509.71564 62.08854Q509.27814 61.947914 508.45 61.947914L506.46564 61.947914L506.46564 64.90104ZM517.3094 65.15104Q516.71564 65.65104 516.16876 65.854164Q515.6375 66.05729 515.0125 66.05729Q513.98126 66.05729 513.4344 65.55729Q512.8875 65.05729 512.8875 64.27604Q512.8875 63.822914 513.09064 63.447914Q513.29376 63.05729 513.6375 62.83854Q513.98126 62.604164 514.40314 62.49479Q514.7 62.40104 515.34064 62.322914Q516.60626 62.18229 517.21564 61.96354Q517.21564 61.74479 517.21564 61.697914Q517.21564 61.041664 516.91876 60.77604Q516.5125 60.43229 515.71564 60.43229Q514.98126 60.43229 514.6219 60.697914Q514.2625 60.947914 514.09064 61.604164L513.0594 61.46354Q513.2 60.80729 513.52814 60.40104Q513.85626 59.99479 514.46564 59.77604Q515.075 59.55729 515.8719 59.55729Q516.66876 59.55729 517.16876 59.74479Q517.66876 59.93229 517.90314 60.21354Q518.1375 60.49479 518.23126 60.93229Q518.27814 61.197914 518.27814 61.90104L518.27814 63.30729Q518.27814 64.77604 518.34064 65.166664Q518.41876 65.55729 518.6219 65.916664L517.5125 65.916664Q517.35626 65.58854 517.3094 65.15104ZM517.21564 62.791664Q516.6375 63.02604 515.4969 63.197914Q514.84064 63.291664 514.575 63.416664Q514.3094 63.52604 514.15314 63.74479Q514.0125 63.96354 514.0125 64.24479Q514.0125 64.666664 514.325 64.947914Q514.65314 65.229164 515.2625 65.229164Q515.8719 65.229164 516.34064 64.96354Q516.825 64.697914 517.04376 64.229164Q517.21564 63.86979 517.21564 63.18229L517.21564 62.791664ZM519.825 64.05729L520.85626 63.90104Q520.95 64.52604 521.34064 64.854164Q521.7469 65.18229 522.48126 65.18229Q523.2 65.18229 523.54376 64.90104Q523.90314 64.604164 523.90314 64.197914Q523.90314 63.83854 523.59064 63.635414Q523.3719 63.49479 522.5125 63.27604Q521.35626 62.979164 520.90314 62.77604Q520.46564 62.55729 520.23126 62.18229Q519.9969 61.80729 519.9969 61.33854Q519.9969 60.93229 520.1844 60.572914Q520.3719 60.21354 520.7 59.979164Q520.95 59.80729 521.3719 59.68229Q521.79376 59.55729 522.29376 59.55729Q523.0125 59.55729 523.5594 59.77604Q524.1219 59.979164 524.3875 60.33854Q524.65314 60.697914 524.7469 61.291664L523.71564 61.43229Q523.65314 60.96354 523.3094 60.697914Q522.98126 60.416664 522.35626 60.416664Q521.6375 60.416664 521.325 60.666664Q521.0125 60.90104 521.0125 61.229164Q521.0125 61.43229 521.1375 61.58854Q521.27814 61.760414 521.54376 61.86979Q521.7 61.93229 522.48126 62.135414Q523.60626 62.447914 524.04376 62.635414Q524.48126 62.822914 524.73126 63.18229Q524.98126 63.541664 524.98126 64.08854Q524.98126 64.61979 524.66876 65.08854Q524.3719 65.541664 523.79376 65.80729Q523.21564 66.05729 522.48126 66.05729Q521.2625 66.05729 520.6219 65.55729Q519.9969 65.041664 519.825 64.05729ZM531.4969 63.916664L532.59064 64.041664Q532.34064 64.99479 531.6375 65.52604Q530.9344 66.05729 529.85626 66.05729Q528.4969 66.05729 527.6844 65.21354Q526.8875 64.36979 526.8875 62.854164Q526.8875 61.291664 527.7 60.43229Q528.5125 59.55729 529.79376 59.55729Q531.04376 59.55729 531.825 60.40104Q532.6219 61.24479 532.6219 62.791664Q532.6219 62.885414 532.6219 63.072914L527.98126 63.072914Q528.04376 64.104164 528.5594 64.65104Q529.075 65.18229 529.85626 65.18229Q530.4344 65.18229 530.84064 64.885414Q531.2625 64.572914 531.4969 63.916664ZM528.04376 62.21354L531.5125 62.21354Q531.45 61.416664 531.1219 61.02604Q530.60626 60.416664 529.8094 60.416664Q529.075 60.416664 528.575 60.90104Q528.09064 61.385414 528.04376 62.21354ZM534.21564 65.916664L534.21564 57.322914L535.27814 57.322914L535.27814 65.916664L534.21564 65.916664ZM537.2469 58.541664L537.2469 57.322914L538.3094 57.322914L538.3094 58.541664L537.2469 58.541664ZM537.2469 65.916664L537.2469 59.697914L538.3094 59.697914L538.3094 65.916664L537.2469 65.916664ZM540.2469 65.916664L540.2469 59.697914L541.1844 59.697914L541.1844 60.572914Q541.8719 59.55729 543.16876 59.55729Q543.73126 59.55729 544.2 59.760414Q544.6844 59.96354 544.91876 60.291664Q545.15314 60.61979 545.2469 61.05729Q545.29376 61.354164 545.29376 62.08854L545.29376 65.916664L544.2469 65.916664L544.2469 62.135414Q544.2469 61.479164 544.1219 61.166664Q543.9969 60.854164 543.6844 60.666664Q543.3719 60.46354 542.95 60.46354Q542.27814 60.46354 541.77814 60.90104Q541.29376 61.322914 541.29376 62.510414L541.29376 65.916664L540.2469 65.916664ZM551.4969 63.916664L552.59064 64.041664Q552.34064 64.99479 551.6375 65.52604Q550.9344 66.05729 549.85626 66.05729Q548.4969 66.05729 547.6844 65.21354Q546.8875 64.36979 546.8875 62.854164Q546.8875 61.291664 547.7 60.43229Q548.5125 59.55729 549.79376 59.55729Q551.04376 59.55729 551.825 60.40104Q552.6219 61.24479 552.6219 62.791664Q552.6219 62.885414 552.6219 63.072914L547.98126 63.072914Q548.04376 64.104164 548.5594 64.65104Q549.075 65.18229 549.85626 65.18229Q550.4344 65.18229 550.84064 64.885414Q551.2625 64.572914 551.4969 63.916664ZM548.04376 62.21354L551.5125 62.21354Q551.45 61.416664 551.1219 61.02604Q550.60626 60.416664 549.8094 60.416664Q549.075 60.416664 548.575 60.90104Q548.09064 61.385414 548.04376 62.21354Z" fill-rule="nonzero"/><path stroke="#ea4335" stroke-width="4.0" stroke-linecap="butt" d="M484.45 85.916664L496.45 85.916664" fill-rule="nonzero"/><path fill="#1a1a1a" d="M511.5125 86.90104L512.6375 87.197914Q512.27814 88.58854 511.35626 89.322914Q510.4344 90.05729 509.09064 90.05729Q507.7 90.05729 506.825 89.49479Q505.95 88.93229 505.4969 87.86979Q505.04376 86.791664 505.04376 85.55729Q505.04376 84.21354 505.5594 83.21354Q506.075 82.21354 507.0125 81.697914Q507.96564 81.18229 509.10626 81.18229Q510.3875 81.18229 511.2625 81.83854Q512.15314 82.49479 512.4969 83.68229L511.3719 83.947914Q511.075 83.010414 510.4969 82.58854Q509.9344 82.15104 509.075 82.15104Q508.09064 82.15104 507.41876 82.635414Q506.7625 83.104164 506.48126 83.90104Q506.21564 84.697914 506.21564 85.55729Q506.21564 86.65104 506.52814 87.46354Q506.85626 88.27604 507.52814 88.68229Q508.2 89.08854 508.9969 89.08854Q509.95 89.08854 510.60626 88.541664Q511.27814 87.99479 511.5125 86.90104ZM513.9969 87.15104L515.0594 87.05729Q515.1375 87.71354 515.41876 88.11979Q515.7 88.52604 516.27814 88.791664Q516.8719 89.041664 517.60626 89.041664Q518.2469 89.041664 518.7469 88.854164Q519.2469 88.65104 519.48126 88.322914Q519.73126 87.979164 519.73126 87.58854Q519.73126 87.18229 519.4969 86.885414Q519.2625 86.572914 518.73126 86.36979Q518.3719 86.229164 517.1844 85.947914Q516.0125 85.666664 515.54376 85.416664Q514.91876 85.08854 514.6219 84.61979Q514.325 84.135414 514.325 83.541664Q514.325 82.90104 514.6844 82.33854Q515.0594 81.760414 515.7625 81.479164Q516.48126 81.18229 517.34064 81.18229Q518.29376 81.18229 519.02814 81.49479Q519.7625 81.791664 520.15314 82.40104Q520.54376 82.99479 520.575 83.74479L519.48126 83.822914Q519.3875 83.010414 518.8719 82.604164Q518.3719 82.18229 517.3875 82.18229Q516.35626 82.18229 515.8875 82.55729Q515.41876 82.93229 515.41876 83.46354Q515.41876 83.93229 515.7469 84.229164Q516.075 84.52604 517.45 84.83854Q518.84064 85.15104 519.35626 85.385414Q520.10626 85.74479 520.46564 86.27604Q520.825 86.791664 520.825 87.49479Q520.825 88.18229 520.4344 88.791664Q520.04376 89.385414 519.3094 89.729164Q518.575 90.05729 517.65314 90.05729Q516.48126 90.05729 515.6844 89.729164Q514.90314 89.385414 514.45 88.697914Q514.0125 88.010414 513.9969 87.15104ZM524.825 89.916664L521.4969 81.322914L522.73126 81.322914L524.96564 87.572914Q525.23126 88.322914 525.41876 88.979164Q525.6219 88.27604 525.8875 87.572914L528.2 81.322914L529.35626 81.322914L525.9969 89.916664L524.825 89.916664Z" fill-rule="nonzero"/><path stroke="#fbbc04" stroke-width="4.0" stroke-linecap="butt" d="M484.45 109.916664L496.45 109.916664" fill-rule="nonzero"/><path fill="#1a1a1a" d="M504.9969 111.15104L506.0594 111.05729Q506.1375 111.71354 506.41876 112.11979Q506.7 112.52604 507.27814 112.791664Q507.8719 113.041664 508.60626 113.041664Q509.2469 113.041664 509.7469 112.854164Q510.2469 112.65104 510.48126 112.322914Q510.73126 111.979164 510.73126 111.58854Q510.73126 111.18229 510.4969 110.885414Q510.2625 110.572914 509.73126 110.36979Q509.3719 110.229164 508.1844 109.947914Q507.0125 109.666664 506.54376 109.416664Q505.91876 109.08854 505.6219 108.61979Q505.325 108.135414 505.325 107.541664Q505.325 106.90104 505.6844 106.33854Q506.0594 105.760414 506.7625 105.479164Q507.48126 105.18229 508.34064 105.18229Q509.29376 105.18229 510.02814 105.49479Q510.7625 105.791664 511.15314 106.40104Q511.54376 106.99479 511.575 107.74479L510.48126 107.822914Q510.3875 107.010414 509.8719 106.604164Q509.3719 106.18229 508.3875 106.18229Q507.35626 106.18229 506.8875 106.55729Q506.41876 106.93229 506.41876 107.46354Q506.41876 107.93229 506.7469 108.229164Q507.075 108.52604 508.45 108.83854Q509.84064 109.15104 510.35626 109.385414Q511.10626 109.74479 511.46564 110.27604Q511.825 110.791664 511.825 111.49479Q511.825 112.18229 511.4344 112.791664Q511.04376 113.385414 510.3094 113.729164Q509.575 114.05729 508.65314 114.05729Q507.48126 114.05729 506.6844 113.729164Q505.90314 113.385414 505.45 112.697914Q505.0125 112.010414 504.9969 111.15104ZM513.2469 116.30729L513.2469 107.697914L514.2 107.697914L514.2 108.49479Q514.54376 108.02604 514.96564 107.791664Q515.40314 107.55729 516.0125 107.55729Q516.8094 107.55729 517.41876 107.96354Q518.02814 108.36979 518.325 109.11979Q518.6375 109.86979 518.6375 110.760414Q518.6375 111.71354 518.29376 112.479164Q517.96564 113.24479 517.3094 113.65104Q516.65314 114.05729 515.9344 114.05729Q515.40314 114.05729 514.98126 113.83854Q514.5594 113.604164 514.29376 113.27604L514.29376 116.30729L513.2469 116.30729ZM514.2 110.83854Q514.2 112.041664 514.6844 112.61979Q515.16876 113.18229 515.85626 113.18229Q516.5594 113.18229 517.0594 112.58854Q517.5594 111.99479 517.5594 110.74479Q517.5594 109.55729 517.075 108.979164Q516.59064 108.385414 515.90314 108.385414Q515.23126 108.385414 514.71564 109.010414Q514.2 109.635414 514.2 110.83854ZM520.23126 113.916664L520.23126 107.697914L521.1844 107.697914L521.1844 108.635414Q521.54376 107.979164 521.84064 107.77604Q522.15314 107.55729 522.52814 107.55729Q523.0594 107.55729 523.60626 107.885414L523.2469 108.86979Q522.85626 108.635414 522.48126 108.635414Q522.1219 108.635414 521.84064 108.854164Q521.575 109.05729 521.46564 109.43229Q521.27814 109.99479 521.27814 110.65104L521.27814 113.916664L520.23126 113.916664ZM528.4969 111.916664L529.59064 112.041664Q529.34064 112.99479 528.6375 113.52604Q527.9344 114.05729 526.85626 114.05729Q525.4969 114.05729 524.6844 113.21354Q523.8875 112.36979 523.8875 110.854164Q523.8875 109.291664 524.7 108.43229Q525.5125 107.55729 526.79376 107.55729Q528.04376 107.55729 528.825 108.40104Q529.6219 109.24479 529.6219 110.791664Q529.6219 110.885414 529.6219 111.072914L524.98126 111.072914Q525.04376 112.104164 525.5594 112.65104Q526.075 113.18229 526.85626 113.18229Q527.4344 113.18229 527.84064 112.885414Q528.2625 112.572914 528.4969 111.916664ZM525.04376 110.21354L528.5125 110.21354Q528.45 109.416664 528.1219 109.02604Q527.60626 108.416664 526.8094 108.416664Q526.075 108.416664 525.575 108.90104Q525.09064 109.385414 525.04376 110.21354ZM535.3094 113.15104Q534.71564 113.65104 534.16876 113.854164Q533.6375 114.05729 533.0125 114.05729Q531.98126 114.05729 531.4344 113.55729Q530.8875 113.05729 530.8875 112.27604Q530.8875 111.822914 531.09064 111.447914Q531.29376 111.05729 531.6375 110.83854Q531.98126 110.604164 532.40314 110.49479Q532.7 110.40104 533.34064 110.322914Q534.60626 110.18229 535.21564 109.96354Q535.21564 109.74479 535.21564 109.697914Q535.21564 109.041664 534.91876 108.77604Q534.5125 108.43229 533.71564 108.43229Q532.98126 108.43229 532.6219 108.697914Q532.2625 108.947914 532.09064 109.604164L531.0594 109.46354Q531.2 108.80729 531.52814 108.40104Q531.85626 107.99479 532.46564 107.77604Q533.075 107.55729 533.8719 107.55729Q534.66876 107.55729 535.16876 107.74479Q535.66876 107.93229 535.90314 108.21354Q536.1375 108.49479 536.23126 108.93229Q536.27814 109.197914 536.27814 109.90104L536.27814 111.30729Q536.27814 112.77604 536.34064 113.166664Q536.41876 113.55729 536.6219 113.916664L535.5125 113.916664Q535.35626 113.58854 535.3094 113.15104ZM535.21564 110.791664Q534.6375 111.02604 533.4969 111.197914Q532.84064 111.291664 532.575 111.416664Q532.3094 111.52604 532.15314 111.74479Q532.0125 111.96354 532.0125 112.24479Q532.0125 112.666664 532.325 112.947914Q532.65314 113.229164 533.2625 113.229164Q533.8719 113.229164 534.34064 112.96354Q534.825 112.697914 535.04376 112.229164Q535.21564 111.86979 535.21564 111.18229L535.21564 110.791664ZM542.27814 113.916664L542.27814 113.135414Q541.6844 114.05729 540.54376 114.05729Q539.79376 114.05729 539.16876 113.65104Q538.54376 113.229164 538.2 112.49479Q537.85626 111.760414 537.85626 110.80729Q537.85626 109.885414 538.16876 109.11979Q538.48126 108.354164 539.10626 107.96354Q539.73126 107.55729 540.4969 107.55729Q541.0594 107.55729 541.4969 107.791664Q541.9344 108.02604 542.21564 108.40104L542.21564 105.322914L543.2625 105.322914L543.2625 113.916664L542.27814 113.916664ZM538.95 110.80729Q538.95 112.010414 539.45 112.604164Q539.95 113.18229 540.6375 113.18229Q541.325 113.18229 541.8094 112.61979Q542.29376 112.05729 542.29376 110.90104Q542.29376 109.61979 541.79376 109.02604Q541.3094 108.43229 540.59064 108.43229Q539.8875 108.43229 539.41876 109.010414Q538.95 109.572914 538.95 110.80729ZM544.825 112.05729L545.85626 111.90104Q545.95 112.52604 546.34064 112.854164Q546.7469 113.18229 547.48126 113.18229Q548.2 113.18229 548.54376 112.90104Q548.90314 112.604164 548.90314 112.197914Q548.90314 111.83854 548.59064 111.635414Q548.3719 111.49479 547.5125 111.27604Q546.35626 110.979164 545.90314 110.77604Q545.46564 110.55729 545.23126 110.18229Q544.9969 109.80729 544.9969 109.33854Q544.9969 108.93229 545.1844 108.572914Q545.3719 108.21354 545.7 107.979164Q545.95 107.80729 546.3719 107.68229Q546.79376 107.55729 547.29376 107.55729Q548.0125 107.55729 548.5594 107.77604Q549.1219 107.979164 549.3875 108.33854Q549.65314 108.697914 549.7469 109.291664L548.71564 109.43229Q548.65314 108.96354 548.3094 108.697914Q547.98126 108.416664 547.35626 108.416664Q546.6375 108.416664 546.325 108.666664Q546.0125 108.90104 546.0125 109.229164Q546.0125 109.43229 546.1375 109.58854Q546.27814 109.760414 546.54376 109.86979Q546.7 109.93229 547.48126 110.135414Q548.60626 110.447914 549.04376 110.635414Q549.48126 110.822914 549.73126 111.18229Q549.98126 111.541664 549.98126 112.08854Q549.98126 112.61979 549.66876 113.08854Q549.3719 113.541664 548.79376 113.80729Q548.21564 114.05729 547.48126 114.05729Q546.2625 114.05729 545.6219 113.55729Q544.9969 113.041664 544.825 112.05729ZM552.2469 113.916664L552.2469 105.322914L553.29376 105.322914L553.29376 108.40104Q554.02814 107.55729 555.15314 107.55729Q555.85626 107.55729 556.35626 107.83854Q556.8719 108.104164 557.09064 108.58854Q557.3094 109.05729 557.3094 109.979164L557.3094 113.916664L556.2625 113.916664L556.2625 109.979164Q556.2625 109.18229 555.91876 108.822914Q555.575 108.46354 554.95 108.46354Q554.48126 108.46354 554.0594 108.71354Q553.65314 108.947914 553.46564 109.36979Q553.29376 109.77604 553.29376 110.510414L553.29376 113.916664L552.2469 113.916664ZM563.4969 111.916664L564.59064 112.041664Q564.34064 112.99479 563.6375 113.52604Q562.9344 114.05729 561.85626 114.05729Q560.4969 114.05729 559.6844 113.21354Q558.8875 112.36979 558.8875 110.854164Q558.8875 109.291664 559.7 108.43229Q560.5125 107.55729 561.79376 107.55729Q563.04376 107.55729 563.825 108.40104Q564.6219 109.24479 564.6219 110.791664Q564.6219 110.885414 564.6219 111.072914L559.98126 111.072914Q560.04376 112.104164 560.5594 112.65104Q561.075 113.18229 561.85626 113.18229Q562.4344 113.18229 562.84064 112.885414Q563.2625 112.572914 563.4969 111.916664ZM560.04376 110.21354L563.5125 110.21354Q563.45 109.416664 563.1219 109.02604Q562.60626 108.416664 561.8094 108.416664Q561.075 108.416664 560.575 108.90104Q560.09064 109.385414 560.04376 110.21354ZM570.4969 111.916664L571.59064 112.041664Q571.34064 112.99479 570.6375 113.52604Q569.9344 114.05729 568.85626 114.05729Q567.4969 114.05729 566.6844 113.21354Q565.8875 112.36979 565.8875 110.854164Q565.8875 109.291664 566.7 108.43229Q567.5125 107.55729 568.79376 107.55729Q570.04376 107.55729 570.825 108.40104Q571.6219 109.24479 571.6219 110.791664Q571.6219 110.885414 571.6219 111.072914L566.98126 111.072914Q567.04376 112.104164 567.5594 112.65104Q568.075 113.18229 568.85626 113.18229Q569.4344 113.18229 569.84064 112.885414Q570.2625 112.572914 570.4969 111.916664ZM567.04376 110.21354L570.5125 110.21354Q570.45 109.416664 570.1219 109.02604Q569.60626 108.416664 568.8094 108.416664Q568.075 108.416664 567.575 108.90104Q567.09064 109.385414 567.04376 110.21354ZM575.54376 112.979164L575.7 113.90104Q575.2469 113.99479 574.90314 113.99479Q574.325 113.99479 574.0125 113.822914Q573.7 113.635414 573.5594 113.33854Q573.4344 113.041664 573.4344 112.08854L573.4344 108.510414L572.66876 108.510414L572.66876 107.697914L573.4344 107.697914L573.4344 106.15104L574.48126 105.52604L574.48126 107.697914L575.54376 107.697914L575.54376 108.510414L574.48126 108.510414L574.48126 112.15104Q574.48126 112.604164 574.52814 112.729164Q574.59064 112.854164 574.71564 112.93229Q574.84064 113.010414 575.075 113.010414Q575.2625 113.010414 575.54376 112.979164Z" fill-rule="nonzero"/><path stroke="#34a853" stroke-width="4.0" stroke-linecap="butt" d="M484.45 133.91667L496.45 133.91667" fill-rule="nonzero"/><path fill="#1a1a1a" d="M504.9969 135.15105L506.0594 135.0573Q506.1375 135.71355 506.41876 136.1198Q506.7 136.52605 507.27814 136.79167Q507.8719 137.04167 508.60626 137.04167Q509.2469 137.04167 509.7469 136.85417Q510.2469 136.65105 510.48126 136.32292Q510.73126 135.97917 510.73126 135.58855Q510.73126 135.1823 510.4969 134.88542Q510.2625 134.57292 509.73126 134.3698Q509.3719 134.22917 508.1844 133.94792Q507.0125 133.66667 506.54376 133.41667Q505.91876 133.08855 505.6219 132.6198Q505.325 132.13542 505.325 131.54167Q505.325 130.90105 505.6844 130.33855Q506.0594 129.76042 506.7625 129.47917Q507.48126 129.1823 508.34064 129.1823Q509.29376 129.1823 510.02814 129.4948Q510.7625 129.79167 511.15314 130.40105Q511.54376 130.9948 511.575 131.7448L510.48126 131.82292Q510.3875 131.01042 509.8719 130.60417Q509.3719 130.1823 508.3875 130.1823Q507.35626 130.1823 506.8875 130.5573Q506.41876 130.9323 506.41876 131.46355Q506.41876 131.9323 506.7469 132.22917Q507.075 132.52605 508.45 132.83855Q509.84064 133.15105 510.35626 133.38542Q511.10626 133.7448 511.46564 134.27605Q511.825 134.79167 511.825 135.4948Q511.825 136.1823 511.4344 136.79167Q511.04376 137.38542 510.3094 137.72917Q509.575 138.0573 508.65314 138.0573Q507.48126 138.0573 506.6844 137.72917Q505.90314 137.38542 505.45 136.69792Q505.0125 136.01042 504.9969 135.15105ZM519.8875 136.9948Q520.6844 137.54167 521.34064 137.79167L521.0125 138.58855Q520.09064 138.2448 519.16876 137.52605Q518.21564 138.0573 517.0594 138.0573Q515.8875 138.0573 514.9344 137.4948Q513.9969 136.9323 513.48126 135.91667Q512.96564 134.90105 512.96564 133.6198Q512.96564 132.35417 513.48126 131.3073Q513.9969 130.26042 514.95 129.71355Q515.90314 129.16667 517.075 129.16667Q518.2625 129.16667 519.21564 129.7448Q520.1844 130.3073 520.6844 131.32292Q521.1844 132.33855 521.1844 133.6198Q521.1844 134.6823 520.85626 135.52605Q520.54376 136.3698 519.8875 136.9948ZM517.3875 135.54167Q518.3719 135.82292 519.0125 136.3698Q520.0125 135.44792 520.0125 133.6198Q520.0125 132.57292 519.65314 131.79167Q519.29376 131.01042 518.60626 130.58855Q517.9344 130.15105 517.09064 130.15105Q515.8094 130.15105 514.96564 131.02605Q514.1375 131.88542 514.1375 133.6198Q514.1375 135.29167 514.96564 136.19792Q515.79376 137.08855 517.09064 137.08855Q517.7 137.08855 518.23126 136.85417Q517.7 136.51042 517.10626 136.3698L517.3875 135.54167ZM522.325 137.91667L522.325 129.32292L523.46564 129.32292L523.46564 136.90105L527.7 136.90105L527.7 137.91667L522.325 137.91667ZM529.2469 130.54167L529.2469 129.32292L530.3094 129.32292L530.3094 130.54167L529.2469 130.54167ZM529.2469 137.91667L529.2469 131.69792L530.3094 131.69792L530.3094 137.91667L529.2469 137.91667ZM534.54376 136.97917L534.7 137.90105Q534.2469 137.9948 533.90314 137.9948Q533.325 137.9948 533.0125 137.82292Q532.7 137.63542 532.5594 137.33855Q532.4344 137.04167 532.4344 136.08855L532.4344 132.51042L531.66876 132.51042L531.66876 131.69792L532.4344 131.69792L532.4344 130.15105L533.48126 129.52605L533.48126 131.69792L534.54376 131.69792L534.54376 132.51042L533.48126 132.51042L533.48126 136.15105Q533.48126 136.60417 533.52814 136.72917Q533.59064 136.85417 533.71564 136.9323Q533.84064 137.01042 534.075 137.01042Q534.2625 137.01042 534.54376 136.97917ZM539.4969 135.91667L540.59064 136.04167Q540.34064 136.9948 539.6375 137.52605Q538.9344 138.0573 537.85626 138.0573Q536.4969 138.0573 535.6844 137.21355Q534.8875 136.3698 534.8875 134.85417Q534.8875 133.29167 535.7 132.4323Q536.5125 131.5573 537.79376 131.5573Q539.04376 131.5573 539.825 132.40105Q540.6219 133.2448 540.6219 134.79167Q540.6219 134.88542 540.6219 135.07292L535.98126 135.07292Q536.04376 136.10417 536.5594 136.65105Q537.075 137.1823 537.85626 137.1823Q538.4344 137.1823 538.84064 136.88542Q539.2625 136.57292 539.4969 135.91667ZM536.04376 134.21355L539.5125 134.21355Q539.45 133.41667 539.1219 133.02605Q538.60626 132.41667 537.8094 132.41667Q537.075 132.41667 536.575 132.90105Q536.09064 133.38542 536.04376 134.21355Z" fill-rule="nonzero"/><path stroke="#ff6d01" stroke-width="4.0" stroke-linecap="butt" d="M484.45 157.91667L496.45 157.91667" fill-rule="nonzero"/><path fill="#1a1a1a" d="M505.3719 161.91667L505.3719 153.32292L508.6219 153.32292Q509.46564 153.32292 509.91876 153.40105Q510.5594 153.51042 510.98126 153.8073Q511.41876 154.10417 511.66876 154.63542Q511.9344 155.16667 511.9344 155.8073Q511.9344 156.90105 511.23126 157.66667Q510.54376 158.41667 508.71564 158.41667L506.5125 158.41667L506.5125 161.91667L505.3719 161.91667ZM506.5125 157.41667L508.73126 157.41667Q509.84064 157.41667 510.29376 157.01042Q510.7625 156.58855 510.7625 155.83855Q510.7625 155.3073 510.48126 154.9323Q510.21564 154.54167 509.77814 154.41667Q509.48126 154.33855 508.71564 154.33855L506.5125 154.33855L506.5125 157.41667ZM517.3094 161.15105Q516.71564 161.65105 516.16876 161.85417Q515.6375 162.0573 515.0125 162.0573Q513.98126 162.0573 513.4344 161.5573Q512.8875 161.0573 512.8875 160.27605Q512.8875 159.82292 513.09064 159.44792Q513.29376 159.0573 513.6375 158.83855Q513.98126 158.60417 514.40314 158.4948Q514.7 158.40105 515.34064 158.32292Q516.60626 158.1823 517.21564 157.96355Q517.21564 157.7448 517.21564 157.69792Q517.21564 157.04167 516.91876 156.77605Q516.5125 156.4323 515.71564 156.4323Q514.98126 156.4323 514.6219 156.69792Q514.2625 156.94792 514.09064 157.60417L513.0594 157.46355Q513.2 156.8073 513.52814 156.40105Q513.85626 155.9948 514.46564 155.77605Q515.075 155.5573 515.8719 155.5573Q516.66876 155.5573 517.16876 155.7448Q517.66876 155.9323 517.90314 156.21355Q518.1375 156.4948 518.23126 156.9323Q518.27814 157.19792 518.27814 157.90105L518.27814 159.3073Q518.27814 160.77605 518.34064 161.16667Q518.41876 161.5573 518.6219 161.91667L517.5125 161.91667Q517.35626 161.58855 517.3094 161.15105ZM517.21564 158.79167Q516.6375 159.02605 515.4969 159.19792Q514.84064 159.29167 514.575 159.41667Q514.3094 159.52605 514.15314 159.7448Q514.0125 159.96355 514.0125 160.2448Q514.0125 160.66667 514.325 160.94792Q514.65314 161.22917 515.2625 161.22917Q515.8719 161.22917 516.34064 160.96355Q516.825 160.69792 517.04376 160.22917Q517.21564 159.8698 517.21564 159.1823L517.21564 158.79167ZM520.23126 161.91667L520.23126 155.69792L521.1844 155.69792L521.1844 156.63542Q521.54376 155.97917 521.84064 155.77605Q522.15314 155.5573 522.52814 155.5573Q523.0594 155.5573 523.60626 155.88542L523.2469 156.8698Q522.85626 156.63542 522.48126 156.63542Q522.1219 156.63542 521.84064 156.85417Q521.575 157.0573 521.46564 157.4323Q521.27814 157.9948 521.27814 158.65105L521.27814 161.91667L520.23126 161.91667ZM528.21564 164.3073L528.21564 161.26042Q527.96564 161.60417 527.5125 161.83855Q527.075 162.0573 526.575 162.0573Q525.46564 162.0573 524.66876 161.1823Q523.8719 160.29167 523.8719 158.7448Q523.8719 157.8073 524.2 157.07292Q524.52814 156.32292 525.1375 155.94792Q525.7625 155.5573 526.4969 155.5573Q527.65314 155.5573 528.3094 156.52605L528.3094 155.69792L529.2625 155.69792L529.2625 164.3073L528.21564 164.3073ZM524.95 158.79167Q524.95 159.9948 525.45 160.58855Q525.96564 161.1823 526.66876 161.1823Q527.34064 161.1823 527.825 160.6198Q528.3094 160.04167 528.3094 158.88542Q528.3094 157.63542 527.79376 157.01042Q527.29376 156.38542 526.59064 156.38542Q525.91876 156.38542 525.4344 156.97917Q524.95 157.5573 524.95 158.79167ZM535.325 161.91667L535.325 160.9948Q534.59064 162.0573 533.34064 162.0573Q532.79376 162.0573 532.3094 161.85417Q531.84064 161.63542 531.60626 161.32292Q531.3719 160.9948 531.27814 160.52605Q531.21564 160.22917 531.21564 159.54167L531.21564 155.69792L532.27814 155.69792L532.27814 159.15105Q532.27814 159.96355 532.34064 160.26042Q532.4344 160.66667 532.7469 160.91667Q533.075 161.15105 533.5594 161.15105Q534.02814 161.15105 534.4344 160.91667Q534.85626 160.66667 535.02814 160.2448Q535.21564 159.82292 535.21564 159.02605L535.21564 155.69792L536.2625 155.69792L536.2625 161.91667L535.325 161.91667ZM542.4969 159.91667L543.59064 160.04167Q543.34064 160.9948 542.6375 161.52605Q541.9344 162.0573 540.85626 162.0573Q539.4969 162.0573 538.6844 161.21355Q537.8875 160.3698 537.8875 158.85417Q537.8875 157.29167 538.7 156.4323Q539.5125 155.5573 540.79376 155.5573Q542.04376 155.5573 542.825 156.40105Q543.6219 157.2448 543.6219 158.79167Q543.6219 158.88542 543.6219 159.07292L538.98126 159.07292Q539.04376 160.10417 539.5594 160.65105Q540.075 161.1823 540.85626 161.1823Q541.4344 161.1823 541.84064 160.88542Q542.2625 160.57292 542.4969 159.91667ZM539.04376 158.21355L542.5125 158.21355Q542.45 157.41667 542.1219 157.02605Q541.60626 156.41667 540.8094 156.41667Q540.075 156.41667 539.575 156.90105Q539.09064 157.38542 539.04376 158.21355ZM547.54376 160.97917L547.7 161.90105Q547.2469 161.9948 546.90314 161.9948Q546.325 161.9948 546.0125 161.82292Q545.7 161.63542 545.5594 161.33855Q545.4344 161.04167 545.4344 160.08855L545.4344 156.51042L544.66876 156.51042L544.66876 155.69792L545.4344 155.69792L545.4344 154.15105L546.48126 153.52605L546.48126 155.69792L547.54376 155.69792L547.54376 156.51042L546.48126 156.51042L546.48126 160.15105Q546.48126 160.60417 546.52814 160.72917Q546.59064 160.85417 546.71564 160.9323Q546.84064 161.01042 547.075 161.01042Q547.2625 161.01042 547.54376 160.97917Z" fill-rule="nonzero"/><path stroke="#46bdc6" stroke-width="4.0" stroke-linecap="butt" d="M484.45 181.91667L496.45 181.91667" fill-rule="nonzero"/><path fill="#1a1a1a" d="M505.3719 185.91667L505.3719 177.32292L508.6219 177.32292Q509.46564 177.32292 509.91876 177.40105Q510.5594 177.51042 510.98126 177.8073Q511.41876 178.10417 511.66876 178.63542Q511.9344 179.16667 511.9344 179.8073Q511.9344 180.90105 511.23126 181.66667Q510.54376 182.41667 508.71564 182.41667L506.5125 182.41667L506.5125 185.91667L505.3719 185.91667ZM506.5125 181.41667L508.73126 181.41667Q509.84064 181.41667 510.29376 181.01042Q510.7625 180.58855 510.7625 179.83855Q510.7625 179.3073 510.48126 178.9323Q510.21564 178.54167 509.77814 178.41667Q509.48126 178.33855 508.71564 178.33855L506.5125 178.33855L506.5125 181.41667ZM517.3094 185.15105Q516.71564 185.65105 516.16876 185.85417Q515.6375 186.0573 515.0125 186.0573Q513.98126 186.0573 513.4344 185.5573Q512.8875 185.0573 512.8875 184.27605Q512.8875 183.82292 513.09064 183.44792Q513.29376 183.0573 513.6375 182.83855Q513.98126 182.60417 514.40314 182.4948Q514.7 182.40105 515.34064 182.32292Q516.60626 182.1823 517.21564 181.96355Q517.21564 181.7448 517.21564 181.69792Q517.21564 181.04167 516.91876 180.77605Q516.5125 180.4323 515.71564 180.4323Q514.98126 180.4323 514.6219 180.69792Q514.2625 180.94792 514.09064 181.60417L513.0594 181.46355Q513.2 180.8073 513.52814 180.40105Q513.85626 179.9948 514.46564 179.77605Q515.075 179.5573 515.8719 179.5573Q516.66876 179.5573 517.16876 179.7448Q517.66876 179.9323 517.90314 180.21355Q518.1375 180.4948 518.23126 180.9323Q518.27814 181.19792 518.27814 181.90105L518.27814 183.3073Q518.27814 184.77605 518.34064 185.16667Q518.41876 185.5573 518.6219 185.91667L517.5125 185.91667Q517.35626 185.58855 517.3094 185.15105ZM517.21564 182.79167Q516.6375 183.02605 515.4969 183.19792Q514.84064 183.29167 514.575 183.41667Q514.3094 183.52605 514.15314 183.7448Q514.0125 183.96355 514.0125 184.2448Q514.0125 184.66667 514.325 184.94792Q514.65314 185.22917 515.2625 185.22917Q515.8719 185.22917 516.34064 184.96355Q516.825 184.69792 517.04376 184.22917Q517.21564 183.8698 517.21564 183.1823L517.21564 182.79167ZM520.23126 185.91667L520.23126 179.69792L521.1844 179.69792L521.1844 180.63542Q521.54376 179.97917 521.84064 179.77605Q522.15314 179.5573 522.52814 179.5573Q523.0594 179.5573 523.60626 179.88542L523.2469 180.8698Q522.85626 180.63542 522.48126 180.63542Q522.1219 180.63542 521.84064 180.85417Q521.575 181.0573 521.46564 181.4323Q521.27814 181.9948 521.27814 182.65105L521.27814 185.91667L520.23126 185.91667ZM528.21564 188.3073L528.21564 185.26042Q527.96564 185.60417 527.5125 185.83855Q527.075 186.0573 526.575 186.0573Q525.46564 186.0573 524.66876 185.1823Q523.8719 184.29167 523.8719 182.7448Q523.8719 181.8073 524.2 181.07292Q524.52814 180.32292 525.1375 179.94792Q525.7625 179.5573 526.4969 179.5573Q527.65314 179.5573 528.3094 180.52605L528.3094 179.69792L529.2625 179.69792L529.2625 188.3073L528.21564 188.3073ZM524.95 182.79167Q524.95 183.9948 525.45 184.58855Q525.96564 185.1823 526.66876 185.1823Q527.34064 185.1823 527.825 184.6198Q528.3094 184.04167 528.3094 182.88542Q528.3094 181.63542 527.79376 181.01042Q527.29376 180.38542 526.59064 180.38542Q525.91876 180.38542 525.4344 180.97917Q524.95 181.5573 524.95 182.79167ZM535.325 185.91667L535.325 184.9948Q534.59064 186.0573 533.34064 186.0573Q532.79376 186.0573 532.3094 185.85417Q531.84064 185.63542 531.60626 185.32292Q531.3719 184.9948 531.27814 184.52605Q531.21564 184.22917 531.21564 183.54167L531.21564 179.69792L532.27814 179.69792L532.27814 183.15105Q532.27814 183.96355 532.34064 184.26042Q532.4344 184.66667 532.7469 184.91667Q533.075 185.15105 533.5594 185.15105Q534.02814 185.15105 534.4344 184.91667Q534.85626 184.66667 535.02814 184.2448Q535.21564 183.82292 535.21564 183.02605L535.21564 179.69792L536.2625 179.69792L536.2625 185.91667L535.325 185.91667ZM542.4969 183.91667L543.59064 184.04167Q543.34064 184.9948 542.6375 185.52605Q541.9344 186.0573 540.85626 186.0573Q539.4969 186.0573 538.6844 185.21355Q537.8875 184.3698 537.8875 182.85417Q537.8875 181.29167 538.7 180.4323Q539.5125 179.5573 540.79376 179.5573Q542.04376 179.5573 542.825 180.40105Q543.6219 181.2448 543.6219 182.79167Q543.6219 182.88542 543.6219 183.07292L538.98126 183.07292Q539.04376 184.10417 539.5594 184.65105Q540.075 185.1823 540.85626 185.1823Q541.4344 185.1823 541.84064 184.88542Q542.2625 184.57292 542.4969 183.91667ZM539.04376 182.21355L542.5125 182.21355Q542.45 181.41667 542.1219 181.02605Q541.60626 180.41667 540.8094 180.41667Q540.075 180.41667 539.575 180.90105Q539.09064 181.38542 539.04376 182.21355ZM547.54376 184.97917L547.7 185.90105Q547.2469 185.9948 546.90314 185.9948Q546.325 185.9948 546.0125 185.82292Q545.7 185.63542 545.5594 185.33855Q545.4344 185.04167 545.4344 184.08855L545.4344 180.51042L544.66876 180.51042L544.66876 179.69792L545.4344 179.69792L545.4344 178.15105L546.48126 177.52605L546.48126 179.69792L547.54376 179.69792L547.54376 180.51042L546.48126 180.51042L546.48126 184.15105Q546.48126 184.60417 546.52814 184.72917Q546.59064 184.85417 546.71564 184.9323Q546.84064 185.01042 547.075 185.01042Q547.2625 185.01042 547.54376 184.97917ZM548.34064 185.91667L548.34064 177.32292L550.0594 177.32292L552.09064 183.40105Q552.3719 184.26042 552.4969 184.6823Q552.6375 184.21355 552.95 183.3073L555.0125 177.32292L556.54376 177.32292L556.54376 185.91667L555.45 185.91667L555.45 178.72917L552.95 185.91667L551.91876 185.91667L549.4344 178.60417L549.4344 185.91667L548.34064 185.91667ZM561.4969 183.91667L562.59064 184.04167Q562.34064 184.9948 561.6375 185.52605Q560.9344 186.0573 559.85626 186.0573Q558.4969 186.0573 557.6844 185.21355Q556.8875 184.3698 556.8875 182.85417Q556.8875 181.29167 557.7 180.4323Q558.5125 179.5573 559.79376 179.5573Q561.04376 179.5573 561.825 180.40105Q562.6219 181.2448 562.6219 182.79167Q562.6219 182.88542 562.6219 183.07292L557.98126 183.07292Q558.04376 184.10417 558.5594 184.65105Q559.075 185.1823 559.85626 185.1823Q560.4344 185.1823 560.84064 184.88542Q561.2625 184.57292 561.4969 183.91667ZM558.04376 182.21355L561.5125 182.21355Q561.45 181.41667 561.1219 181.02605Q560.60626 180.41667 559.8094 180.41667Q559.075 180.41667 558.575 180.90105Q558.09064 181.38542 558.04376 182.21355ZM564.23126 185.91667L564.23126 179.69792L565.1844 179.69792L565.1844 180.63542Q565.54376 179.97917 565.84064 179.77605Q566.15314 179.5573 566.52814 179.5573Q567.0594 179.5573 567.60626 179.88542L567.2469 180.8698Q566.85626 180.63542 566.48126 180.63542Q566.1219 180.63542 565.84064 180.85417Q565.575 181.0573 565.46564 181.4323Q565.27814 181.9948 565.27814 182.65105L565.27814 185.91667L564.23126 185.91667ZM568.04376 186.4323L569.075 186.58855Q569.1375 187.0573 569.4344 187.27605Q569.825 187.57292 570.4969 187.57292Q571.23126 187.57292 571.6219 187.27605Q572.02814 186.97917 572.16876 186.46355Q572.2625 186.13542 572.2469 185.10417Q571.5594 185.91667 570.52814 185.91667Q569.2469 185.91667 568.54376 184.9948Q567.84064 184.0573 567.84064 182.77605Q567.84064 181.88542 568.15314 181.13542Q568.48126 180.3698 569.09064 179.96355Q569.7 179.5573 570.52814 179.5573Q571.6375 179.5573 572.35626 180.44792L572.35626 179.69792L573.325 179.69792L573.325 185.07292Q573.325 186.52605 573.02814 187.13542Q572.73126 187.7448 572.09064 188.08855Q571.45 188.44792 570.5125 188.44792Q569.40314 188.44792 568.71564 187.94792Q568.02814 187.44792 568.04376 186.4323ZM568.91876 182.69792Q568.91876 183.91667 569.40314 184.47917Q569.8875 185.04167 570.6219 185.04167Q571.35626 185.04167 571.84064 184.47917Q572.34064 183.91667 572.34064 182.72917Q572.34064 181.58855 571.825 181.01042Q571.325 180.4323 570.60626 180.4323Q569.90314 180.4323 569.40314 181.01042Q568.91876 181.57292 568.91876 182.69792ZM579.4969 183.91667L580.59064 184.04167Q580.34064 184.9948 579.6375 185.52605Q578.9344 186.0573 577.85626 186.0573Q576.4969 186.0573 575.6844 185.21355Q574.8875 184.3698 574.8875 182.85417Q574.8875 181.29167 575.7 180.4323Q576.5125 179.5573 577.79376 179.5573Q579.04376 179.5573 579.825 180.40105Q580.6219 181.2448 580.6219 182.79167Q580.6219 182.88542 580.6219 183.07292L575.98126 183.07292Q576.04376 184.10417 576.5594 184.65105Q577.075 185.1823 577.85626 185.1823Q578.4344 185.1823 578.84064 184.88542Q579.2625 184.57292 579.4969 183.91667ZM576.04376 182.21355L579.5125 182.21355Q579.45 181.41667 579.1219 181.02605Q578.60626 180.41667 577.8094 180.41667Q577.075 180.41667 576.575 180.90105Q576.09064 181.38542 576.04376 182.21355Z" fill-rule="nonzero"/><path fill="#757575" d="M20.190624 37.55L20.190624 23.2375L29.846874 23.2375L29.846874 24.925L22.08125 24.925L22.08125 29.3625L28.8 29.3625L28.8 31.05L22.08125 31.05L22.08125 37.55L20.190624 37.55ZM31.878124 25.253124L31.878124 23.2375L33.64375 23.2375L33.64375 25.253124L31.878124 25.253124ZM31.878124 37.55L31.878124 27.175L33.64375 27.175L33.64375 37.55L31.878124 37.55ZM35.83125 37.55L35.83125 23.2375L37.58125 23.2375L37.58125 37.55L35.83125 37.55ZM46.971874 34.20625L48.784374 34.440624Q48.3625 36.01875 47.190624 36.909374Q46.034374 37.784374 44.221874 37.784374Q41.95625 37.784374 40.6125 36.39375Q39.284374 34.9875 39.284374 32.45625Q39.284374 29.83125 40.628124 28.39375Q41.971874 26.940624 44.128124 26.940624Q46.20625 26.940624 47.51875 28.3625Q48.846874 29.76875 48.846874 32.346874Q48.846874 32.503124 48.83125 32.815624L41.096874 32.815624Q41.190624 34.51875 42.065624 35.425Q42.940624 36.33125 44.2375 36.33125Q45.20625 36.33125 45.878124 35.83125Q46.565624 35.315624 46.971874 34.20625ZM41.190624 31.3625L46.9875 31.3625Q46.878124 30.065624 46.33125 29.409374Q45.4875 28.39375 44.14375 28.39375Q42.940624 28.39375 42.1125 29.20625Q41.284374 30.003124 41.190624 31.3625ZM56.159374 34.45625L57.909374 34.175Q58.05 35.221874 58.721874 35.784374Q59.39375 36.33125 60.596874 36.33125Q61.8 36.33125 62.378124 35.846874Q62.971874 35.346874 62.971874 34.690624Q62.971874 34.096874 62.45625 33.753124Q62.096874 33.51875 60.659374 33.159374Q58.721874 32.659374 57.971874 32.315624Q57.2375 31.95625 56.846874 31.33125Q56.45625 30.690624 56.45625 29.925Q56.45625 29.2375 56.76875 28.64375Q57.096874 28.05 57.64375 27.659374Q58.05 27.3625 58.753124 27.159374Q59.471874 26.940624 60.284374 26.940624Q61.503124 26.940624 62.425 27.3Q63.346874 27.64375 63.784374 28.253124Q64.22188 28.846874 64.39375 29.846874L62.675 30.08125Q62.55 29.284374 61.9875 28.846874Q61.425 28.39375 60.409374 28.39375Q59.190624 28.39375 58.675 28.8Q58.159374 29.190624 58.159374 29.721874Q58.159374 30.065624 58.378124 30.346874Q58.58125 30.628124 59.05 30.815624Q59.315624 30.909374 60.596874 31.253124Q62.471874 31.753124 63.20625 32.08125Q63.940624 32.39375 64.3625 33.003124Q64.78438 33.596874 64.78438 34.503124Q64.78438 35.378124 64.26875 36.159374Q63.753124 36.940624 62.784374 37.3625Q61.815624 37.784374 60.596874 37.784374Q58.58125 37.784374 57.51875 36.940624Q56.45625 36.096874 56.159374 34.45625ZM66.87813 25.253124L66.87813 23.2375L68.64375 23.2375L68.64375 25.253124L66.87813 25.253124ZM66.87813 37.55L66.87813 27.175L68.64375 27.175L68.64375 37.55L66.87813 37.55ZM69.94063 37.55L69.94063 36.128124L76.55 28.55Q75.425 28.596874 74.56563 28.596874L70.33125 28.596874L70.33125 27.175L78.81563 27.175L78.81563 28.346874L73.19063 34.925L72.1125 36.128124Q73.28438 36.034374 74.33125 36.034374L79.12813 36.034374L79.12813 37.55L69.94063 37.55ZM86.97188 34.20625L88.78438 34.440624Q88.3625 36.01875 87.19063 36.909374Q86.03438 37.784374 84.22188 37.784374Q81.95625 37.784374 80.6125 36.39375Q79.28438 34.9875 79.28438 32.45625Q79.28438 29.83125 80.62813 28.39375Q81.97188 26.940624 84.12813 26.940624Q86.20625 26.940624 87.51875 28.3625Q88.84688 29.76875 88.84688 32.346874Q88.84688 32.503124 88.83125 32.815624L81.09688 32.815624Q81.19063 34.51875 82.06563 35.425Q82.94063 36.33125 84.2375 36.33125Q85.20625 36.33125 85.87813 35.83125Q86.56563 35.315624 86.97188 34.20625ZM81.19063 31.3625L86.9875 31.3625Q86.87813 30.065624 86.33125 29.409374Q85.4875 28.39375 84.14375 28.39375Q82.94063 28.39375 82.1125 29.20625Q81.28438 30.003124 81.19063 31.3625ZM100.22188 41.753124Q98.76875 39.925 97.76875 37.471874Q96.76875 35.003124 96.76875 32.3625Q96.76875 30.034374 97.51875 27.909374Q98.39375 25.440624 100.22188 22.9875L101.4875 22.9875Q100.3 25.01875 99.925 25.89375Q99.33125 27.2375 98.9875 28.70625Q98.56563 30.534374 98.56563 32.378124Q98.56563 37.065624 101.4875 41.753124L100.22188 41.753124ZM104.01875 37.55L104.01875 23.2375L109.39375 23.2375Q111.03438 23.2375 112.01875 23.675Q113.00313 24.096874 113.56563 25.003124Q114.12813 25.909374 114.12813 26.89375Q114.12813 27.815624 113.62813 28.628124Q113.14375 29.440624 112.12813 29.925Q113.425 30.315624 114.12813 31.2375Q114.83125 32.14375 114.83125 33.39375Q114.83125 34.409374 114.39375 35.26875Q113.97188 36.128124 113.34688 36.596874Q112.72188 37.065624 111.78438 37.315624Q110.84688 37.55 109.47188 37.55L104.01875 37.55ZM105.90938 29.253124L109.00313 29.253124Q110.26875 29.253124 110.81563 29.08125Q111.53438 28.8625 111.89375 28.378124Q112.26875 27.878124 112.26875 27.1125Q112.26875 26.409374 111.925 25.8625Q111.58125 25.315624 110.94063 25.128124Q110.31563 24.925 108.76875 24.925L105.90938 24.925L105.90938 29.253124ZM105.90938 35.8625L109.47188 35.8625Q110.39375 35.8625 110.76875 35.784374Q111.425 35.675 111.8625 35.409374Q112.3 35.128124 112.58125 34.6125Q112.8625 34.08125 112.8625 33.39375Q112.8625 32.596874 112.45625 32.003124Q112.05 31.409374 111.31563 31.175Q110.58125 30.940624 109.22188 30.940624L105.90938 30.940624L105.90938 35.8625ZM118.01875 41.753124L116.76875 41.753124Q119.675 37.065624 119.675 32.378124Q119.675 30.534374 119.26875 28.7375Q118.925 27.26875 118.33125 25.925Q117.95625 25.034374 116.76875 22.9875L118.01875 22.9875Q119.8625 25.440624 120.7375 27.909374Q121.4875 30.034374 121.4875 32.3625Q121.4875 35.003124 120.47188 37.471874Q119.47188 39.925 118.01875 41.753124Z" fill-rule="nonzero"/></svg>