<svg version="1.1" viewBox="0.0 0.0 600.0 371.0" fill="none" stroke="none" stroke-linecap="square" stroke-miterlimit="10" width="600" height="371" xmlns:xlink="http://www.w3.org/1999/xlink" xmlns="http://www.w3.org/2000/svg"><path fill="#ffffff" d="M0 0L600.0 0L600.0 371.0L0 371.0L0 0Z" fill-rule="nonzero"/><path stroke="#333333" stroke-width="1.0" stroke-linecap="butt" d="M70.5 332.5L581.5 332.5" fill-rule="nonzero"/><path stroke="#cccccc" stroke-width="1.0" stroke-linecap="butt" d="M70.5 283.5L581.5 283.5" fill-rule="nonzero"/><path stroke="#cccccc" stroke-width="1.0" stroke-linecap="butt" d="M70.5 234.5L581.5 234.5" fill-rule="nonzero"/><path stroke="#cccccc" stroke-width="1.0" stroke-linecap="butt" d="M70.5 185.5L581.5 185.5" fill-rule="nonzero"/><path stroke="#cccccc" stroke-width="1.0" stroke-linecap="butt" d="M70.5 137.5L581.5 137.5" fill-rule="nonzero"/><path stroke="#cccccc" stroke-width="1.0" stroke-linecap="butt" d="M70.5 88.5L581.5 88.5" fill-rule="nonzero"/><clipPath id="id_0"><path d="M70.55 88.28333L581.45 88.28333L581.45 332.45L70.55 332.45L70.55 88.28333Z" clip-rule="nonzero"/></clipPath><path stroke="#4285f4" stroke-width="2.0" stroke-linecap="butt" clip-path="url(#id_0)" d="M113.125 314.178L198.275 314.19177L283.425 313.45047L368.575 307.34433L453.725 301.57684L538.875 292.0669" fill-rule="nonzero"/><path stroke="#ea4335" stroke-width="2.0" stroke-linecap="butt" clip-path="url(#id_0)" d="M113.125 314.016L198.275 311.10498L283.425 307.47842L368.575 304.6679L453.725 277.49707L538.875 255.93736" fill-rule="nonzero"/><path stroke="#fbbc04" stroke-width="2.0" stroke-linecap="butt" clip-path="url(#id_0)" d="M113.125 311.90973L198.275 308.33734L283.425 303.18765L368.575 302.91467L453.725 278.8701L538.875 250.94481" fill-rule="nonzero"/><path stroke="#34a853" stroke-width="2.0" stroke-linecap="butt" clip-path="url(#id_0)" d="M113.125 309.40463L198.275 307.35214L283.425 306.20166L368.575 298.28473L453.725 248.33356L538.875 216.6001" fill-rule="nonzero"/><path stroke="#ff6d01" stroke-width="2.0" stroke-linecap="butt" clip-path="url(#id_0)" d="M113.125 306.74997L198.275 305.2422L283.425 292.4026L368.575 289.87527L453.725 258.83215L538.875 101.22004" fill-rule="nonzero"/><path fill="#000000" fill-opacity="0.0" clip-path="url(#id_0)" d="M116.125 314.178C116.125 315.83487 114.78185 317.178 113.125 317.178C111.46815 317.178 110.125 315.83487 110.125 314.178C110.125 312.52115 111.46815 311.178 113.125 311.178C114.78185 311.178 116.125 312.52115 116.125 314.178Z" fill-rule="nonzero"/><path fill="#000000" fill-opacity="0.0" clip-path="url(#id_0)" d="M201.275 314.19177C201.275 315.84863 199.93185 317.19177 198.275 317.19177C196.61815 317.19177 195.275 315.84863 195.275 314.19177C195.275 312.53494 196.61815 311.19177 198.275 311.19177C199.93185 311.19177 201.275 312.53494 201.275 314.19177Z" fill-rule="nonzero"/><path fill="#000000" fill-opacity="0.0" clip-path="url(#id_0)" d="M286.425 313.45047C286.425 315.1073 285.08185 316.45047 283.425 316.45047C281.76816 316.45047 280.425 315.1073 280.425 313.45047C280.425 311.7936 281.76816 310.45047 283.425 310.45047C285.08185 310.45047 286.425 311.7936 286.425 313.45047Z" fill-rule="nonzero"/><path fill="#000000" fill-opacity="0.0" clip-path="url(#id_0)" d="M371.575 307.34433C371.575 309.0012 370.23184 310.34433 368.575 310.34433C366.91815 310.34433 365.575 309.0012 365.575 307.34433C365.575 305.68747 366.91815 304.34433 368.575 304.34433C370.23184 304.34433 371.575 305.68747 371.575 307.34433Z" fill-rule="nonzero"/><path fill="#000000" fill-opacity="0.0" clip-path="url(#id_0)" d="M456.725 301.57684C456.725 303.2337 455.38187 304.57684 453.725 304.57684C452.06815 304.57684 450.725 303.2337 450.725 301.57684C450.725 299.91998 452.06815 298.57684 453.725 298.57684C455.38187 298.57684 456.725 299.91998 456.725 301.57684Z" fill-rule="nonzero"/><path fill="#000000" fill-opacity="0.0" clip-path="url(#id_0)" d="M541.875 292.0669C541.875 293.72375 540.53186 295.0669 538.875 295.0669C537.21814 295.0669 535.875 293.72375 535.875 292.0669C535.875 290.41003 537.21814 289.0669 538.875 289.0669C540.53186 289.0669 541.875 290.41003 541.875 292.0669Z" fill-rule="nonzero"/><path fill="#000000" fill-opacity="0.0" clip-path="url(#id_0)" d="M116.125 314.016C116.125 315.67285 114.78185 317.016 113.125 317.016C111.46815 317.016 110.125 315.67285 110.125 314.016C110.125 312.35913 111.46815 311.016 113.125 311.016C114.78185 311.016 116.125 312.35913 116.125 314.016Z" fill-rule="nonzero"/><path fill="#000000" fill-opacity="0.0" clip-path="url(#id_0)" d="M201.275 311.10498C201.275 312.76184 199.93185 314.10498 198.275 314.10498C196.61815 314.10498 195.275 312.76184 195.275 311.10498C195.275 309.44812 196.61815 308.10498 198.275 308.10498C199.93185 308.10498 201.275 309.44812 201.275 311.10498Z" fill-rule="nonzero"/><path fill="#000000" fill-opacity="0.0" clip-path="url(#id_0)" d="M286.425 307.47842C286.425 309.13528 285.08185 310.47842 283.425 310.47842C281.76816 310.47842 280.425 309.13528 280.425 307.47842C280.425 305.82156 281.76816 304.47842 283.425 304.47842C285.08185 304.47842 286.425 305.82156 286.425 307.47842Z" fill-rule="nonzero"/><path fill="#000000" fill-opacity="0.0" clip-path="url(#id_0)" d="M371.575 304.6679C371.575 306.32477 370.23184 307.6679 368.575 307.6679C366.91815 307.6679 365.575 306.32477 365.575 304.6679C365.575 303.01105 366.91815 301.6679 368.575 301.6679C370.23184 301.6679 371.575 303.01105 371.575 304.6679Z" fill-rule="nonzero"/><path fill="#000000" fill-opacity="0.0" clip-path="url(#id_0)" d="M456.725 277.49707C456.725 279.15393 455.38187 280.49707 453.725 280.49707C452.06815 280.49707 450.725 279.15393 450.725 277.49707C450.725 275.8402 452.06815 274.49707 453.725 274.49707C455.38187 274.49707 456.725 275.8402 456.725 277.49707Z" fill-rule="nonzero"/><path fill="#000000" fill-opacity="0.0" clip-path="url(#id_0)" d="M541.875 255.93736C541.875 257.5942 540.53186 258.93735 538.875 258.93735C537.21814 258.93735 535.875 257.5942 535.875 255.93736C535.875 254.2805 537.21814 252.93736 538.875 252.93736C540.53186 252.93736 541.875 254.2805 541.875 255.93736Z" fill-rule="nonzero"/><path fill="#000000" fill-opacity="0.0" clip-path="url(#id_0)" d="M116.125 311.90973C116.125 313.5666 114.78185 314.90973 113.125 314.90973C111.46815 314.90973 110.125 313.5666 110.125 311.90973C110.125 310.25287 111.46815 308.90973 113.125 308.90973C114.78185 308.90973 116.125 310.25287 116.125 311.90973Z" fill-rule="nonzero"/><path fill="#000000" fill-opacity="0.0" clip-path="url(#id_0)" d="M201.275 308.33734C201.275 309.9942 199.93185 311.33734 198.275 311.33734C196.61815 311.33734 195.275 309.9942 195.275 308.33734C195.275 306.68048 196.61815 305.33734 198.275 305.33734C199.93185 305.33734 201.275 306.68048 201.275 308.33734Z" fill-rule="nonzero"/><path fill="#000000" fill-opacity="0.0" clip-path="url(#id_0)" d="M286.425 303.18765C286.425 304.8445 285.08185 306.18765 283.425 306.18765C281.76816 306.18765 280.425 304.8445 280.425 303.18765C280.425 301.5308 281.76816 300.18765 283.425 300.18765C285.08185 300.18765 286.425 301.5308 286.425 303.18765Z" fill-rule="nonzero"/><path fill="#000000" fill-opacity="0.0" clip-path="url(#id_0)" d="M371.575 302.91467C371.575 304.5715 370.23184 305.91467 368.575 305.91467C366.91815 305.91467 365.575 304.5715 365.575 302.91467C365.575 301.2578 366.91815 299.91467 368.575 299.91467C370.23184 299.91467 371.575 301.2578 371.575 302.91467Z" fill-rule="nonzero"/><path fill="#000000" fill-opacity="0.0" clip-path="url(#id_0)" d="M456.725 278.8701C456.725 280.52695 455.38187 281.8701 453.725 281.8701C452.06815 281.8701 450.725 280.52695 450.725 278.8701C450.725 277.21323 452.06815 275.8701 453.725 275.8701C455.38187 275.8701 456.725 277.21323 456.725 278.8701Z" fill-rule="nonzero"/><path fill="#000000" fill-opacity="0.0" clip-path="url(#id_0)" d="M541.875 250.94481C541.875 252.60165 540.53186 253.94481 538.875 253.94481C537.21814 253.94481 535.875 252.60165 535.875 250.94481C535.875 249.28795 537.21814 247.94481 538.875 247.94481C540.53186 247.94481 541.875 249.28795 541.875 250.94481Z" fill-rule="nonzero"/><path fill="#000000" fill-opacity="0.0" clip-path="url(#id_0)" d="M116.125 309.40463C116.125 311.0615 114.78185 312.40463 113.125 312.40463C111.46815 312.40463 110.125 311.0615 110.125 309.40463C110.125 307.74777 111.46815 306.40463 113.125 306.40463C114.78185 306.40463 116.125 307.74777 116.125 309.40463Z" fill-rule="nonzero"/><path fill="#000000" fill-opacity="0.0" clip-path="url(#id_0)" d="M201.275 307.35214C201.275 309.009 199.93185 310.35214 198.275 310.35214C196.61815 310.35214 195.275 309.009 195.275 307.35214C195.275 305.69528 196.61815 304.35214 198.275 304.35214C199.93185 304.35214 201.275 305.69528 201.275 307.35214Z" fill-rule="nonzero"/><path fill="#000000" fill-opacity="0.0" clip-path="url(#id_0)" d="M286.425 306.20166C286.425 307.85852 285.08185 309.20166 283.425 309.20166C281.76816 309.20166 280.425 307.85852 280.425 306.20166C280.425 304.5448 281.76816 303.20166 283.425 303.20166C285.08185 303.20166 286.425 304.5448 286.425 306.20166Z" fill-rule="nonzero"/><path fill="#000000" fill-opacity="0.0" clip-path="url(#id_0)" d="M371.575 298.28473C371.575 299.9416 370.23184 301.28473 368.575 301.28473C366.91815 301.28473 365.575 299.9416 365.575 298.28473C365.575 296.62787 366.91815 295.28473 368.575 295.28473C370.23184 295.28473 371.575 296.62787 371.575 298.28473Z" fill-rule="nonzero"/><path fill="#000000" fill-opacity="0.0" clip-path="url(#id_0)" d="M456.725 248.33356C456.725 249.99042 455.38187 251.33356 453.725 251.33356C452.06815 251.33356 450.725 249.99042 450.725 248.33356C450.725 246.67671 452.06815 245.33356 453.725 245.33356C455.38187 245.33356 456.725 246.67671 456.725 248.33356Z" fill-rule="nonzero"/><path fill="#000000" fill-opacity="0.0" clip-path="url(#id_0)" d="M541.875 216.6001C541.875 218.25696 540.53186 219.6001 538.875 219.6001C537.21814 219.6001 535.875 218.25696 535.875 216.6001C535.875 214.94324 537.21814 213.6001 538.875 213.6001C540.53186 213.6001 541.875 214.94324 541.875 216.6001Z" fill-rule="nonzero"/><path fill="#000000" fill-opacity="0.0" clip-path="url(#id_0)" d="M116.125 306.74997C116.125 308.40683 114.78185 309.74997 113.125 309.74997C111.46815 309.74997 110.125 308.40683 110.125 306.74997C110.125 305.0931 111.46815 303.74997 113.125 303.74997C114.78185 303.74997 116.125 305.0931 116.125 306.74997Z" fill-rule="nonzero"/><path fill="#000000" fill-opacity="0.0" clip-path="url(#id_0)" d="M201.275 305.2422C201.275 306.89905 199.93185 308.2422 198.275 308.2422C196.61815 308.2422 195.275 306.89905 195.275 305.2422C195.275 303.58533 196.61815 302.2422 198.275 302.2422C199.93185 302.2422 201.275 303.58533 201.275 305.2422Z" fill-rule="nonzero"/><path fill="#000000" fill-opacity="0.0" clip-path="url(#id_0)" d="M286.425 292.4026C286.425 294.05945 285.08185 295.4026 283.425 295.4026C281.76816 295.4026 280.425 294.05945 280.425 292.4026C280.425 290.74573 281.76816 289.4026 283.425 289.4026C285.08185 289.4026 286.425 290.74573 286.425 292.4026Z" fill-rule="nonzero"/><path fill="#000000" fill-opacity="0.0" clip-path="url(#id_0)" d="M371.575 289.87527C371.575 291.53214 370.23184 292.87527 368.575 292.87527C366.91815 292.87527 365.575 291.53214 365.575 289.87527C365.575 288.21844 366.91815 286.87527 368.575 286.87527C370.23184 286.87527 371.575 288.21844 371.575 289.87527Z" fill-rule="nonzero"/><path fill="#000000" fill-opacity="0.0" clip-path="url(#id_0)" d="M456.725 258.83215C456.725 260.489 455.38187 261.83215 453.725 261.83215C452.06815 261.83215 450.725 260.489 450.725 258.83215C450.725 257.1753 452.06815 255.83215 453.725 255.83215C455.38187 255.83215 456.725 257.1753 456.725 258.83215Z" fill-rule="nonzero"/><path fill="#000000" fill-opacity="0.0" clip-path="url(#id_0)" d="M541.875 101.22004C541.875 102.87689 540.53186 104.22004 538.875 104.22004C537.21814 104.22004 535.875 102.87689 535.875 101.22004C535.875 99.56319 537.21814 98.22004 538.875 98.22004C540.53186 98.22004 541.875 99.56319 541.875 101.22004Z" fill-rule="nonzero"/><path fill="#000000" d="M58.05 332.21564Q58.05 330.6844 58.3625 329.7625Q58.675 328.825 59.284374 328.325Q59.909374 327.825 60.846874 327.825Q61.534374 327.825 62.05 328.10626Q62.58125 328.3875 62.925 328.91876Q63.26875 329.4344 63.45625 330.1844Q63.64375 330.9344 63.64375 332.21564Q63.64375 333.73126 63.33125 334.65314Q63.034374 335.575 62.409374 336.09064Q61.8 336.59064 60.846874 336.59064Q59.6125 336.59064 58.89375 335.7Q58.05 334.6375 58.05 332.21564ZM59.128124 332.21564Q59.128124 334.325 59.628124 335.02814Q60.128124 335.73126 60.846874 335.73126Q61.58125 335.73126 62.065624 335.02814Q62.565624 334.325 62.565624 332.21564Q62.565624 330.09064 62.065624 329.40314Q61.58125 328.7 60.83125 328.7Q60.1125 328.7 59.675 329.3094Q59.128124 330.09064 59.128124 332.21564Z" fill-rule="nonzero"/><path fill="#000000" d="M24.596874 286.60104L24.596874 287.61667L18.909374 287.61667Q18.909374 287.24167 19.034374 286.8823Q19.253124 286.30417 19.721874 285.74167Q20.20625 285.17917 21.1125 284.4448Q22.51875 283.28854 23.003124 282.61667Q23.503124 281.9448 23.503124 281.35104Q23.503124 280.72604 23.05 280.30417Q22.596874 279.86667 21.878124 279.86667Q21.1125 279.86667 20.659374 280.3198Q20.20625 280.77292 20.190624 281.58542L19.1125 281.47604Q19.221874 280.2573 19.940624 279.6323Q20.675 278.99167 21.909374 278.99167Q23.14375 278.99167 23.8625 279.67917Q24.58125 280.36667 24.58125 281.3823Q24.58125 281.89792 24.3625 282.39792Q24.159374 282.8823 23.659374 283.4448Q23.175 283.99167 22.05 284.9448Q21.096874 285.74167 20.815624 286.03854Q20.55 286.3198 20.378124 286.60104L24.596874 286.60104ZM26.64375 287.61667L26.64375 286.41354L27.846874 286.41354L27.846874 287.61667L26.64375 287.61667ZM29.05 285.36667L30.159374 285.27292Q30.284374 286.08542 30.721874 286.49167Q31.175 286.89792 31.815624 286.89792Q32.565624 286.89792 33.096874 286.3198Q33.628124 285.74167 33.628124 284.80417Q33.628124 283.89792 33.1125 283.3823Q32.6125 282.85104 31.784374 282.85104Q31.284374 282.85104 30.8625 283.08542Q30.45625 283.3198 30.221874 283.67917L29.2375 283.55417L30.065624 279.14792L34.346874 279.14792L34.346874 280.14792L30.909374 280.14792L30.45625 282.46042Q31.221874 281.91354 32.065624 281.91354Q33.190624 281.91354 33.95625 282.6948Q34.7375 283.47604 34.7375 284.71042Q34.7375 285.86667 34.065624 286.72604Q33.2375 287.7573 31.815624 287.7573Q30.64375 287.7573 29.89375 287.10104Q29.159374 286.4448 29.05 285.36667ZM36.05 283.3823Q36.05 281.85104 36.3625 280.92917Q36.675 279.99167 37.284374 279.49167Q37.909374 278.99167 38.846874 278.99167Q39.534374 278.99167 40.05 279.27292Q40.58125 279.55417 40.925 280.08542Q41.26875 280.60104 41.45625 281.35104Q41.64375 282.10104 41.64375 283.3823Q41.64375 284.89792 41.33125 285.8198Q41.034374 286.74167 40.409374 287.2573Q39.8 287.7573 38.846874 287.7573Q37.6125 287.7573 36.89375 286.86667Q36.05 285.80417 36.05 283.3823ZM37.128124 283.3823Q37.128124 285.49167 37.628124 286.1948Q38.128124 286.89792 38.846874 286.89792Q39.58125 286.89792 40.065624 286.1948Q40.565624 285.49167 40.565624 283.3823Q40.565624 281.2573 40.065624 280.5698Q39.58125 279.86667 38.83125 279.86667Q38.1125 279.86667 37.675 280.47604Q37.128124 281.2573 37.128124 283.3823ZM43.503124 287.61667L43.503124 279.02292L49.70625 279.02292L49.70625 280.03854L44.64375 280.03854L44.64375 282.66354L49.39375 282.66354L49.39375 283.67917L44.64375 283.67917L44.64375 286.60104L49.909374 286.60104L49.909374 287.61667L43.503124 287.61667ZM53.55 286.22604L53.55 283.86667L51.221874 283.86667L51.221874 282.8823L53.55 282.8823L53.55 280.55417L54.55 280.55417L54.55 282.8823L56.89375 282.8823L56.89375 283.86667L54.55 283.86667L54.55 286.22604L53.55 286.22604ZM58.1125 280.14792L58.1125 279.1323L63.675 279.1323L63.675 279.96042Q62.8625 280.83542 62.05 282.28854Q61.253124 283.72604 60.815624 285.2573Q60.4875 286.33542 60.409374 287.61667L59.315624 287.61667Q59.33125 286.60104 59.70625 285.16354Q60.096874 283.72604 60.8 282.39792Q61.51875 281.0698 62.33125 280.14792L58.1125 280.14792Z" fill-rule="nonzero"/><path fill="#000000" d="M19.05 236.53334L20.159374 236.43959Q20.284374 237.25209 20.721874 237.65834Q21.175 238.06459 21.815624 238.06459Q22.565624 238.06459 23.096874 237.48647Q23.628124 236.90834 23.628124 235.97084Q23.628124 235.06459 23.1125 234.54897Q22.6125 234.01772 21.784374 234.01772Q21.284374 234.01772 20.8625 234.25209Q20.45625 234.48647 20.221874 234.84584L19.2375 234.72084L20.065624 230.31459L24.346874 230.31459L24.346874 231.31459L20.909374 231.31459L20.45625 233.62709Q21.221874 233.08022 22.065624 233.08022Q23.190624 233.08022 23.95625 233.86147Q24.7375 234.64272 24.7375 235.87709Q24.7375 237.03334 24.065624 237.89272Q23.2375 238.92397 21.815624 238.92397Q20.64375 238.92397 19.89375 238.26772Q19.159374 237.61147 19.05 236.53334ZM26.64375 238.78334L26.64375 237.58022L27.846874 237.58022L27.846874 238.78334L26.64375 238.78334ZM29.05 234.54897Q29.05 233.01772 29.3625 232.09584Q29.675 231.15834 30.284374 230.65834Q30.909374 230.15834 31.846874 230.15834Q32.534374 230.15834 33.05 230.43959Q33.58125 230.72084 33.925 231.25209Q34.26875 231.76772 34.45625 232.51772Q34.64375 233.26772 34.64375 234.54897Q34.64375 236.06459 34.33125 236.98647Q34.034374 237.90834 33.409374 238.42397Q32.8 238.92397 31.846874 238.92397Q30.6125 238.92397 29.89375 238.03334Q29.05 236.97084 29.05 234.54897ZM30.128124 234.54897Q30.128124 236.65834 30.628124 237.36147Q31.128124 238.06459 31.846874 238.06459Q32.58125 238.06459 33.065624 237.36147Q33.565624 236.65834 33.565624 234.54897Q33.565624 232.42397 33.065624 231.73647Q32.58125 231.03334 31.83125 231.03334Q31.1125 231.03334 30.675 231.64272Q30.128124 232.42397 30.128124 234.54897ZM36.05 234.54897Q36.05 233.01772 36.3625 232.09584Q36.675 231.15834 37.284374 230.65834Q37.909374 230.15834 38.846874 230.15834Q39.534374 230.15834 40.05 230.43959Q40.58125 230.72084 40.925 231.25209Q41.26875 231.76772 41.45625 232.51772Q41.64375 233.26772 41.64375 234.54897Q41.64375 236.06459 41.33125 236.98647Q41.034374 237.90834 40.409374 238.42397Q39.8 238.92397 38.846874 238.92397Q37.6125 238.92397 36.89375 238.03334Q36.05 236.97084 36.05 234.54897ZM37.128124 234.54897Q37.128124 236.65834 37.628124 237.36147Q38.128124 238.06459 38.846874 238.06459Q39.58125 238.06459 40.065624 237.36147Q40.565624 236.65834 40.565624 234.54897Q40.565624 232.42397 40.065624 231.73647Q39.58125 231.03334 38.83125 231.03334Q38.1125 231.03334 37.675 231.64272Q37.128124 232.42397 37.128124 234.54897ZM43.503124 238.78334L43.503124 230.18959L49.70625 230.18959L49.70625 231.20522L44.64375 231.20522L44.64375 233.83022L49.39375 233.83022L49.39375 234.84584L44.64375 234.84584L44.64375 237.76772L49.909374 237.76772L49.909374 238.78334L43.503124 238.78334ZM53.55 237.39272L53.55 235.03334L51.221874 235.03334L51.221874 234.04897L53.55 234.04897L53.55 231.72084L54.55 231.72084L54.55 234.04897L56.89375 234.04897L56.89375 235.03334L54.55 235.03334L54.55 237.39272L53.55 237.39272ZM58.1125 231.31459L58.1125 230.29897L63.675 230.29897L63.675 231.12709Q62.8625 232.00209 62.05 233.45522Q61.253124 234.89272 60.815624 236.42397Q60.4875 237.50209 60.409374 238.78334L59.315624 238.78334Q59.33125 237.76772 59.70625 236.33022Q60.096874 234.89272 60.8 233.56459Q61.51875 232.23647 62.33125 231.31459L58.1125 231.31459Z" fill-rule="nonzero"/><path fill="#000000" d="M19.1125 182.48125L19.1125 181.46562L24.675 181.46562L24.675 182.29375Q23.8625 183.16875 23.05 184.62187Q22.253124 186.05937 21.815624 187.59062Q21.4875 188.66875 21.409374 189.95L20.315624 189.95Q20.33125 188.93437 20.70625 187.49687Q21.096874 186.05937 21.8 184.73125Q22.51875 183.40312 23.33125 182.48125L19.1125 182.48125ZM26.64375 189.95L26.64375 188.74687L27.846874 188.74687L27.846874 189.95L26.64375 189.95ZM29.05 187.7L30.159374 187.60625Q30.284374 188.41875 30.721874 188.825Q31.175 189.23125 31.815624 189.23125Q32.565624 189.23125 33.096874 188.65312Q33.628124 188.075 33.628124 187.1375Q33.628124 186.23125 33.1125 185.71562Q32.6125 185.18437 31.784374 185.18437Q31.284374 185.18437 30.8625 185.41875Q30.45625 185.65312 30.221874 186.0125L29.2375 185.8875L30.065624 181.48125L34.346874 181.48125L34.346874 182.48125L30.909374 182.48125L30.45625 184.79375Q31.221874 184.24687 32.065624 184.24687Q33.190624 184.24687 33.95625 185.02812Q34.7375 185.80937 34.7375 187.04375Q34.7375 188.2 34.065624 189.05937Q33.2375 190.09062 31.815624 190.09062Q30.64375 190.09062 29.89375 189.43437Q29.159374 188.77812 29.05 187.7ZM36.05 185.71562Q36.05 184.18437 36.3625 183.2625Q36.675 182.325 37.284374 181.825Q37.909374 181.325 38.846874 181.325Q39.534374 181.325 40.05 181.60625Q40.58125 181.8875 40.925 182.41875Q41.26875 182.93437 41.45625 183.68437Q41.64375 184.43437 41.64375 185.71562Q41.64375 187.23125 41.33125 188.15312Q41.034374 189.075 40.409374 189.59062Q39.8 190.09062 38.846874 190.09062Q37.6125 190.09062 36.89375 189.2Q36.05 188.1375 36.05 185.71562ZM37.128124 185.71562Q37.128124 187.825 37.628124 188.52812Q38.128124 189.23125 38.846874 189.23125Q39.58125 189.23125 40.065624 188.52812Q40.565624 187.825 40.565624 185.71562Q40.565624 183.59062 40.065624 182.90312Q39.58125 182.2 38.83125 182.2Q38.1125 182.2 37.675 182.80937Q37.128124 183.59062 37.128124 185.71562ZM43.503124 189.95L43.503124 181.35625L49.70625 181.35625L49.70625 182.37187L44.64375 182.37187L44.64375 184.99687L49.39375 184.99687L49.39375 186.0125L44.64375 186.0125L44.64375 188.93437L49.909374 188.93437L49.909374 189.95L43.503124 189.95ZM53.55 188.55937L53.55 186.2L51.221874 186.2L51.221874 185.21562L53.55 185.21562L53.55 182.8875L54.55 182.8875L54.55 185.21562L56.89375 185.21562L56.89375 186.2L54.55 186.2L54.55 188.55937L53.55 188.55937ZM58.1125 182.48125L58.1125 181.46562L63.675 181.46562L63.675 182.29375Q62.8625 183.16875 62.05 184.62187Q61.253124 186.05937 60.815624 187.59062Q60.4875 188.66875 60.409374 189.95L59.315624 189.95Q59.33125 188.93437 59.70625 187.49687Q60.096874 186.05937 60.8 184.73125Q61.51875 183.40312 62.33125 182.48125L58.1125 182.48125Z" fill-rule="nonzero"/><path fill="#000000" d="M23.01875 141.11667L21.971874 141.11667L21.971874 134.39792Q21.58125 134.7573 20.95625 135.1323Q20.346874 135.49167 19.8625 135.66354L19.8625 134.64792Q20.7375 134.22604 21.39375 133.64792Q22.065624 133.05417 22.346874 132.49167L23.01875 132.49167L23.01875 141.11667ZM26.64375 141.11667L26.64375 139.91354L27.846874 139.91354L27.846874 141.11667L26.64375 141.11667ZM29.05 136.8823Q29.05 135.35104 29.3625 134.42917Q29.675 133.49167 30.284374 132.99167Q30.909374 132.49167 31.846874 132.49167Q32.534374 132.49167 33.05 132.77292Q33.58125 133.05417 33.925 133.58542Q34.26875 134.10104 34.45625 134.85104Q34.64375 135.60104 34.64375 136.8823Q34.64375 138.39792 34.33125 139.3198Q34.034374 140.24167 33.409374 140.7573Q32.8 141.2573 31.846874 141.2573Q30.6125 141.2573 29.89375 140.36667Q29.05 139.30417 29.05 136.8823ZM30.128124 136.8823Q30.128124 138.99167 30.628124 139.6948Q31.128124 140.39792 31.846874 140.39792Q32.58125 140.39792 33.065624 139.6948Q33.565624 138.99167 33.565624 136.8823Q33.565624 134.7573 33.065624 134.0698Q32.58125 133.36667 31.83125 133.36667Q31.1125 133.36667 30.675 133.97604Q30.128124 134.7573 30.128124 136.8823ZM36.05 136.8823Q36.05 135.35104 36.3625 134.42917Q36.675 133.49167 37.284374 132.99167Q37.909374 132.49167 38.846874 132.49167Q39.534374 132.49167 40.05 132.77292Q40.58125 133.05417 40.925 133.58542Q41.26875 134.10104 41.45625 134.85104Q41.64375 135.60104 41.64375 136.8823Q41.64375 138.39792 41.33125 139.3198Q41.034374 140.24167 40.409374 140.7573Q39.8 141.2573 38.846874 141.2573Q37.6125 141.2573 36.89375 140.36667Q36.05 139.30417 36.05 136.8823ZM37.128124 136.8823Q37.128124 138.99167 37.628124 139.6948Q38.128124 140.39792 38.846874 140.39792Q39.58125 140.39792 40.065624 139.6948Q40.565624 138.99167 40.565624 136.8823Q40.565624 134.7573 40.065624 134.0698Q39.58125 133.36667 38.83125 133.36667Q38.1125 133.36667 37.675 133.97604Q37.128124 134.7573 37.128124 136.8823ZM43.503124 141.11667L43.503124 132.52292L49.70625 132.52292L49.70625 133.53854L44.64375 133.53854L44.64375 136.16354L49.39375 136.16354L49.39375 137.17917L44.64375 137.17917L44.64375 140.10104L49.909374 140.10104L49.909374 141.11667L43.503124 141.11667ZM53.55 139.72604L53.55 137.36667L51.221874 137.36667L51.221874 136.3823L53.55 136.3823L53.55 134.05417L54.55 134.05417L54.55 136.3823L56.89375 136.3823L56.89375 137.36667L54.55 137.36667L54.55 139.72604L53.55 139.72604ZM59.675 136.46042Q59.01875 136.21042 58.690624 135.77292Q58.378124 135.3198 58.378124 134.71042Q58.378124 133.77292 59.05 133.1323Q59.7375 132.49167 60.846874 132.49167Q61.971874 132.49167 62.659374 133.14792Q63.346874 133.80417 63.346874 134.74167Q63.346874 135.33542 63.034374 135.77292Q62.721874 136.21042 62.08125 136.46042Q62.878124 136.71042 63.284374 137.28854Q63.690624 137.86667 63.690624 138.66354Q63.690624 139.7573 62.909374 140.5073Q62.14375 141.2573 60.8625 141.2573Q59.596874 141.2573 58.815624 140.5073Q58.034374 139.7573 58.034374 138.6323Q58.034374 137.78854 58.45625 137.22604Q58.89375 136.66354 59.675 136.46042ZM59.45625 134.66354Q59.45625 135.27292 59.846874 135.66354Q60.253124 136.05417 60.878124 136.05417Q61.4875 136.05417 61.878124 135.67917Q62.26875 135.28854 62.26875 134.72604Q62.26875 134.14792 61.8625 133.7573Q61.45625 133.35104 60.8625 133.35104Q60.253124 133.35104 59.846874 133.74167Q59.45625 134.1323 59.45625 134.66354ZM59.128124 138.6323Q59.128124 139.08542 59.33125 139.5073Q59.55 139.92917 59.971874 140.16354Q60.39375 140.39792 60.878124 140.39792Q61.628124 140.39792 62.1125 139.91354Q62.6125 139.42917 62.6125 138.67917Q62.6125 137.91354 62.1125 137.41354Q61.6125 136.91354 60.846874 136.91354Q60.096874 136.91354 59.6125 137.41354Q59.128124 137.89792 59.128124 138.6323Z" fill-rule="nonzero"/><path fill="#000000" d="M23.01875 92.28333L21.971874 92.28333L21.971874 85.56458Q21.58125 85.92396 20.95625 86.29896Q20.346874 86.65833 19.8625 86.83021L19.8625 85.81458Q20.7375 85.39271 21.39375 84.81458Q22.065624 84.22083 22.346874 83.65833L23.01875 83.65833L23.01875 92.28333ZM26.64375 92.28333L26.64375 91.08021L27.846874 91.08021L27.846874 92.28333L26.64375 92.28333ZM34.596874 91.26771L34.596874 92.28333L28.909374 92.28333Q28.909374 91.90833 29.034374 91.54896Q29.253124 90.97083 29.721874 90.40833Q30.20625 89.84583 31.1125 89.11146Q32.51875 87.95521 33.003124 87.28333Q33.503124 86.61146 33.503124 86.01771Q33.503124 85.39271 33.05 84.97083Q32.596874 84.53333 31.878124 84.53333Q31.1125 84.53333 30.659374 84.98646Q30.20625 85.43958 30.190624 86.25208L29.1125 86.14271Q29.221874 84.92396 29.940624 84.29896Q30.675 83.65833 31.909374 83.65833Q33.14375 83.65833 33.8625 84.34583Q34.58125 85.03333 34.58125 86.04896Q34.58125 86.56458 34.3625 87.06458Q34.159374 87.54896 33.659374 88.11146Q33.175 88.65833 32.05 89.61146Q31.096874 90.40833 30.815624 90.70521Q30.55 90.98646 30.378124 91.26771L34.596874 91.26771ZM36.05 90.03333L37.159374 89.93958Q37.284374 90.75208 37.721874 91.15833Q38.175 91.56458 38.815624 91.56458Q39.565624 91.56458 40.096874 90.98646Q40.628124 90.40833 40.628124 89.47083Q40.628124 88.56458 40.1125 88.04896Q39.6125 87.51771 38.784374 87.51771Q38.284374 87.51771 37.8625 87.75208Q37.45625 87.98646 37.221874 88.34583L36.2375 88.22083L37.065624 83.81458L41.346874 83.81458L41.346874 84.81458L37.909374 84.81458L37.45625 87.12708Q38.221874 86.58021 39.065624 86.58021Q40.190624 86.58021 40.95625 87.36146Q41.7375 88.14271 41.7375 89.37708Q41.7375 90.53333 41.065624 91.39271Q40.2375 92.42396 38.815624 92.42396Q37.64375 92.42396 36.89375 91.76771Q36.159374 91.11146 36.05 90.03333ZM43.503124 92.28333L43.503124 83.68958L49.70625 83.68958L49.70625 84.70521L44.64375 84.70521L44.64375 87.33021L49.39375 87.33021L49.39375 88.34583L44.64375 88.34583L44.64375 91.26771L49.909374 91.26771L49.909374 92.28333L43.503124 92.28333ZM53.55 90.89271L53.55 88.53333L51.221874 88.53333L51.221874 87.54896L53.55 87.54896L53.55 85.22083L54.55 85.22083L54.55 87.54896L56.89375 87.54896L56.89375 88.53333L54.55 88.53333L54.55 90.89271L53.55 90.89271ZM59.675 87.62708Q59.01875 87.37708 58.690624 86.93958Q58.378124 86.48646 58.378124 85.87708Q58.378124 84.93958 59.05 84.29896Q59.7375 83.65833 60.846874 83.65833Q61.971874 83.65833 62.659374 84.31458Q63.346874 84.97083 63.346874 85.90833Q63.346874 86.50208 63.034374 86.93958Q62.721874 87.37708 62.08125 87.62708Q62.878124 87.87708 63.284374 88.45521Q63.690624 89.03333 63.690624 89.83021Q63.690624 90.92396 62.909374 91.67396Q62.14375 92.42396 60.8625 92.42396Q59.596874 92.42396 58.815624 91.67396Q58.034374 90.92396 58.034374 89.79896Q58.034374 88.95521 58.45625 88.39271Q58.89375 87.83021 59.675 87.62708ZM59.45625 85.83021Q59.45625 86.43958 59.846874 86.83021Q60.253124 87.22083 60.878124 87.22083Q61.4875 87.22083 61.878124 86.84583Q62.26875 86.45521 62.26875 85.89271Q62.26875 85.31458 61.8625 84.92396Q61.45625 84.51771 60.8625 84.51771Q60.253124 84.51771 59.846874 84.90833Q59.45625 85.29896 59.45625 85.83021ZM59.128124 89.79896Q59.128124 90.25208 59.33125 90.67396Q59.55 91.09583 59.971874 91.33021Q60.39375 91.56458 60.878124 91.56458Q61.628124 91.56458 62.1125 91.08021Q62.6125 90.59583 62.6125 89.84583Q62.6125 89.08021 62.1125 88.58021Q61.6125 88.08021 60.846874 88.08021Q60.096874 88.08021 59.6125 88.58021Q59.128124 89.06458 59.128124 89.79896Z" fill-rule="nonzero"/><path fill="#000000" d="M114.09375 349.45L113.046875 349.45L113.046875 342.73126Q112.65625 343.09064 112.03125 343.46564Q111.421875 343.825 110.9375 343.9969L110.9375 342.98126Q111.8125 342.5594 112.46875 341.98126Q113.140625 341.3875 113.421875 340.825L114.09375 340.825L114.09375 349.45Z" fill-rule="nonzero"/><path fill="#000000" d="M195.74374 349.45L194.69687 349.45L194.69687 342.73126Q194.30624 343.09064 193.68124 343.46564Q193.07187 343.825 192.5875 343.9969L192.5875 342.98126Q193.4625 342.5594 194.11874 341.98126Q194.79062 341.3875 195.07187 340.825L195.74374 340.825L195.74374 349.45ZM198.775 345.21564Q198.775 343.6844 199.0875 342.7625Q199.4 341.825 200.00937 341.325Q200.63437 340.825 201.57187 340.825Q202.25937 340.825 202.775 341.10626Q203.30624 341.3875 203.65 341.91876Q203.99374 342.4344 204.18124 343.1844Q204.36874 343.9344 204.36874 345.21564Q204.36874 346.73126 204.05624 347.65314Q203.75937 348.575 203.13437 349.09064Q202.525 349.59064 201.57187 349.59064Q200.3375 349.59064 199.61874 348.7Q198.775 347.6375 198.775 345.21564ZM199.85312 345.21564Q199.85312 347.325 200.35312 348.02814Q200.85312 348.73126 201.57187 348.73126Q202.30624 348.73126 202.79062 348.02814Q203.29062 347.325 203.29062 345.21564Q203.29062 343.09064 202.79062 342.40314Q202.30624 341.7 201.55624 341.7Q200.8375 341.7 200.4 342.3094Q199.85312 343.09064 199.85312 345.21564Z" fill-rule="nonzero"/><path fill="#000000" d="M277.39374 349.45L276.34686 349.45L276.34686 342.73126Q275.95624 343.09064 275.33124 343.46564Q274.72186 343.825 274.2375 343.9969L274.2375 342.98126Q275.1125 342.5594 275.76874 341.98126Q276.4406 341.3875 276.72186 340.825L277.39374 340.825L277.39374 349.45ZM280.425 345.21564Q280.425 343.6844 280.7375 342.7625Q281.05 341.825 281.65936 341.325Q282.28436 340.825 283.22186 340.825Q283.90936 340.825 284.425 341.10626Q284.95624 341.3875 285.3 341.91876Q285.64374 342.4344 285.83124 343.1844Q286.01874 343.9344 286.01874 345.21564Q286.01874 346.73126 285.70624 347.65314Q285.40936 348.575 284.78436 349.09064Q284.175 349.59064 283.22186 349.59064Q281.9875 349.59064 281.26874 348.7Q280.425 347.6375 280.425 345.21564ZM281.5031 345.21564Q281.5031 347.325 282.0031 348.02814Q282.5031 348.73126 283.22186 348.73126Q283.95624 348.73126 284.4406 348.02814Q284.9406 347.325 284.9406 345.21564Q284.9406 343.09064 284.4406 342.40314Q283.95624 341.7 283.20624 341.7Q282.4875 341.7 282.05 342.3094Q281.5031 343.09064 281.5031 345.21564ZM287.425 345.21564Q287.425 343.6844 287.7375 342.7625Q288.05 341.825 288.65936 341.325Q289.28436 340.825 290.22186 340.825Q290.90936 340.825 291.425 341.10626Q291.95624 341.3875 292.3 341.91876Q292.64374 342.4344 292.83124 343.1844Q293.01874 343.9344 293.01874 345.21564Q293.01874 346.73126 292.70624 347.65314Q292.40936 348.575 291.78436 349.09064Q291.175 349.59064 290.22186 349.59064Q288.9875 349.59064 288.26874 348.7Q287.425 347.6375 287.425 345.21564ZM288.5031 345.21564Q288.5031 347.325 289.0031 348.02814Q289.5031 348.73126 290.22186 348.73126Q290.95624 348.73126 291.4406 348.02814Q291.9406 347.325 291.9406 345.21564Q291.9406 343.09064 291.4406 342.40314Q290.95624 341.7 290.20624 341.7Q289.4875 341.7 289.05 342.3094Q288.5031 343.09064 288.5031 345.21564Z" fill-rule="nonzero"/><path fill="#000000" d="M359.04376 349.45L357.9969 349.45L357.9969 342.73126Q357.60626 343.09064 356.98126 343.46564Q356.3719 343.825 355.8875 343.9969L355.8875 342.98126Q356.7625 342.5594 357.41876 341.98126Q358.09064 341.3875 358.3719 340.825L359.04376 340.825L359.04376 349.45ZM362.075 345.21564Q362.075 343.6844 362.3875 342.7625Q362.7 341.825 363.3094 341.325Q363.9344 340.825 364.8719 340.825Q365.5594 340.825 366.075 341.10626Q366.60626 341.3875 366.95 341.91876Q367.29376 342.4344 367.48126 343.1844Q367.66876 343.9344 367.66876 345.21564Q367.66876 346.73126 367.35626 347.65314Q367.0594 348.575 366.4344 349.09064Q365.825 349.59064 364.8719 349.59064Q363.6375 349.59064 362.91876 348.7Q362.075 347.6375 362.075 345.21564ZM363.15314 345.21564Q363.15314 347.325 363.65314 348.02814Q364.15314 348.73126 364.8719 348.73126Q365.60626 348.73126 366.09064 348.02814Q366.59064 347.325 366.59064 345.21564Q366.59064 343.09064 366.09064 342.40314Q365.60626 341.7 364.85626 341.7Q364.1375 341.7 363.7 342.3094Q363.15314 343.09064 363.15314 345.21564ZM369.075 345.21564Q369.075 343.6844 369.3875 342.7625Q369.7 341.825 370.3094 341.325Q370.9344 340.825 371.8719 340.825Q372.5594 340.825 373.075 341.10626Q373.60626 341.3875 373.95 341.91876Q374.29376 342.4344 374.48126 343.1844Q374.66876 343.9344 374.66876 345.21564Q374.66876 346.73126 374.35626 347.65314Q374.0594 348.575 373.4344 349.09064Q372.825 349.59064 371.8719 349.59064Q370.6375 349.59064 369.91876 348.7Q369.075 347.6375 369.075 345.21564ZM370.15314 345.21564Q370.15314 347.325 370.65314 348.02814Q371.15314 348.73126 371.8719 348.73126Q372.60626 348.73126 373.09064 348.02814Q373.59064 347.325 373.59064 345.21564Q373.59064 343.09064 373.09064 342.40314Q372.60626 341.7 371.85626 341.7Q371.1375 341.7 370.7 342.3094Q370.15314 343.09064 370.15314 345.21564ZM376.075 345.21564Q376.075 343.6844 376.3875 342.7625Q376.7 341.825 377.3094 341.325Q377.9344 340.825 378.8719 340.825Q379.5594 340.825 380.075 341.10626Q380.60626 341.3875 380.95 341.91876Q381.29376 342.4344 381.48126 343.1844Q381.66876 343.9344 381.66876 345.21564Q381.66876 346.73126 381.35626 347.65314Q381.0594 348.575 380.4344 349.09064Q379.825 349.59064 378.8719 349.59064Q377.6375 349.59064 376.91876 348.7Q376.075 347.6375 376.075 345.21564ZM377.15314 345.21564Q377.15314 347.325 377.65314 348.02814Q378.15314 348.73126 378.8719 348.73126Q379.60626 348.73126 380.09064 348.02814Q380.59064 347.325 380.59064 345.21564Q380.59064 343.09064 380.09064 342.40314Q379.60626 341.7 378.85626 341.7Q378.1375 341.7 377.7 342.3094Q377.15314 343.09064 377.15314 345.21564Z" fill-rule="nonzero"/><path fill="#000000" d="M440.69376 349.45L439.64688 349.45L439.64688 342.73126Q439.25626 343.09064 438.63126 343.46564Q438.02188 343.825 437.5375 343.9969L437.5375 342.98126Q438.4125 342.5594 439.06876 341.98126Q439.74063 341.3875 440.02188 340.825L440.69376 340.825L440.69376 349.45ZM443.725 345.21564Q443.725 343.6844 444.0375 342.7625Q444.35 341.825 444.95938 341.325Q445.58438 340.825 446.52188 340.825Q447.20938 340.825 447.725 341.10626Q448.25626 341.3875 448.6 341.91876Q448.94376 342.4344 449.13126 343.1844Q449.31876 343.9344 449.31876 345.21564Q449.31876 346.73126 449.00626 347.65314Q448.70938 348.575 448.08438 349.09064Q447.475 349.59064 446.52188 349.59064Q445.2875 349.59064 444.56876 348.7Q443.725 347.6375 443.725 345.21564ZM444.80313 345.21564Q444.80313 347.325 445.30313 348.02814Q445.80313 348.73126 446.52188 348.73126Q447.25626 348.73126 447.74063 348.02814Q448.24063 347.325 448.24063 345.21564Q448.24063 343.09064 447.74063 342.40314Q447.25626 341.7 446.50626 341.7Q445.7875 341.7 445.35 342.3094Q444.80313 343.09064 444.80313 345.21564ZM450.725 345.21564Q450.725 343.6844 451.0375 342.7625Q451.35 341.825 451.95938 341.325Q452.58438 340.825 453.52188 340.825Q454.20938 340.825 454.725 341.10626Q455.25626 341.3875 455.6 341.91876Q455.94376 342.4344 456.13126 343.1844Q456.31876 343.9344 456.31876 345.21564Q456.31876 346.73126 456.00626 347.65314Q455.70938 348.575 455.08438 349.09064Q454.475 349.59064 453.52188 349.59064Q452.2875 349.59064 451.56876 348.7Q450.725 347.6375 450.725 345.21564ZM451.80313 345.21564Q451.80313 347.325 452.30313 348.02814Q452.80313 348.73126 453.52188 348.73126Q454.25626 348.73126 454.74063 348.02814Q455.24063 347.325 455.24063 345.21564Q455.24063 343.09064 454.74063 342.40314Q454.25626 341.7 453.50626 341.7Q452.7875 341.7 452.35 342.3094Q451.80313 343.09064 451.80313 345.21564ZM457.725 345.21564Q457.725 343.6844 458.0375 342.7625Q458.35 341.825 458.95938 341.325Q459.58438 340.825 460.52188 340.825Q461.20938 340.825 461.725 341.10626Q462.25626 341.3875 462.6 341.91876Q462.94376 342.4344 463.13126 343.1844Q463.31876 343.9344 463.31876 345.21564Q463.31876 346.73126 463.00626 347.65314Q462.70938 348.575 462.08438 349.09064Q461.475 349.59064 460.52188 349.59064Q459.2875 349.59064 458.56876 348.7Q457.725 347.6375 457.725 345.21564ZM458.80313 345.21564Q458.80313 347.325 459.30313 348.02814Q459.80313 348.73126 460.52188 348.73126Q461.25626 348.73126 461.74063 348.02814Q462.24063 347.325 462.24063 345.21564Q462.24063 343.09064 461.74063 342.40314Q461.25626 341.7 460.50626 341.7Q459.7875 341.7 459.35 342.3094Q458.80313 343.09064 458.80313 345.21564ZM464.725 345.21564Q464.725 343.6844 465.0375 342.7625Q465.35 341.825 465.95938 341.325Q466.58438 340.825 467.52188 340.825Q468.20938 340.825 468.725 341.10626Q469.25626 341.3875 469.6 341.91876Q469.94376 342.4344 470.13126 343.1844Q470.31876 343.9344 470.31876 345.21564Q470.31876 346.73126 470.00626 347.65314Q469.70938 348.575 469.08438 349.09064Q468.475 349.59064 467.52188 349.59064Q466.2875 349.59064 465.56876 348.7Q464.725 347.6375 464.725 345.21564ZM465.80313 345.21564Q465.80313 347.325 466.30313 348.02814Q466.80313 348.73126 467.52188 348.73126Q468.25626 348.73126 468.74063 348.02814Q469.24063 347.325 469.24063 345.21564Q469.24063 343.09064 468.74063 342.40314Q468.25626 341.7 467.50626 341.7Q466.7875 341.7 466.35 342.3094Q465.80313 343.09064 465.80313 345.21564Z" fill-rule="nonzero"/><path fill="#000000" d="M522.34375 349.45L521.2969 349.45L521.2969 342.73126Q520.90625 343.09064 520.28125 343.46564Q519.6719 343.825 519.1875 343.9969L519.1875 342.98126Q520.0625 342.5594 520.71875 341.98126Q521.3906 341.3875 521.6719 340.825L522.34375 340.825L522.34375 349.45ZM525.375 345.21564Q525.375 343.6844 525.6875 342.7625Q526.0 341.825 526.6094 341.325Q527.2344 340.825 528.1719 340.825Q528.8594 340.825 529.375 341.10626Q529.90625 341.3875 530.25 341.91876Q530.59375 342.4344 530.78125 343.1844Q530.96875 343.9344 530.96875 345.21564Q530.96875 346.73126 530.65625 347.65314Q530.3594 348.575 529.7344 349.09064Q529.125 349.59064 528.1719 349.59064Q526.9375 349.59064 526.21875 348.7Q525.375 347.6375 525.375 345.21564ZM526.4531 345.21564Q526.4531 347.325 526.9531 348.02814Q527.4531 348.73126 528.1719 348.73126Q528.90625 348.73126 529.3906 348.02814Q529.8906 347.325 529.8906 345.21564Q529.8906 343.09064 529.3906 342.40314Q528.90625 341.7 528.15625 341.7Q527.4375 341.7 527.0 342.3094Q526.4531 343.09064 526.4531 345.21564ZM532.375 345.21564Q532.375 343.6844 532.6875 342.7625Q533.0 341.825 533.6094 341.325Q534.2344 340.825 535.1719 340.825Q535.8594 340.825 536.375 341.10626Q536.90625 341.3875 537.25 341.91876Q537.59375 342.4344 537.78125 343.1844Q537.96875 343.9344 537.96875 345.21564Q537.96875 346.73126 537.65625 347.65314Q537.3594 348.575 536.7344 349.09064Q536.125 349.59064 535.1719 349.59064Q533.9375 349.59064 533.21875 348.7Q532.375 347.6375 532.375 345.21564ZM533.4531 345.21564Q533.4531 347.325 533.9531 348.02814Q534.4531 348.73126 535.1719 348.73126Q535.90625 348.73126 536.3906 348.02814Q536.8906 347.325 536.8906 345.21564Q536.8906 343.09064 536.3906 342.40314Q535.90625 341.7 535.15625 341.7Q534.4375 341.7 534.0 342.3094Q533.4531 343.09064 533.4531 345.21564ZM539.375 345.21564Q539.375 343.6844 539.6875 342.7625Q540.0 341.825 540.6094 341.325Q541.2344 340.825 542.1719 340.825Q542.8594 340.825 543.375 341.10626Q543.90625 341.3875 544.25 341.91876Q544.59375 342.4344 544.78125 343.1844Q544.96875 343.9344 544.96875 345.21564Q544.96875 346.73126 544.65625 347.65314Q544.3594 348.575 543.7344 349.09064Q543.125 349.59064 542.1719 349.59064Q540.9375 349.59064 540.21875 348.7Q539.375 347.6375 539.375 345.21564ZM540.4531 345.21564Q540.4531 347.325 540.9531 348.02814Q541.4531 348.73126 542.1719 348.73126Q542.90625 348.73126 543.3906 348.02814Q543.8906 347.325 543.8906 345.21564Q543.8906 343.09064 543.3906 342.40314Q542.90625 341.7 542.15625 341.7Q541.4375 341.7 541.0 342.3094Q540.4531 343.09064 540.4531 345.21564ZM546.375 345.21564Q546.375 343.6844 546.6875 342.7625Q547.0 341.825 547.6094 341.325Q548.2344 340.825 549.1719 340.825Q549.8594 340.825 550.375 341.10626Q550.90625 341.3875 551.25 341.91876Q551.59375 342.4344 551.78125 343.1844Q551.96875 343.9344 551.96875 345.21564Q551.96875 346.73126 551.65625 347.65314Q551.3594 348.575 550.7344 349.09064Q550.125 349.59064 549.1719 349.59064Q547.9375 349.59064 547.21875 348.7Q546.375 347.6375 546.375 345.21564ZM547.4531 345.21564Q547.4531 347.325 547.9531 348.02814Q548.4531 348.73126 549.1719 348.73126Q549.90625 348.73126 550.3906 348.02814Q550.8906 347.325 550.8906 345.21564Q550.8906 343.09064 550.3906 342.40314Q549.90625 341.7 549.15625 341.7Q548.4375 341.7 548.0 342.3094Q547.4531 343.09064 547.4531 345.21564ZM553.375 345.21564Q553.375 343.6844 553.6875 342.7625Q554.0 341.825 554.6094 341.325Q555.2344 340.825 556.1719 340.825Q556.8594 340.825 557.375 341.10626Q557.90625 341.3875 558.25 341.91876Q558.59375 342.4344 558.78125 343.1844Q558.96875 343.9344 558.96875 345.21564Q558.96875 346.73126 558.65625 347.65314Q558.3594 348.575 557.7344 349.09064Q557.125 349.59064 556.1719 349.59064Q554.9375 349.59064 554.21875 348.7Q553.375 347.6375 553.375 345.21564ZM554.4531 345.21564Q554.4531 347.325 554.9531 348.02814Q555.4531 348.73126 556.1719 348.73126Q556.90625 348.73126 557.3906 348.02814Q557.8906 347.325 557.8906 345.21564Q557.8906 343.09064 557.3906 342.40314Q556.90625 341.7 556.15625 341.7Q555.4375 341.7 555.0 342.3094Q554.4531 343.09064 554.4531 345.21564Z" fill-rule="nonzero"/><path stroke="#4285f4" stroke-width="4.0" stroke-linecap="butt" d="M103.0 61.916668L115.0 61.916668" fill-rule="nonzero"/><path fill="#1a1a1a" d="M123.875 65.916664L123.875 57.322914L127.109375 57.322914Q128.09375 57.322914 128.6875 57.58854Q129.28125 57.854164 129.60938 58.40104Q129.95312 58.93229 129.95312 59.52604Q129.95312 60.072914 129.65625 60.55729Q129.35938 61.041664 128.75 61.33854Q129.53125 61.572914 129.9375 62.135414Q130.35938 62.68229 130.35938 63.43229Q130.35938 64.02604 130.10938 64.55729Q129.85938 65.072914 129.48438 65.354164Q129.10938 65.635414 128.53125 65.77604Q127.96875 65.916664 127.15625 65.916664L123.875 65.916664ZM125.015625 60.93229L126.875 60.93229Q127.625 60.93229 127.953125 60.83854Q128.39062 60.71354 128.60938 60.416664Q128.82812 60.104164 128.82812 59.65104Q128.82812 59.229164 128.625 58.90104Q128.42188 58.572914 128.03125 58.46354Q127.65625 58.33854 126.734375 58.33854L125.015625 58.33854L125.015625 60.93229ZM125.015625 64.90104L127.15625 64.90104Q127.703125 64.90104 127.921875 64.854164Q128.32812 64.791664 128.57812 64.635414Q128.84375 64.46354 129.01562 64.15104Q129.1875 63.83854 129.1875 63.43229Q129.1875 62.947914 128.9375 62.58854Q128.70312 62.229164 128.26562 62.08854Q127.828125 61.947914 127.0 61.947914L125.015625 61.947914L125.015625 64.90104ZM135.85938 65.15104Q135.26562 65.65104 134.71875 65.854164Q134.1875 66.05729 133.5625 66.05729Q132.53125 66.05729 131.98438 65.55729Q131.4375 65.05729 131.4375 64.27604Q131.4375 63.822914 131.64062 63.447914Q131.84375 63.05729 132.1875 62.83854Q132.53125 62.604164 132.95312 62.49479Q133.25 62.40104 133.89062 62.322914Q135.15625 62.18229 135.76562 61.96354Q135.76562 61.74479 135.76562 61.697914Q135.76562 61.041664 135.46875 60.77604Q135.0625 60.43229 134.26562 60.43229Q133.53125 60.43229 133.17188 60.697914Q132.8125 60.947914 132.64062 61.604164L131.60938 61.46354Q131.75 60.80729 132.07812 60.40104Q132.40625 59.99479 133.01562 59.77604Q133.625 59.55729 134.42188 59.55729Q135.21875 59.55729 135.71875 59.74479Q136.21875 59.93229 136.45312 60.21354Q136.6875 60.49479 136.78125 60.93229Q136.82812 61.197914 136.82812 61.90104L136.82812 63.30729Q136.82812 64.77604 136.89062 65.166664Q136.96875 65.55729 137.17188 65.916664L136.0625 65.916664Q135.90625 65.58854 135.85938 65.15104ZM135.76562 62.791664Q135.1875 63.02604 134.04688 63.197914Q133.39062 63.291664 133.125 63.416664Q132.85938 63.52604 132.70312 63.74479Q132.5625 63.96354 132.5625 64.24479Q132.5625 64.666664 132.875 64.947914Q133.20312 65.229164 133.8125 65.229164Q134.42188 65.229164 134.89062 64.96354Q135.375 64.697914 135.59375 64.229164Q135.76562 63.86979 135.76562 63.18229L135.76562 62.791664ZM138.375 64.05729L139.40625 63.90104Q139.5 64.52604 139.89062 64.854164Q140.29688 65.18229 141.03125 65.18229Q141.75 65.18229 142.09375 64.90104Q142.45312 64.604164 142.45312 64.197914Q142.45312 63.83854 142.14062 63.635414Q141.92188 63.49479 141.0625 63.27604Q139.90625 62.979164 139.45312 62.77604Q139.01562 62.55729 138.78125 62.18229Q138.54688 61.80729 138.54688 61.33854Q138.54688 60.93229 138.73438 60.572914Q138.92188 60.21354 139.25 59.979164Q139.5 59.80729 139.92188 59.68229Q140.34375 59.55729 140.84375 59.55729Q141.5625 59.55729 142.10938 59.77604Q142.67188 59.979164 142.9375 60.33854Q143.20312 60.697914 143.29688 61.291664L142.26562 61.43229Q142.20312 60.96354 141.85938 60.697914Q141.53125 60.416664 140.90625 60.416664Q140.1875 60.416664 139.875 60.666664Q139.5625 60.90104 139.5625 61.229164Q139.5625 61.43229 139.6875 61.58854Q139.82812 61.760414 140.09375 61.86979Q140.25 61.93229 141.03125 62.135414Q142.15625 62.447914 142.59375 62.635414Q143.03125 62.822914 143.28125 63.18229Q143.53125 63.541664 143.53125 64.08854Q143.53125 64.61979 143.21875 65.08854Q142.92188 65.541664 142.34375 65.80729Q141.76562 66.05729 141.03125 66.05729Q139.8125 66.05729 139.17188 65.55729Q138.54688 65.041664 138.375 64.05729ZM150.04688 63.916664L151.14062 64.041664Q150.89062 64.99479 150.1875 65.52604Q149.48438 66.05729 148.40625 66.05729Q147.04688 66.05729 146.23438 65.21354Q145.4375 64.36979 145.4375 62.854164Q145.4375 61.291664 146.25 60.43229Q147.0625 59.55729 148.34375 59.55729Q149.59375 59.55729 150.375 60.40104Q151.17188 61.24479 151.17188 62.791664Q151.17188 62.885414 151.17188 63.072914L146.53125 63.072914Q146.59375 64.104164 147.10938 64.65104Q147.625 65.18229 148.40625 65.18229Q148.98438 65.18229 149.39062 64.885414Q149.8125 64.572914 150.04688 63.916664ZM146.59375 62.21354L150.0625 62.21354Q150.0 61.416664 149.67188 61.02604Q149.15625 60.416664 148.35938 60.416664Q147.625 60.416664 147.125 60.90104Q146.64062 61.385414 146.59375 62.21354ZM152.76562 65.916664L152.76562 57.322914L153.82812 57.322914L153.82812 65.916664L152.76562 65.916664ZM155.79688 58.541664L155.79688 57.322914L156.85938 57.322914L156.85938 58.541664L155.79688 58.541664ZM155.79688 65.916664L155.79688 59.697914L156.85938 59.697914L156.85938 65.916664L155.79688 65.916664ZM158.79688 65.916664L158.79688 59.697914L159.73438 59.697914L159.73438 60.572914Q160.42188 59.55729 161.71875 59.55729Q162.28125 59.55729 162.75 59.760414Q163.23438 59.96354 163.46875 60.291664Q163.70312 60.61979 163.79688 61.05729Q163.84375 61.354164 163.84375 62.08854L163.84375 65.916664L162.79688 65.916664L162.79688 62.135414Q162.79688 61.479164 162.67188 61.166664Q162.54688 60.854164 162.23438 60.666664Q161.92188 60.46354 161.5 60.46354Q160.82812 60.46354 160.32812 60.90104Q159.84375 61.322914 159.84375 62.510414L159.84375 65.916664L158.79688 65.916664ZM170.04688 63.916664L171.14062 64.041664Q170.89062 64.99479 170.1875 65.52604Q169.48438 66.05729 168.40625 66.05729Q167.04688 66.05729 166.23438 65.21354Q165.4375 64.36979 165.4375 62.854164Q165.4375 61.291664 166.25 60.43229Q167.0625 59.55729 168.34375 59.55729Q169.59375 59.55729 170.375 60.40104Q171.17188 61.24479 171.17188 62.791664Q171.17188 62.885414 171.17188 63.072914L166.53125 63.072914Q166.59375 64.104164 167.10938 64.65104Q167.625 65.18229 168.40625 65.18229Q168.98438 65.18229 169.39062 64.885414Q169.8125 64.572914 170.04688 63.916664ZM166.59375 62.21354L170.0625 62.21354Q170.0 61.416664 169.67188 61.02604Q169.15625 60.416664 168.35938 60.416664Q167.625 60.416664 167.125 60.90104Q166.64062 61.385414 166.59375 62.21354Z" fill-rule="nonzero"/><path stroke="#ea4335" stroke-width="4.0" stroke-linecap="butt" d="M188.0 61.916668L200.0 61.916668" fill-rule="nonzero"/><path fill="#1a1a1a" d="M215.0625 62.90104L216.1875 63.197914Q215.82812 64.58854 214.90625 65.322914Q213.98438 66.05729 212.64062 66.05729Q211.25 66.05729 210.375 65.49479Q209.5 64.93229 209.04688 63.86979Q208.59375 62.791664 208.59375 61.55729Q208.59375 60.21354 209.10938 59.21354Q209.625 58.21354 210.5625 57.697914Q211.51562 57.18229 212.65625 57.18229Q213.9375 57.18229 214.8125 57.83854Q215.70312 58.49479 216.04688 59.68229L214.92188 59.947914Q214.625 59.010414 214.04688 58.58854Q213.48438 58.15104 212.625 58.15104Q211.64062 58.15104 210.96875 58.635414Q210.3125 59.104164 210.03125 59.90104Q209.76562 60.697914 209.76562 61.55729Q209.76562 62.65104 210.07812 63.46354Q210.40625 64.27604 211.07812 64.68229Q211.75 65.08854 212.54688 65.08854Q213.5 65.08854 214.15625 64.541664Q214.82812 63.99479 215.0625 62.90104ZM217.54688 63.15104L218.60938 63.05729Q218.6875 63.71354 218.96875 64.11979Q219.25 64.52604 219.82812 64.791664Q220.42188 65.041664 221.15625 65.041664Q221.79688 65.041664 222.29688 64.854164Q222.79688 64.65104 223.03125 64.322914Q223.28125 63.979164 223.28125 63.58854Q223.28125 63.18229 223.04688 62.885414Q222.8125 62.572914 222.28125 62.36979Q221.92188 62.229164 220.73438 61.947914Q219.5625 61.666664 219.09375 61.416664Q218.46875 61.08854 218.17188 60.61979Q217.875 60.135414 217.875 59.541664Q217.875 58.90104 218.23438 58.33854Q218.60938 57.760414 219.3125 57.479164Q220.03125 57.18229 220.89062 57.18229Q221.84375 57.18229 222.57812 57.49479Q223.3125 57.791664 223.70312 58.40104Q224.09375 58.99479 224.125 59.74479L223.03125 59.822914Q222.9375 59.010414 222.42188 58.604164Q221.92188 58.18229 220.9375 58.18229Q219.90625 58.18229 219.4375 58.55729Q218.96875 58.93229 218.96875 59.46354Q218.96875 59.93229 219.29688 60.229164Q219.625 60.52604 221.0 60.83854Q222.39062 61.15104 222.90625 61.385414Q223.65625 61.74479 224.01562 62.27604Q224.375 62.791664 224.375 63.49479Q224.375 64.18229 223.98438 64.791664Q223.59375 65.385414 222.85938 65.729164Q222.125 66.05729 221.20312 66.05729Q220.03125 66.05729 219.23438 65.729164Q218.45312 65.385414 218.0 64.697914Q217.5625 64.010414 217.54688 63.15104ZM228.375 65.916664L225.04688 57.322914L226.28125 57.322914L228.51562 63.572914Q228.78125 64.322914 228.96875 64.979164Q229.17188 64.27604 229.4375 63.572914L231.75 57.322914L232.90625 57.322914L229.54688 65.916664L228.375 65.916664Z" fill-rule="nonzero"/><path stroke="#fbbc04" stroke-width="4.0" stroke-linecap="butt" d="M248.0 61.916668L260.0 61.916668" fill-rule="nonzero"/><path fill="#1a1a1a" d="M268.54688 63.15104L269.60938 63.05729Q269.6875 63.71354 269.96875 64.11979Q270.25 64.52604 270.82812 64.791664Q271.42188 65.041664 272.15625 65.041664Q272.79688 65.041664 273.29688 64.854164Q273.79688 64.65104 274.03125 64.322914Q274.28125 63.979164 274.28125 63.58854Q274.28125 63.18229 274.04688 62.885414Q273.8125 62.572914 273.28125 62.36979Q272.92188 62.229164 271.73438 61.947914Q270.5625 61.666664 270.09375 61.416664Q269.46875 61.08854 269.17188 60.61979Q268.875 60.135414 268.875 59.541664Q268.875 58.90104 269.23438 58.33854Q269.60938 57.760414 270.3125 57.479164Q271.03125 57.18229 271.89062 57.18229Q272.84375 57.18229 273.57812 57.49479Q274.3125 57.791664 274.70312 58.40104Q275.09375 58.99479 275.125 59.74479L274.03125 59.822914Q273.9375 59.010414 273.42188 58.604164Q272.92188 58.18229 271.9375 58.18229Q270.90625 58.18229 270.4375 58.55729Q269.96875 58.93229 269.96875 59.46354Q269.96875 59.93229 270.29688 60.229164Q270.625 60.52604 272.0 60.83854Q273.39062 61.15104 273.90625 61.385414Q274.65625 61.74479 275.01562 62.27604Q275.375 62.791664 275.375 63.49479Q275.375 64.18229 274.98438 64.791664Q274.59375 65.385414 273.85938 65.729164Q273.125 66.05729 272.20312 66.05729Q271.03125 66.05729 270.23438 65.729164Q269.45312 65.385414 269.0 64.697914Q268.5625 64.010414 268.54688 63.15104ZM283.4375 64.99479Q284.23438 65.541664 284.89062 65.791664L284.5625 66.58854Q283.64062 66.24479 282.71875 65.52604Q281.76562 66.05729 280.60938 66.05729Q279.4375 66.05729 278.48438 65.49479Q277.54688 64.93229 277.03125 63.916664Q276.51562 62.90104 276.51562 61.61979Q276.51562 60.354164 277.03125 59.30729Q277.54688 58.260414 278.5 57.71354Q279.45312 57.166664 280.625 57.166664Q281.8125 57.166664 282.76562 57.74479Q283.73438 58.30729 284.23438 59.322914Q284.73438 60.33854 284.73438 61.61979Q284.73438 62.68229 284.40625 63.52604Q284.09375 64.36979 283.4375 64.99479ZM280.9375 63.541664Q281.92188 63.822914 282.5625 64.36979Q283.5625 63.447914 283.5625 61.61979Q283.5625 60.572914 283.20312 59.791664Q282.84375 59.010414 282.15625 58.58854Q281.48438 58.15104 280.64062 58.15104Q279.35938 58.15104 278.51562 59.02604Q277.6875 59.885414 277.6875 61.61979Q277.6875 63.291664 278.51562 64.197914Q279.34375 65.08854 280.64062 65.08854Q281.25 65.08854 281.78125 64.854164Q281.25 64.510414 280.65625 64.36979L280.9375 63.541664ZM285.875 65.916664L285.875 57.322914L287.01562 57.322914L287.01562 64.90104L291.25 64.90104L291.25 65.916664L285.875 65.916664ZM292.79688 58.541664L292.79688 57.322914L293.85938 57.322914L293.85938 58.541664L292.79688 58.541664ZM292.79688 65.916664L292.79688 59.697914L293.85938 59.697914L293.85938 65.916664L292.79688 65.916664ZM298.09375 64.979164L298.25 65.90104Q297.79688 65.99479 297.45312 65.99479Q296.875 65.99479 296.5625 65.822914Q296.25 65.635414 296.10938 65.33854Q295.98438 65.041664 295.98438 64.08854L295.98438 60.510414L295.21875 60.510414L295.21875 59.697914L295.98438 59.697914L295.98438 58.15104L297.03125 57.52604L297.03125 59.697914L298.09375 59.697914L298.09375 60.510414L297.03125 60.510414L297.03125 64.15104Q297.03125 64.604164 297.07812 64.729164Q297.14062 64.854164 297.26562 64.93229Q297.39062 65.010414 297.625 65.010414Q297.8125 65.010414 298.09375 64.979164ZM303.04688 63.916664L304.14062 64.041664Q303.89062 64.99479 303.1875 65.52604Q302.48438 66.05729 301.40625 66.05729Q300.04688 66.05729 299.23438 65.21354Q298.4375 64.36979 298.4375 62.854164Q298.4375 61.291664 299.25 60.43229Q300.0625 59.55729 301.34375 59.55729Q302.59375 59.55729 303.375 60.40104Q304.17188 61.24479 304.17188 62.791664Q304.17188 62.885414 304.17188 63.072914L299.53125 63.072914Q299.59375 64.104164 300.10938 64.65104Q300.625 65.18229 301.40625 65.18229Q301.98438 65.18229 302.39062 64.885414Q302.8125 64.572914 303.04688 63.916664ZM299.59375 62.21354L303.0625 62.21354Q303.0 61.416664 302.67188 61.02604Q302.15625 60.416664 301.35938 60.416664Q300.625 60.416664 300.125 60.90104Q299.64062 61.385414 299.59375 62.21354Z" fill-rule="nonzero"/><path stroke="#34a853" stroke-width="4.0" stroke-linecap="butt" d="M321.0 61.916668L333.0 61.916668" fill-rule="nonzero"/><path fill="#1a1a1a" d="M341.92188 65.916664L341.92188 57.322914L345.17188 57.322914Q346.01562 57.322914 346.46875 57.40104Q347.10938 57.510414 347.53125 57.80729Q347.96875 58.104164 348.21875 58.635414Q348.48438 59.166664 348.48438 59.80729Q348.48438 60.90104 347.78125 61.666664Q347.09375 62.416664 345.26562 62.416664L343.0625 62.416664L343.0625 65.916664L341.92188 65.916664ZM343.0625 61.416664L345.28125 61.416664Q346.39062 61.416664 346.84375 61.010414Q347.3125 60.58854 347.3125 59.83854Q347.3125 59.30729 347.03125 58.93229Q346.76562 58.541664 346.32812 58.416664Q346.03125 58.33854 345.26562 58.33854L343.0625 58.33854L343.0625 61.416664ZM353.85938 65.15104Q353.26562 65.65104 352.71875 65.854164Q352.1875 66.05729 351.5625 66.05729Q350.53125 66.05729 349.98438 65.55729Q349.4375 65.05729 349.4375 64.27604Q349.4375 63.822914 349.64062 63.447914Q349.84375 63.05729 350.1875 62.83854Q350.53125 62.604164 350.95312 62.49479Q351.25 62.40104 351.89062 62.322914Q353.15625 62.18229 353.76562 61.96354Q353.76562 61.74479 353.76562 61.697914Q353.76562 61.041664 353.46875 60.77604Q353.0625 60.43229 352.26562 60.43229Q351.53125 60.43229 351.17188 60.697914Q350.8125 60.947914 350.64062 61.604164L349.60938 61.46354Q349.75 60.80729 350.07812 60.40104Q350.40625 59.99479 351.01562 59.77604Q351.625 59.55729 352.42188 59.55729Q353.21875 59.55729 353.71875 59.74479Q354.21875 59.93229 354.45312 60.21354Q354.6875 60.49479 354.78125 60.93229Q354.82812 61.197914 354.82812 61.90104L354.82812 63.30729Q354.82812 64.77604 354.89062 65.166664Q354.96875 65.55729 355.17188 65.916664L354.0625 65.916664Q353.90625 65.58854 353.85938 65.15104ZM353.76562 62.791664Q353.1875 63.02604 352.04688 63.197914Q351.39062 63.291664 351.125 63.416664Q350.85938 63.52604 350.70312 63.74479Q350.5625 63.96354 350.5625 64.24479Q350.5625 64.666664 350.875 64.947914Q351.20312 65.229164 351.8125 65.229164Q352.42188 65.229164 352.89062 64.96354Q353.375 64.697914 353.59375 64.229164Q353.76562 63.86979 353.76562 63.18229L353.76562 62.791664ZM356.78125 65.916664L356.78125 59.697914L357.73438 59.697914L357.73438 60.635414Q358.09375 59.979164 358.39062 59.77604Q358.70312 59.55729 359.07812 59.55729Q359.60938 59.55729 360.15625 59.885414L359.79688 60.86979Q359.40625 60.635414 359.03125 60.635414Q358.67188 60.635414 358.39062 60.854164Q358.125 61.05729 358.01562 61.43229Q357.82812 61.99479 357.82812 62.65104L357.82812 65.916664L356.78125 65.916664ZM364.76562 68.30729L364.76562 65.260414Q364.51562 65.604164 364.0625 65.83854Q363.625 66.05729 363.125 66.05729Q362.01562 66.05729 361.21875 65.18229Q360.42188 64.291664 360.42188 62.74479Q360.42188 61.80729 360.75 61.072914Q361.07812 60.322914 361.6875 59.947914Q362.3125 59.55729 363.04688 59.55729Q364.20312 59.55729 364.85938 60.52604L364.85938 59.697914L365.8125 59.697914L365.8125 68.30729L364.76562 68.30729ZM361.5 62.791664Q361.5 63.99479 362.0 64.58854Q362.51562 65.18229 363.21875 65.18229Q363.89062 65.18229 364.375 64.61979Q364.85938 64.041664 364.85938 62.885414Q364.85938 61.635414 364.34375 61.010414Q363.84375 60.385414 363.14062 60.385414Q362.46875 60.385414 361.98438 60.979164Q361.5 61.55729 361.5 62.791664ZM371.875 65.916664L371.875 64.99479Q371.14062 66.05729 369.89062 66.05729Q369.34375 66.05729 368.85938 65.854164Q368.39062 65.635414 368.15625 65.322914Q367.92188 64.99479 367.82812 64.52604Q367.76562 64.229164 367.76562 63.541664L367.76562 59.697914L368.82812 59.697914L368.82812 63.15104Q368.82812 63.96354 368.89062 64.260414Q368.98438 64.666664 369.29688 64.916664Q369.625 65.15104 370.10938 65.15104Q370.57812 65.15104 370.98438 64.916664Q371.40625 64.666664 371.57812 64.24479Q371.76562 63.822914 371.76562 63.02604L371.76562 59.697914L372.8125 59.697914L372.8125 65.916664L371.875 65.916664ZM379.04688 63.916664L380.14062 64.041664Q379.89062 64.99479 379.1875 65.52604Q378.48438 66.05729 377.40625 66.05729Q376.04688 66.05729 375.23438 65.21354Q374.4375 64.36979 374.4375 62.854164Q374.4375 61.291664 375.25 60.43229Q376.0625 59.55729 377.34375 59.55729Q378.59375 59.55729 379.375 60.40104Q380.17188 61.24479 380.17188 62.791664Q380.17188 62.885414 380.17188 63.072914L375.53125 63.072914Q375.59375 64.104164 376.10938 64.65104Q376.625 65.18229 377.40625 65.18229Q377.98438 65.18229 378.39062 64.885414Q378.8125 64.572914 379.04688 63.916664ZM375.59375 62.21354L379.0625 62.21354Q379.0 61.416664 378.67188 61.02604Q378.15625 60.416664 377.35938 60.416664Q376.625 60.416664 376.125 60.90104Q375.64062 61.385414 375.59375 62.21354ZM384.09375 64.979164L384.25 65.90104Q383.79688 65.99479 383.45312 65.99479Q382.875 65.99479 382.5625 65.822914Q382.25 65.635414 382.10938 65.33854Q381.98438 65.041664 381.98438 64.08854L381.98438 60.510414L381.21875 60.510414L381.21875 59.697914L381.98438 59.697914L381.98438 58.15104L383.03125 57.52604L383.03125 59.697914L384.09375 59.697914L384.09375 60.510414L383.03125 60.510414L383.03125 64.15104Q383.03125 64.604164 383.07812 64.729164Q383.14062 64.854164 383.26562 64.93229Q383.39062 65.010414 383.625 65.010414Q383.8125 65.010414 384.09375 64.979164Z" fill-rule="nonzero"/><path stroke="#ff6d01" stroke-width="4.0" stroke-linecap="butt" d="M400.0 61.916668L412.0 61.916668" fill-rule="nonzero"/><path fill="#1a1a1a" d="M420.92188 65.916664L420.92188 57.322914L424.17188 57.322914Q425.01562 57.322914 425.46875 57.40104Q426.10938 57.510414 426.53125 57.80729Q426.96875 58.104164 427.21875 58.635414Q427.48438 59.166664 427.48438 59.80729Q427.48438 60.90104 426.78125 61.666664Q426.09375 62.416664 424.26562 62.416664L422.0625 62.416664L422.0625 65.916664L420.92188 65.916664ZM422.0625 61.416664L424.28125 61.416664Q425.39062 61.416664 425.84375 61.010414Q426.3125 60.58854 426.3125 59.83854Q426.3125 59.30729 426.03125 58.93229Q425.76562 58.541664 425.32812 58.416664Q425.03125 58.33854 424.26562 58.33854L422.0625 58.33854L422.0625 61.416664ZM432.85938 65.15104Q432.26562 65.65104 431.71875 65.854164Q431.1875 66.05729 430.5625 66.05729Q429.53125 66.05729 428.98438 65.55729Q428.4375 65.05729 428.4375 64.27604Q428.4375 63.822914 428.64062 63.447914Q428.84375 63.05729 429.1875 62.83854Q429.53125 62.604164 429.95312 62.49479Q430.25 62.40104 430.89062 62.322914Q432.15625 62.18229 432.76562 61.96354Q432.76562 61.74479 432.76562 61.697914Q432.76562 61.041664 432.46875 60.77604Q432.0625 60.43229 431.26562 60.43229Q430.53125 60.43229 430.17188 60.697914Q429.8125 60.947914 429.64062 61.604164L428.60938 61.46354Q428.75 60.80729 429.07812 60.40104Q429.40625 59.99479 430.01562 59.77604Q430.625 59.55729 431.42188 59.55729Q432.21875 59.55729 432.71875 59.74479Q433.21875 59.93229 433.45312 60.21354Q433.6875 60.49479 433.78125 60.93229Q433.82812 61.197914 433.82812 61.90104L433.82812 63.30729Q433.82812 64.77604 433.89062 65.166664Q433.96875 65.55729 434.17188 65.916664L433.0625 65.916664Q432.90625 65.58854 432.85938 65.15104ZM432.76562 62.791664Q432.1875 63.02604 431.04688 63.197914Q430.39062 63.291664 430.125 63.416664Q429.85938 63.52604 429.70312 63.74479Q429.5625 63.96354 429.5625 64.24479Q429.5625 64.666664 429.875 64.947914Q430.20312 65.229164 430.8125 65.229164Q431.42188 65.229164 431.89062 64.96354Q432.375 64.697914 432.59375 64.229164Q432.76562 63.86979 432.76562 63.18229L432.76562 62.791664ZM435.78125 65.916664L435.78125 59.697914L436.73438 59.697914L436.73438 60.635414Q437.09375 59.979164 437.39062 59.77604Q437.70312 59.55729 438.07812 59.55729Q438.60938 59.55729 439.15625 59.885414L438.79688 60.86979Q438.40625 60.635414 438.03125 60.635414Q437.67188 60.635414 437.39062 60.854164Q437.125 61.05729 437.01562 61.43229Q436.82812 61.99479 436.82812 62.65104L436.82812 65.916664L435.78125 65.916664ZM443.76562 68.30729L443.76562 65.260414Q443.51562 65.604164 443.0625 65.83854Q442.625 66.05729 442.125 66.05729Q441.01562 66.05729 440.21875 65.18229Q439.42188 64.291664 439.42188 62.74479Q439.42188 61.80729 439.75 61.072914Q440.07812 60.322914 440.6875 59.947914Q441.3125 59.55729 442.04688 59.55729Q443.20312 59.55729 443.85938 60.52604L443.85938 59.697914L444.8125 59.697914L444.8125 68.30729L443.76562 68.30729ZM440.5 62.791664Q440.5 63.99479 441.0 64.58854Q441.51562 65.18229 442.21875 65.18229Q442.89062 65.18229 443.375 64.61979Q443.85938 64.041664 443.85938 62.885414Q443.85938 61.635414 443.34375 61.010414Q442.84375 60.385414 442.14062 60.385414Q441.46875 60.385414 440.98438 60.979164Q440.5 61.55729 440.5 62.791664ZM450.875 65.916664L450.875 64.99479Q450.14062 66.05729 448.89062 66.05729Q448.34375 66.05729 447.85938 65.854164Q447.39062 65.635414 447.15625 65.322914Q446.92188 64.99479 446.82812 64.52604Q446.76562 64.229164 446.76562 63.541664L446.76562 59.697914L447.82812 59.697914L447.82812 63.15104Q447.82812 63.96354 447.89062 64.260414Q447.98438 64.666664 448.29688 64.916664Q448.625 65.15104 449.10938 65.15104Q449.57812 65.15104 449.98438 64.916664Q450.40625 64.666664 450.57812 64.24479Q450.76562 63.822914 450.76562 63.02604L450.76562 59.697914L451.8125 59.697914L451.8125 65.916664L450.875 65.916664ZM458.04688 63.916664L459.14062 64.041664Q458.89062 64.99479 458.1875 65.52604Q457.48438 66.05729 456.40625 66.05729Q455.04688 66.05729 454.23438 65.21354Q453.4375 64.36979 453.4375 62.854164Q453.4375 61.291664 454.25 60.43229Q455.0625 59.55729 456.34375 59.55729Q457.59375 59.55729 458.375 60.40104Q459.17188 61.24479 459.17188 62.791664Q459.17188 62.885414 459.17188 63.072914L454.53125 63.072914Q454.59375 64.104164 455.10938 64.65104Q455.625 65.18229 456.40625 65.18229Q456.98438 65.18229 457.39062 64.885414Q457.8125 64.572914 458.04688 63.916664ZM454.59375 62.21354L458.0625 62.21354Q458.0 61.416664 457.67188 61.02604Q457.15625 60.416664 456.35938 60.416664Q455.625 60.416664 455.125 60.90104Q454.64062 61.385414 454.59375 62.21354ZM463.09375 64.979164L463.25 65.90104Q462.79688 65.99479 462.45312 65.99479Q461.875 65.99479 461.5625 65.822914Q461.25 65.635414 461.10938 65.33854Q460.98438 65.041664 460.98438 64.08854L460.98438 60.510414L460.21875 60.510414L460.21875 59.697914L460.98438 59.697914L460.98438 58.15104L462.03125 57.52604L462.03125 59.697914L463.09375 59.697914L463.09375 60.510414L462.03125 60.510414L462.03125 64.15104Q462.03125 64.604164 462.07812 64.729164Q462.14062 64.854164 462.26562 64.93229Q462.39062 65.010414 462.625 65.010414Q462.8125 65.010414 463.09375 64.979164ZM463.89062 65.916664L463.89062 57.322914L465.60938 57.322914L467.64062 63.40104Q467.92188 64.260414 468.04688 64.68229Q468.1875 64.21354 468.5 63.30729L470.5625 57.322914L472.09375 57.322914L472.09375 65.916664L471.0 65.916664L471.0 58.729164L468.5 65.916664L467.46875 65.916664L464.98438 58.604164L464.98438 65.916664L463.89062 65.916664ZM477.04688 63.916664L478.14062 64.041664Q477.89062 64.99479 477.1875 65.52604Q476.48438 66.05729 475.40625 66.05729Q474.04688 66.05729 473.23438 65.21354Q472.4375 64.36979 472.4375 62.854164Q472.4375 61.291664 473.25 60.43229Q474.0625 59.55729 475.34375 59.55729Q476.59375 59.55729 477.375 60.40104Q478.17188 61.24479 478.17188 62.791664Q478.17188 62.885414 478.17188 63.072914L473.53125 63.072914Q473.59375 64.104164 474.10938 64.65104Q474.625 65.18229 475.40625 65.18229Q475.98438 65.18229 476.39062 64.885414Q476.8125 64.572914 477.04688 63.916664ZM473.59375 62.21354L477.0625 62.21354Q477.0 61.416664 476.67188 61.02604Q476.15625 60.416664 475.35938 60.416664Q474.625 60.416664 474.125 60.90104Q473.64062 61.385414 473.59375 62.21354ZM479.78125 65.916664L479.78125 59.697914L480.73438 59.697914L480.73438 60.635414Q481.09375 59.979164 481.39062 59.77604Q481.70312 59.55729 482.07812 59.55729Q482.60938 59.55729 483.15625 59.885414L482.79688 60.86979Q482.40625 60.635414 482.03125 60.635414Q481.67188 60.635414 481.39062 60.854164Q481.125 61.05729 481.01562 61.43229Q480.82812 61.99479 480.82812 62.65104L480.82812 65.916664L479.78125 65.916664ZM483.59375 66.43229L484.625 66.58854Q484.6875 67.05729 484.98438 67.27604Q485.375 67.572914 486.04688 67.572914Q486.78125 67.572914 487.17188 67.27604Q487.57812 66.979164 487.71875 66.46354Q487.8125 66.135414 487.79688 65.104164Q487.10938 65.916664 486.07812 65.916664Q484.79688 65.916664 484.09375 64.99479Q483.39062 64.05729 483.39062 62.77604Q483.39062 61.885414 483.70312 61.135414Q484.03125 60.36979 484.64062 59.96354Q485.25 59.55729 486.07812 59.55729Q487.1875 59.55729 487.90625 60.447914L487.90625 59.697914L488.875 59.697914L488.875 65.072914Q488.875 66.52604 488.57812 67.135414Q488.28125 67.74479 487.64062 68.08854Q487.0 68.447914 486.0625 68.447914Q484.95312 68.447914 484.26562 67.947914Q483.57812 67.447914 483.59375 66.43229ZM484.46875 62.697914Q484.46875 63.916664 484.95312 64.479164Q485.4375 65.041664 486.17188 65.041664Q486.90625 65.041664 487.39062 64.479164Q487.89062 63.916664 487.89062 62.729164Q487.89062 61.58854 487.375 61.010414Q486.875 60.43229 486.15625 60.43229Q485.45312 60.43229 484.95312 61.010414Q484.46875 61.572914 484.46875 62.697914ZM495.04688 63.916664L496.14062 64.041664Q495.89062 64.99479 495.1875 65.52604Q494.48438 66.05729 493.40625 66.05729Q492.04688 66.05729 491.23438 65.21354Q490.4375 64.36979 490.4375 62.854164Q490.4375 61.291664 491.25 60.43229Q492.0625 59.55729 493.34375 59.55729Q494.59375 59.55729 495.375 60.40104Q496.17188 61.24479 496.17188 62.791664Q496.17188 62.885414 496.17188 63.072914L491.53125 63.072914Q491.59375 64.104164 492.10938 64.65104Q492.625 65.18229 493.40625 65.18229Q493.98438 65.18229 494.39062 64.885414Q494.8125 64.572914 495.04688 63.916664ZM491.59375 62.21354L495.0625 62.21354Q495.0 61.416664 494.67188 61.02604Q494.15625 60.416664 493.35938 60.416664Q492.625 60.416664 492.125 60.90104Q491.64062 61.385414 491.59375 62.21354Z" fill-rule="nonzero"/><path fill="#757575" d="M20.034374 37.55L20.034374 23.2375L22.89375 23.2375L26.26875 33.3625Q26.7375 34.784374 26.95625 35.4875Q27.20625 34.70625 27.721874 33.190624L31.14375 23.2375L33.690624 23.2375L33.690624 37.55L31.878124 37.55L31.878124 25.565624L27.70625 37.55L26.003124 37.55L21.8625 25.3625L21.8625 37.55L20.034374 37.55ZM43.971874 34.20625L45.784374 34.440624Q45.3625 36.01875 44.190624 36.909374Q43.034374 37.784374 41.221874 37.784374Q38.95625 37.784374 37.6125 36.39375Q36.284374 34.9875 36.284374 32.45625Q36.284374 29.83125 37.628124 28.39375Q38.971874 26.940624 41.128124 26.940624Q43.20625 26.940624 44.51875 28.3625Q45.846874 29.76875 45.846874 32.346874Q45.846874 32.503124 45.83125 32.815624L38.096874 32.815624Q38.190624 34.51875 39.065624 35.425Q39.940624 36.33125 41.2375 36.33125Q42.20625 36.33125 42.878124 35.83125Q43.565624 35.315624 43.971874 34.20625ZM38.190624 31.3625L43.9875 31.3625Q43.878124 30.065624 43.33125 29.409374Q42.4875 28.39375 41.14375 28.39375Q39.940624 28.39375 39.1125 29.20625Q38.284374 30.003124 38.190624 31.3625ZM47.8625 37.55L47.8625 27.175L49.440624 27.175L49.440624 28.628124Q49.925 27.878124 50.7375 27.409374Q51.55 26.940624 52.58125 26.940624Q53.7375 26.940624 54.471874 27.425Q55.20625 27.89375 55.51875 28.753124Q56.753124 26.940624 58.721874 26.940624Q60.26875 26.940624 61.096874 27.8Q61.925 28.659374 61.925 30.425L61.925 37.55L60.175 37.55L60.175 31.01875Q60.175 29.95625 60.003124 29.503124Q59.83125 29.034374 59.378124 28.753124Q58.940624 28.471874 58.33125 28.471874Q57.2375 28.471874 56.503124 29.20625Q55.784374 29.925 55.784374 31.51875L55.784374 37.55L54.034374 37.55L54.034374 30.815624Q54.034374 29.64375 53.596874 29.065624Q53.175 28.471874 52.190624 28.471874Q51.45625 28.471874 50.815624 28.8625Q50.190624 29.253124 49.909374 30.003124Q49.628124 30.753124 49.628124 32.175L49.628124 37.55L47.8625 37.55ZM63.221874 32.3625Q63.221874 29.4875 64.81563 28.096874Q66.15938 26.940624 68.08125 26.940624Q70.22188 26.940624 71.56563 28.346874Q72.925 29.753124 72.925 32.221874Q72.925 34.221874 72.33125 35.378124Q71.7375 36.51875 70.58125 37.159374Q69.44063 37.784374 68.08125 37.784374Q65.89375 37.784374 64.55 36.39375Q63.221874 34.9875 63.221874 32.3625ZM65.01875 32.3625Q65.01875 34.3625 65.87813 35.346874Q66.75313 36.33125 68.08125 36.33125Q69.39375 36.33125 70.25313 35.346874Q71.12813 34.346874 71.12813 32.3Q71.12813 30.378124 70.25313 29.39375Q69.37813 28.39375 68.08125 28.39375Q66.75313 28.39375 65.87813 29.39375Q65.01875 30.378124 65.01875 32.3625ZM74.84688 37.55L74.84688 27.175L76.425 27.175L76.425 28.753124Q77.03438 27.64375 77.55 27.3Q78.06563 26.940624 78.675 26.940624Q79.56563 26.940624 80.4875 27.503124L79.87813 29.14375Q79.2375 28.753124 78.59688 28.753124Q78.01875 28.753124 77.55 29.1125Q77.09688 29.45625 76.89375 30.065624Q76.6125 31.003124 76.6125 32.1125L76.6125 37.55L74.84688 37.55ZM81.78438 41.55L81.59688 39.89375Q82.175 40.05 82.59688 40.05Q83.19063 40.05 83.53438 39.846874Q83.89375 39.659374 84.1125 39.315624Q84.28438 39.05 84.65938 38.003124Q84.70625 37.846874 84.81563 37.565624L80.87813 27.175L82.76875 27.175L84.925 33.190624Q85.34688 34.33125 85.675 35.58125Q85.9875 34.378124 86.39375 33.221874L88.6125 27.175L90.37813 27.175L86.425 37.721874Q85.8 39.440624 85.44063 40.08125Q84.97188 40.95625 84.3625 41.346874Q83.76875 41.753124 82.925 41.753124Q82.40938 41.753124 81.78438 41.55ZM104.65938 37.55L104.65938 36.01875Q103.45625 37.784374 101.37813 37.784374Q100.45625 37.784374 99.65938 37.440624Q98.8625 37.08125 98.47188 36.55Q98.09688 36.01875 97.94063 35.2375Q97.83125 34.721874 97.83125 33.596874L97.83125 27.175L99.58125 27.175L99.58125 32.925Q99.58125 34.3 99.69063 34.784374Q99.8625 35.471874 100.39375 35.878124Q100.94063 36.26875 101.72188 36.26875Q102.51875 36.26875 103.20625 35.8625Q103.90938 35.45625 104.19063 34.76875Q104.4875 34.065624 104.4875 32.7375L104.4875 27.175L106.2375 27.175L106.2375 37.55L104.65938 37.55ZM107.15938 34.45625L108.90938 34.175Q109.05 35.221874 109.72188 35.784374Q110.39375 36.33125 111.59688 36.33125Q112.8 36.33125 113.37813 35.846874Q113.97188 35.346874 113.97188 34.690624Q113.97188 34.096874 113.45625 33.753124Q113.09688 33.51875 111.65938 33.159374Q109.72188 32.659374 108.97188 32.315624Q108.2375 31.95625 107.84688 31.33125Q107.45625 30.690624 107.45625 29.925Q107.45625 29.2375 107.76875 28.64375Q108.09688 28.05 108.64375 27.659374Q109.05 27.3625 109.75313 27.159374Q110.47188 26.940624 111.28438 26.940624Q112.50313 26.940624 113.425 27.3Q114.34688 27.64375 114.78438 28.253124Q115.22188 28.846874 115.39375 29.846874L113.675 30.08125Q113.55 29.284374 112.9875 28.846874Q112.425 28.39375 111.40938 28.39375Q110.19063 28.39375 109.675 28.8Q109.15938 29.190624 109.15938 29.721874Q109.15938 30.065624 109.37813 30.346874Q109.58125 30.628124 110.05 30.815624Q110.31563 30.909374 111.59688 31.253124Q113.47188 31.753124 114.20625 32.08125Q114.94063 32.39375 115.3625 33.003124Q115.78438 33.596874 115.78438 34.503124Q115.78438 35.378124 115.26875 36.159374Q114.75313 36.940624 113.78438 37.3625Q112.81563 37.784374 111.59688 37.784374Q109.58125 37.784374 108.51875 36.940624Q107.45625 36.096874 107.15938 34.45625ZM124.64375 36.26875Q123.65938 37.096874 122.75313 37.440624Q121.84688 37.784374 120.81563 37.784374Q119.1125 37.784374 118.19063 36.95625Q117.26875 36.1125 117.26875 34.815624Q117.26875 34.05 117.6125 33.425Q117.97188 32.8 118.53438 32.425Q119.09688 32.034374 119.8 31.83125Q120.31563 31.70625 121.3625 31.565624Q123.4875 31.315624 124.4875 30.971874Q124.50313 30.6125 124.50313 30.503124Q124.50313 29.440624 124.00313 28.9875Q123.33125 28.39375 122.00313 28.39375Q120.75313 28.39375 120.15938 28.83125Q119.58125 29.26875 119.3 30.378124L117.58125 30.14375Q117.81563 29.034374 118.34688 28.3625Q118.87813 27.675 119.89375 27.315624Q120.90938 26.940624 122.25313 26.940624Q123.58125 26.940624 124.40938 27.253124Q125.2375 27.565624 125.62813 28.05Q126.01875 28.51875 126.175 29.2375Q126.26875 29.690624 126.26875 30.8625L126.26875 33.20625Q126.26875 35.659374 126.37813 36.315624Q126.4875 36.95625 126.83125 37.55L124.9875 37.55Q124.72188 37.003124 124.64375 36.26875ZM124.4875 32.346874Q123.53438 32.7375 121.6125 33.003124Q120.53438 33.159374 120.08125 33.3625Q119.64375 33.55 119.39375 33.925Q119.14375 34.3 119.14375 34.76875Q119.14375 35.471874 119.675 35.940624Q120.20625 36.409374 121.2375 36.409374Q122.25313 36.409374 123.03438 35.971874Q123.83125 35.51875 124.20625 34.753124Q124.4875 34.14375 124.4875 32.9875L124.4875 32.346874ZM128.55 38.409374L130.25313 38.659374Q130.3625 39.45625 130.84688 39.815624Q131.50313 40.3 132.64375 40.3Q133.8625 40.3 134.51875 39.815624Q135.19063 39.33125 135.425 38.45625Q135.56563 37.909374 135.55 36.190624Q134.39375 37.55 132.675 37.55Q130.53438 37.55 129.3625 36.003124Q128.19063 34.45625 128.19063 32.3Q128.19063 30.815624 128.72188 29.565624Q129.26875 28.315624 130.28438 27.628124Q131.31563 26.940624 132.69063 26.940624Q134.51875 26.940624 135.72188 28.425L135.72188 27.175L137.33125 27.175L137.33125 36.14375Q137.33125 38.565624 136.83125 39.565624Q136.34688 40.58125 135.26875 41.159374Q134.20625 41.753124 132.64375 41.753124Q130.8 41.753124 129.64375 40.925Q128.50313 40.096874 128.55 38.409374ZM130.00313 32.175Q130.00313 34.221874 130.81563 35.159374Q131.62813 36.096874 132.84688 36.096874Q134.05 36.096874 134.8625 35.159374Q135.69063 34.221874 135.69063 32.2375Q135.69063 30.33125 134.84688 29.3625Q134.00313 28.39375 132.81563 28.39375Q131.64375 28.39375 130.81563 29.346874Q130.00313 30.3 130.00313 32.175ZM146.97188 34.20625L148.78438 34.440624Q148.3625 36.01875 147.19063 36.909374Q146.03438 37.784374 144.22188 37.784374Q141.95625 37.784374 140.6125 36.39375Q139.28438 34.9875 139.28438 32.45625Q139.28438 29.83125 140.62813 28.39375Q141.97188 26.940624 144.12813 26.940624Q146.20625 26.940624 147.51875 28.3625Q148.84688 29.76875 148.84688 32.346874Q148.84688 32.503124 148.83125 32.815624L141.09688 32.815624Q141.19063 34.51875 142.06563 35.425Q142.94063 36.33125 144.2375 36.33125Q145.20625 36.33125 145.87813 35.83125Q146.56563 35.315624 146.97188 34.20625ZM141.19063 31.3625L146.9875 31.3625Q146.87813 30.065624 146.33125 29.409374Q145.4875 28.39375 144.14375 28.39375Q142.94063 28.39375 142.1125 29.20625Q141.28438 30.003124 141.19063 31.3625ZM160.22188 41.753124Q158.76875 39.925 157.76875 37.471874Q156.76875 35.003124 156.76875 32.3625Q156.76875 30.034374 157.51875 27.909374Q158.39375 25.440624 160.22188 22.9875L161.4875 22.9875Q160.3 25.01875 159.925 25.89375Q159.33125 27.2375 158.9875 28.70625Q158.56563 30.534374 158.56563 32.378124Q158.56563 37.065624 161.4875 41.753124L160.22188 41.753124ZM164.01875 37.55L164.01875 23.2375L169.39375 23.2375Q171.03438 23.2375 172.01875 23.675Q173.00313 24.096874 173.56563 25.003124Q174.12813 25.909374 174.12813 26.89375Q174.12813 27.815624 173.62813 28.628124Q173.14375 29.440624 172.12813 29.925Q173.425 30.315624 174.12813 31.2375Q174.83125 32.14375 174.83125 33.39375Q174.83125 34.409374 174.39375 35.26875Q173.97188 36.128124 173.34688 36.596874Q172.72188 37.065624 171.78438 37.315624Q170.84688 37.55 169.47188 37.55L164.01875 37.55ZM165.90938 29.253124L169.00313 29.253124Q170.26875 29.253124 170.81563 29.08125Q171.53438 28.8625 171.89375 28.378124Q172.26875 27.878124 172.26875 27.1125Q172.26875 26.409374 171.925 25.8625Q171.58125 25.315624 170.94063 25.128124Q170.31563 24.925 168.76875 24.925L165.90938 24.925L165.90938 29.253124ZM165.90938 35.8625L169.47188 35.8625Q170.39375 35.8625 170.76875 35.784374Q171.425 35.675 171.8625 35.409374Q172.3 35.128124 172.58125 34.6125Q172.8625 34.08125 172.8625 33.39375Q172.8625 32.596874 172.45625 32.003124Q172.05 31.409374 171.31563 31.175Q170.58125 30.940624 169.22188 30.940624L165.90938 30.940624L165.90938 35.8625ZM178.01875 41.753124L176.76875 41.753124Q179.675 37.065624 179.675 32.378124Q179.675 30.534374 179.26875 28.7375Q178.925 27.26875 178.33125 25.925Q177.95625 25.034374 176.76875 22.9875L178.01875 22.9875Q179.8625 25.440624 180.7375 27.909374Q181.4875 30.034374 181.4875 32.3625Q181.4875 35.003124 180.47188 37.471874Q179.47188 39.925 178.01875 41.753124Z" fill-rule="nonzero"/></svg>