<svg version="1.1" viewBox="0.0 0.0 600.0 371.0" fill="none" stroke="none" stroke-linecap="square" stroke-miterlimit="10" width="600" height="371" xmlns:xlink="http://www.w3.org/1999/xlink" xmlns="http://www.w3.org/2000/svg"><path fill="#ffffff" d="M0 0L600.0 0L600.0 371.0L0 371.0L0 0Z" fill-rule="nonzero"/><path stroke="#333333" stroke-width="1.0" stroke-linecap="butt" d="M66.5 332.5L464.5 332.5" fill-rule="nonzero"/><path stroke="#cccccc" stroke-width="1.0" stroke-linecap="butt" d="M66.5 278.5L464.5 278.5" fill-rule="nonzero"/><path stroke="#cccccc" stroke-width="1.0" stroke-linecap="butt" d="M66.5 224.5L464.5 224.5" fill-rule="nonzero"/><path stroke="#cccccc" stroke-width="1.0" stroke-linecap="butt" d="M66.5 170.5L464.5 170.5" fill-rule="nonzero"/><path stroke="#cccccc" stroke-width="1.0" stroke-linecap="butt" d="M66.5 116.5L464.5 116.5" fill-rule="nonzero"/><path stroke="#cccccc" stroke-width="1.0" stroke-linecap="butt" d="M66.5 61.5L464.5 61.5" fill-rule="nonzero"/><clipPath id="id_0"><path d="M66.55 61.916668L464.61444 61.916668L464.61444 332.45L66.55 332.45L66.55 61.916668Z" clip-rule="nonzero"/></clipPath><path stroke="#4285f4" stroke-width="2.0" stroke-linecap="butt" clip-path="url(#id_0)" d="M99.72204 332.42188L166.06612 332.3894L232.41019 332.3932L298.75427 332.26984L365.09833 332.22113L431.4424 331.11194" fill-rule="nonzero"/><path stroke="#ea4335" stroke-width="2.0" stroke-linecap="butt" clip-path="url(#id_0)" d="M99.72204 332.4116L166.06612 332.38724L232.41019 332.31256L298.75427 331.26614L365.09833 322.30283L431.4424 233.11232" fill-rule="nonzero"/><path stroke="#fbbc04" stroke-width="2.0" stroke-linecap="butt" clip-path="url(#id_0)" d="M99.72204 332.21735L166.06612 332.12643L232.41019 331.5621L298.75427 322.68915L365.09833 100.03644" fill-rule="nonzero"/><path stroke="#34a853" stroke-width="2.0" stroke-linecap="butt" clip-path="url(#id_0)" d="M99.72204 332.31744L166.06612 332.30444L232.41019 332.27252L298.75427 331.9322L365.09833 329.54825L431.4424 294.9622" fill-rule="nonzero"/><path stroke="#ff6d01" stroke-width="2.0" stroke-linecap="butt" clip-path="url(#id_0)" d="M99.72204 332.3012L166.06612 332.26712L232.41019 332.25793L298.75427 332.10535L365.09833 330.7056L431.4424 316.9046" fill-rule="nonzero"/><path stroke="#46bdc6" stroke-width="2.0" stroke-linecap="butt" clip-path="url(#id_0)" d="M99.72204 332.2655L166.06612 332.22113L232.41019 332.15997L298.75427 331.82507L365.09833 329.12515L431.4424 301.88895" fill-rule="nonzero"/><path fill="#000000" fill-opacity="0.0" clip-path="url(#id_0)" d="M102.72204 332.42188C102.72204 334.0787 101.37889 335.42188 99.72204 335.42188C98.065186 335.42188 96.72204 334.0787 96.72204 332.42188C96.72204 330.765 98.065186 329.42188 99.72204 329.42188C101.37889 329.42188 102.72204 330.765 102.72204 332.42188Z" fill-rule="nonzero"/><path fill="#000000" fill-opacity="0.0" clip-path="url(#id_0)" d="M169.06612 332.3894C169.06612 334.04626 167.72296 335.3894 166.06612 335.3894C164.40926 335.3894 163.06612 334.04626 163.06612 332.3894C163.06612 330.73254 164.40926 329.3894 166.06612 329.3894C167.72296 329.3894 169.06612 330.73254 169.06612 332.3894Z" fill-rule="nonzero"/><path fill="#000000" fill-opacity="0.0" clip-path="url(#id_0)" d="M235.41019 332.3932C235.41019 334.05005 234.06703 335.3932 232.41019 335.3932C230.75333 335.3932 229.41019 334.05005 229.41019 332.3932C229.41019 330.73633 230.75333 329.3932 232.41019 329.3932C234.06703 329.3932 235.41019 330.73633 235.41019 332.3932Z" fill-rule="nonzero"/><path fill="#000000" fill-opacity="0.0" clip-path="url(#id_0)" d="M301.75427 332.26984C301.75427 333.92667 300.4111 335.26984 298.75427 335.26984C297.0974 335.26984 295.75427 333.92667 295.75427 332.26984C295.75427 330.61298 297.0974 329.26984 298.75427 329.26984C300.4111 329.26984 301.75427 330.61298 301.75427 332.26984Z" fill-rule="nonzero"/><path fill="#000000" fill-opacity="0.0" clip-path="url(#id_0)" d="M368.09833 332.22113C368.09833 333.878 366.7552 335.22113 365.09833 335.22113C363.44147 335.22113 362.09833 333.878 362.09833 332.22113C362.09833 330.56427 363.44147 329.22113 365.09833 329.22113C366.7552 329.22113 368.09833 330.56427 368.09833 332.22113Z" fill-rule="nonzero"/><path fill="#000000" fill-opacity="0.0" clip-path="url(#id_0)" d="M434.4424 331.11194C434.4424 332.7688 433.09927 334.11194 431.4424 334.11194C429.78555 334.11194 428.4424 332.7688 428.4424 331.11194C428.4424 329.45508 429.78555 328.11194 431.4424 328.11194C433.09927 328.11194 434.4424 329.45508 434.4424 331.11194Z" fill-rule="nonzero"/><path fill="#000000" fill-opacity="0.0" clip-path="url(#id_0)" d="M102.72204 332.4116C102.72204 334.06845 101.37889 335.4116 99.72204 335.4116C98.065186 335.4116 96.72204 334.06845 96.72204 332.4116C96.72204 330.75473 98.065186 329.4116 99.72204 329.4116C101.37889 329.4116 102.72204 330.75473 102.72204 332.4116Z" fill-rule="nonzero"/><path fill="#000000" fill-opacity="0.0" clip-path="url(#id_0)" d="M169.06612 332.38724C169.06612 334.0441 167.72296 335.38724 166.06612 335.38724C164.40926 335.38724 163.06612 334.0441 163.06612 332.38724C163.06612 330.73038 164.40926 329.38724 166.06612 329.38724C167.72296 329.38724 169.06612 330.73038 169.06612 332.38724Z" fill-rule="nonzero"/><path fill="#000000" fill-opacity="0.0" clip-path="url(#id_0)" d="M235.41019 332.31256C235.41019 333.96942 234.06703 335.31256 232.41019 335.31256C230.75333 335.31256 229.41019 333.96942 229.41019 332.31256C229.41019 330.6557 230.75333 329.31256 232.41019 329.31256C234.06703 329.31256 235.41019 330.6557 235.41019 332.31256Z" fill-rule="nonzero"/><path fill="#000000" fill-opacity="0.0" clip-path="url(#id_0)" d="M301.75427 331.26614C301.75427 332.923 300.4111 334.26614 298.75427 334.26614C297.0974 334.26614 295.75427 332.923 295.75427 331.26614C295.75427 329.60928 297.0974 328.26614 298.75427 328.26614C300.4111 328.26614 301.75427 329.60928 301.75427 331.26614Z" fill-rule="nonzero"/><path fill="#000000" fill-opacity="0.0" clip-path="url(#id_0)" d="M368.09833 322.30283C368.09833 323.9597 366.7552 325.30283 365.09833 325.30283C363.44147 325.30283 362.09833 323.9597 362.09833 322.30283C362.09833 320.646 363.44147 319.30283 365.09833 319.30283C366.7552 319.30283 368.09833 320.646 368.09833 322.30283Z" fill-rule="nonzero"/><path fill="#000000" fill-opacity="0.0" clip-path="url(#id_0)" d="M434.4424 233.11232C434.4424 234.76918 433.09927 236.11232 431.4424 236.11232C429.78555 236.11232 428.4424 234.76918 428.4424 233.11232C428.4424 231.45547 429.78555 230.11232 431.4424 230.11232C433.09927 230.11232 434.4424 231.45547 434.4424 233.11232Z" fill-rule="nonzero"/><path fill="#000000" fill-opacity="0.0" clip-path="url(#id_0)" d="M102.72204 332.21735C102.72204 333.8742 101.37889 335.21735 99.72204 335.21735C98.065186 335.21735 96.72204 333.8742 96.72204 332.21735C96.72204 330.5605 98.065186 329.21735 99.72204 329.21735C101.37889 329.21735 102.72204 330.5605 102.72204 332.21735Z" fill-rule="nonzero"/><path fill="#000000" fill-opacity="0.0" clip-path="url(#id_0)" d="M169.06612 332.12643C169.06612 333.7833 167.72296 335.12643 166.06612 335.12643C164.40926 335.12643 163.06612 333.7833 163.06612 332.12643C163.06612 330.46957 164.40926 329.12643 166.06612 329.12643C167.72296 329.12643 169.06612 330.46957 169.06612 332.12643Z" fill-rule="nonzero"/><path fill="#000000" fill-opacity="0.0" clip-path="url(#id_0)" d="M235.41019 331.5621C235.41019 333.21896 234.06703 334.5621 232.41019 334.5621C230.75333 334.5621 229.41019 333.21896 229.41019 331.5621C229.41019 329.90524 230.75333 328.5621 232.41019 328.5621C234.06703 328.5621 235.41019 329.90524 235.41019 331.5621Z" fill-rule="nonzero"/><path fill="#000000" fill-opacity="0.0" clip-path="url(#id_0)" d="M301.75427 322.68915C301.75427 324.346 300.4111 325.68915 298.75427 325.68915C297.0974 325.68915 295.75427 324.346 295.75427 322.68915C295.75427 321.03232 297.0974 319.68915 298.75427 319.68915C300.4111 319.68915 301.75427 321.03232 301.75427 322.68915Z" fill-rule="nonzero"/><path fill="#000000" fill-opacity="0.0" clip-path="url(#id_0)" d="M368.09833 100.03644C368.09833 101.69329 366.7552 103.03644 365.09833 103.03644C363.44147 103.03644 362.09833 101.69329 362.09833 100.03644C362.09833 98.379585 363.44147 97.03644 365.09833 97.03644C366.7552 97.03644 368.09833 98.379585 368.09833 100.03644Z" fill-rule="nonzero"/><path fill="#000000" fill-opacity="0.0" clip-path="url(#id_0)" d="M102.72204 332.31744C102.72204 333.9743 101.37889 335.31744 99.72204 335.31744C98.065186 335.31744 96.72204 333.9743 96.72204 332.31744C96.72204 330.66058 98.065186 329.31744 99.72204 329.31744C101.37889 329.31744 102.72204 330.66058 102.72204 332.31744Z" fill-rule="nonzero"/><path fill="#000000" fill-opacity="0.0" clip-path="url(#id_0)" d="M169.06612 332.30444C169.06612 333.9613 167.72296 335.30444 166.06612 335.30444C164.40926 335.30444 163.06612 333.9613 163.06612 332.30444C163.06612 330.6476 164.40926 329.30444 166.06612 329.30444C167.72296 329.30444 169.06612 330.6476 169.06612 332.30444Z" fill-rule="nonzero"/><path fill="#000000" fill-opacity="0.0" clip-path="url(#id_0)" d="M235.41019 332.27252C235.41019 333.92938 234.06703 335.27252 232.41019 335.27252C230.75333 335.27252 229.41019 333.92938 229.41019 332.27252C229.41019 330.61566 230.75333 329.27252 232.41019 329.27252C234.06703 329.27252 235.41019 330.61566 235.41019 332.27252Z" fill-rule="nonzero"/><path fill="#000000" fill-opacity="0.0" clip-path="url(#id_0)" d="M301.75427 331.9322C301.75427 333.58905 300.4111 334.9322 298.75427 334.9322C297.0974 334.9322 295.75427 333.58905 295.75427 331.9322C295.75427 330.27536 297.0974 328.9322 298.75427 328.9322C300.4111 328.9322 301.75427 330.27536 301.75427 331.9322Z" fill-rule="nonzero"/><path fill="#000000" fill-opacity="0.0" clip-path="url(#id_0)" d="M368.09833 329.54825C368.09833 331.2051 366.7552 332.54825 365.09833 332.54825C363.44147 332.54825 362.09833 331.2051 362.09833 329.54825C362.09833 327.89142 363.44147 326.54825 365.09833 326.54825C366.7552 326.54825 368.09833 327.89142 368.09833 329.54825Z" fill-rule="nonzero"/><path fill="#000000" fill-opacity="0.0" clip-path="url(#id_0)" d="M434.4424 294.9622C434.4424 296.61905 433.09927 297.9622 431.4424 297.9622C429.78555 297.9622 428.4424 296.61905 428.4424 294.9622C428.4424 293.30533 429.78555 291.9622 431.4424 291.9622C433.09927 291.9622 434.4424 293.30533 434.4424 294.9622Z" fill-rule="nonzero"/><path fill="#000000" fill-opacity="0.0" clip-path="url(#id_0)" d="M102.72204 332.3012C102.72204 333.95807 101.37889 335.3012 99.72204 335.3012C98.065186 335.3012 96.72204 333.95807 96.72204 332.3012C96.72204 330.64435 98.065186 329.3012 99.72204 329.3012C101.37889 329.3012 102.72204 330.64435 102.72204 332.3012Z" fill-rule="nonzero"/><path fill="#000000" fill-opacity="0.0" clip-path="url(#id_0)" d="M169.06612 332.26712C169.06612 333.92398 167.72296 335.26712 166.06612 335.26712C164.40926 335.26712 163.06612 333.92398 163.06612 332.26712C163.06612 330.61026 164.40926 329.26712 166.06612 329.26712C167.72296 329.26712 169.06612 330.61026 169.06612 332.26712Z" fill-rule="nonzero"/><path fill="#000000" fill-opacity="0.0" clip-path="url(#id_0)" d="M235.41019 332.25793C235.41019 333.91476 234.06703 335.25793 232.41019 335.25793C230.75333 335.25793 229.41019 333.91476 229.41019 332.25793C229.41019 330.60107 230.75333 329.25793 232.41019 329.25793C234.06703 329.25793 235.41019 330.60107 235.41019 332.25793Z" fill-rule="nonzero"/><path fill="#000000" fill-opacity="0.0" clip-path="url(#id_0)" d="M301.75427 332.10535C301.75427 333.7622 300.4111 335.10535 298.75427 335.10535C297.0974 335.10535 295.75427 333.7622 295.75427 332.10535C295.75427 330.4485 297.0974 329.10535 298.75427 329.10535C300.4111 329.10535 301.75427 330.4485 301.75427 332.10535Z" fill-rule="nonzero"/><path fill="#000000" fill-opacity="0.0" clip-path="url(#id_0)" d="M368.09833 330.7056C368.09833 332.36246 366.7552 333.7056 365.09833 333.7056C363.44147 333.7056 362.09833 332.36246 362.09833 330.7056C362.09833 329.04874 363.44147 327.7056 365.09833 327.7056C366.7552 327.7056 368.09833 329.04874 368.09833 330.7056Z" fill-rule="nonzero"/><path fill="#000000" fill-opacity="0.0" clip-path="url(#id_0)" d="M434.4424 316.9046C434.4424 318.56146 433.09927 319.9046 431.4424 319.9046C429.78555 319.9046 428.4424 318.56146 428.4424 316.9046C428.4424 315.24777 429.78555 313.9046 431.4424 313.9046C433.09927 313.9046 434.4424 315.24777 434.4424 316.9046Z" fill-rule="nonzero"/><path fill="#000000" fill-opacity="0.0" clip-path="url(#id_0)" d="M102.72204 332.2655C102.72204 333.92236 101.37889 335.2655 99.72204 335.2655C98.065186 335.2655 96.72204 333.92236 96.72204 332.2655C96.72204 330.60864 98.065186 329.2655 99.72204 329.2655C101.37889 329.2655 102.72204 330.60864 102.72204 332.2655Z" fill-rule="nonzero"/><path fill="#000000" fill-opacity="0.0" clip-path="url(#id_0)" d="M169.06612 332.22113C169.06612 333.878 167.72296 335.22113 166.06612 335.22113C164.40926 335.22113 163.06612 333.878 163.06612 332.22113C163.06612 330.56427 164.40926 329.22113 166.06612 329.22113C167.72296 329.22113 169.06612 330.56427 169.06612 332.22113Z" fill-rule="nonzero"/><path fill="#000000" fill-opacity="0.0" clip-path="url(#id_0)" d="M235.41019 332.15997C235.41019 333.81683 234.06703 335.15997 232.41019 335.15997C230.75333 335.15997 229.41019 333.81683 229.41019 332.15997C229.41019 330.50314 230.75333 329.15997 232.41019 329.15997C234.06703 329.15997 235.41019 330.50314 235.41019 332.15997Z" fill-rule="nonzero"/><path fill="#000000" fill-opacity="0.0" clip-path="url(#id_0)" d="M301.75427 331.82507C301.75427 333.48193 300.4111 334.82507 298.75427 334.82507C297.0974 334.82507 295.75427 333.48193 295.75427 331.82507C295.75427 330.1682 297.0974 328.82507 298.75427 328.82507C300.4111 328.82507 301.75427 330.1682 301.75427 331.82507Z" fill-rule="nonzero"/><path fill="#000000" fill-opacity="0.0" clip-path="url(#id_0)" d="M368.09833 329.12515C368.09833 330.782 366.7552 332.12515 365.09833 332.12515C363.44147 332.12515 362.09833 330.782 362.09833 329.12515C362.09833 327.4683 363.44147 326.12515 365.09833 326.12515C366.7552 326.12515 368.09833 327.4683 368.09833 329.12515Z" fill-rule="nonzero"/><path fill="#000000" fill-opacity="0.0" clip-path="url(#id_0)" d="M434.4424 301.88895C434.4424 303.54578 433.09927 304.88895 431.4424 304.88895C429.78555 304.88895 428.4424 303.54578 428.4424 301.88895C428.4424 300.2321 429.78555 298.88895 431.4424 298.88895C433.09927 298.88895 434.4424 300.2321 434.4424 301.88895Z" fill-rule="nonzero"/><path fill="#000000" d="M54.05 332.21564Q54.05 330.6844 54.3625 329.7625Q54.675 328.825 55.284374 328.325Q55.909374 327.825 56.846874 327.825Q57.534374 327.825 58.05 328.10626Q58.58125 328.3875 58.925 328.91876Q59.26875 329.4344 59.45625 330.1844Q59.64375 330.9344 59.64375 332.21564Q59.64375 333.73126 59.33125 334.65314Q59.034374 335.575 58.409374 336.09064Q57.8 336.59064 56.846874 336.59064Q55.6125 336.59064 54.89375 335.7Q54.05 334.6375 54.05 332.21564ZM55.128124 332.21564Q55.128124 334.325 55.628124 335.02814Q56.128124 335.73126 56.846874 335.73126Q57.58125 335.73126 58.065624 335.02814Q58.565624 334.325 58.565624 332.21564Q58.565624 330.09064 58.065624 329.40314Q57.58125 328.7 56.83125 328.7Q56.1125 328.7 55.675 329.3094Q55.128124 330.09064 55.128124 332.21564Z" fill-rule="nonzero"/><path fill="#000000" d="M23.01875 282.34332L21.971874 282.34332L21.971874 275.62457Q21.58125 275.98395 20.95625 276.35895Q20.346874 276.71832 19.8625 276.8902L19.8625 275.87457Q20.7375 275.4527 21.39375 274.87457Q22.065624 274.28082 22.346874 273.71832L23.01875 273.71832L23.01875 282.34332ZM26.05 278.10895Q26.05 276.5777 26.3625 275.65582Q26.675 274.71832 27.284374 274.21832Q27.909374 273.71832 28.846874 273.71832Q29.534374 273.71832 30.05 273.99957Q30.58125 274.28082 30.925 274.81207Q31.26875 275.3277 31.45625 276.0777Q31.64375 276.8277 31.64375 278.10895Q31.64375 279.62457 31.33125 280.54645Q31.034374 281.46832 30.409374 281.98395Q29.8 282.48395 28.846874 282.48395Q27.6125 282.48395 26.89375 281.59332Q26.05 280.53082 26.05 278.10895ZM27.128124 278.10895Q27.128124 280.21832 27.628124 280.92145Q28.128124 281.62457 28.846874 281.62457Q29.58125 281.62457 30.065624 280.92145Q30.565624 280.21832 30.565624 278.10895Q30.565624 275.98395 30.065624 275.29645Q29.58125 274.59332 28.83125 274.59332Q28.1125 274.59332 27.675 275.2027Q27.128124 275.98395 27.128124 278.10895ZM33.05 278.10895Q33.05 276.5777 33.3625 275.65582Q33.675 274.71832 34.284374 274.21832Q34.909374 273.71832 35.846874 273.71832Q36.534374 273.71832 37.05 273.99957Q37.58125 274.28082 37.925 274.81207Q38.26875 275.3277 38.45625 276.0777Q38.64375 276.8277 38.64375 278.10895Q38.64375 279.62457 38.33125 280.54645Q38.034374 281.46832 37.409374 281.98395Q36.8 282.48395 35.846874 282.48395Q34.6125 282.48395 33.89375 281.59332Q33.05 280.53082 33.05 278.10895ZM34.128124 278.10895Q34.128124 280.21832 34.628124 280.92145Q35.128124 281.62457 35.846874 281.62457Q36.58125 281.62457 37.065624 280.92145Q37.565624 280.21832 37.565624 278.10895Q37.565624 275.98395 37.065624 275.29645Q36.58125 274.59332 35.83125 274.59332Q35.1125 274.59332 34.675 275.2027Q34.128124 275.98395 34.128124 278.10895ZM40.05 278.10895Q40.05 276.5777 40.3625 275.65582Q40.675 274.71832 41.284374 274.21832Q41.909374 273.71832 42.846874 273.71832Q43.534374 273.71832 44.05 273.99957Q44.58125 274.28082 44.925 274.81207Q45.26875 275.3277 45.45625 276.0777Q45.64375 276.8277 45.64375 278.10895Q45.64375 279.62457 45.33125 280.54645Q45.034374 281.46832 44.409374 281.98395Q43.8 282.48395 42.846874 282.48395Q41.6125 282.48395 40.89375 281.59332Q40.05 280.53082 40.05 278.10895ZM41.128124 278.10895Q41.128124 280.21832 41.628124 280.92145Q42.128124 281.62457 42.846874 281.62457Q43.58125 281.62457 44.065624 280.92145Q44.565624 280.21832 44.565624 278.10895Q44.565624 275.98395 44.065624 275.29645Q43.58125 274.59332 42.83125 274.59332Q42.1125 274.59332 41.675 275.2027Q41.128124 275.98395 41.128124 278.10895ZM47.05 278.10895Q47.05 276.5777 47.3625 275.65582Q47.675 274.71832 48.284374 274.21832Q48.909374 273.71832 49.846874 273.71832Q50.534374 273.71832 51.05 273.99957Q51.58125 274.28082 51.925 274.81207Q52.26875 275.3277 52.45625 276.0777Q52.64375 276.8277 52.64375 278.10895Q52.64375 279.62457 52.33125 280.54645Q52.034374 281.46832 51.409374 281.98395Q50.8 282.48395 49.846874 282.48395Q48.6125 282.48395 47.89375 281.59332Q47.05 280.53082 47.05 278.10895ZM48.128124 278.10895Q48.128124 280.21832 48.628124 280.92145Q49.128124 281.62457 49.846874 281.62457Q50.58125 281.62457 51.065624 280.92145Q51.565624 280.21832 51.565624 278.10895Q51.565624 275.98395 51.065624 275.29645Q50.58125 274.59332 49.83125 274.59332Q49.1125 274.59332 48.675 275.2027Q48.128124 275.98395 48.128124 278.10895ZM54.05 278.10895Q54.05 276.5777 54.3625 275.65582Q54.675 274.71832 55.284374 274.21832Q55.909374 273.71832 56.846874 273.71832Q57.534374 273.71832 58.05 273.99957Q58.58125 274.28082 58.925 274.81207Q59.26875 275.3277 59.45625 276.0777Q59.64375 276.8277 59.64375 278.10895Q59.64375 279.62457 59.33125 280.54645Q59.034374 281.46832 58.409374 281.98395Q57.8 282.48395 56.846874 282.48395Q55.6125 282.48395 54.89375 281.59332Q54.05 280.53082 54.05 278.10895ZM55.128124 278.10895Q55.128124 280.21832 55.628124 280.92145Q56.128124 281.62457 56.846874 281.62457Q57.58125 281.62457 58.065624 280.92145Q58.565624 280.21832 58.565624 278.10895Q58.565624 275.98395 58.065624 275.29645Q57.58125 274.59332 56.83125 274.59332Q56.1125 274.59332 55.675 275.2027Q55.128124 275.98395 55.128124 278.10895Z" fill-rule="nonzero"/><path fill="#000000" d="M24.596874 227.22104L24.596874 228.23666L18.909374 228.23666Q18.909374 227.86166 19.034374 227.50229Q19.253124 226.92416 19.721874 226.36166Q20.20625 225.79916 21.1125 225.06479Q22.51875 223.90854 23.003124 223.23666Q23.503124 222.56479 23.503124 221.97104Q23.503124 221.34604 23.05 220.92416Q22.596874 220.48666 21.878124 220.48666Q21.1125 220.48666 20.659374 220.93979Q20.20625 221.39291 20.190624 222.20541L19.1125 222.09604Q19.221874 220.87729 19.940624 220.25229Q20.675 219.61166 21.909374 219.61166Q23.14375 219.61166 23.8625 220.29916Q24.58125 220.98666 24.58125 222.00229Q24.58125 222.51791 24.3625 223.01791Q24.159374 223.50229 23.659374 224.06479Q23.175 224.61166 22.05 225.56479Q21.096874 226.36166 20.815624 226.65854Q20.55 226.93979 20.378124 227.22104L24.596874 227.22104ZM26.05 224.00229Q26.05 222.47104 26.3625 221.54916Q26.675 220.61166 27.284374 220.11166Q27.909374 219.61166 28.846874 219.61166Q29.534374 219.61166 30.05 219.89291Q30.58125 220.17416 30.925 220.70541Q31.26875 221.22104 31.45625 221.97104Q31.64375 222.72104 31.64375 224.00229Q31.64375 225.51791 31.33125 226.43979Q31.034374 227.36166 30.409374 227.87729Q29.8 228.37729 28.846874 228.37729Q27.6125 228.37729 26.89375 227.48666Q26.05 226.42416 26.05 224.00229ZM27.128124 224.00229Q27.128124 226.11166 27.628124 226.81479Q28.128124 227.51791 28.846874 227.51791Q29.58125 227.51791 30.065624 226.81479Q30.565624 226.11166 30.565624 224.00229Q30.565624 221.87729 30.065624 221.18979Q29.58125 220.48666 28.83125 220.48666Q28.1125 220.48666 27.675 221.09604Q27.128124 221.87729 27.128124 224.00229ZM33.05 224.00229Q33.05 222.47104 33.3625 221.54916Q33.675 220.61166 34.284374 220.11166Q34.909374 219.61166 35.846874 219.61166Q36.534374 219.61166 37.05 219.89291Q37.58125 220.17416 37.925 220.70541Q38.26875 221.22104 38.45625 221.97104Q38.64375 222.72104 38.64375 224.00229Q38.64375 225.51791 38.33125 226.43979Q38.034374 227.36166 37.409374 227.87729Q36.8 228.37729 35.846874 228.37729Q34.6125 228.37729 33.89375 227.48666Q33.05 226.42416 33.05 224.00229ZM34.128124 224.00229Q34.128124 226.11166 34.628124 226.81479Q35.128124 227.51791 35.846874 227.51791Q36.58125 227.51791 37.065624 226.81479Q37.565624 226.11166 37.565624 224.00229Q37.565624 221.87729 37.065624 221.18979Q36.58125 220.48666 35.83125 220.48666Q35.1125 220.48666 34.675 221.09604Q34.128124 221.87729 34.128124 224.00229ZM40.05 224.00229Q40.05 222.47104 40.3625 221.54916Q40.675 220.61166 41.284374 220.11166Q41.909374 219.61166 42.846874 219.61166Q43.534374 219.61166 44.05 219.89291Q44.58125 220.17416 44.925 220.70541Q45.26875 221.22104 45.45625 221.97104Q45.64375 222.72104 45.64375 224.00229Q45.64375 225.51791 45.33125 226.43979Q45.034374 227.36166 44.409374 227.87729Q43.8 228.37729 42.846874 228.37729Q41.6125 228.37729 40.89375 227.48666Q40.05 226.42416 40.05 224.00229ZM41.128124 224.00229Q41.128124 226.11166 41.628124 226.81479Q42.128124 227.51791 42.846874 227.51791Q43.58125 227.51791 44.065624 226.81479Q44.565624 226.11166 44.565624 224.00229Q44.565624 221.87729 44.065624 221.18979Q43.58125 220.48666 42.83125 220.48666Q42.1125 220.48666 41.675 221.09604Q41.128124 221.87729 41.128124 224.00229ZM47.05 224.00229Q47.05 222.47104 47.3625 221.54916Q47.675 220.61166 48.284374 220.11166Q48.909374 219.61166 49.846874 219.61166Q50.534374 219.61166 51.05 219.89291Q51.58125 220.17416 51.925 220.70541Q52.26875 221.22104 52.45625 221.97104Q52.64375 222.72104 52.64375 224.00229Q52.64375 225.51791 52.33125 226.43979Q52.034374 227.36166 51.409374 227.87729Q50.8 228.37729 49.846874 228.37729Q48.6125 228.37729 47.89375 227.48666Q47.05 226.42416 47.05 224.00229ZM48.128124 224.00229Q48.128124 226.11166 48.628124 226.81479Q49.128124 227.51791 49.846874 227.51791Q50.58125 227.51791 51.065624 226.81479Q51.565624 226.11166 51.565624 224.00229Q51.565624 221.87729 51.065624 221.18979Q50.58125 220.48666 49.83125 220.48666Q49.1125 220.48666 48.675 221.09604Q48.128124 221.87729 48.128124 224.00229ZM54.05 224.00229Q54.05 222.47104 54.3625 221.54916Q54.675 220.61166 55.284374 220.11166Q55.909374 219.61166 56.846874 219.61166Q57.534374 219.61166 58.05 219.89291Q58.58125 220.17416 58.925 220.70541Q59.26875 221.22104 59.45625 221.97104Q59.64375 222.72104 59.64375 224.00229Q59.64375 225.51791 59.33125 226.43979Q59.034374 227.36166 58.409374 227.87729Q57.8 228.37729 56.846874 228.37729Q55.6125 228.37729 54.89375 227.48666Q54.05 226.42416 54.05 224.00229ZM55.128124 224.00229Q55.128124 226.11166 55.628124 226.81479Q56.128124 227.51791 56.846874 227.51791Q57.58125 227.51791 58.065624 226.81479Q58.565624 226.11166 58.565624 224.00229Q58.565624 221.87729 58.065624 221.18979Q57.58125 220.48666 56.83125 220.48666Q56.1125 220.48666 55.675 221.09604Q55.128124 221.87729 55.128124 224.00229Z" fill-rule="nonzero"/><path fill="#000000" d="M19.05 171.86438L20.1125 171.72375Q20.284374 172.61438 20.721874 173.02063Q21.159374 173.41125 21.784374 173.41125Q22.534374 173.41125 23.05 172.89563Q23.565624 172.38 23.565624 171.61438Q23.565624 170.89563 23.08125 170.42688Q22.6125 169.9425 21.878124 169.9425Q21.58125 169.9425 21.128124 170.0675L21.253124 169.13Q21.3625 169.14563 21.425 169.14563Q22.096874 169.14563 22.628124 168.80188Q23.175 168.4425 23.175 167.70813Q23.175 167.13 22.784374 166.755Q22.39375 166.36438 21.76875 166.36438Q21.159374 166.36438 20.7375 166.755Q20.33125 167.14563 20.221874 167.91125L19.159374 167.72375Q19.346874 166.67688 20.034374 166.09875Q20.721874 165.505 21.7375 165.505Q22.440624 165.505 23.034374 165.8175Q23.628124 166.11438 23.940624 166.63Q24.253124 167.14563 24.253124 167.73938Q24.253124 168.28625 23.95625 168.755Q23.659374 169.20813 23.08125 169.47375Q23.83125 169.64563 24.253124 170.20813Q24.675 170.755 24.675 171.59875Q24.675 172.72375 23.846874 173.505Q23.034374 174.28625 21.784374 174.28625Q20.659374 174.28625 19.909374 173.61438Q19.159374 172.92688 19.05 171.86438ZM26.05 169.89563Q26.05 168.36438 26.3625 167.4425Q26.675 166.505 27.284374 166.005Q27.909374 165.505 28.846874 165.505Q29.534374 165.505 30.05 165.78625Q30.58125 166.0675 30.925 166.59875Q31.26875 167.11438 31.45625 167.86438Q31.64375 168.61438 31.64375 169.89563Q31.64375 171.41125 31.33125 172.33313Q31.034374 173.255 30.409374 173.77063Q29.8 174.27063 28.846874 174.27063Q27.6125 174.27063 26.89375 173.38Q26.05 172.3175 26.05 169.89563ZM27.128124 169.89563Q27.128124 172.005 27.628124 172.70813Q28.128124 173.41125 28.846874 173.41125Q29.58125 173.41125 30.065624 172.70813Q30.565624 172.005 30.565624 169.89563Q30.565624 167.77063 30.065624 167.08313Q29.58125 166.38 28.83125 166.38Q28.1125 166.38 27.675 166.98938Q27.128124 167.77063 27.128124 169.89563ZM33.05 169.89563Q33.05 168.36438 33.3625 167.4425Q33.675 166.505 34.284374 166.005Q34.909374 165.505 35.846874 165.505Q36.534374 165.505 37.05 165.78625Q37.58125 166.0675 37.925 166.59875Q38.26875 167.11438 38.45625 167.86438Q38.64375 168.61438 38.64375 169.89563Q38.64375 171.41125 38.33125 172.33313Q38.034374 173.255 37.409374 173.77063Q36.8 174.27063 35.846874 174.27063Q34.6125 174.27063 33.89375 173.38Q33.05 172.3175 33.05 169.89563ZM34.128124 169.89563Q34.128124 172.005 34.628124 172.70813Q35.128124 173.41125 35.846874 173.41125Q36.58125 173.41125 37.065624 172.70813Q37.565624 172.005 37.565624 169.89563Q37.565624 167.77063 37.065624 167.08313Q36.58125 166.38 35.83125 166.38Q35.1125 166.38 34.675 166.98938Q34.128124 167.77063 34.128124 169.89563ZM40.05 169.89563Q40.05 168.36438 40.3625 167.4425Q40.675 166.505 41.284374 166.005Q41.909374 165.505 42.846874 165.505Q43.534374 165.505 44.05 165.78625Q44.58125 166.0675 44.925 166.59875Q45.26875 167.11438 45.45625 167.86438Q45.64375 168.61438 45.64375 169.89563Q45.64375 171.41125 45.33125 172.33313Q45.034374 173.255 44.409374 173.77063Q43.8 174.27063 42.846874 174.27063Q41.6125 174.27063 40.89375 173.38Q40.05 172.3175 40.05 169.89563ZM41.128124 169.89563Q41.128124 172.005 41.628124 172.70813Q42.128124 173.41125 42.846874 173.41125Q43.58125 173.41125 44.065624 172.70813Q44.565624 172.005 44.565624 169.89563Q44.565624 167.77063 44.065624 167.08313Q43.58125 166.38 42.83125 166.38Q42.1125 166.38 41.675 166.98938Q41.128124 167.77063 41.128124 169.89563ZM47.05 169.89563Q47.05 168.36438 47.3625 167.4425Q47.675 166.505 48.284374 166.005Q48.909374 165.505 49.846874 165.505Q50.534374 165.505 51.05 165.78625Q51.58125 166.0675 51.925 166.59875Q52.26875 167.11438 52.45625 167.86438Q52.64375 168.61438 52.64375 169.89563Q52.64375 171.41125 52.33125 172.33313Q52.034374 173.255 51.409374 173.77063Q50.8 174.27063 49.846874 174.27063Q48.6125 174.27063 47.89375 173.38Q47.05 172.3175 47.05 169.89563ZM48.128124 169.89563Q48.128124 172.005 48.628124 172.70813Q49.128124 173.41125 49.846874 173.41125Q50.58125 173.41125 51.065624 172.70813Q51.565624 172.005 51.565624 169.89563Q51.565624 167.77063 51.065624 167.08313Q50.58125 166.38 49.83125 166.38Q49.1125 166.38 48.675 166.98938Q48.128124 167.77063 48.128124 169.89563ZM54.05 169.89563Q54.05 168.36438 54.3625 167.4425Q54.675 166.505 55.284374 166.005Q55.909374 165.505 56.846874 165.505Q57.534374 165.505 58.05 165.78625Q58.58125 166.0675 58.925 166.59875Q59.26875 167.11438 59.45625 167.86438Q59.64375 168.61438 59.64375 169.89563Q59.64375 171.41125 59.33125 172.33313Q59.034374 173.255 58.409374 173.77063Q57.8 174.27063 56.846874 174.27063Q55.6125 174.27063 54.89375 173.38Q54.05 172.3175 54.05 169.89563ZM55.128124 169.89563Q55.128124 172.005 55.628124 172.70813Q56.128124 173.41125 56.846874 173.41125Q57.58125 173.41125 58.065624 172.70813Q58.565624 172.005 58.565624 169.89563Q58.565624 167.77063 58.065624 167.08313Q57.58125 166.38 56.83125 166.38Q56.1125 166.38 55.675 166.98938Q55.128124 167.77063 55.128124 169.89563Z" fill-rule="nonzero"/><path fill="#000000" d="M22.425 120.02333L22.425 117.96083L18.70625 117.96083L18.70625 116.99208L22.628124 111.42958L23.4875 111.42958L23.4875 116.99208L24.64375 116.99208L24.64375 117.96083L23.4875 117.96083L23.4875 120.02333L22.425 120.02333ZM22.425 116.99208L22.425 113.132706L19.7375 116.99208L22.425 116.99208ZM26.05 115.788956Q26.05 114.257706 26.3625 113.33583Q26.675 112.39833 27.284374 111.89833Q27.909374 111.39833 28.846874 111.39833Q29.534374 111.39833 30.05 111.67958Q30.58125 111.96083 30.925 112.49208Q31.26875 113.007706 31.45625 113.757706Q31.64375 114.507706 31.64375 115.788956Q31.64375 117.30458 31.33125 118.226456Q31.034374 119.14833 30.409374 119.663956Q29.8 120.163956 28.846874 120.163956Q27.6125 120.163956 26.89375 119.27333Q26.05 118.21083 26.05 115.788956ZM27.128124 115.788956Q27.128124 117.89833 27.628124 118.601456Q28.128124 119.30458 28.846874 119.30458Q29.58125 119.30458 30.065624 118.601456Q30.565624 117.89833 30.565624 115.788956Q30.565624 113.663956 30.065624 112.976456Q29.58125 112.27333 28.83125 112.27333Q28.1125 112.27333 27.675 112.882706Q27.128124 113.663956 27.128124 115.788956ZM33.05 115.788956Q33.05 114.257706 33.3625 113.33583Q33.675 112.39833 34.284374 111.89833Q34.909374 111.39833 35.846874 111.39833Q36.534374 111.39833 37.05 111.67958Q37.58125 111.96083 37.925 112.49208Q38.26875 113.007706 38.45625 113.757706Q38.64375 114.507706 38.64375 115.788956Q38.64375 117.30458 38.33125 118.226456Q38.034374 119.14833 37.409374 119.663956Q36.8 120.163956 35.846874 120.163956Q34.6125 120.163956 33.89375 119.27333Q33.05 118.21083 33.05 115.788956ZM34.128124 115.788956Q34.128124 117.89833 34.628124 118.601456Q35.128124 119.30458 35.846874 119.30458Q36.58125 119.30458 37.065624 118.601456Q37.565624 117.89833 37.565624 115.788956Q37.565624 113.663956 37.065624 112.976456Q36.58125 112.27333 35.83125 112.27333Q35.1125 112.27333 34.675 112.882706Q34.128124 113.663956 34.128124 115.788956ZM40.05 115.788956Q40.05 114.257706 40.3625 113.33583Q40.675 112.39833 41.284374 111.89833Q41.909374 111.39833 42.846874 111.39833Q43.534374 111.39833 44.05 111.67958Q44.58125 111.96083 44.925 112.49208Q45.26875 113.007706 45.45625 113.757706Q45.64375 114.507706 45.64375 115.788956Q45.64375 117.30458 45.33125 118.226456Q45.034374 119.14833 44.409374 119.663956Q43.8 120.163956 42.846874 120.163956Q41.6125 120.163956 40.89375 119.27333Q40.05 118.21083 40.05 115.788956ZM41.128124 115.788956Q41.128124 117.89833 41.628124 118.601456Q42.128124 119.30458 42.846874 119.30458Q43.58125 119.30458 44.065624 118.601456Q44.565624 117.89833 44.565624 115.788956Q44.565624 113.663956 44.065624 112.976456Q43.58125 112.27333 42.83125 112.27333Q42.1125 112.27333 41.675 112.882706Q41.128124 113.663956 41.128124 115.788956ZM47.05 115.788956Q47.05 114.257706 47.3625 113.33583Q47.675 112.39833 48.284374 111.89833Q48.909374 111.39833 49.846874 111.39833Q50.534374 111.39833 51.05 111.67958Q51.58125 111.96083 51.925 112.49208Q52.26875 113.007706 52.45625 113.757706Q52.64375 114.507706 52.64375 115.788956Q52.64375 117.30458 52.33125 118.226456Q52.034374 119.14833 51.409374 119.663956Q50.8 120.163956 49.846874 120.163956Q48.6125 120.163956 47.89375 119.27333Q47.05 118.21083 47.05 115.788956ZM48.128124 115.788956Q48.128124 117.89833 48.628124 118.601456Q49.128124 119.30458 49.846874 119.30458Q50.58125 119.30458 51.065624 118.601456Q51.565624 117.89833 51.565624 115.788956Q51.565624 113.663956 51.065624 112.976456Q50.58125 112.27333 49.83125 112.27333Q49.1125 112.27333 48.675 112.882706Q48.128124 113.663956 48.128124 115.788956ZM54.05 115.788956Q54.05 114.257706 54.3625 113.33583Q54.675 112.39833 55.284374 111.89833Q55.909374 111.39833 56.846874 111.39833Q57.534374 111.39833 58.05 111.67958Q58.58125 111.96083 58.925 112.49208Q59.26875 113.007706 59.45625 113.757706Q59.64375 114.507706 59.64375 115.788956Q59.64375 117.30458 59.33125 118.226456Q59.034374 119.14833 58.409374 119.663956Q57.8 120.163956 56.846874 120.163956Q55.6125 120.163956 54.89375 119.27333Q54.05 118.21083 54.05 115.788956ZM55.128124 115.788956Q55.128124 117.89833 55.628124 118.601456Q56.128124 119.30458 56.846874 119.30458Q57.58125 119.30458 58.065624 118.601456Q58.565624 117.89833 58.565624 115.788956Q58.565624 113.663956 58.065624 112.976456Q57.58125 112.27333 56.83125 112.27333Q56.1125 112.27333 55.675 112.882706Q55.128124 113.663956 55.128124 115.788956Z" fill-rule="nonzero"/><path fill="#000000" d="M19.05 63.666664L20.159374 63.572914Q20.284374 64.385414 20.721874 64.791664Q21.175 65.197914 21.815624 65.197914Q22.565624 65.197914 23.096874 64.61979Q23.628124 64.041664 23.628124 63.104164Q23.628124 62.197914 23.1125 61.68229Q22.6125 61.15104 21.784374 61.15104Q21.284374 61.15104 20.8625 61.385414Q20.45625 61.61979 20.221874 61.979164L19.2375 61.854164L20.065624 57.447914L24.346874 57.447914L24.346874 58.447914L20.909374 58.447914L20.45625 60.760414Q21.221874 60.21354 22.065624 60.21354Q23.190624 60.21354 23.95625 60.99479Q24.7375 61.77604 24.7375 63.010414Q24.7375 64.166664 24.065624 65.02604Q23.2375 66.05729 21.815624 66.05729Q20.64375 66.05729 19.89375 65.40104Q19.159374 64.74479 19.05 63.666664ZM26.05 61.68229Q26.05 60.15104 26.3625 59.229164Q26.675 58.291664 27.284374 57.791664Q27.909374 57.291664 28.846874 57.291664Q29.534374 57.291664 30.05 57.572914Q30.58125 57.854164 30.925 58.385414Q31.26875 58.90104 31.45625 59.65104Q31.64375 60.40104 31.64375 61.68229Q31.64375 63.197914 31.33125 64.11979Q31.034374 65.041664 30.409374 65.55729Q29.8 66.05729 28.846874 66.05729Q27.6125 66.05729 26.89375 65.166664Q26.05 64.104164 26.05 61.68229ZM27.128124 61.68229Q27.128124 63.791664 27.628124 64.49479Q28.128124 65.197914 28.846874 65.197914Q29.58125 65.197914 30.065624 64.49479Q30.565624 63.791664 30.565624 61.68229Q30.565624 59.55729 30.065624 58.86979Q29.58125 58.166664 28.83125 58.166664Q28.1125 58.166664 27.675 58.77604Q27.128124 59.55729 27.128124 61.68229ZM33.05 61.68229Q33.05 60.15104 33.3625 59.229164Q33.675 58.291664 34.284374 57.791664Q34.909374 57.291664 35.846874 57.291664Q36.534374 57.291664 37.05 57.572914Q37.58125 57.854164 37.925 58.385414Q38.26875 58.90104 38.45625 59.65104Q38.64375 60.40104 38.64375 61.68229Q38.64375 63.197914 38.33125 64.11979Q38.034374 65.041664 37.409374 65.55729Q36.8 66.05729 35.846874 66.05729Q34.6125 66.05729 33.89375 65.166664Q33.05 64.104164 33.05 61.68229ZM34.128124 61.68229Q34.128124 63.791664 34.628124 64.49479Q35.128124 65.197914 35.846874 65.197914Q36.58125 65.197914 37.065624 64.49479Q37.565624 63.791664 37.565624 61.68229Q37.565624 59.55729 37.065624 58.86979Q36.58125 58.166664 35.83125 58.166664Q35.1125 58.166664 34.675 58.77604Q34.128124 59.55729 34.128124 61.68229ZM40.05 61.68229Q40.05 60.15104 40.3625 59.229164Q40.675 58.291664 41.284374 57.791664Q41.909374 57.291664 42.846874 57.291664Q43.534374 57.291664 44.05 57.572914Q44.58125 57.854164 44.925 58.385414Q45.26875 58.90104 45.45625 59.65104Q45.64375 60.40104 45.64375 61.68229Q45.64375 63.197914 45.33125 64.11979Q45.034374 65.041664 44.409374 65.55729Q43.8 66.05729 42.846874 66.05729Q41.6125 66.05729 40.89375 65.166664Q40.05 64.104164 40.05 61.68229ZM41.128124 61.68229Q41.128124 63.791664 41.628124 64.49479Q42.128124 65.197914 42.846874 65.197914Q43.58125 65.197914 44.065624 64.49479Q44.565624 63.791664 44.565624 61.68229Q44.565624 59.55729 44.065624 58.86979Q43.58125 58.166664 42.83125 58.166664Q42.1125 58.166664 41.675 58.77604Q41.128124 59.55729 41.128124 61.68229ZM47.05 61.68229Q47.05 60.15104 47.3625 59.229164Q47.675 58.291664 48.284374 57.791664Q48.909374 57.291664 49.846874 57.291664Q50.534374 57.291664 51.05 57.572914Q51.58125 57.854164 51.925 58.385414Q52.26875 58.90104 52.45625 59.65104Q52.64375 60.40104 52.64375 61.68229Q52.64375 63.197914 52.33125 64.11979Q52.034374 65.041664 51.409374 65.55729Q50.8 66.05729 49.846874 66.05729Q48.6125 66.05729 47.89375 65.166664Q47.05 64.104164 47.05 61.68229ZM48.128124 61.68229Q48.128124 63.791664 48.628124 64.49479Q49.128124 65.197914 49.846874 65.197914Q50.58125 65.197914 51.065624 64.49479Q51.565624 63.791664 51.565624 61.68229Q51.565624 59.55729 51.065624 58.86979Q50.58125 58.166664 49.83125 58.166664Q49.1125 58.166664 48.675 58.77604Q48.128124 59.55729 48.128124 61.68229ZM54.05 61.68229Q54.05 60.15104 54.3625 59.229164Q54.675 58.291664 55.284374 57.791664Q55.909374 57.291664 56.846874 57.291664Q57.534374 57.291664 58.05 57.572914Q58.58125 57.854164 58.925 58.385414Q59.26875 58.90104 59.45625 59.65104Q59.64375 60.40104 59.64375 61.68229Q59.64375 63.197914 59.33125 64.11979Q59.034374 65.041664 58.409374 65.55729Q57.8 66.05729 56.846874 66.05729Q55.6125 66.05729 54.89375 65.166664Q54.05 64.104164 54.05 61.68229ZM55.128124 61.68229Q55.128124 63.791664 55.628124 64.49479Q56.128124 65.197914 56.846874 65.197914Q57.58125 65.197914 58.065624 64.49479Q58.565624 63.791664 58.565624 61.68229Q58.565624 59.55729 58.065624 58.86979Q57.58125 58.166664 56.83125 58.166664Q56.1125 58.166664 55.675 58.77604Q55.128124 59.55729 55.128124 61.68229Z" fill-rule="nonzero"/><path fill="#000000" d="M100.69079 349.45L99.64391 349.45L99.64391 342.73126Q99.25329 343.09064 98.62829 343.46564Q98.01891 343.825 97.53454 343.9969L97.53454 342.98126Q98.40954 342.5594 99.06579 341.98126Q99.73766 341.3875 100.01891 340.825L100.69079 340.825L100.69079 349.45Z" fill-rule="nonzero"/><path fill="#000000" d="M163.53487 349.45L162.48799 349.45L162.48799 342.73126Q162.09737 343.09064 161.47237 343.46564Q160.86299 343.825 160.37862 343.9969L160.37862 342.98126Q161.25362 342.5594 161.90987 341.98126Q162.58174 341.3875 162.86299 340.825L163.53487 340.825L163.53487 349.45ZM166.56612 345.21564Q166.56612 343.6844 166.87862 342.7625Q167.19112 341.825 167.80049 341.325Q168.42549 340.825 169.36299 340.825Q170.05049 340.825 170.56612 341.10626Q171.09737 341.3875 171.44112 341.91876Q171.78487 342.4344 171.97237 343.1844Q172.15987 343.9344 172.15987 345.21564Q172.15987 346.73126 171.84737 347.65314Q171.55049 348.575 170.92549 349.09064Q170.31612 349.59064 169.36299 349.59064Q168.12862 349.59064 167.40987 348.7Q166.56612 347.6375 166.56612 345.21564ZM167.64424 345.21564Q167.64424 347.325 168.14424 348.02814Q168.64424 348.73126 169.36299 348.73126Q170.09737 348.73126 170.58174 348.02814Q171.08174 347.325 171.08174 345.21564Q171.08174 343.09064 170.58174 342.40314Q170.09737 341.7 169.34737 341.7Q168.62862 341.7 168.19112 342.3094Q167.64424 343.09064 167.64424 345.21564Z" fill-rule="nonzero"/><path fill="#000000" d="M226.37894 349.45L225.33206 349.45L225.33206 342.73126Q224.94144 343.09064 224.31644 343.46564Q223.70706 343.825 223.22269 343.9969L223.22269 342.98126Q224.09769 342.5594 224.75394 341.98126Q225.42581 341.3875 225.70706 340.825L226.37894 340.825L226.37894 349.45ZM229.41019 345.21564Q229.41019 343.6844 229.72269 342.7625Q230.03519 341.825 230.64456 341.325Q231.26956 340.825 232.20706 340.825Q232.89456 340.825 233.41019 341.10626Q233.94144 341.3875 234.28519 341.91876Q234.62894 342.4344 234.81644 343.1844Q235.00394 343.9344 235.00394 345.21564Q235.00394 346.73126 234.69144 347.65314Q234.39456 348.575 233.76956 349.09064Q233.16019 349.59064 232.20706 349.59064Q230.97269 349.59064 230.25394 348.7Q229.41019 347.6375 229.41019 345.21564ZM230.48831 345.21564Q230.48831 347.325 230.98831 348.02814Q231.48831 348.73126 232.20706 348.73126Q232.94144 348.73126 233.42581 348.02814Q233.92581 347.325 233.92581 345.21564Q233.92581 343.09064 233.42581 342.40314Q232.94144 341.7 232.19144 341.7Q231.47269 341.7 231.03519 342.3094Q230.48831 343.09064 230.48831 345.21564ZM236.41019 345.21564Q236.41019 343.6844 236.72269 342.7625Q237.03519 341.825 237.64456 341.325Q238.26956 340.825 239.20706 340.825Q239.89456 340.825 240.41019 341.10626Q240.94144 341.3875 241.28519 341.91876Q241.62894 342.4344 241.81644 343.1844Q242.00394 343.9344 242.00394 345.21564Q242.00394 346.73126 241.69144 347.65314Q241.39456 348.575 240.76956 349.09064Q240.16019 349.59064 239.20706 349.59064Q237.97269 349.59064 237.25394 348.7Q236.41019 347.6375 236.41019 345.21564ZM237.48831 345.21564Q237.48831 347.325 237.98831 348.02814Q238.48831 348.73126 239.20706 348.73126Q239.94144 348.73126 240.42581 348.02814Q240.92581 347.325 240.92581 345.21564Q240.92581 343.09064 240.42581 342.40314Q239.94144 341.7 239.19144 341.7Q238.47269 341.7 238.03519 342.3094Q237.48831 343.09064 237.48831 345.21564Z" fill-rule="nonzero"/><path fill="#000000" d="M289.22302 349.45L288.17615 349.45L288.17615 342.73126Q287.78552 343.09064 287.16052 343.46564Q286.55115 343.825 286.06677 343.9969L286.06677 342.98126Q286.94177 342.5594 287.59802 341.98126Q288.2699 341.3875 288.55115 340.825L289.22302 340.825L289.22302 349.45ZM292.25427 345.21564Q292.25427 343.6844 292.56677 342.7625Q292.87927 341.825 293.48865 341.325Q294.11365 340.825 295.05115 340.825Q295.73865 340.825 296.25427 341.10626Q296.78552 341.3875 297.12927 341.91876Q297.47302 342.4344 297.66052 343.1844Q297.84802 343.9344 297.84802 345.21564Q297.84802 346.73126 297.53552 347.65314Q297.23865 348.575 296.61365 349.09064Q296.00427 349.59064 295.05115 349.59064Q293.81677 349.59064 293.09802 348.7Q292.25427 347.6375 292.25427 345.21564ZM293.3324 345.21564Q293.3324 347.325 293.8324 348.02814Q294.3324 348.73126 295.05115 348.73126Q295.78552 348.73126 296.2699 348.02814Q296.7699 347.325 296.7699 345.21564Q296.7699 343.09064 296.2699 342.40314Q295.78552 341.7 295.03552 341.7Q294.31677 341.7 293.87927 342.3094Q293.3324 343.09064 293.3324 345.21564ZM299.25427 345.21564Q299.25427 343.6844 299.56677 342.7625Q299.87927 341.825 300.48865 341.325Q301.11365 340.825 302.05115 340.825Q302.73865 340.825 303.25427 341.10626Q303.78552 341.3875 304.12927 341.91876Q304.47302 342.4344 304.66052 343.1844Q304.84802 343.9344 304.84802 345.21564Q304.84802 346.73126 304.53552 347.65314Q304.23865 348.575 303.61365 349.09064Q303.00427 349.59064 302.05115 349.59064Q300.81677 349.59064 300.09802 348.7Q299.25427 347.6375 299.25427 345.21564ZM300.3324 345.21564Q300.3324 347.325 300.8324 348.02814Q301.3324 348.73126 302.05115 348.73126Q302.78552 348.73126 303.2699 348.02814Q303.7699 347.325 303.7699 345.21564Q303.7699 343.09064 303.2699 342.40314Q302.78552 341.7 302.03552 341.7Q301.31677 341.7 300.87927 342.3094Q300.3324 343.09064 300.3324 345.21564ZM306.25427 345.21564Q306.25427 343.6844 306.56677 342.7625Q306.87927 341.825 307.48865 341.325Q308.11365 340.825 309.05115 340.825Q309.73865 340.825 310.25427 341.10626Q310.78552 341.3875 311.12927 341.91876Q311.47302 342.4344 311.66052 343.1844Q311.84802 343.9344 311.84802 345.21564Q311.84802 346.73126 311.53552 347.65314Q311.23865 348.575 310.61365 349.09064Q310.00427 349.59064 309.05115 349.59064Q307.81677 349.59064 307.09802 348.7Q306.25427 347.6375 306.25427 345.21564ZM307.3324 345.21564Q307.3324 347.325 307.8324 348.02814Q308.3324 348.73126 309.05115 348.73126Q309.78552 348.73126 310.2699 348.02814Q310.7699 347.325 310.7699 345.21564Q310.7699 343.09064 310.2699 342.40314Q309.78552 341.7 309.03552 341.7Q308.31677 341.7 307.87927 342.3094Q307.3324 343.09064 307.3324 345.21564Z" fill-rule="nonzero"/><path fill="#000000" d="M352.06708 349.45L351.0202 349.45L351.0202 342.73126Q350.62958 343.09064 350.00458 343.46564Q349.3952 343.825 348.91083 343.9969L348.91083 342.98126Q349.78583 342.5594 350.44208 341.98126Q351.11395 341.3875 351.3952 340.825L352.06708 340.825L352.06708 349.45ZM355.09833 345.21564Q355.09833 343.6844 355.41083 342.7625Q355.72333 341.825 356.3327 341.325Q356.9577 340.825 357.8952 340.825Q358.5827 340.825 359.09833 341.10626Q359.62958 341.3875 359.97333 341.91876Q360.31708 342.4344 360.50458 343.1844Q360.69208 343.9344 360.69208 345.21564Q360.69208 346.73126 360.37958 347.65314Q360.0827 348.575 359.4577 349.09064Q358.84833 349.59064 357.8952 349.59064Q356.66083 349.59064 355.94208 348.7Q355.09833 347.6375 355.09833 345.21564ZM356.17645 345.21564Q356.17645 347.325 356.67645 348.02814Q357.17645 348.73126 357.8952 348.73126Q358.62958 348.73126 359.11395 348.02814Q359.61395 347.325 359.61395 345.21564Q359.61395 343.09064 359.11395 342.40314Q358.62958 341.7 357.87958 341.7Q357.16083 341.7 356.72333 342.3094Q356.17645 343.09064 356.17645 345.21564ZM362.09833 345.21564Q362.09833 343.6844 362.41083 342.7625Q362.72333 341.825 363.3327 341.325Q363.9577 340.825 364.8952 340.825Q365.5827 340.825 366.09833 341.10626Q366.62958 341.3875 366.97333 341.91876Q367.31708 342.4344 367.50458 343.1844Q367.69208 343.9344 367.69208 345.21564Q367.69208 346.73126 367.37958 347.65314Q367.0827 348.575 366.4577 349.09064Q365.84833 349.59064 364.8952 349.59064Q363.66083 349.59064 362.94208 348.7Q362.09833 347.6375 362.09833 345.21564ZM363.17645 345.21564Q363.17645 347.325 363.67645 348.02814Q364.17645 348.73126 364.8952 348.73126Q365.62958 348.73126 366.11395 348.02814Q366.61395 347.325 366.61395 345.21564Q366.61395 343.09064 366.11395 342.40314Q365.62958 341.7 364.87958 341.7Q364.16083 341.7 363.72333 342.3094Q363.17645 343.09064 363.17645 345.21564ZM369.09833 345.21564Q369.09833 343.6844 369.41083 342.7625Q369.72333 341.825 370.3327 341.325Q370.9577 340.825 371.8952 340.825Q372.5827 340.825 373.09833 341.10626Q373.62958 341.3875 373.97333 341.91876Q374.31708 342.4344 374.50458 343.1844Q374.69208 343.9344 374.69208 345.21564Q374.69208 346.73126 374.37958 347.65314Q374.0827 348.575 373.4577 349.09064Q372.84833 349.59064 371.8952 349.59064Q370.66083 349.59064 369.94208 348.7Q369.09833 347.6375 369.09833 345.21564ZM370.17645 345.21564Q370.17645 347.325 370.67645 348.02814Q371.17645 348.73126 371.8952 348.73126Q372.62958 348.73126 373.11395 348.02814Q373.61395 347.325 373.61395 345.21564Q373.61395 343.09064 373.11395 342.40314Q372.62958 341.7 371.87958 341.7Q371.16083 341.7 370.72333 342.3094Q370.17645 343.09064 370.17645 345.21564ZM376.09833 345.21564Q376.09833 343.6844 376.41083 342.7625Q376.72333 341.825 377.3327 341.325Q377.9577 340.825 378.8952 340.825Q379.5827 340.825 380.09833 341.10626Q380.62958 341.3875 380.97333 341.91876Q381.31708 342.4344 381.50458 343.1844Q381.69208 343.9344 381.69208 345.21564Q381.69208 346.73126 381.37958 347.65314Q381.0827 348.575 380.4577 349.09064Q379.84833 349.59064 378.8952 349.59064Q377.66083 349.59064 376.94208 348.7Q376.09833 347.6375 376.09833 345.21564ZM377.17645 345.21564Q377.17645 347.325 377.67645 348.02814Q378.17645 348.73126 378.8952 348.73126Q379.62958 348.73126 380.11395 348.02814Q380.61395 347.325 380.61395 345.21564Q380.61395 343.09064 380.11395 342.40314Q379.62958 341.7 378.87958 341.7Q378.16083 341.7 377.72333 342.3094Q377.17645 343.09064 377.17645 345.21564Z" fill-rule="nonzero"/><path fill="#000000" d="M414.91116 349.45L413.8643 349.45L413.8643 342.73126Q413.47366 343.09064 412.84866 343.46564Q412.2393 343.825 411.7549 343.9969L411.7549 342.98126Q412.6299 342.5594 413.28616 341.98126Q413.95804 341.3875 414.2393 340.825L414.91116 340.825L414.91116 349.45ZM417.9424 345.21564Q417.9424 343.6844 418.2549 342.7625Q418.5674 341.825 419.1768 341.325Q419.8018 340.825 420.7393 340.825Q421.4268 340.825 421.9424 341.10626Q422.47366 341.3875 422.8174 341.91876Q423.16116 342.4344 423.34866 343.1844Q423.53616 343.9344 423.53616 345.21564Q423.53616 346.73126 423.22366 347.65314Q422.9268 348.575 422.3018 349.09064Q421.6924 349.59064 420.7393 349.59064Q419.5049 349.59064 418.78616 348.7Q417.9424 347.6375 417.9424 345.21564ZM419.02054 345.21564Q419.02054 347.325 419.52054 348.02814Q420.02054 348.73126 420.7393 348.73126Q421.47366 348.73126 421.95804 348.02814Q422.45804 347.325 422.45804 345.21564Q422.45804 343.09064 421.95804 342.40314Q421.47366 341.7 420.72366 341.7Q420.0049 341.7 419.5674 342.3094Q419.02054 343.09064 419.02054 345.21564ZM424.9424 345.21564Q424.9424 343.6844 425.2549 342.7625Q425.5674 341.825 426.1768 341.325Q426.8018 340.825 427.7393 340.825Q428.4268 340.825 428.9424 341.10626Q429.47366 341.3875 429.8174 341.91876Q430.16116 342.4344 430.34866 343.1844Q430.53616 343.9344 430.53616 345.21564Q430.53616 346.73126 430.22366 347.65314Q429.9268 348.575 429.3018 349.09064Q428.6924 349.59064 427.7393 349.59064Q426.5049 349.59064 425.78616 348.7Q424.9424 347.6375 424.9424 345.21564ZM426.02054 345.21564Q426.02054 347.325 426.52054 348.02814Q427.02054 348.73126 427.7393 348.73126Q428.47366 348.73126 428.95804 348.02814Q429.45804 347.325 429.45804 345.21564Q429.45804 343.09064 428.95804 342.40314Q428.47366 341.7 427.72366 341.7Q427.0049 341.7 426.5674 342.3094Q426.02054 343.09064 426.02054 345.21564ZM431.9424 345.21564Q431.9424 343.6844 432.2549 342.7625Q432.5674 341.825 433.1768 341.325Q433.8018 340.825 434.7393 340.825Q435.4268 340.825 435.9424 341.10626Q436.47366 341.3875 436.8174 341.91876Q437.16116 342.4344 437.34866 343.1844Q437.53616 343.9344 437.53616 345.21564Q437.53616 346.73126 437.22366 347.65314Q436.9268 348.575 436.3018 349.09064Q435.6924 349.59064 434.7393 349.59064Q433.5049 349.59064 432.78616 348.7Q431.9424 347.6375 431.9424 345.21564ZM433.02054 345.21564Q433.02054 347.325 433.52054 348.02814Q434.02054 348.73126 434.7393 348.73126Q435.47366 348.73126 435.95804 348.02814Q436.45804 347.325 436.45804 345.21564Q436.45804 343.09064 435.95804 342.40314Q435.47366 341.7 434.72366 341.7Q434.0049 341.7 433.5674 342.3094Q433.02054 343.09064 433.02054 345.21564ZM438.9424 345.21564Q438.9424 343.6844 439.2549 342.7625Q439.5674 341.825 440.1768 341.325Q440.8018 340.825 441.7393 340.825Q442.4268 340.825 442.9424 341.10626Q443.47366 341.3875 443.8174 341.91876Q444.16116 342.4344 444.34866 343.1844Q444.53616 343.9344 444.53616 345.21564Q444.53616 346.73126 444.22366 347.65314Q443.9268 348.575 443.3018 349.09064Q442.6924 349.59064 441.7393 349.59064Q440.5049 349.59064 439.78616 348.7Q438.9424 347.6375 438.9424 345.21564ZM440.02054 345.21564Q440.02054 347.325 440.52054 348.02814Q441.02054 348.73126 441.7393 348.73126Q442.47366 348.73126 442.95804 348.02814Q443.45804 347.325 443.45804 345.21564Q443.45804 343.09064 442.95804 342.40314Q442.47366 341.7 441.72366 341.7Q441.0049 341.7 440.5674 342.3094Q440.02054 343.09064 440.02054 345.21564ZM445.9424 345.21564Q445.9424 343.6844 446.2549 342.7625Q446.5674 341.825 447.1768 341.325Q447.8018 340.825 448.7393 340.825Q449.4268 340.825 449.9424 341.10626Q450.47366 341.3875 450.8174 341.91876Q451.16116 342.4344 451.34866 343.1844Q451.53616 343.9344 451.53616 345.21564Q451.53616 346.73126 451.22366 347.65314Q450.9268 348.575 450.3018 349.09064Q449.6924 349.59064 448.7393 349.59064Q447.5049 349.59064 446.78616 348.7Q445.9424 347.6375 445.9424 345.21564ZM447.02054 345.21564Q447.02054 347.325 447.52054 348.02814Q448.02054 348.73126 448.7393 348.73126Q449.47366 348.73126 449.95804 348.02814Q450.45804 347.325 450.45804 345.21564Q450.45804 343.09064 449.95804 342.40314Q449.47366 341.7 448.72366 341.7Q448.0049 341.7 447.5674 342.3094Q447.02054 343.09064 447.02054 345.21564Z" fill-rule="nonzero"/><path stroke="#4285f4" stroke-width="4.0" stroke-linecap="butt" d="M484.45 61.916668L496.45 61.916668" fill-rule="nonzero"/><path fill="#1a1a1a" d="M505.325 65.916664L505.325 57.322914L508.5594 57.322914Q509.54376 57.322914 510.1375 57.58854Q510.73126 57.854164 511.0594 58.40104Q511.40314 58.93229 511.40314 59.52604Q511.40314 60.072914 511.10626 60.55729Q510.8094 61.041664 510.2 61.33854Q510.98126 61.572914 511.3875 62.135414Q511.8094 62.68229 511.8094 63.43229Q511.8094 64.02604 511.5594 64.55729Q511.3094 65.072914 510.9344 65.354164Q510.5594 65.635414 509.98126 65.77604Q509.41876 65.916664 508.60626 65.916664L505.325 65.916664ZM506.46564 60.93229L508.325 60.93229Q509.075 60.93229 509.40314 60.83854Q509.84064 60.71354 510.0594 60.416664Q510.27814 60.104164 510.27814 59.65104Q510.27814 59.229164 510.075 58.90104Q509.8719 58.572914 509.48126 58.46354Q509.10626 58.33854 508.1844 58.33854L506.46564 58.33854L506.46564 60.93229ZM506.46564 64.90104L508.60626 64.90104Q509.15314 64.90104 509.3719 64.854164Q509.77814 64.791664 510.02814 64.635414Q510.29376 64.46354 510.46564 64.15104Q510.6375 63.83854 510.6375 63.43229Q510.6375 62.947914 510.3875 62.58854Q510.15314 62.229164 509.71564 62.08854Q509.27814 61.947914 508.45 61.947914L506.46564 61.947914L506.46564 64.90104ZM517.3094 65.15104Q516.71564 65.65104 516.16876 65.854164Q515.6375 66.05729 515.0125 66.05729Q513.98126 66.05729 513.4344 65.55729Q512.8875 65.05729 512.8875 64.27604Q512.8875 63.822914 513.09064 63.447914Q513.29376 63.05729 513.6375 62.83854Q513.98126 62.604164 514.40314 62.49479Q514.7 62.40104 515.34064 62.322914Q516.60626 62.18229 517.21564 61.96354Q517.21564 61.74479 517.21564 61.697914Q517.21564 61.041664 516.91876 60.77604Q516.5125 60.43229 515.71564 60.43229Q514.98126 60.43229 514.6219 60.697914Q514.2625 60.947914 514.09064 61.604164L513.0594 61.46354Q513.2 60.80729 513.52814 60.40104Q513.85626 59.99479 514.46564 59.77604Q515.075 59.55729 515.8719 59.55729Q516.66876 59.55729 517.16876 59.74479Q517.66876 59.93229 517.90314 60.21354Q518.1375 60.49479 518.23126 60.93229Q518.27814 61.197914 518.27814 61.90104L518.27814 63.30729Q518.27814 64.77604 518.34064 65.166664Q518.41876 65.55729 518.6219 65.916664L517.5125 65.916664Q517.35626 65.58854 517.3094 65.15104ZM517.21564 62.791664Q516.6375 63.02604 515.4969 63.197914Q514.84064 63.291664 514.575 63.416664Q514.3094 63.52604 514.15314 63.74479Q514.0125 63.96354 514.0125 64.24479Q514.0125 64.666664 514.325 64.947914Q514.65314 65.229164 515.2625 65.229164Q515.8719 65.229164 516.34064 64.96354Q516.825 64.697914 517.04376 64.229164Q517.21564 63.86979 517.21564 63.18229L517.21564 62.791664ZM519.825 64.05729L520.85626 63.90104Q520.95 64.52604 521.34064 64.854164Q521.7469 65.18229 522.48126 65.18229Q523.2 65.18229 523.54376 64.90104Q523.90314 64.604164 523.90314 64.197914Q523.90314 63.83854 523.59064 63.635414Q523.3719 63.49479 522.5125 63.27604Q521.35626 62.979164 520.90314 62.77604Q520.46564 62.55729 520.23126 62.18229Q519.9969 61.80729 519.9969 61.33854Q519.9969 60.93229 520.1844 60.572914Q520.3719 60.21354 520.7 59.979164Q520.95 59.80729 521.3719 59.68229Q521.79376 59.55729 522.29376 59.55729Q523.0125 59.55729 523.5594 59.77604Q524.1219 59.979164 524.3875 60.33854Q524.65314 60.697914 524.7469 61.291664L523.71564 61.43229Q523.65314 60.96354 523.3094 60.697914Q522.98126 60.416664 522.35626 60.416664Q521.6375 60.416664 521.325 60.666664Q521.0125 60.90104 521.0125 61.229164Q521.0125 61.43229 521.1375 61.58854Q521.27814 61.760414 521.54376 61.86979Q521.7 61.93229 522.48126 62.135414Q523.60626 62.447914 524.04376 62.635414Q524.48126 62.822914 524.73126 63.18229Q524.98126 63.541664 524.98126 64.08854Q524.98126 64.61979 524.66876 65.08854Q524.3719 65.541664 523.79376 65.80729Q523.21564 66.05729 522.48126 66.05729Q521.2625 66.05729 520.6219 65.55729Q519.9969 65.041664 519.825 64.05729ZM531.4969 63.916664L532.59064 64.041664Q532.34064 64.99479 531.6375 65.52604Q530.9344 66.05729 529.85626 66.05729Q528.4969 66.05729 527.6844 65.21354Q526.8875 64.36979 526.8875 62.854164Q526.8875 61.291664 527.7 60.43229Q528.5125 59.55729 529.79376 59.55729Q531.04376 59.55729 531.825 60.40104Q532.6219 61.24479 532.6219 62.791664Q532.6219 62.885414 532.6219 63.072914L527.98126 63.072914Q528.04376 64.104164 528.5594 64.65104Q529.075 65.18229 529.85626 65.18229Q530.4344 65.18229 530.84064 64.885414Q531.2625 64.572914 531.4969 63.916664ZM528.04376 62.21354L531.5125 62.21354Q531.45 61.416664 531.1219 61.02604Q530.60626 60.416664 529.8094 60.416664Q529.075 60.416664 528.575 60.90104Q528.09064 61.385414 528.04376 62.21354ZM534.21564 65.916664L534.21564 57.322914L535.27814 57.322914L535.27814 65.916664L534.21564 65.916664ZM537.2469 58.541664L537.2469 57.322914L538.3094 57.322914L538.3094 58.541664L537.2469 58.541664ZM537.2469 65.916664L537.2469 59.697914L538.3094 59.697914L538.3094 65.916664L537.2469 65.916664ZM540.2469 65.916664L540.2469 59.697914L541.1844 59.697914L541.1844 60.572914Q541.8719 59.55729 543.16876 59.55729Q543.73126 59.55729 544.2 59.760414Q544.6844 59.96354 544.91876 60.291664Q545.15314 60.61979 545.2469 61.05729Q545.29376 61.354164 545.29376 62.08854L545.29376 65.916664L544.2469 65.916664L544.2469 62.135414Q544.2469 61.479164 544.1219 61.166664Q543.9969 60.854164 543.6844 60.666664Q543.3719 60.46354 542.95 60.46354Q542.27814 60.46354 541.77814 60.90104Q541.29376 61.322914 541.29376 62.510414L541.29376 65.916664L540.2469 65.916664ZM551.4969 63.916664L552.59064 64.041664Q552.34064 64.99479 551.6375 65.52604Q550.9344 66.05729 549.85626 66.05729Q548.4969 66.05729 547.6844 65.21354Q546.8875 64.36979 546.8875 62.854164Q546.8875 61.291664 547.7 60.43229Q548.5125 59.55729 549.79376 59.55729Q551.04376 59.55729 551.825 60.40104Q552.6219 61.24479 552.6219 62.791664Q552.6219 62.885414 552.6219 63.072914L547.98126 63.072914Q548.04376 64.104164 548.5594 64.65104Q549.075 65.18229 549.85626 65.18229Q550.4344 65.18229 550.84064 64.885414Q551.2625 64.572914 551.4969 63.916664ZM548.04376 62.21354L551.5125 62.21354Q551.45 61.416664 551.1219 61.02604Q550.60626 60.416664 549.8094 60.416664Q549.075 60.416664 548.575 60.90104Q548.09064 61.385414 548.04376 62.21354Z" fill-rule="nonzero"/><path stroke="#ea4335" stroke-width="4.0" stroke-linecap="butt" d="M484.45 85.916664L496.45 85.916664" fill-rule="nonzero"/><path fill="#1a1a1a" d="M511.5125 86.90104L512.6375 87.197914Q512.27814 88.58854 511.35626 89.322914Q510.4344 90.05729 509.09064 90.05729Q507.7 90.05729 506.825 89.49479Q505.95 88.93229 505.4969 87.86979Q505.04376 86.791664 505.04376 85.55729Q505.04376 84.21354 505.5594 83.21354Q506.075 82.21354 507.0125 81.697914Q507.96564 81.18229 509.10626 81.18229Q510.3875 81.18229 511.2625 81.83854Q512.15314 82.49479 512.4969 83.68229L511.3719 83.947914Q511.075 83.010414 510.4969 82.58854Q509.9344 82.15104 509.075 82.15104Q508.09064 82.15104 507.41876 82.635414Q506.7625 83.104164 506.48126 83.90104Q506.21564 84.697914 506.21564 85.55729Q506.21564 86.65104 506.52814 87.46354Q506.85626 88.27604 507.52814 88.68229Q508.2 89.08854 508.9969 89.08854Q509.95 89.08854 510.60626 88.541664Q511.27814 87.99479 511.5125 86.90104ZM513.9969 87.15104L515.0594 87.05729Q515.1375 87.71354 515.41876 88.11979Q515.7 88.52604 516.27814 88.791664Q516.8719 89.041664 517.60626 89.041664Q518.2469 89.041664 518.7469 88.854164Q519.2469 88.65104 519.48126 88.322914Q519.73126 87.979164 519.73126 87.58854Q519.73126 87.18229 519.4969 86.885414Q519.2625 86.572914 518.73126 86.36979Q518.3719 86.229164 517.1844 85.947914Q516.0125 85.666664 515.54376 85.416664Q514.91876 85.08854 514.6219 84.61979Q514.325 84.135414 514.325 83.541664Q514.325 82.90104 514.6844 82.33854Q515.0594 81.760414 515.7625 81.479164Q516.48126 81.18229 517.34064 81.18229Q518.29376 81.18229 519.02814 81.49479Q519.7625 81.791664 520.15314 82.40104Q520.54376 82.99479 520.575 83.74479L519.48126 83.822914Q519.3875 83.010414 518.8719 82.604164Q518.3719 82.18229 517.3875 82.18229Q516.35626 82.18229 515.8875 82.55729Q515.41876 82.93229 515.41876 83.46354Q515.41876 83.93229 515.7469 84.229164Q516.075 84.52604 517.45 84.83854Q518.84064 85.15104 519.35626 85.385414Q520.10626 85.74479 520.46564 86.27604Q520.825 86.791664 520.825 87.49479Q520.825 88.18229 520.4344 88.791664Q520.04376 89.385414 519.3094 89.729164Q518.575 90.05729 517.65314 90.05729Q516.48126 90.05729 515.6844 89.729164Q514.90314 89.385414 514.45 88.697914Q514.0125 88.010414 513.9969 87.15104ZM524.825 89.916664L521.4969 81.322914L522.73126 81.322914L524.96564 87.572914Q525.23126 88.322914 525.41876 88.979164Q525.6219 88.27604 525.8875 87.572914L528.2 81.322914L529.35626 81.322914L525.9969 89.916664L524.825 89.916664Z" fill-rule="nonzero"/><path stroke="#fbbc04" stroke-width="4.0" stroke-linecap="butt" d="M484.45 109.916664L496.45 109.916664" fill-rule="nonzero"/><path fill="#1a1a1a" d="M504.9969 111.15104L506.0594 111.05729Q506.1375 111.71354 506.41876 112.11979Q506.7 112.52604 507.27814 112.791664Q507.8719 113.041664 508.60626 113.041664Q509.2469 113.041664 509.7469 112.854164Q510.2469 112.65104 510.48126 112.322914Q510.73126 111.979164 510.73126 111.58854Q510.73126 111.18229 510.4969 110.885414Q510.2625 110.572914 509.73126 110.36979Q509.3719 110.229164 508.1844 109.947914Q507.0125 109.666664 506.54376 109.416664Q505.91876 109.08854 505.6219 108.61979Q505.325 108.135414 505.325 107.541664Q505.325 106.90104 505.6844 106.33854Q506.0594 105.760414 506.7625 105.479164Q507.48126 105.18229 508.34064 105.18229Q509.29376 105.18229 510.02814 105.49479Q510.7625 105.791664 511.15314 106.40104Q511.54376 106.99479 511.575 107.74479L510.48126 107.822914Q510.3875 107.010414 509.8719 106.604164Q509.3719 106.18229 508.3875 106.18229Q507.35626 106.18229 506.8875 106.55729Q506.41876 106.93229 506.41876 107.46354Q506.41876 107.93229 506.7469 108.229164Q507.075 108.52604 508.45 108.83854Q509.84064 109.15104 510.35626 109.385414Q511.10626 109.74479 511.46564 110.27604Q511.825 110.791664 511.825 111.49479Q511.825 112.18229 511.4344 112.791664Q511.04376 113.385414 510.3094 113.729164Q509.575 114.05729 508.65314 114.05729Q507.48126 114.05729 506.6844 113.729164Q505.90314 113.385414 505.45 112.697914Q505.0125 112.010414 504.9969 111.15104ZM513.2469 116.30729L513.2469 107.697914L514.2 107.697914L514.2 108.49479Q514.54376 108.02604 514.96564 107.791664Q515.40314 107.55729 516.0125 107.55729Q516.8094 107.55729 517.41876 107.96354Q518.02814 108.36979 518.325 109.11979Q518.6375 109.86979 518.6375 110.760414Q518.6375 111.71354 518.29376 112.479164Q517.96564 113.24479 517.3094 113.65104Q516.65314 114.05729 515.9344 114.05729Q515.40314 114.05729 514.98126 113.83854Q514.5594 113.604164 514.29376 113.27604L514.29376 116.30729L513.2469 116.30729ZM514.2 110.83854Q514.2 112.041664 514.6844 112.61979Q515.16876 113.18229 515.85626 113.18229Q516.5594 113.18229 517.0594 112.58854Q517.5594 111.99479 517.5594 110.74479Q517.5594 109.55729 517.075 108.979164Q516.59064 108.385414 515.90314 108.385414Q515.23126 108.385414 514.71564 109.010414Q514.2 109.635414 514.2 110.83854ZM520.23126 113.916664L520.23126 107.697914L521.1844 107.697914L521.1844 108.635414Q521.54376 107.979164 521.84064 107.77604Q522.15314 107.55729 522.52814 107.55729Q523.0594 107.55729 523.60626 107.885414L523.2469 108.86979Q522.85626 108.635414 522.48126 108.635414Q522.1219 108.635414 521.84064 108.854164Q521.575 109.05729 521.46564 109.43229Q521.27814 109.99479 521.27814 110.65104L521.27814 113.916664L520.23126 113.916664ZM528.4969 111.916664L529.59064 112.041664Q529.34064 112.99479 528.6375 113.52604Q527.9344 114.05729 526.85626 114.05729Q525.4969 114.05729 524.6844 113.21354Q523.8875 112.36979 523.8875 110.854164Q523.8875 109.291664 524.7 108.43229Q525.5125 107.55729 526.79376 107.55729Q528.04376 107.55729 528.825 108.40104Q529.6219 109.24479 529.6219 110.791664Q529.6219 110.885414 529.6219 111.072914L524.98126 111.072914Q525.04376 112.104164 525.5594 112.65104Q526.075 113.18229 526.85626 113.18229Q527.4344 113.18229 527.84064 112.885414Q528.2625 112.572914 528.4969 111.916664ZM525.04376 110.21354L528.5125 110.21354Q528.45 109.416664 528.1219 109.02604Q527.60626 108.416664 526.8094 108.416664Q526.075 108.416664 525.575 108.90104Q525.09064 109.385414 525.04376 110.21354ZM535.3094 113.15104Q534.71564 113.65104 534.16876 113.854164Q533.6375 114.05729 533.0125 114.05729Q531.98126 114.05729 531.4344 113.55729Q530.8875 113.05729 530.8875 112.27604Q530.8875 111.822914 531.09064 111.447914Q531.29376 111.05729 531.6375 110.83854Q531.98126 110.604164 532.40314 110.49479Q532.7 110.40104 533.34064 110.322914Q534.60626 110.18229 535.21564 109.96354Q535.21564 109.74479 535.21564 109.697914Q535.21564 109.041664 534.91876 108.77604Q534.5125 108.43229 533.71564 108.43229Q532.98126 108.43229 532.6219 108.697914Q532.2625 108.947914 532.09064 109.604164L531.0594 109.46354Q531.2 108.80729 531.52814 108.40104Q531.85626 107.99479 532.46564 107.77604Q533.075 107.55729 533.8719 107.55729Q534.66876 107.55729 535.16876 107.74479Q535.66876 107.93229 535.90314 108.21354Q536.1375 108.49479 536.23126 108.93229Q536.27814 109.197914 536.27814 109.90104L536.27814 111.30729Q536.27814 112.77604 536.34064 113.166664Q536.41876 113.55729 536.6219 113.916664L535.5125 113.916664Q535.35626 113.58854 535.3094 113.15104ZM535.21564 110.791664Q534.6375 111.02604 533.4969 111.197914Q532.84064 111.291664 532.575 111.416664Q532.3094 111.52604 532.15314 111.74479Q532.0125 111.96354 532.0125 112.24479Q532.0125 112.666664 532.325 112.947914Q532.65314 113.229164 533.2625 113.229164Q533.8719 113.229164 534.34064 112.96354Q534.825 112.697914 535.04376 112.229164Q535.21564 111.86979 535.21564 111.18229L535.21564 110.791664ZM542.27814 113.916664L542.27814 113.135414Q541.6844 114.05729 540.54376 114.05729Q539.79376 114.05729 539.16876 113.65104Q538.54376 113.229164 538.2 112.49479Q537.85626 111.760414 537.85626 110.80729Q537.85626 109.885414 538.16876 109.11979Q538.48126 108.354164 539.10626 107.96354Q539.73126 107.55729 540.4969 107.55729Q541.0594 107.55729 541.4969 107.791664Q541.9344 108.02604 542.21564 108.40104L542.21564 105.322914L543.2625 105.322914L543.2625 113.916664L542.27814 113.916664ZM538.95 110.80729Q538.95 112.010414 539.45 112.604164Q539.95 113.18229 540.6375 113.18229Q541.325 113.18229 541.8094 112.61979Q542.29376 112.05729 542.29376 110.90104Q542.29376 109.61979 541.79376 109.02604Q541.3094 108.43229 540.59064 108.43229Q539.8875 108.43229 539.41876 109.010414Q538.95 109.572914 538.95 110.80729ZM544.825 112.05729L545.85626 111.90104Q545.95 112.52604 546.34064 112.854164Q546.7469 113.18229 547.48126 113.18229Q548.2 113.18229 548.54376 112.90104Q548.90314 112.604164 548.90314 112.197914Q548.90314 111.83854 548.59064 111.635414Q548.3719 111.49479 547.5125 111.27604Q546.35626 110.979164 545.90314 110.77604Q545.46564 110.55729 545.23126 110.18229Q544.9969 109.80729 544.9969 109.33854Q544.9969 108.93229 545.1844 108.572914Q545.3719 108.21354 545.7 107.979164Q545.95 107.80729 546.3719 107.68229Q546.79376 107.55729 547.29376 107.55729Q548.0125 107.55729 548.5594 107.77604Q549.1219 107.979164 549.3875 108.33854Q549.65314 108.697914 549.7469 109.291664L548.71564 109.43229Q548.65314 108.96354 548.3094 108.697914Q547.98126 108.416664 547.35626 108.416664Q546.6375 108.416664 546.325 108.666664Q546.0125 108.90104 546.0125 109.229164Q546.0125 109.43229 546.1375 109.58854Q546.27814 109.760414 546.54376 109.86979Q546.7 109.93229 547.48126 110.135414Q548.60626 110.447914 549.04376 110.635414Q549.48126 110.822914 549.73126 111.18229Q549.98126 111.541664 549.98126 112.08854Q549.98126 112.61979 549.66876 113.08854Q549.3719 113.541664 548.79376 113.80729Q548.21564 114.05729 547.48126 114.05729Q546.2625 114.05729 545.6219 113.55729Q544.9969 113.041664 544.825 112.05729ZM552.2469 113.916664L552.2469 105.322914L553.29376 105.322914L553.29376 108.40104Q554.02814 107.55729 555.15314 107.55729Q555.85626 107.55729 556.35626 107.83854Q556.8719 108.104164 557.09064 108.58854Q557.3094 109.05729 557.3094 109.979164L557.3094 113.916664L556.2625 113.916664L556.2625 109.979164Q556.2625 109.18229 555.91876 108.822914Q555.575 108.46354 554.95 108.46354Q554.48126 108.46354 554.0594 108.71354Q553.65314 108.947914 553.46564 109.36979Q553.29376 109.77604 553.29376 110.510414L553.29376 113.916664L552.2469 113.916664ZM563.4969 111.916664L564.59064 112.041664Q564.34064 112.99479 563.6375 113.52604Q562.9344 114.05729 561.85626 114.05729Q560.4969 114.05729 559.6844 113.21354Q558.8875 112.36979 558.8875 110.854164Q558.8875 109.291664 559.7 108.43229Q560.5125 107.55729 561.79376 107.55729Q563.04376 107.55729 563.825 108.40104Q564.6219 109.24479 564.6219 110.791664Q564.6219 110.885414 564.6219 111.072914L559.98126 111.072914Q560.04376 112.104164 560.5594 112.65104Q561.075 113.18229 561.85626 113.18229Q562.4344 113.18229 562.84064 112.885414Q563.2625 112.572914 563.4969 111.916664ZM560.04376 110.21354L563.5125 110.21354Q563.45 109.416664 563.1219 109.02604Q562.60626 108.416664 561.8094 108.416664Q561.075 108.416664 560.575 108.90104Q560.09064 109.385414 560.04376 110.21354ZM570.4969 111.916664L571.59064 112.041664Q571.34064 112.99479 570.6375 113.52604Q569.9344 114.05729 568.85626 114.05729Q567.4969 114.05729 566.6844 113.21354Q565.8875 112.36979 565.8875 110.854164Q565.8875 109.291664 566.7 108.43229Q567.5125 107.55729 568.79376 107.55729Q570.04376 107.55729 570.825 108.40104Q571.6219 109.24479 571.6219 110.791664Q571.6219 110.885414 571.6219 111.072914L566.98126 111.072914Q567.04376 112.104164 567.5594 112.65104Q568.075 113.18229 568.85626 113.18229Q569.4344 113.18229 569.84064 112.885414Q570.2625 112.572914 570.4969 111.916664ZM567.04376 110.21354L570.5125 110.21354Q570.45 109.416664 570.1219 109.02604Q569.60626 108.416664 568.8094 108.416664Q568.075 108.416664 567.575 108.90104Q567.09064 109.385414 567.04376 110.21354ZM575.54376 112.979164L575.7 113.90104Q575.2469 113.99479 574.90314 113.99479Q574.325 113.99479 574.0125 113.822914Q573.7 113.635414 573.5594 113.33854Q573.4344 113.041664 573.4344 112.08854L573.4344 108.510414L572.66876 108.510414L572.66876 107.697914L573.4344 107.697914L573.4344 106.15104L574.48126 105.52604L574.48126 107.697914L575.54376 107.697914L575.54376 108.510414L574.48126 108.510414L574.48126 112.15104Q574.48126 112.604164 574.52814 112.729164Q574.59064 112.854164 574.71564 112.93229Q574.84064 113.010414 575.075 113.010414Q575.2625 113.010414 575.54376 112.979164Z" fill-rule="nonzero"/><path stroke="#34a853" stroke-width="4.0" stroke-linecap="butt" d="M484.45 133.91667L496.45 133.91667" fill-rule="nonzero"/><path fill="#1a1a1a" d="M504.9969 135.15105L506.0594 135.0573Q506.1375 135.71355 506.41876 136.1198Q506.7 136.52605 507.27814 136.79167Q507.8719 137.04167 508.60626 137.04167Q509.2469 137.04167 509.7469 136.85417Q510.2469 136.65105 510.48126 136.32292Q510.73126 135.97917 510.73126 135.58855Q510.73126 135.1823 510.4969 134.88542Q510.2625 134.57292 509.73126 134.3698Q509.3719 134.22917 508.1844 133.94792Q507.0125 133.66667 506.54376 133.41667Q505.91876 133.08855 505.6219 132.6198Q505.325 132.13542 505.325 131.54167Q505.325 130.90105 505.6844 130.33855Q506.0594 129.76042 506.7625 129.47917Q507.48126 129.1823 508.34064 129.1823Q509.29376 129.1823 510.02814 129.4948Q510.7625 129.79167 511.15314 130.40105Q511.54376 130.9948 511.575 131.7448L510.48126 131.82292Q510.3875 131.01042 509.8719 130.60417Q509.3719 130.1823 508.3875 130.1823Q507.35626 130.1823 506.8875 130.5573Q506.41876 130.9323 506.41876 131.46355Q506.41876 131.9323 506.7469 132.22917Q507.075 132.52605 508.45 132.83855Q509.84064 133.15105 510.35626 133.38542Q511.10626 133.7448 511.46564 134.27605Q511.825 134.79167 511.825 135.4948Q511.825 136.1823 511.4344 136.79167Q511.04376 137.38542 510.3094 137.72917Q509.575 138.0573 508.65314 138.0573Q507.48126 138.0573 506.6844 137.72917Q505.90314 137.38542 505.45 136.69792Q505.0125 136.01042 504.9969 135.15105ZM519.8875 136.9948Q520.6844 137.54167 521.34064 137.79167L521.0125 138.58855Q520.09064 138.2448 519.16876 137.52605Q518.21564 138.0573 517.0594 138.0573Q515.8875 138.0573 514.9344 137.4948Q513.9969 136.9323 513.48126 135.91667Q512.96564 134.90105 512.96564 133.6198Q512.96564 132.35417 513.48126 131.3073Q513.9969 130.26042 514.95 129.71355Q515.90314 129.16667 517.075 129.16667Q518.2625 129.16667 519.21564 129.7448Q520.1844 130.3073 520.6844 131.32292Q521.1844 132.33855 521.1844 133.6198Q521.1844 134.6823 520.85626 135.52605Q520.54376 136.3698 519.8875 136.9948ZM517.3875 135.54167Q518.3719 135.82292 519.0125 136.3698Q520.0125 135.44792 520.0125 133.6198Q520.0125 132.57292 519.65314 131.79167Q519.29376 131.01042 518.60626 130.58855Q517.9344 130.15105 517.09064 130.15105Q515.8094 130.15105 514.96564 131.02605Q514.1375 131.88542 514.1375 133.6198Q514.1375 135.29167 514.96564 136.19792Q515.79376 137.08855 517.09064 137.08855Q517.7 137.08855 518.23126 136.85417Q517.7 136.51042 517.10626 136.3698L517.3875 135.54167ZM522.325 137.91667L522.325 129.32292L523.46564 129.32292L523.46564 136.90105L527.7 136.90105L527.7 137.91667L522.325 137.91667ZM529.2469 130.54167L529.2469 129.32292L530.3094 129.32292L530.3094 130.54167L529.2469 130.54167ZM529.2469 137.91667L529.2469 131.69792L530.3094 131.69792L530.3094 137.91667L529.2469 137.91667ZM534.54376 136.97917L534.7 137.90105Q534.2469 137.9948 533.90314 137.9948Q533.325 137.9948 533.0125 137.82292Q532.7 137.63542 532.5594 137.33855Q532.4344 137.04167 532.4344 136.08855L532.4344 132.51042L531.66876 132.51042L531.66876 131.69792L532.4344 131.69792L532.4344 130.15105L533.48126 129.52605L533.48126 131.69792L534.54376 131.69792L534.54376 132.51042L533.48126 132.51042L533.48126 136.15105Q533.48126 136.60417 533.52814 136.72917Q533.59064 136.85417 533.71564 136.9323Q533.84064 137.01042 534.075 137.01042Q534.2625 137.01042 534.54376 136.97917ZM539.4969 135.91667L540.59064 136.04167Q540.34064 136.9948 539.6375 137.52605Q538.9344 138.0573 537.85626 138.0573Q536.4969 138.0573 535.6844 137.21355Q534.8875 136.3698 534.8875 134.85417Q534.8875 133.29167 535.7 132.4323Q536.5125 131.5573 537.79376 131.5573Q539.04376 131.5573 539.825 132.40105Q540.6219 133.2448 540.6219 134.79167Q540.6219 134.88542 540.6219 135.07292L535.98126 135.07292Q536.04376 136.10417 536.5594 136.65105Q537.075 137.1823 537.85626 137.1823Q538.4344 137.1823 538.84064 136.88542Q539.2625 136.57292 539.4969 135.91667ZM536.04376 134.21355L539.5125 134.21355Q539.45 133.41667 539.1219 133.02605Q538.60626 132.41667 537.8094 132.41667Q537.075 132.41667 536.575 132.90105Q536.09064 133.38542 536.04376 134.21355Z" fill-rule="nonzero"/><path stroke="#ff6d01" stroke-width="4.0" stroke-linecap="butt" d="M484.45 157.91667L496.45 157.91667" fill-rule="nonzero"/><path fill="#1a1a1a" d="M505.3719 161.91667L505.3719 153.32292L508.6219 153.32292Q509.46564 153.32292 509.91876 153.40105Q510.5594 153.51042 510.98126 153.8073Q511.41876 154.10417 511.66876 154.63542Q511.9344 155.16667 511.9344 155.8073Q511.9344 156.90105 511.23126 157.66667Q510.54376 158.41667 508.71564 158.41667L506.5125 158.41667L506.5125 161.91667L505.3719 161.91667ZM506.5125 157.41667L508.73126 157.41667Q509.84064 157.41667 510.29376 157.01042Q510.7625 156.58855 510.7625 155.83855Q510.7625 155.3073 510.48126 154.9323Q510.21564 154.54167 509.77814 154.41667Q509.48126 154.33855 508.71564 154.33855L506.5125 154.33855L506.5125 157.41667ZM517.3094 161.15105Q516.71564 161.65105 516.16876 161.85417Q515.6375 162.0573 515.0125 162.0573Q513.98126 162.0573 513.4344 161.5573Q512.8875 161.0573 512.8875 160.27605Q512.8875 159.82292 513.09064 159.44792Q513.29376 159.0573 513.6375 158.83855Q513.98126 158.60417 514.40314 158.4948Q514.7 158.40105 515.34064 158.32292Q516.60626 158.1823 517.21564 157.96355Q517.21564 157.7448 517.21564 157.69792Q517.21564 157.04167 516.91876 156.77605Q516.5125 156.4323 515.71564 156.4323Q514.98126 156.4323 514.6219 156.69792Q514.2625 156.94792 514.09064 157.60417L513.0594 157.46355Q513.2 156.8073 513.52814 156.40105Q513.85626 155.9948 514.46564 155.77605Q515.075 155.5573 515.8719 155.5573Q516.66876 155.5573 517.16876 155.7448Q517.66876 155.9323 517.90314 156.21355Q518.1375 156.4948 518.23126 156.9323Q518.27814 157.19792 518.27814 157.90105L518.27814 159.3073Q518.27814 160.77605 518.34064 161.16667Q518.41876 161.5573 518.6219 161.91667L517.5125 161.91667Q517.35626 161.58855 517.3094 161.15105ZM517.21564 158.79167Q516.6375 159.02605 515.4969 159.19792Q514.84064 159.29167 514.575 159.41667Q514.3094 159.52605 514.15314 159.7448Q514.0125 159.96355 514.0125 160.2448Q514.0125 160.66667 514.325 160.94792Q514.65314 161.22917 515.2625 161.22917Q515.8719 161.22917 516.34064 160.96355Q516.825 160.69792 517.04376 160.22917Q517.21564 159.8698 517.21564 159.1823L517.21564 158.79167ZM520.23126 161.91667L520.23126 155.69792L521.1844 155.69792L521.1844 156.63542Q521.54376 155.97917 521.84064 155.77605Q522.15314 155.5573 522.52814 155.5573Q523.0594 155.5573 523.60626 155.88542L523.2469 156.8698Q522.85626 156.63542 522.48126 156.63542Q522.1219 156.63542 521.84064 156.85417Q521.575 157.0573 521.46564 157.4323Q521.27814 157.9948 521.27814 158.65105L521.27814 161.91667L520.23126 161.91667ZM528.21564 164.3073L528.21564 161.26042Q527.96564 161.60417 527.5125 161.83855Q527.075 162.0573 526.575 162.0573Q525.46564 162.0573 524.66876 161.1823Q523.8719 160.29167 523.8719 158.7448Q523.8719 157.8073 524.2 157.07292Q524.52814 156.32292 525.1375 155.94792Q525.7625 155.5573 526.4969 155.5573Q527.65314 155.5573 528.3094 156.52605L528.3094 155.69792L529.2625 155.69792L529.2625 164.3073L528.21564 164.3073ZM524.95 158.79167Q524.95 159.9948 525.45 160.58855Q525.96564 161.1823 526.66876 161.1823Q527.34064 161.1823 527.825 160.6198Q528.3094 160.04167 528.3094 158.88542Q528.3094 157.63542 527.79376 157.01042Q527.29376 156.38542 526.59064 156.38542Q525.91876 156.38542 525.4344 156.97917Q524.95 157.5573 524.95 158.79167ZM535.325 161.91667L535.325 160.9948Q534.59064 162.0573 533.34064 162.0573Q532.79376 162.0573 532.3094 161.85417Q531.84064 161.63542 531.60626 161.32292Q531.3719 160.9948 531.27814 160.52605Q531.21564 160.22917 531.21564 159.54167L531.21564 155.69792L532.27814 155.69792L532.27814 159.15105Q532.27814 159.96355 532.34064 160.26042Q532.4344 160.66667 532.7469 160.91667Q533.075 161.15105 533.5594 161.15105Q534.02814 161.15105 534.4344 160.91667Q534.85626 160.66667 535.02814 160.2448Q535.21564 159.82292 535.21564 159.02605L535.21564 155.69792L536.2625 155.69792L536.2625 161.91667L535.325 161.91667ZM542.4969 159.91667L543.59064 160.04167Q543.34064 160.9948 542.6375 161.52605Q541.9344 162.0573 540.85626 162.0573Q539.4969 162.0573 538.6844 161.21355Q537.8875 160.3698 537.8875 158.85417Q537.8875 157.29167 538.7 156.4323Q539.5125 155.5573 540.79376 155.5573Q542.04376 155.5573 542.825 156.40105Q543.6219 157.2448 543.6219 158.79167Q543.6219 158.88542 543.6219 159.07292L538.98126 159.07292Q539.04376 160.10417 539.5594 160.65105Q540.075 161.1823 540.85626 161.1823Q541.4344 161.1823 541.84064 160.88542Q542.2625 160.57292 542.4969 159.91667ZM539.04376 158.21355L542.5125 158.21355Q542.45 157.41667 542.1219 157.02605Q541.60626 156.41667 540.8094 156.41667Q540.075 156.41667 539.575 156.90105Q539.09064 157.38542 539.04376 158.21355ZM547.54376 160.97917L547.7 161.90105Q547.2469 161.9948 546.90314 161.9948Q546.325 161.9948 546.0125 161.82292Q545.7 161.63542 545.5594 161.33855Q545.4344 161.04167 545.4344 160.08855L545.4344 156.51042L544.66876 156.51042L544.66876 155.69792L545.4344 155.69792L545.4344 154.15105L546.48126 153.52605L546.48126 155.69792L547.54376 155.69792L547.54376 156.51042L546.48126 156.51042L546.48126 160.15105Q546.48126 160.60417 546.52814 160.72917Q546.59064 160.85417 546.71564 160.9323Q546.84064 161.01042 547.075 161.01042Q547.2625 161.01042 547.54376 160.97917Z" fill-rule="nonzero"/><path stroke="#46bdc6" stroke-width="4.0" stroke-linecap="butt" d="M484.45 181.91667L496.45 181.91667" fill-rule="nonzero"/><path fill="#1a1a1a" d="M505.3719 185.91667L505.3719 177.32292L508.6219 177.32292Q509.46564 177.32292 509.91876 177.40105Q510.5594 177.51042 510.98126 177.8073Q511.41876 178.10417 511.66876 178.63542Q511.9344 179.16667 511.9344 179.8073Q511.9344 180.90105 511.23126 181.66667Q510.54376 182.41667 508.71564 182.41667L506.5125 182.41667L506.5125 185.91667L505.3719 185.91667ZM506.5125 181.41667L508.73126 181.41667Q509.84064 181.41667 510.29376 181.01042Q510.7625 180.58855 510.7625 179.83855Q510.7625 179.3073 510.48126 178.9323Q510.21564 178.54167 509.77814 178.41667Q509.48126 178.33855 508.71564 178.33855L506.5125 178.33855L506.5125 181.41667ZM517.3094 185.15105Q516.71564 185.65105 516.16876 185.85417Q515.6375 186.0573 515.0125 186.0573Q513.98126 186.0573 513.4344 185.5573Q512.8875 185.0573 512.8875 184.27605Q512.8875 183.82292 513.09064 183.44792Q513.29376 183.0573 513.6375 182.83855Q513.98126 182.60417 514.40314 182.4948Q514.7 182.40105 515.34064 182.32292Q516.60626 182.1823 517.21564 181.96355Q517.21564 181.7448 517.21564 181.69792Q517.21564 181.04167 516.91876 180.77605Q516.5125 180.4323 515.71564 180.4323Q514.98126 180.4323 514.6219 180.69792Q514.2625 180.94792 514.09064 181.60417L513.0594 181.46355Q513.2 180.8073 513.52814 180.40105Q513.85626 179.9948 514.46564 179.77605Q515.075 179.5573 515.8719 179.5573Q516.66876 179.5573 517.16876 179.7448Q517.66876 179.9323 517.90314 180.21355Q518.1375 180.4948 518.23126 180.9323Q518.27814 181.19792 518.27814 181.90105L518.27814 183.3073Q518.27814 184.77605 518.34064 185.16667Q518.41876 185.5573 518.6219 185.91667L517.5125 185.91667Q517.35626 185.58855 517.3094 185.15105ZM517.21564 182.79167Q516.6375 183.02605 515.4969 183.19792Q514.84064 183.29167 514.575 183.41667Q514.3094 183.52605 514.15314 183.7448Q514.0125 183.96355 514.0125 184.2448Q514.0125 184.66667 514.325 184.94792Q514.65314 185.22917 515.2625 185.22917Q515.8719 185.22917 516.34064 184.96355Q516.825 184.69792 517.04376 184.22917Q517.21564 183.8698 517.21564 183.1823L517.21564 182.79167ZM520.23126 185.91667L520.23126 179.69792L521.1844 179.69792L521.1844 180.63542Q521.54376 179.97917 521.84064 179.77605Q522.15314 179.5573 522.52814 179.5573Q523.0594 179.5573 523.60626 179.88542L523.2469 180.8698Q522.85626 180.63542 522.48126 180.63542Q522.1219 180.63542 521.84064 180.85417Q521.575 181.0573 521.46564 181.4323Q521.27814 181.9948 521.27814 182.65105L521.27814 185.91667L520.23126 185.91667ZM528.21564 188.3073L528.21564 185.26042Q527.96564 185.60417 527.5125 185.83855Q527.075 186.0573 526.575 186.0573Q525.46564 186.0573 524.66876 185.1823Q523.8719 184.29167 523.8719 182.7448Q523.8719 181.8073 524.2 181.07292Q524.52814 180.32292 525.1375 179.94792Q525.7625 179.5573 526.4969 179.5573Q527.65314 179.5573 528.3094 180.52605L528.3094 179.69792L529.2625 179.69792L529.2625 188.3073L528.21564 188.3073ZM524.95 182.79167Q524.95 183.9948 525.45 184.58855Q525.96564 185.1823 526.66876 185.1823Q527.34064 185.1823 527.825 184.6198Q528.3094 184.04167 528.3094 182.88542Q528.3094 181.63542 527.79376 181.01042Q527.29376 180.38542 526.59064 180.38542Q525.91876 180.38542 525.4344 180.97917Q524.95 181.5573 524.95 182.79167ZM535.325 185.91667L535.325 184.9948Q534.59064 186.0573 533.34064 186.0573Q532.79376 186.0573 532.3094 185.85417Q531.84064 185.63542 531.60626 185.32292Q531.3719 184.9948 531.27814 184.52605Q531.21564 184.22917 531.21564 183.54167L531.21564 179.69792L532.27814 179.69792L532.27814 183.15105Q532.27814 183.96355 532.34064 184.26042Q532.4344 184.66667 532.7469 184.91667Q533.075 185.15105 533.5594 185.15105Q534.02814 185.15105 534.4344 184.91667Q534.85626 184.66667 535.02814 184.2448Q535.21564 183.82292 535.21564 183.02605L535.21564 179.69792L536.2625 179.69792L536.2625 185.91667L535.325 185.91667ZM542.4969 183.91667L543.59064 184.04167Q543.34064 184.9948 542.6375 185.52605Q541.9344 186.0573 540.85626 186.0573Q539.4969 186.0573 538.6844 185.21355Q537.8875 184.3698 537.8875 182.85417Q537.8875 181.29167 538.7 180.4323Q539.5125 179.5573 540.79376 179.5573Q542.04376 179.5573 542.825 180.40105Q543.6219 181.2448 543.6219 182.79167Q543.6219 182.88542 543.6219 183.07292L538.98126 183.07292Q539.04376 184.10417 539.5594 184.65105Q540.075 185.1823 540.85626 185.1823Q541.4344 185.1823 541.84064 184.88542Q542.2625 184.57292 542.4969 183.91667ZM539.04376 182.21355L542.5125 182.21355Q542.45 181.41667 542.1219 181.02605Q541.60626 180.41667 540.8094 180.41667Q540.075 180.41667 539.575 180.90105Q539.09064 181.38542 539.04376 182.21355ZM547.54376 184.97917L547.7 185.90105Q547.2469 185.9948 546.90314 185.9948Q546.325 185.9948 546.0125 185.82292Q545.7 185.63542 545.5594 185.33855Q545.4344 185.04167 545.4344 184.08855L545.4344 180.51042L544.66876 180.51042L544.66876 179.69792L545.4344 179.69792L545.4344 178.15105L546.48126 177.52605L546.48126 179.69792L547.54376 179.69792L547.54376 180.51042L546.48126 180.51042L546.48126 184.15105Q546.48126 184.60417 546.52814 184.72917Q546.59064 184.85417 546.71564 184.9323Q546.84064 185.01042 547.075 185.01042Q547.2625 185.01042 547.54376 184.97917ZM548.34064 185.91667L548.34064 177.32292L550.0594 177.32292L552.09064 183.40105Q552.3719 184.26042 552.4969 184.6823Q552.6375 184.21355 552.95 183.3073L555.0125 177.32292L556.54376 177.32292L556.54376 185.91667L555.45 185.91667L555.45 178.72917L552.95 185.91667L551.91876 185.91667L549.4344 178.60417L549.4344 185.91667L548.34064 185.91667ZM561.4969 183.91667L562.59064 184.04167Q562.34064 184.9948 561.6375 185.52605Q560.9344 186.0573 559.85626 186.0573Q558.4969 186.0573 557.6844 185.21355Q556.8875 184.3698 556.8875 182.85417Q556.8875 181.29167 557.7 180.4323Q558.5125 179.5573 559.79376 179.5573Q561.04376 179.5573 561.825 180.40105Q562.6219 181.2448 562.6219 182.79167Q562.6219 182.88542 562.6219 183.07292L557.98126 183.07292Q558.04376 184.10417 558.5594 184.65105Q559.075 185.1823 559.85626 185.1823Q560.4344 185.1823 560.84064 184.88542Q561.2625 184.57292 561.4969 183.91667ZM558.04376 182.21355L561.5125 182.21355Q561.45 181.41667 561.1219 181.02605Q560.60626 180.41667 559.8094 180.41667Q559.075 180.41667 558.575 180.90105Q558.09064 181.38542 558.04376 182.21355ZM564.23126 185.91667L564.23126 179.69792L565.1844 179.69792L565.1844 180.63542Q565.54376 179.97917 565.84064 179.77605Q566.15314 179.5573 566.52814 179.5573Q567.0594 179.5573 567.60626 179.88542L567.2469 180.8698Q566.85626 180.63542 566.48126 180.63542Q566.1219 180.63542 565.84064 180.85417Q565.575 181.0573 565.46564 181.4323Q565.27814 181.9948 565.27814 182.65105L565.27814 185.91667L564.23126 185.91667ZM568.04376 186.4323L569.075 186.58855Q569.1375 187.0573 569.4344 187.27605Q569.825 187.57292 570.4969 187.57292Q571.23126 187.57292 571.6219 187.27605Q572.02814 186.97917 572.16876 186.46355Q572.2625 186.13542 572.2469 185.10417Q571.5594 185.91667 570.52814 185.91667Q569.2469 185.91667 568.54376 184.9948Q567.84064 184.0573 567.84064 182.77605Q567.84064 181.88542 568.15314 181.13542Q568.48126 180.3698 569.09064 179.96355Q569.7 179.5573 570.52814 179.5573Q571.6375 179.5573 572.35626 180.44792L572.35626 179.69792L573.325 179.69792L573.325 185.07292Q573.325 186.52605 573.02814 187.13542Q572.73126 187.7448 572.09064 188.08855Q571.45 188.44792 570.5125 188.44792Q569.40314 188.44792 568.71564 187.94792Q568.02814 187.44792 568.04376 186.4323ZM568.91876 182.69792Q568.91876 183.91667 569.40314 184.47917Q569.8875 185.04167 570.6219 185.04167Q571.35626 185.04167 571.84064 184.47917Q572.34064 183.91667 572.34064 182.72917Q572.34064 181.58855 571.825 181.01042Q571.325 180.4323 570.60626 180.4323Q569.90314 180.4323 569.40314 181.01042Q568.91876 181.57292 568.91876 182.69792ZM579.4969 183.91667L580.59064 184.04167Q580.34064 184.9948 579.6375 185.52605Q578.9344 186.0573 577.85626 186.0573Q576.4969 186.0573 575.6844 185.21355Q574.8875 184.3698 574.8875 182.85417Q574.8875 181.29167 575.7 180.4323Q576.5125 179.5573 577.79376 179.5573Q579.04376 179.5573 579.825 180.40105Q580.6219 181.2448 580.6219 182.79167Q580.6219 182.88542 580.6219 183.07292L575.98126 183.07292Q576.04376 184.10417 576.5594 184.65105Q577.075 185.1823 577.85626 185.1823Q578.4344 185.1823 578.84064 184.88542Q579.2625 184.57292 579.4969 183.91667ZM576.04376 182.21355L579.5125 182.21355Q579.45 181.41667 579.1219 181.02605Q578.60626 180.41667 577.8094 180.41667Q577.075 180.41667 576.575 180.90105Q576.09064 181.38542 576.04376 182.21355Z" fill-rule="nonzero"/><path fill="#757575" d="M20.128124 37.55L20.128124 23.2375L26.471874 23.2375Q28.378124 23.2375 29.378124 23.628124Q30.378124 24.003124 30.971874 24.9875Q31.565624 25.95625 31.565624 27.14375Q31.565624 28.659374 30.58125 29.70625Q29.596874 30.753124 27.534374 31.034374Q28.284374 31.39375 28.675 31.753124Q29.503124 32.503124 30.253124 33.659374L32.7375 37.55L30.3625 37.55L28.45625 34.565624Q27.628124 33.284374 27.096874 32.596874Q26.565624 31.909374 26.128124 31.64375Q25.70625 31.3625 25.26875 31.253124Q24.940624 31.190624 24.221874 31.190624L22.01875 31.190624L22.01875 37.55L20.128124 37.55ZM22.01875 29.55L26.096874 29.55Q27.39375 29.55 28.1125 29.284374Q28.846874 29.01875 29.221874 28.425Q29.6125 27.83125 29.6125 27.14375Q29.6125 26.128124 28.878124 25.471874Q28.14375 24.815624 26.55 24.815624L22.01875 24.815624L22.01875 29.55ZM40.659374 37.55L40.659374 36.01875Q39.45625 37.784374 37.378124 37.784374Q36.45625 37.784374 35.659374 37.440624Q34.8625 37.08125 34.471874 36.55Q34.096874 36.01875 33.940624 35.2375Q33.83125 34.721874 33.83125 33.596874L33.83125 27.175L35.58125 27.175L35.58125 32.925Q35.58125 34.3 35.690624 34.784374Q35.8625 35.471874 36.39375 35.878124Q36.940624 36.26875 37.721874 36.26875Q38.51875 36.26875 39.20625 35.8625Q39.909374 35.45625 40.190624 34.76875Q40.4875 34.065624 40.4875 32.7375L40.4875 27.175L42.2375 27.175L42.2375 37.55L40.659374 37.55ZM43.8625 37.55L43.8625 27.175L45.45625 27.175L45.45625 28.659374Q46.596874 26.940624 48.753124 26.940624Q49.690624 26.940624 50.471874 27.284374Q51.26875 27.6125 51.659374 28.159374Q52.05 28.70625 52.20625 29.45625Q52.3 29.95625 52.3 31.175L52.3 37.55L50.534374 37.55L50.534374 31.2375Q50.534374 30.159374 50.33125 29.628124Q50.128124 29.096874 49.596874 28.784374Q49.08125 28.471874 48.378124 28.471874Q47.253124 28.471874 46.440624 29.190624Q45.628124 29.89375 45.628124 31.878124L45.628124 37.55L43.8625 37.55ZM57.70625 35.971874L57.95625 37.534374Q57.221874 37.690624 56.628124 37.690624Q55.675 37.690624 55.14375 37.39375Q54.628124 37.08125 54.409374 36.596874Q54.190624 36.096874 54.190624 34.51875L54.190624 28.55L52.909374 28.55L52.909374 27.175L54.190624 27.175L54.190624 24.6125L55.940624 23.55L55.940624 27.175L57.70625 27.175L57.70625 28.55L55.940624 28.55L55.940624 34.6125Q55.940624 35.3625 56.034374 35.58125Q56.128124 35.784374 56.33125 35.925Q56.55 36.05 56.940624 36.05Q57.221874 36.05 57.70625 35.971874ZM59.878124 25.253124L59.878124 23.2375L61.64375 23.2375L61.64375 25.253124L59.878124 25.253124ZM59.878124 37.55L59.878124 27.175L61.64375 27.175L61.64375 37.55L59.878124 37.55ZM63.8625 37.55L63.8625 27.175L65.44063 27.175L65.44063 28.628124Q65.925 27.878124 66.7375 27.409374Q67.55 26.940624 68.58125 26.940624Q69.7375 26.940624 70.47188 27.425Q71.20625 27.89375 71.51875 28.753124Q72.75313 26.940624 74.72188 26.940624Q76.26875 26.940624 77.09688 27.8Q77.925 28.659374 77.925 30.425L77.925 37.55L76.175 37.55L76.175 31.01875Q76.175 29.95625 76.00313 29.503124Q75.83125 29.034374 75.37813 28.753124Q74.94063 28.471874 74.33125 28.471874Q73.2375 28.471874 72.50313 29.20625Q71.78438 29.925 71.78438 31.51875L71.78438 37.55L70.03438 37.55L70.03438 30.815624Q70.03438 29.64375 69.59688 29.065624Q69.175 28.471874 68.19063 28.471874Q67.45625 28.471874 66.81563 28.8625Q66.19063 29.253124 65.90938 30.003124Q65.62813 30.753124 65.62813 32.175L65.62813 37.55L63.8625 37.55ZM86.97188 34.20625L88.78438 34.440624Q88.3625 36.01875 87.19063 36.909374Q86.03438 37.784374 84.22188 37.784374Q81.95625 37.784374 80.6125 36.39375Q79.28438 34.9875 79.28438 32.45625Q79.28438 29.83125 80.62813 28.39375Q81.97188 26.940624 84.12813 26.940624Q86.20625 26.940624 87.51875 28.3625Q88.84688 29.76875 88.84688 32.346874Q88.84688 32.503124 88.83125 32.815624L81.09688 32.815624Q81.19063 34.51875 82.06563 35.425Q82.94063 36.33125 84.2375 36.33125Q85.20625 36.33125 85.87813 35.83125Q86.56563 35.315624 86.97188 34.20625ZM81.19063 31.3625L86.9875 31.3625Q86.87813 30.065624 86.33125 29.409374Q85.4875 28.39375 84.14375 28.39375Q82.94063 28.39375 82.1125 29.20625Q81.28438 30.003124 81.19063 31.3625ZM100.22188 41.753124Q98.76875 39.925 97.76875 37.471874Q96.76875 35.003124 96.76875 32.3625Q96.76875 30.034374 97.51875 27.909374Q98.39375 25.440624 100.22188 22.9875L101.4875 22.9875Q100.3 25.01875 99.925 25.89375Q99.33125 27.2375 98.9875 28.70625Q98.56563 30.534374 98.56563 32.378124Q98.56563 37.065624 101.4875 41.753124L100.22188 41.753124ZM103.8625 37.55L103.8625 27.175L105.44063 27.175L105.44063 28.628124Q105.925 27.878124 106.7375 27.409374Q107.55 26.940624 108.58125 26.940624Q109.7375 26.940624 110.47188 27.425Q111.20625 27.89375 111.51875 28.753124Q112.75313 26.940624 114.72188 26.940624Q116.26875 26.940624 117.09688 27.8Q117.925 28.659374 117.925 30.425L117.925 37.55L116.175 37.55L116.175 31.01875Q116.175 29.95625 116.00313 29.503124Q115.83125 29.034374 115.37813 28.753124Q114.94063 28.471874 114.33125 28.471874Q113.2375 28.471874 112.50313 29.20625Q111.78438 29.925 111.78438 31.51875L111.78438 37.55L110.03438 37.55L110.03438 30.815624Q110.03438 29.64375 109.59688 29.065624Q109.175 28.471874 108.19063 28.471874Q107.45625 28.471874 106.81563 28.8625Q106.19063 29.253124 105.90938 30.003124Q105.62813 30.753124 105.62813 32.175L105.62813 37.55L103.8625 37.55ZM119.15938 34.45625L120.90938 34.175Q121.05 35.221874 121.72188 35.784374Q122.39375 36.33125 123.59688 36.33125Q124.8 36.33125 125.37813 35.846874Q125.97188 35.346874 125.97188 34.690624Q125.97188 34.096874 125.45625 33.753124Q125.09688 33.51875 123.65938 33.159374Q121.72188 32.659374 120.97188 32.315624Q120.2375 31.95625 119.84688 31.33125Q119.45625 30.690624 119.45625 29.925Q119.45625 29.2375 119.76875 28.64375Q120.09688 28.05 120.64375 27.659374Q121.05 27.3625 121.75313 27.159374Q122.47188 26.940624 123.28438 26.940624Q124.50313 26.940624 125.425 27.3Q126.34688 27.64375 126.78438 28.253124Q127.22188 28.846874 127.39375 29.846874L125.675 30.08125Q125.55 29.284374 124.9875 28.846874Q124.425 28.39375 123.40938 28.39375Q122.19063 28.39375 121.675 28.8Q121.15938 29.190624 121.15938 29.721874Q121.15938 30.065624 121.37813 30.346874Q121.58125 30.628124 122.05 30.815624Q122.31563 30.909374 123.59688 31.253124Q125.47188 31.753124 126.20625 32.08125Q126.94063 32.39375 127.3625 33.003124Q127.78438 33.596874 127.78438 34.503124Q127.78438 35.378124 127.26875 36.159374Q126.75313 36.940624 125.78438 37.3625Q124.81563 37.784374 123.59688 37.784374Q121.58125 37.784374 120.51875 36.940624Q119.45625 36.096874 119.15938 34.45625ZM131.01875 41.753124L129.76875 41.753124Q132.675 37.065624 132.675 32.378124Q132.675 30.534374 132.26875 28.7375Q131.925 27.26875 131.33125 25.925Q130.95625 25.034374 129.76875 22.9875L131.01875 22.9875Q132.8625 25.440624 133.7375 27.909374Q134.4875 30.034374 134.4875 32.3625Q134.4875 35.003124 133.47188 37.471874Q132.47188 39.925 131.01875 41.753124Z" fill-rule="nonzero"/></svg>