<svg version="1.1" viewBox="0.0 0.0 600.0 371.0" fill="none" stroke="none" stroke-linecap="square" stroke-miterlimit="10" width="600" height="371" xmlns:xlink="http://www.w3.org/1999/xlink" xmlns="http://www.w3.org/2000/svg"><path fill="#ffffff" d="M0 0L600.0 0L600.0 371.0L0 371.0L0 0Z" fill-rule="nonzero"/><path stroke="#333333" stroke-width="1.0" stroke-linecap="butt" d="M59.5 332.5L581.5 332.5" fill-rule="nonzero"/><path stroke="#cccccc" stroke-width="1.0" stroke-linecap="butt" d="M59.5 271.5L581.5 271.5" fill-rule="nonzero"/><path stroke="#cccccc" stroke-width="1.0" stroke-linecap="butt" d="M59.5 210.5L581.5 210.5" fill-rule="nonzero"/><path stroke="#cccccc" stroke-width="1.0" stroke-linecap="butt" d="M59.5 149.5L581.5 149.5" fill-rule="nonzero"/><path stroke="#cccccc" stroke-width="1.0" stroke-linecap="butt" d="M59.5 88.5L581.5 88.5" fill-rule="nonzero"/><clipPath id="id_0"><path d="M59.55 88.28333L581.45 88.28333L581.45 332.45L59.55 332.45L59.55 88.28333Z" clip-rule="nonzero"/></clipPath><path stroke="#34a853" stroke-width="2.0" stroke-linecap="butt" clip-path="url(#id_0)" d="M103.041664 331.70224L190.025 331.629L277.00833 331.4489L363.99167 329.52914L450.975 316.08167L537.9583 120.986404" fill-rule="nonzero"/><path stroke="#ff6d01" stroke-width="2.0" stroke-linecap="butt" clip-path="url(#id_0)" d="M103.041664 331.6107L190.025 331.4184L277.00833 331.36652L363.99167 330.50583L450.975 322.61008L537.9583 244.76059" fill-rule="nonzero"/><path stroke="#46bdc6" stroke-width="2.0" stroke-linecap="butt" clip-path="url(#id_0)" d="M103.041664 331.40924L190.025 331.15897L277.00833 330.8141L363.99167 328.92484L450.975 313.69495L537.9583 160.05917" fill-rule="nonzero"/><path fill="#000000" fill-opacity="0.0" clip-path="url(#id_0)" d="M106.041664 331.70224C106.041664 333.3591 104.698524 334.70224 103.041664 334.70224C101.38481 334.70224 100.041664 333.3591 100.041664 331.70224C100.041664 330.04538 101.38481 328.70224 103.041664 328.70224C104.698524 328.70224 106.041664 330.04538 106.041664 331.70224Z" fill-rule="nonzero"/><path fill="#000000" fill-opacity="0.0" clip-path="url(#id_0)" d="M193.025 331.629C193.025 333.28586 191.68185 334.629 190.025 334.629C188.36815 334.629 187.025 333.28586 187.025 331.629C187.025 329.97214 188.36815 328.629 190.025 328.629C191.68185 328.629 193.025 329.97214 193.025 331.629Z" fill-rule="nonzero"/><path fill="#000000" fill-opacity="0.0" clip-path="url(#id_0)" d="M280.00833 331.4489C280.00833 333.10577 278.6652 334.4489 277.00833 334.4489C275.35147 334.4489 274.00833 333.10577 274.00833 331.4489C274.00833 329.79205 275.35147 328.4489 277.00833 328.4489C278.6652 328.4489 280.00833 329.79205 280.00833 331.4489Z" fill-rule="nonzero"/><path fill="#000000" fill-opacity="0.0" clip-path="url(#id_0)" d="M366.99167 329.52914C366.99167 331.186 365.64853 332.52914 363.99167 332.52914C362.3348 332.52914 360.99167 331.186 360.99167 329.52914C360.99167 327.8723 362.3348 326.52914 363.99167 326.52914C365.64853 326.52914 366.99167 327.8723 366.99167 329.52914Z" fill-rule="nonzero"/><path fill="#000000" fill-opacity="0.0" clip-path="url(#id_0)" d="M453.975 316.08167C453.975 317.73853 452.63187 319.08167 450.975 319.08167C449.31815 319.08167 447.975 317.73853 447.975 316.08167C447.975 314.42484 449.31815 313.08167 450.975 313.08167C452.63187 313.08167 453.975 314.42484 453.975 316.08167Z" fill-rule="nonzero"/><path fill="#000000" fill-opacity="0.0" clip-path="url(#id_0)" d="M540.9583 120.986404C540.9583 122.64326 539.6152 123.986404 537.9583 123.986404C536.30145 123.986404 534.9583 122.64326 534.9583 120.986404C534.9583 119.32955 536.30145 117.986404 537.9583 117.986404C539.6152 117.986404 540.9583 119.32955 540.9583 120.986404Z" fill-rule="nonzero"/><path fill="#000000" fill-opacity="0.0" clip-path="url(#id_0)" d="M106.041664 331.6107C106.041664 333.26752 104.698524 334.6107 103.041664 334.6107C101.38481 334.6107 100.041664 333.26752 100.041664 331.6107C100.041664 329.95383 101.38481 328.6107 103.041664 328.6107C104.698524 328.6107 106.041664 329.95383 106.041664 331.6107Z" fill-rule="nonzero"/><path fill="#000000" fill-opacity="0.0" clip-path="url(#id_0)" d="M193.025 331.4184C193.025 333.07526 191.68185 334.4184 190.025 334.4184C188.36815 334.4184 187.025 333.07526 187.025 331.4184C187.025 329.76154 188.36815 328.4184 190.025 328.4184C191.68185 328.4184 193.025 329.76154 193.025 331.4184Z" fill-rule="nonzero"/><path fill="#000000" fill-opacity="0.0" clip-path="url(#id_0)" d="M280.00833 331.36652C280.00833 333.02338 278.6652 334.36652 277.00833 334.36652C275.35147 334.36652 274.00833 333.02338 274.00833 331.36652C274.00833 329.70966 275.35147 328.36652 277.00833 328.36652C278.6652 328.36652 280.00833 329.70966 280.00833 331.36652Z" fill-rule="nonzero"/><path fill="#000000" fill-opacity="0.0" clip-path="url(#id_0)" d="M366.99167 330.50583C366.99167 332.1627 365.64853 333.50583 363.99167 333.50583C362.3348 333.50583 360.99167 332.1627 360.99167 330.50583C360.99167 328.84897 362.3348 327.50583 363.99167 327.50583C365.64853 327.50583 366.99167 328.84897 366.99167 330.50583Z" fill-rule="nonzero"/><path fill="#000000" fill-opacity="0.0" clip-path="url(#id_0)" d="M453.975 322.61008C453.975 324.26694 452.63187 325.61008 450.975 325.61008C449.31815 325.61008 447.975 324.26694 447.975 322.61008C447.975 320.95322 449.31815 319.61008 450.975 319.61008C452.63187 319.61008 453.975 320.95322 453.975 322.61008Z" fill-rule="nonzero"/><path fill="#000000" fill-opacity="0.0" clip-path="url(#id_0)" d="M540.9583 244.76059C540.9583 246.41745 539.6152 247.76059 537.9583 247.76059C536.30145 247.76059 534.9583 246.41745 534.9583 244.76059C534.9583 243.10374 536.30145 241.76059 537.9583 241.76059C539.6152 241.76059 540.9583 243.10374 540.9583 244.76059Z" fill-rule="nonzero"/><path fill="#000000" fill-opacity="0.0" clip-path="url(#id_0)" d="M106.041664 331.40924C106.041664 333.0661 104.698524 334.40924 103.041664 334.40924C101.38481 334.40924 100.041664 333.0661 100.041664 331.40924C100.041664 329.75238 101.38481 328.40924 103.041664 328.40924C104.698524 328.40924 106.041664 329.75238 106.041664 331.40924Z" fill-rule="nonzero"/><path fill="#000000" fill-opacity="0.0" clip-path="url(#id_0)" d="M193.025 331.15897C193.025 332.81583 191.68185 334.15897 190.025 334.15897C188.36815 334.15897 187.025 332.81583 187.025 331.15897C187.025 329.5021 188.36815 328.15897 190.025 328.15897C191.68185 328.15897 193.025 329.5021 193.025 331.15897Z" fill-rule="nonzero"/><path fill="#000000" fill-opacity="0.0" clip-path="url(#id_0)" d="M280.00833 330.8141C280.00833 332.47095 278.6652 333.8141 277.00833 333.8141C275.35147 333.8141 274.00833 332.47095 274.00833 330.8141C274.00833 329.15723 275.35147 327.8141 277.00833 327.8141C278.6652 327.8141 280.00833 329.15723 280.00833 330.8141Z" fill-rule="nonzero"/><path fill="#000000" fill-opacity="0.0" clip-path="url(#id_0)" d="M366.99167 328.92484C366.99167 330.5817 365.64853 331.92484 363.99167 331.92484C362.3348 331.92484 360.99167 330.5817 360.99167 328.92484C360.99167 327.26797 362.3348 325.92484 363.99167 325.92484C365.64853 325.92484 366.99167 327.26797 366.99167 328.92484Z" fill-rule="nonzero"/><path fill="#000000" fill-opacity="0.0" clip-path="url(#id_0)" d="M453.975 313.69495C453.975 315.3518 452.63187 316.69495 450.975 316.69495C449.31815 316.69495 447.975 315.3518 447.975 313.69495C447.975 312.0381 449.31815 310.69495 450.975 310.69495C452.63187 310.69495 453.975 312.0381 453.975 313.69495Z" fill-rule="nonzero"/><path fill="#000000" fill-opacity="0.0" clip-path="url(#id_0)" d="M540.9583 160.05917C540.9583 161.71603 539.6152 163.05917 537.9583 163.05917C536.30145 163.05917 534.9583 161.71603 534.9583 160.05917C534.9583 158.40233 536.30145 157.05917 537.9583 157.05917C539.6152 157.05917 540.9583 158.40233 540.9583 160.05917Z" fill-rule="nonzero"/><path fill="#000000" d="M47.05 332.21564Q47.05 330.6844 47.3625 329.7625Q47.675 328.825 48.284374 328.325Q48.909374 327.825 49.846874 327.825Q50.534374 327.825 51.05 328.10626Q51.58125 328.3875 51.925 328.91876Q52.26875 329.4344 52.45625 330.1844Q52.64375 330.9344 52.64375 332.21564Q52.64375 333.73126 52.33125 334.65314Q52.034374 335.575 51.409374 336.09064Q50.8 336.59064 49.846874 336.59064Q48.6125 336.59064 47.89375 335.7Q47.05 334.6375 47.05 332.21564ZM48.128124 332.21564Q48.128124 334.325 48.628124 335.02814Q49.128124 335.73126 49.846874 335.73126Q50.58125 335.73126 51.065624 335.02814Q51.565624 334.325 51.565624 332.21564Q51.565624 330.09064 51.065624 329.40314Q50.58125 328.7 49.83125 328.7Q49.1125 328.7 48.675 329.3094Q48.128124 330.09064 48.128124 332.21564Z" fill-rule="nonzero"/><path fill="#000000" d="M24.596874 274.3927L24.596874 275.40833L18.909374 275.40833Q18.909374 275.03333 19.034374 274.67395Q19.253124 274.09583 19.721874 273.53333Q20.20625 272.97083 21.1125 272.23645Q22.51875 271.0802 23.003124 270.40833Q23.503124 269.73645 23.503124 269.1427Q23.503124 268.5177 23.05 268.09583Q22.596874 267.65833 21.878124 267.65833Q21.1125 267.65833 20.659374 268.11145Q20.20625 268.56458 20.190624 269.37708L19.1125 269.2677Q19.221874 268.04895 19.940624 267.42395Q20.675 266.78333 21.909374 266.78333Q23.14375 266.78333 23.8625 267.47083Q24.58125 268.15833 24.58125 269.17395Q24.58125 269.68958 24.3625 270.18958Q24.159374 270.67395 23.659374 271.23645Q23.175 271.78333 22.05 272.73645Q21.096874 273.53333 20.815624 273.8302Q20.55 274.11145 20.378124 274.3927L24.596874 274.3927ZM26.05 271.17395Q26.05 269.6427 26.3625 268.72083Q26.675 267.78333 27.284374 267.28333Q27.909374 266.78333 28.846874 266.78333Q29.534374 266.78333 30.05 267.06458Q30.58125 267.34583 30.925 267.87708Q31.26875 268.3927 31.45625 269.1427Q31.64375 269.8927 31.64375 271.17395Q31.64375 272.68958 31.33125 273.61145Q31.034374 274.53333 30.409374 275.04895Q29.8 275.54895 28.846874 275.54895Q27.6125 275.54895 26.89375 274.65833Q26.05 273.59583 26.05 271.17395ZM27.128124 271.17395Q27.128124 273.28333 27.628124 273.98645Q28.128124 274.68958 28.846874 274.68958Q29.58125 274.68958 30.065624 273.98645Q30.565624 273.28333 30.565624 271.17395Q30.565624 269.04895 30.065624 268.36145Q29.58125 267.65833 28.83125 267.65833Q28.1125 267.65833 27.675 268.2677Q27.128124 269.04895 27.128124 271.17395ZM33.05 271.17395Q33.05 269.6427 33.3625 268.72083Q33.675 267.78333 34.284374 267.28333Q34.909374 266.78333 35.846874 266.78333Q36.534374 266.78333 37.05 267.06458Q37.58125 267.34583 37.925 267.87708Q38.26875 268.3927 38.45625 269.1427Q38.64375 269.8927 38.64375 271.17395Q38.64375 272.68958 38.33125 273.61145Q38.034374 274.53333 37.409374 275.04895Q36.8 275.54895 35.846874 275.54895Q34.6125 275.54895 33.89375 274.65833Q33.05 273.59583 33.05 271.17395ZM34.128124 271.17395Q34.128124 273.28333 34.628124 273.98645Q35.128124 274.68958 35.846874 274.68958Q36.58125 274.68958 37.065624 273.98645Q37.565624 273.28333 37.565624 271.17395Q37.565624 269.04895 37.065624 268.36145Q36.58125 267.65833 35.83125 267.65833Q35.1125 267.65833 34.675 268.2677Q34.128124 269.04895 34.128124 271.17395ZM40.05 271.17395Q40.05 269.6427 40.3625 268.72083Q40.675 267.78333 41.284374 267.28333Q41.909374 266.78333 42.846874 266.78333Q43.534374 266.78333 44.05 267.06458Q44.58125 267.34583 44.925 267.87708Q45.26875 268.3927 45.45625 269.1427Q45.64375 269.8927 45.64375 271.17395Q45.64375 272.68958 45.33125 273.61145Q45.034374 274.53333 44.409374 275.04895Q43.8 275.54895 42.846874 275.54895Q41.6125 275.54895 40.89375 274.65833Q40.05 273.59583 40.05 271.17395ZM41.128124 271.17395Q41.128124 273.28333 41.628124 273.98645Q42.128124 274.68958 42.846874 274.68958Q43.58125 274.68958 44.065624 273.98645Q44.565624 273.28333 44.565624 271.17395Q44.565624 269.04895 44.065624 268.36145Q43.58125 267.65833 42.83125 267.65833Q42.1125 267.65833 41.675 268.2677Q41.128124 269.04895 41.128124 271.17395ZM47.05 271.17395Q47.05 269.6427 47.3625 268.72083Q47.675 267.78333 48.284374 267.28333Q48.909374 266.78333 49.846874 266.78333Q50.534374 266.78333 51.05 267.06458Q51.58125 267.34583 51.925 267.87708Q52.26875 268.3927 52.45625 269.1427Q52.64375 269.8927 52.64375 271.17395Q52.64375 272.68958 52.33125 273.61145Q52.034374 274.53333 51.409374 275.04895Q50.8 275.54895 49.846874 275.54895Q48.6125 275.54895 47.89375 274.65833Q47.05 273.59583 47.05 271.17395ZM48.128124 271.17395Q48.128124 273.28333 48.628124 273.98645Q49.128124 274.68958 49.846874 274.68958Q50.58125 274.68958 51.065624 273.98645Q51.565624 273.28333 51.565624 271.17395Q51.565624 269.04895 51.065624 268.36145Q50.58125 267.65833 49.83125 267.65833Q49.1125 267.65833 48.675 268.2677Q48.128124 269.04895 48.128124 271.17395Z" fill-rule="nonzero"/><path fill="#000000" d="M22.425 214.36667L22.425 212.30417L18.70625 212.30417L18.70625 211.33542L22.628124 205.77292L23.4875 205.77292L23.4875 211.33542L24.64375 211.33542L24.64375 212.30417L23.4875 212.30417L23.4875 214.36667L22.425 214.36667ZM22.425 211.33542L22.425 207.47604L19.7375 211.33542L22.425 211.33542ZM26.05 210.1323Q26.05 208.60104 26.3625 207.67917Q26.675 206.74167 27.284374 206.24167Q27.909374 205.74167 28.846874 205.74167Q29.534374 205.74167 30.05 206.02292Q30.58125 206.30417 30.925 206.83542Q31.26875 207.35104 31.45625 208.10104Q31.64375 208.85104 31.64375 210.1323Q31.64375 211.64792 31.33125 212.5698Q31.034374 213.49167 30.409374 214.0073Q29.8 214.5073 28.846874 214.5073Q27.6125 214.5073 26.89375 213.61667Q26.05 212.55417 26.05 210.1323ZM27.128124 210.1323Q27.128124 212.24167 27.628124 212.9448Q28.128124 213.64792 28.846874 213.64792Q29.58125 213.64792 30.065624 212.9448Q30.565624 212.24167 30.565624 210.1323Q30.565624 208.0073 30.065624 207.3198Q29.58125 206.61667 28.83125 206.61667Q28.1125 206.61667 27.675 207.22604Q27.128124 208.0073 27.128124 210.1323ZM33.05 210.1323Q33.05 208.60104 33.3625 207.67917Q33.675 206.74167 34.284374 206.24167Q34.909374 205.74167 35.846874 205.74167Q36.534374 205.74167 37.05 206.02292Q37.58125 206.30417 37.925 206.83542Q38.26875 207.35104 38.45625 208.10104Q38.64375 208.85104 38.64375 210.1323Q38.64375 211.64792 38.33125 212.5698Q38.034374 213.49167 37.409374 214.0073Q36.8 214.5073 35.846874 214.5073Q34.6125 214.5073 33.89375 213.61667Q33.05 212.55417 33.05 210.1323ZM34.128124 210.1323Q34.128124 212.24167 34.628124 212.9448Q35.128124 213.64792 35.846874 213.64792Q36.58125 213.64792 37.065624 212.9448Q37.565624 212.24167 37.565624 210.1323Q37.565624 208.0073 37.065624 207.3198Q36.58125 206.61667 35.83125 206.61667Q35.1125 206.61667 34.675 207.22604Q34.128124 208.0073 34.128124 210.1323ZM40.05 210.1323Q40.05 208.60104 40.3625 207.67917Q40.675 206.74167 41.284374 206.24167Q41.909374 205.74167 42.846874 205.74167Q43.534374 205.74167 44.05 206.02292Q44.58125 206.30417 44.925 206.83542Q45.26875 207.35104 45.45625 208.10104Q45.64375 208.85104 45.64375 210.1323Q45.64375 211.64792 45.33125 212.5698Q45.034374 213.49167 44.409374 214.0073Q43.8 214.5073 42.846874 214.5073Q41.6125 214.5073 40.89375 213.61667Q40.05 212.55417 40.05 210.1323ZM41.128124 210.1323Q41.128124 212.24167 41.628124 212.9448Q42.128124 213.64792 42.846874 213.64792Q43.58125 213.64792 44.065624 212.9448Q44.565624 212.24167 44.565624 210.1323Q44.565624 208.0073 44.065624 207.3198Q43.58125 206.61667 42.83125 206.61667Q42.1125 206.61667 41.675 207.22604Q41.128124 208.0073 41.128124 210.1323ZM47.05 210.1323Q47.05 208.60104 47.3625 207.67917Q47.675 206.74167 48.284374 206.24167Q48.909374 205.74167 49.846874 205.74167Q50.534374 205.74167 51.05 206.02292Q51.58125 206.30417 51.925 206.83542Q52.26875 207.35104 52.45625 208.10104Q52.64375 208.85104 52.64375 210.1323Q52.64375 211.64792 52.33125 212.5698Q52.034374 213.49167 51.409374 214.0073Q50.8 214.5073 49.846874 214.5073Q48.6125 214.5073 47.89375 213.61667Q47.05 212.55417 47.05 210.1323ZM48.128124 210.1323Q48.128124 212.24167 48.628124 212.9448Q49.128124 213.64792 49.846874 213.64792Q50.58125 213.64792 51.065624 212.9448Q51.565624 212.24167 51.565624 210.1323Q51.565624 208.0073 51.065624 207.3198Q50.58125 206.61667 49.83125 206.61667Q49.1125 206.61667 48.675 207.22604Q48.128124 208.0073 48.128124 210.1323Z" fill-rule="nonzero"/><path fill="#000000" d="M24.51875 146.84062L23.471874 146.91875Q23.33125 146.29375 23.08125 146.0125Q22.64375 145.55937 22.01875 145.55937Q21.51875 145.55937 21.128124 145.84062Q20.64375 146.21562 20.346874 146.91875Q20.065624 147.60625 20.05 148.8875Q20.425 148.30937 20.971874 148.02812Q21.534374 147.74687 22.14375 147.74687Q23.190624 147.74687 23.925 148.52812Q24.675 149.30937 24.675 150.52812Q24.675 151.34062 24.315624 152.04375Q23.971874 152.73125 23.3625 153.10625Q22.753124 153.46562 21.9875 153.46562Q20.659374 153.46562 19.83125 152.49687Q19.003124 151.52812 19.003124 149.30937Q19.003124 146.80937 19.925 145.68437Q20.721874 144.7 22.08125 144.7Q23.096874 144.7 23.7375 145.27812Q24.39375 145.84062 24.51875 146.84062ZM20.221874 150.54375Q20.221874 151.09062 20.440624 151.59062Q20.675 152.075 21.08125 152.34062Q21.503124 152.60625 21.971874 152.60625Q22.628124 152.60625 23.1125 152.075Q23.596874 151.52812 23.596874 150.60625Q23.596874 149.71562 23.1125 149.2Q22.64375 148.68437 21.925 148.68437Q21.20625 148.68437 20.70625 149.2Q20.221874 149.71562 20.221874 150.54375ZM26.05 149.09062Q26.05 147.55937 26.3625 146.6375Q26.675 145.7 27.284374 145.2Q27.909374 144.7 28.846874 144.7Q29.534374 144.7 30.05 144.98125Q30.58125 145.2625 30.925 145.79375Q31.26875 146.30937 31.45625 147.05937Q31.64375 147.80937 31.64375 149.09062Q31.64375 150.60625 31.33125 151.52812Q31.034374 152.45 30.409374 152.96562Q29.8 153.46562 28.846874 153.46562Q27.6125 153.46562 26.89375 152.575Q26.05 151.5125 26.05 149.09062ZM27.128124 149.09062Q27.128124 151.2 27.628124 151.90312Q28.128124 152.60625 28.846874 152.60625Q29.58125 152.60625 30.065624 151.90312Q30.565624 151.2 30.565624 149.09062Q30.565624 146.96562 30.065624 146.27812Q29.58125 145.575 28.83125 145.575Q28.1125 145.575 27.675 146.18437Q27.128124 146.96562 27.128124 149.09062ZM33.05 149.09062Q33.05 147.55937 33.3625 146.6375Q33.675 145.7 34.284374 145.2Q34.909374 144.7 35.846874 144.7Q36.534374 144.7 37.05 144.98125Q37.58125 145.2625 37.925 145.79375Q38.26875 146.30937 38.45625 147.05937Q38.64375 147.80937 38.64375 149.09062Q38.64375 150.60625 38.33125 151.52812Q38.034374 152.45 37.409374 152.96562Q36.8 153.46562 35.846874 153.46562Q34.6125 153.46562 33.89375 152.575Q33.05 151.5125 33.05 149.09062ZM34.128124 149.09062Q34.128124 151.2 34.628124 151.90312Q35.128124 152.60625 35.846874 152.60625Q36.58125 152.60625 37.065624 151.90312Q37.565624 151.2 37.565624 149.09062Q37.565624 146.96562 37.065624 146.27812Q36.58125 145.575 35.83125 145.575Q35.1125 145.575 34.675 146.18437Q34.128124 146.96562 34.128124 149.09062ZM40.05 149.09062Q40.05 147.55937 40.3625 146.6375Q40.675 145.7 41.284374 145.2Q41.909374 144.7 42.846874 144.7Q43.534374 144.7 44.05 144.98125Q44.58125 145.2625 44.925 145.79375Q45.26875 146.30937 45.45625 147.05937Q45.64375 147.80937 45.64375 149.09062Q45.64375 150.60625 45.33125 151.52812Q45.034374 152.45 44.409374 152.96562Q43.8 153.46562 42.846874 153.46562Q41.6125 153.46562 40.89375 152.575Q40.05 151.5125 40.05 149.09062ZM41.128124 149.09062Q41.128124 151.2 41.628124 151.90312Q42.128124 152.60625 42.846874 152.60625Q43.58125 152.60625 44.065624 151.90312Q44.565624 151.2 44.565624 149.09062Q44.565624 146.96562 44.065624 146.27812Q43.58125 145.575 42.83125 145.575Q42.1125 145.575 41.675 146.18437Q41.128124 146.96562 41.128124 149.09062ZM47.05 149.09062Q47.05 147.55937 47.3625 146.6375Q47.675 145.7 48.284374 145.2Q48.909374 144.7 49.846874 144.7Q50.534374 144.7 51.05 144.98125Q51.58125 145.2625 51.925 145.79375Q52.26875 146.30937 52.45625 147.05937Q52.64375 147.80937 52.64375 149.09062Q52.64375 150.60625 52.33125 151.52812Q52.034374 152.45 51.409374 152.96562Q50.8 153.46562 49.846874 153.46562Q48.6125 153.46562 47.89375 152.575Q47.05 151.5125 47.05 149.09062ZM48.128124 149.09062Q48.128124 151.2 48.628124 151.90312Q49.128124 152.60625 49.846874 152.60625Q50.58125 152.60625 51.065624 151.90312Q51.565624 151.2 51.565624 149.09062Q51.565624 146.96562 51.065624 146.27812Q50.58125 145.575 49.83125 145.575Q49.1125 145.575 48.675 146.18437Q48.128124 146.96562 48.128124 149.09062Z" fill-rule="nonzero"/><path fill="#000000" d="M20.675 87.62708Q20.01875 87.37708 19.690624 86.93958Q19.378124 86.48646 19.378124 85.87708Q19.378124 84.93958 20.05 84.29896Q20.7375 83.65833 21.846874 83.65833Q22.971874 83.65833 23.659374 84.31458Q24.346874 84.97083 24.346874 85.90833Q24.346874 86.50208 24.034374 86.93958Q23.721874 87.37708 23.08125 87.62708Q23.878124 87.87708 24.284374 88.45521Q24.690624 89.03333 24.690624 89.83021Q24.690624 90.92396 23.909374 91.67396Q23.14375 92.42396 21.8625 92.42396Q20.596874 92.42396 19.815624 91.67396Q19.034374 90.92396 19.034374 89.79896Q19.034374 88.95521 19.45625 88.39271Q19.89375 87.83021 20.675 87.62708ZM20.45625 85.83021Q20.45625 86.43958 20.846874 86.83021Q21.253124 87.22083 21.878124 87.22083Q22.4875 87.22083 22.878124 86.84583Q23.26875 86.45521 23.26875 85.89271Q23.26875 85.31458 22.8625 84.92396Q22.45625 84.51771 21.8625 84.51771Q21.253124 84.51771 20.846874 84.90833Q20.45625 85.29896 20.45625 85.83021ZM20.128124 89.79896Q20.128124 90.25208 20.33125 90.67396Q20.55 91.09583 20.971874 91.33021Q21.39375 91.56458 21.878124 91.56458Q22.628124 91.56458 23.1125 91.08021Q23.6125 90.59583 23.6125 89.84583Q23.6125 89.08021 23.1125 88.58021Q22.6125 88.08021 21.846874 88.08021Q21.096874 88.08021 20.6125 88.58021Q20.128124 89.06458 20.128124 89.79896ZM26.05 88.04896Q26.05 86.51771 26.3625 85.59583Q26.675 84.65833 27.284374 84.15833Q27.909374 83.65833 28.846874 83.65833Q29.534374 83.65833 30.05 83.93958Q30.58125 84.22083 30.925 84.75208Q31.26875 85.26771 31.45625 86.01771Q31.64375 86.76771 31.64375 88.04896Q31.64375 89.56458 31.33125 90.48646Q31.034374 91.40833 30.409374 91.92396Q29.8 92.42396 28.846874 92.42396Q27.6125 92.42396 26.89375 91.53333Q26.05 90.47083 26.05 88.04896ZM27.128124 88.04896Q27.128124 90.15833 27.628124 90.86146Q28.128124 91.56458 28.846874 91.56458Q29.58125 91.56458 30.065624 90.86146Q30.565624 90.15833 30.565624 88.04896Q30.565624 85.92396 30.065624 85.23646Q29.58125 84.53333 28.83125 84.53333Q28.1125 84.53333 27.675 85.14271Q27.128124 85.92396 27.128124 88.04896ZM33.05 88.04896Q33.05 86.51771 33.3625 85.59583Q33.675 84.65833 34.284374 84.15833Q34.909374 83.65833 35.846874 83.65833Q36.534374 83.65833 37.05 83.93958Q37.58125 84.22083 37.925 84.75208Q38.26875 85.26771 38.45625 86.01771Q38.64375 86.76771 38.64375 88.04896Q38.64375 89.56458 38.33125 90.48646Q38.034374 91.40833 37.409374 91.92396Q36.8 92.42396 35.846874 92.42396Q34.6125 92.42396 33.89375 91.53333Q33.05 90.47083 33.05 88.04896ZM34.128124 88.04896Q34.128124 90.15833 34.628124 90.86146Q35.128124 91.56458 35.846874 91.56458Q36.58125 91.56458 37.065624 90.86146Q37.565624 90.15833 37.565624 88.04896Q37.565624 85.92396 37.065624 85.23646Q36.58125 84.53333 35.83125 84.53333Q35.1125 84.53333 34.675 85.14271Q34.128124 85.92396 34.128124 88.04896ZM40.05 88.04896Q40.05 86.51771 40.3625 85.59583Q40.675 84.65833 41.284374 84.15833Q41.909374 83.65833 42.846874 83.65833Q43.534374 83.65833 44.05 83.93958Q44.58125 84.22083 44.925 84.75208Q45.26875 85.26771 45.45625 86.01771Q45.64375 86.76771 45.64375 88.04896Q45.64375 89.56458 45.33125 90.48646Q45.034374 91.40833 44.409374 91.92396Q43.8 92.42396 42.846874 92.42396Q41.6125 92.42396 40.89375 91.53333Q40.05 90.47083 40.05 88.04896ZM41.128124 88.04896Q41.128124 90.15833 41.628124 90.86146Q42.128124 91.56458 42.846874 91.56458Q43.58125 91.56458 44.065624 90.86146Q44.565624 90.15833 44.565624 88.04896Q44.565624 85.92396 44.065624 85.23646Q43.58125 84.53333 42.83125 84.53333Q42.1125 84.53333 41.675 85.14271Q41.128124 85.92396 41.128124 88.04896ZM47.05 88.04896Q47.05 86.51771 47.3625 85.59583Q47.675 84.65833 48.284374 84.15833Q48.909374 83.65833 49.846874 83.65833Q50.534374 83.65833 51.05 83.93958Q51.58125 84.22083 51.925 84.75208Q52.26875 85.26771 52.45625 86.01771Q52.64375 86.76771 52.64375 88.04896Q52.64375 89.56458 52.33125 90.48646Q52.034374 91.40833 51.409374 91.92396Q50.8 92.42396 49.846874 92.42396Q48.6125 92.42396 47.89375 91.53333Q47.05 90.47083 47.05 88.04896ZM48.128124 88.04896Q48.128124 90.15833 48.628124 90.86146Q49.128124 91.56458 49.846874 91.56458Q50.58125 91.56458 51.065624 90.86146Q51.565624 90.15833 51.565624 88.04896Q51.565624 85.92396 51.065624 85.23646Q50.58125 84.53333 49.83125 84.53333Q49.1125 84.53333 48.675 85.14271Q48.128124 85.92396 48.128124 88.04896Z" fill-rule="nonzero"/><path fill="#000000" d="M104.010414 349.45L102.96354 349.45L102.96354 342.73126Q102.572914 343.09064 101.947914 343.46564Q101.33854 343.825 100.854164 343.9969L100.854164 342.98126Q101.729164 342.5594 102.385414 341.98126Q103.05729 341.3875 103.33854 340.825L104.010414 340.825L104.010414 349.45Z" fill-rule="nonzero"/><path fill="#000000" d="M187.49374 349.45L186.44687 349.45L186.44687 342.73126Q186.05624 343.09064 185.43124 343.46564Q184.82187 343.825 184.3375 343.9969L184.3375 342.98126Q185.2125 342.5594 185.86874 341.98126Q186.54062 341.3875 186.82187 340.825L187.49374 340.825L187.49374 349.45ZM190.525 345.21564Q190.525 343.6844 190.8375 342.7625Q191.15 341.825 191.75937 341.325Q192.38437 340.825 193.32187 340.825Q194.00937 340.825 194.525 341.10626Q195.05624 341.3875 195.4 341.91876Q195.74374 342.4344 195.93124 343.1844Q196.11874 343.9344 196.11874 345.21564Q196.11874 346.73126 195.80624 347.65314Q195.50937 348.575 194.88437 349.09064Q194.275 349.59064 193.32187 349.59064Q192.0875 349.59064 191.36874 348.7Q190.525 347.6375 190.525 345.21564ZM191.60312 345.21564Q191.60312 347.325 192.10312 348.02814Q192.60312 348.73126 193.32187 348.73126Q194.05624 348.73126 194.54062 348.02814Q195.04062 347.325 195.04062 345.21564Q195.04062 343.09064 194.54062 342.40314Q194.05624 341.7 193.30624 341.7Q192.5875 341.7 192.15 342.3094Q191.60312 343.09064 191.60312 345.21564Z" fill-rule="nonzero"/><path fill="#000000" d="M270.97708 349.45L269.9302 349.45L269.9302 342.73126Q269.53958 343.09064 268.91458 343.46564Q268.3052 343.825 267.82083 343.9969L267.82083 342.98126Q268.69583 342.5594 269.35208 341.98126Q270.02396 341.3875 270.3052 340.825L270.97708 340.825L270.97708 349.45ZM274.00833 345.21564Q274.00833 343.6844 274.32083 342.7625Q274.63333 341.825 275.2427 341.325Q275.8677 340.825 276.8052 340.825Q277.4927 340.825 278.00833 341.10626Q278.53958 341.3875 278.88333 341.91876Q279.22708 342.4344 279.41458 343.1844Q279.60208 343.9344 279.60208 345.21564Q279.60208 346.73126 279.28958 347.65314Q278.9927 348.575 278.3677 349.09064Q277.75833 349.59064 276.8052 349.59064Q275.57083 349.59064 274.85208 348.7Q274.00833 347.6375 274.00833 345.21564ZM275.08646 345.21564Q275.08646 347.325 275.58646 348.02814Q276.08646 348.73126 276.8052 348.73126Q277.53958 348.73126 278.02396 348.02814Q278.52396 347.325 278.52396 345.21564Q278.52396 343.09064 278.02396 342.40314Q277.53958 341.7 276.78958 341.7Q276.07083 341.7 275.63333 342.3094Q275.08646 343.09064 275.08646 345.21564ZM281.00833 345.21564Q281.00833 343.6844 281.32083 342.7625Q281.63333 341.825 282.2427 341.325Q282.8677 340.825 283.8052 340.825Q284.4927 340.825 285.00833 341.10626Q285.53958 341.3875 285.88333 341.91876Q286.22708 342.4344 286.41458 343.1844Q286.60208 343.9344 286.60208 345.21564Q286.60208 346.73126 286.28958 347.65314Q285.9927 348.575 285.3677 349.09064Q284.75833 349.59064 283.8052 349.59064Q282.57083 349.59064 281.85208 348.7Q281.00833 347.6375 281.00833 345.21564ZM282.08646 345.21564Q282.08646 347.325 282.58646 348.02814Q283.08646 348.73126 283.8052 348.73126Q284.53958 348.73126 285.02396 348.02814Q285.52396 347.325 285.52396 345.21564Q285.52396 343.09064 285.02396 342.40314Q284.53958 341.7 283.78958 341.7Q283.07083 341.7 282.63333 342.3094Q282.08646 343.09064 282.08646 345.21564Z" fill-rule="nonzero"/><path fill="#000000" d="M354.46042 349.45L353.41354 349.45L353.41354 342.73126Q353.02292 343.09064 352.39792 343.46564Q351.78854 343.825 351.30417 343.9969L351.30417 342.98126Q352.17917 342.5594 352.83542 341.98126Q353.5073 341.3875 353.78854 340.825L354.46042 340.825L354.46042 349.45ZM357.49167 345.21564Q357.49167 343.6844 357.80417 342.7625Q358.11667 341.825 358.72604 341.325Q359.35104 340.825 360.28854 340.825Q360.97604 340.825 361.49167 341.10626Q362.02292 341.3875 362.36667 341.91876Q362.71042 342.4344 362.89792 343.1844Q363.08542 343.9344 363.08542 345.21564Q363.08542 346.73126 362.77292 347.65314Q362.47604 348.575 361.85104 349.09064Q361.24167 349.59064 360.28854 349.59064Q359.05417 349.59064 358.33542 348.7Q357.49167 347.6375 357.49167 345.21564ZM358.5698 345.21564Q358.5698 347.325 359.0698 348.02814Q359.5698 348.73126 360.28854 348.73126Q361.02292 348.73126 361.5073 348.02814Q362.0073 347.325 362.0073 345.21564Q362.0073 343.09064 361.5073 342.40314Q361.02292 341.7 360.27292 341.7Q359.55417 341.7 359.11667 342.3094Q358.5698 343.09064 358.5698 345.21564ZM364.49167 345.21564Q364.49167 343.6844 364.80417 342.7625Q365.11667 341.825 365.72604 341.325Q366.35104 340.825 367.28854 340.825Q367.97604 340.825 368.49167 341.10626Q369.02292 341.3875 369.36667 341.91876Q369.71042 342.4344 369.89792 343.1844Q370.08542 343.9344 370.08542 345.21564Q370.08542 346.73126 369.77292 347.65314Q369.47604 348.575 368.85104 349.09064Q368.24167 349.59064 367.28854 349.59064Q366.05417 349.59064 365.33542 348.7Q364.49167 347.6375 364.49167 345.21564ZM365.5698 345.21564Q365.5698 347.325 366.0698 348.02814Q366.5698 348.73126 367.28854 348.73126Q368.02292 348.73126 368.5073 348.02814Q369.0073 347.325 369.0073 345.21564Q369.0073 343.09064 368.5073 342.40314Q368.02292 341.7 367.27292 341.7Q366.55417 341.7 366.11667 342.3094Q365.5698 343.09064 365.5698 345.21564ZM371.49167 345.21564Q371.49167 343.6844 371.80417 342.7625Q372.11667 341.825 372.72604 341.325Q373.35104 340.825 374.28854 340.825Q374.97604 340.825 375.49167 341.10626Q376.02292 341.3875 376.36667 341.91876Q376.71042 342.4344 376.89792 343.1844Q377.08542 343.9344 377.08542 345.21564Q377.08542 346.73126 376.77292 347.65314Q376.47604 348.575 375.85104 349.09064Q375.24167 349.59064 374.28854 349.59064Q373.05417 349.59064 372.33542 348.7Q371.49167 347.6375 371.49167 345.21564ZM372.5698 345.21564Q372.5698 347.325 373.0698 348.02814Q373.5698 348.73126 374.28854 348.73126Q375.02292 348.73126 375.5073 348.02814Q376.0073 347.325 376.0073 345.21564Q376.0073 343.09064 375.5073 342.40314Q375.02292 341.7 374.27292 341.7Q373.55417 341.7 373.11667 342.3094Q372.5698 343.09064 372.5698 345.21564Z" fill-rule="nonzero"/><path fill="#000000" d="M437.94376 349.45L436.89688 349.45L436.89688 342.73126Q436.50626 343.09064 435.88126 343.46564Q435.27188 343.825 434.7875 343.9969L434.7875 342.98126Q435.6625 342.5594 436.31876 341.98126Q436.99063 341.3875 437.27188 340.825L437.94376 340.825L437.94376 349.45ZM440.975 345.21564Q440.975 343.6844 441.2875 342.7625Q441.6 341.825 442.20938 341.325Q442.83438 340.825 443.77188 340.825Q444.45938 340.825 444.975 341.10626Q445.50626 341.3875 445.85 341.91876Q446.19376 342.4344 446.38126 343.1844Q446.56876 343.9344 446.56876 345.21564Q446.56876 346.73126 446.25626 347.65314Q445.95938 348.575 445.33438 349.09064Q444.725 349.59064 443.77188 349.59064Q442.5375 349.59064 441.81876 348.7Q440.975 347.6375 440.975 345.21564ZM442.05313 345.21564Q442.05313 347.325 442.55313 348.02814Q443.05313 348.73126 443.77188 348.73126Q444.50626 348.73126 444.99063 348.02814Q445.49063 347.325 445.49063 345.21564Q445.49063 343.09064 444.99063 342.40314Q444.50626 341.7 443.75626 341.7Q443.0375 341.7 442.6 342.3094Q442.05313 343.09064 442.05313 345.21564ZM447.975 345.21564Q447.975 343.6844 448.2875 342.7625Q448.6 341.825 449.20938 341.325Q449.83438 340.825 450.77188 340.825Q451.45938 340.825 451.975 341.10626Q452.50626 341.3875 452.85 341.91876Q453.19376 342.4344 453.38126 343.1844Q453.56876 343.9344 453.56876 345.21564Q453.56876 346.73126 453.25626 347.65314Q452.95938 348.575 452.33438 349.09064Q451.725 349.59064 450.77188 349.59064Q449.5375 349.59064 448.81876 348.7Q447.975 347.6375 447.975 345.21564ZM449.05313 345.21564Q449.05313 347.325 449.55313 348.02814Q450.05313 348.73126 450.77188 348.73126Q451.50626 348.73126 451.99063 348.02814Q452.49063 347.325 452.49063 345.21564Q452.49063 343.09064 451.99063 342.40314Q451.50626 341.7 450.75626 341.7Q450.0375 341.7 449.6 342.3094Q449.05313 343.09064 449.05313 345.21564ZM454.975 345.21564Q454.975 343.6844 455.2875 342.7625Q455.6 341.825 456.20938 341.325Q456.83438 340.825 457.77188 340.825Q458.45938 340.825 458.975 341.10626Q459.50626 341.3875 459.85 341.91876Q460.19376 342.4344 460.38126 343.1844Q460.56876 343.9344 460.56876 345.21564Q460.56876 346.73126 460.25626 347.65314Q459.95938 348.575 459.33438 349.09064Q458.725 349.59064 457.77188 349.59064Q456.5375 349.59064 455.81876 348.7Q454.975 347.6375 454.975 345.21564ZM456.05313 345.21564Q456.05313 347.325 456.55313 348.02814Q457.05313 348.73126 457.77188 348.73126Q458.50626 348.73126 458.99063 348.02814Q459.49063 347.325 459.49063 345.21564Q459.49063 343.09064 458.99063 342.40314Q458.50626 341.7 457.75626 341.7Q457.0375 341.7 456.6 342.3094Q456.05313 343.09064 456.05313 345.21564ZM461.975 345.21564Q461.975 343.6844 462.2875 342.7625Q462.6 341.825 463.20938 341.325Q463.83438 340.825 464.77188 340.825Q465.45938 340.825 465.975 341.10626Q466.50626 341.3875 466.85 341.91876Q467.19376 342.4344 467.38126 343.1844Q467.56876 343.9344 467.56876 345.21564Q467.56876 346.73126 467.25626 347.65314Q466.95938 348.575 466.33438 349.09064Q465.725 349.59064 464.77188 349.59064Q463.5375 349.59064 462.81876 348.7Q461.975 347.6375 461.975 345.21564ZM463.05313 345.21564Q463.05313 347.325 463.55313 348.02814Q464.05313 348.73126 464.77188 348.73126Q465.50626 348.73126 465.99063 348.02814Q466.49063 347.325 466.49063 345.21564Q466.49063 343.09064 465.99063 342.40314Q465.50626 341.7 464.75626 341.7Q464.0375 341.7 463.6 342.3094Q463.05313 343.09064 463.05313 345.21564Z" fill-rule="nonzero"/><path fill="#000000" d="M521.42706 349.45L520.3802 349.45L520.3802 342.73126Q519.98956 343.09064 519.36456 343.46564Q518.7552 343.825 518.2708 343.9969L518.2708 342.98126Q519.1458 342.5594 519.80206 341.98126Q520.47394 341.3875 520.7552 340.825L521.42706 340.825L521.42706 349.45ZM524.4583 345.21564Q524.4583 343.6844 524.7708 342.7625Q525.0833 341.825 525.6927 341.325Q526.3177 340.825 527.2552 340.825Q527.9427 340.825 528.4583 341.10626Q528.98956 341.3875 529.3333 341.91876Q529.67706 342.4344 529.86456 343.1844Q530.05206 343.9344 530.05206 345.21564Q530.05206 346.73126 529.73956 347.65314Q529.4427 348.575 528.8177 349.09064Q528.2083 349.59064 527.2552 349.59064Q526.0208 349.59064 525.30206 348.7Q524.4583 347.6375 524.4583 345.21564ZM525.53644 345.21564Q525.53644 347.325 526.03644 348.02814Q526.53644 348.73126 527.2552 348.73126Q527.98956 348.73126 528.47394 348.02814Q528.97394 347.325 528.97394 345.21564Q528.97394 343.09064 528.47394 342.40314Q527.98956 341.7 527.23956 341.7Q526.5208 341.7 526.0833 342.3094Q525.53644 343.09064 525.53644 345.21564ZM531.4583 345.21564Q531.4583 343.6844 531.7708 342.7625Q532.0833 341.825 532.6927 341.325Q533.3177 340.825 534.2552 340.825Q534.9427 340.825 535.4583 341.10626Q535.98956 341.3875 536.3333 341.91876Q536.67706 342.4344 536.86456 343.1844Q537.05206 343.9344 537.05206 345.21564Q537.05206 346.73126 536.73956 347.65314Q536.4427 348.575 535.8177 349.09064Q535.2083 349.59064 534.2552 349.59064Q533.0208 349.59064 532.30206 348.7Q531.4583 347.6375 531.4583 345.21564ZM532.53644 345.21564Q532.53644 347.325 533.03644 348.02814Q533.53644 348.73126 534.2552 348.73126Q534.98956 348.73126 535.47394 348.02814Q535.97394 347.325 535.97394 345.21564Q535.97394 343.09064 535.47394 342.40314Q534.98956 341.7 534.23956 341.7Q533.5208 341.7 533.0833 342.3094Q532.53644 343.09064 532.53644 345.21564ZM538.4583 345.21564Q538.4583 343.6844 538.7708 342.7625Q539.0833 341.825 539.6927 341.325Q540.3177 340.825 541.2552 340.825Q541.9427 340.825 542.4583 341.10626Q542.98956 341.3875 543.3333 341.91876Q543.67706 342.4344 543.86456 343.1844Q544.05206 343.9344 544.05206 345.21564Q544.05206 346.73126 543.73956 347.65314Q543.4427 348.575 542.8177 349.09064Q542.2083 349.59064 541.2552 349.59064Q540.0208 349.59064 539.30206 348.7Q538.4583 347.6375 538.4583 345.21564ZM539.53644 345.21564Q539.53644 347.325 540.03644 348.02814Q540.53644 348.73126 541.2552 348.73126Q541.98956 348.73126 542.47394 348.02814Q542.97394 347.325 542.97394 345.21564Q542.97394 343.09064 542.47394 342.40314Q541.98956 341.7 541.23956 341.7Q540.5208 341.7 540.0833 342.3094Q539.53644 343.09064 539.53644 345.21564ZM545.4583 345.21564Q545.4583 343.6844 545.7708 342.7625Q546.0833 341.825 546.6927 341.325Q547.3177 340.825 548.2552 340.825Q548.9427 340.825 549.4583 341.10626Q549.98956 341.3875 550.3333 341.91876Q550.67706 342.4344 550.86456 343.1844Q551.05206 343.9344 551.05206 345.21564Q551.05206 346.73126 550.73956 347.65314Q550.4427 348.575 549.8177 349.09064Q549.2083 349.59064 548.2552 349.59064Q547.0208 349.59064 546.30206 348.7Q545.4583 347.6375 545.4583 345.21564ZM546.53644 345.21564Q546.53644 347.325 547.03644 348.02814Q547.53644 348.73126 548.2552 348.73126Q548.98956 348.73126 549.47394 348.02814Q549.97394 347.325 549.97394 345.21564Q549.97394 343.09064 549.47394 342.40314Q548.98956 341.7 548.23956 341.7Q547.5208 341.7 547.0833 342.3094Q546.53644 343.09064 546.53644 345.21564ZM552.4583 345.21564Q552.4583 343.6844 552.7708 342.7625Q553.0833 341.825 553.6927 341.325Q554.3177 340.825 555.2552 340.825Q555.9427 340.825 556.4583 341.10626Q556.98956 341.3875 557.3333 341.91876Q557.67706 342.4344 557.86456 343.1844Q558.05206 343.9344 558.05206 345.21564Q558.05206 346.73126 557.73956 347.65314Q557.4427 348.575 556.8177 349.09064Q556.2083 349.59064 555.2552 349.59064Q554.0208 349.59064 553.30206 348.7Q552.4583 347.6375 552.4583 345.21564ZM553.53644 345.21564Q553.53644 347.325 554.03644 348.02814Q554.53644 348.73126 555.2552 348.73126Q555.98956 348.73126 556.47394 348.02814Q556.97394 347.325 556.97394 345.21564Q556.97394 343.09064 556.47394 342.40314Q555.98956 341.7 555.23956 341.7Q554.5208 341.7 554.0833 342.3094Q553.53644 343.09064 553.53644 345.21564Z" fill-rule="nonzero"/><path stroke="#34a853" stroke-width="4.0" stroke-linecap="butt" d="M175.5 61.916668L187.5 61.916668" fill-rule="nonzero"/><path fill="#1a1a1a" d="M196.04688 63.15104L197.10938 63.05729Q197.1875 63.71354 197.46875 64.11979Q197.75 64.52604 198.32812 64.791664Q198.92188 65.041664 199.65625 65.041664Q200.29688 65.041664 200.79688 64.854164Q201.29688 64.65104 201.53125 64.322914Q201.78125 63.979164 201.78125 63.58854Q201.78125 63.18229 201.54688 62.885414Q201.3125 62.572914 200.78125 62.36979Q200.42188 62.229164 199.23438 61.947914Q198.0625 61.666664 197.59375 61.416664Q196.96875 61.08854 196.67188 60.61979Q196.375 60.135414 196.375 59.541664Q196.375 58.90104 196.73438 58.33854Q197.10938 57.760414 197.8125 57.479164Q198.53125 57.18229 199.39062 57.18229Q200.34375 57.18229 201.07812 57.49479Q201.8125 57.791664 202.20312 58.40104Q202.59375 58.99479 202.625 59.74479L201.53125 59.822914Q201.4375 59.010414 200.92188 58.604164Q200.42188 58.18229 199.4375 58.18229Q198.40625 58.18229 197.9375 58.55729Q197.46875 58.93229 197.46875 59.46354Q197.46875 59.93229 197.79688 60.229164Q198.125 60.52604 199.5 60.83854Q200.89062 61.15104 201.40625 61.385414Q202.15625 61.74479 202.51562 62.27604Q202.875 62.791664 202.875 63.49479Q202.875 64.18229 202.48438 64.791664Q202.09375 65.385414 201.35938 65.729164Q200.625 66.05729 199.70312 66.05729Q198.53125 66.05729 197.73438 65.729164Q196.95312 65.385414 196.5 64.697914Q196.0625 64.010414 196.04688 63.15104ZM210.9375 64.99479Q211.73438 65.541664 212.39062 65.791664L212.0625 66.58854Q211.14062 66.24479 210.21875 65.52604Q209.26562 66.05729 208.10938 66.05729Q206.9375 66.05729 205.98438 65.49479Q205.04688 64.93229 204.53125 63.916664Q204.01562 62.90104 204.01562 61.61979Q204.01562 60.354164 204.53125 59.30729Q205.04688 58.260414 206.0 57.71354Q206.95312 57.166664 208.125 57.166664Q209.3125 57.166664 210.26562 57.74479Q211.23438 58.30729 211.73438 59.322914Q212.23438 60.33854 212.23438 61.61979Q212.23438 62.68229 211.90625 63.52604Q211.59375 64.36979 210.9375 64.99479ZM208.4375 63.541664Q209.42188 63.822914 210.0625 64.36979Q211.0625 63.447914 211.0625 61.61979Q211.0625 60.572914 210.70312 59.791664Q210.34375 59.010414 209.65625 58.58854Q208.98438 58.15104 208.14062 58.15104Q206.85938 58.15104 206.01562 59.02604Q205.1875 59.885414 205.1875 61.61979Q205.1875 63.291664 206.01562 64.197914Q206.84375 65.08854 208.14062 65.08854Q208.75 65.08854 209.28125 64.854164Q208.75 64.510414 208.15625 64.36979L208.4375 63.541664ZM213.375 65.916664L213.375 57.322914L214.51562 57.322914L214.51562 64.90104L218.75 64.90104L218.75 65.916664L213.375 65.916664ZM220.29688 58.541664L220.29688 57.322914L221.35938 57.322914L221.35938 58.541664L220.29688 58.541664ZM220.29688 65.916664L220.29688 59.697914L221.35938 59.697914L221.35938 65.916664L220.29688 65.916664ZM225.59375 64.979164L225.75 65.90104Q225.29688 65.99479 224.95312 65.99479Q224.375 65.99479 224.0625 65.822914Q223.75 65.635414 223.60938 65.33854Q223.48438 65.041664 223.48438 64.08854L223.48438 60.510414L222.71875 60.510414L222.71875 59.697914L223.48438 59.697914L223.48438 58.15104L224.53125 57.52604L224.53125 59.697914L225.59375 59.697914L225.59375 60.510414L224.53125 60.510414L224.53125 64.15104Q224.53125 64.604164 224.57812 64.729164Q224.64062 64.854164 224.76562 64.93229Q224.89062 65.010414 225.125 65.010414Q225.3125 65.010414 225.59375 64.979164ZM230.54688 63.916664L231.64062 64.041664Q231.39062 64.99479 230.6875 65.52604Q229.98438 66.05729 228.90625 66.05729Q227.54688 66.05729 226.73438 65.21354Q225.9375 64.36979 225.9375 62.854164Q225.9375 61.291664 226.75 60.43229Q227.5625 59.55729 228.84375 59.55729Q230.09375 59.55729 230.875 60.40104Q231.67188 61.24479 231.67188 62.791664Q231.67188 62.885414 231.67188 63.072914L227.03125 63.072914Q227.09375 64.104164 227.60938 64.65104Q228.125 65.18229 228.90625 65.18229Q229.48438 65.18229 229.89062 64.885414Q230.3125 64.572914 230.54688 63.916664ZM227.09375 62.21354L230.5625 62.21354Q230.5 61.416664 230.17188 61.02604Q229.65625 60.416664 228.85938 60.416664Q228.125 60.416664 227.625 60.90104Q227.14062 61.385414 227.09375 62.21354Z" fill-rule="nonzero"/><path stroke="#ff6d01" stroke-width="4.0" stroke-linecap="butt" d="M248.5 61.916668L260.5 61.916668" fill-rule="nonzero"/><path fill="#1a1a1a" d="M269.42188 65.916664L269.42188 57.322914L272.67188 57.322914Q273.51562 57.322914 273.96875 57.40104Q274.60938 57.510414 275.03125 57.80729Q275.46875 58.104164 275.71875 58.635414Q275.98438 59.166664 275.98438 59.80729Q275.98438 60.90104 275.28125 61.666664Q274.59375 62.416664 272.76562 62.416664L270.5625 62.416664L270.5625 65.916664L269.42188 65.916664ZM270.5625 61.416664L272.78125 61.416664Q273.89062 61.416664 274.34375 61.010414Q274.8125 60.58854 274.8125 59.83854Q274.8125 59.30729 274.53125 58.93229Q274.26562 58.541664 273.82812 58.416664Q273.53125 58.33854 272.76562 58.33854L270.5625 58.33854L270.5625 61.416664ZM281.35938 65.15104Q280.76562 65.65104 280.21875 65.854164Q279.6875 66.05729 279.0625 66.05729Q278.03125 66.05729 277.48438 65.55729Q276.9375 65.05729 276.9375 64.27604Q276.9375 63.822914 277.14062 63.447914Q277.34375 63.05729 277.6875 62.83854Q278.03125 62.604164 278.45312 62.49479Q278.75 62.40104 279.39062 62.322914Q280.65625 62.18229 281.26562 61.96354Q281.26562 61.74479 281.26562 61.697914Q281.26562 61.041664 280.96875 60.77604Q280.5625 60.43229 279.76562 60.43229Q279.03125 60.43229 278.67188 60.697914Q278.3125 60.947914 278.14062 61.604164L277.10938 61.46354Q277.25 60.80729 277.57812 60.40104Q277.90625 59.99479 278.51562 59.77604Q279.125 59.55729 279.92188 59.55729Q280.71875 59.55729 281.21875 59.74479Q281.71875 59.93229 281.95312 60.21354Q282.1875 60.49479 282.28125 60.93229Q282.32812 61.197914 282.32812 61.90104L282.32812 63.30729Q282.32812 64.77604 282.39062 65.166664Q282.46875 65.55729 282.67188 65.916664L281.5625 65.916664Q281.40625 65.58854 281.35938 65.15104ZM281.26562 62.791664Q280.6875 63.02604 279.54688 63.197914Q278.89062 63.291664 278.625 63.416664Q278.35938 63.52604 278.20312 63.74479Q278.0625 63.96354 278.0625 64.24479Q278.0625 64.666664 278.375 64.947914Q278.70312 65.229164 279.3125 65.229164Q279.92188 65.229164 280.39062 64.96354Q280.875 64.697914 281.09375 64.229164Q281.26562 63.86979 281.26562 63.18229L281.26562 62.791664ZM284.28125 65.916664L284.28125 59.697914L285.23438 59.697914L285.23438 60.635414Q285.59375 59.979164 285.89062 59.77604Q286.20312 59.55729 286.57812 59.55729Q287.10938 59.55729 287.65625 59.885414L287.29688 60.86979Q286.90625 60.635414 286.53125 60.635414Q286.17188 60.635414 285.89062 60.854164Q285.625 61.05729 285.51562 61.43229Q285.32812 61.99479 285.32812 62.65104L285.32812 65.916664L284.28125 65.916664ZM292.26562 68.30729L292.26562 65.260414Q292.01562 65.604164 291.5625 65.83854Q291.125 66.05729 290.625 66.05729Q289.51562 66.05729 288.71875 65.18229Q287.92188 64.291664 287.92188 62.74479Q287.92188 61.80729 288.25 61.072914Q288.57812 60.322914 289.1875 59.947914Q289.8125 59.55729 290.54688 59.55729Q291.70312 59.55729 292.35938 60.52604L292.35938 59.697914L293.3125 59.697914L293.3125 68.30729L292.26562 68.30729ZM289.0 62.791664Q289.0 63.99479 289.5 64.58854Q290.01562 65.18229 290.71875 65.18229Q291.39062 65.18229 291.875 64.61979Q292.35938 64.041664 292.35938 62.885414Q292.35938 61.635414 291.84375 61.010414Q291.34375 60.385414 290.64062 60.385414Q289.96875 60.385414 289.48438 60.979164Q289.0 61.55729 289.0 62.791664ZM299.375 65.916664L299.375 64.99479Q298.64062 66.05729 297.39062 66.05729Q296.84375 66.05729 296.35938 65.854164Q295.89062 65.635414 295.65625 65.322914Q295.42188 64.99479 295.32812 64.52604Q295.26562 64.229164 295.26562 63.541664L295.26562 59.697914L296.32812 59.697914L296.32812 63.15104Q296.32812 63.96354 296.39062 64.260414Q296.48438 64.666664 296.79688 64.916664Q297.125 65.15104 297.60938 65.15104Q298.07812 65.15104 298.48438 64.916664Q298.90625 64.666664 299.07812 64.24479Q299.26562 63.822914 299.26562 63.02604L299.26562 59.697914L300.3125 59.697914L300.3125 65.916664L299.375 65.916664ZM306.54688 63.916664L307.64062 64.041664Q307.39062 64.99479 306.6875 65.52604Q305.98438 66.05729 304.90625 66.05729Q303.54688 66.05729 302.73438 65.21354Q301.9375 64.36979 301.9375 62.854164Q301.9375 61.291664 302.75 60.43229Q303.5625 59.55729 304.84375 59.55729Q306.09375 59.55729 306.875 60.40104Q307.67188 61.24479 307.67188 62.791664Q307.67188 62.885414 307.67188 63.072914L303.03125 63.072914Q303.09375 64.104164 303.60938 64.65104Q304.125 65.18229 304.90625 65.18229Q305.48438 65.18229 305.89062 64.885414Q306.3125 64.572914 306.54688 63.916664ZM303.09375 62.21354L306.5625 62.21354Q306.5 61.416664 306.17188 61.02604Q305.65625 60.416664 304.85938 60.416664Q304.125 60.416664 303.625 60.90104Q303.14062 61.385414 303.09375 62.21354ZM311.59375 64.979164L311.75 65.90104Q311.29688 65.99479 310.95312 65.99479Q310.375 65.99479 310.0625 65.822914Q309.75 65.635414 309.60938 65.33854Q309.48438 65.041664 309.48438 64.08854L309.48438 60.510414L308.71875 60.510414L308.71875 59.697914L309.48438 59.697914L309.48438 58.15104L310.53125 57.52604L310.53125 59.697914L311.59375 59.697914L311.59375 60.510414L310.53125 60.510414L310.53125 64.15104Q310.53125 64.604164 310.57812 64.729164Q310.64062 64.854164 310.76562 64.93229Q310.89062 65.010414 311.125 65.010414Q311.3125 65.010414 311.59375 64.979164Z" fill-rule="nonzero"/><path stroke="#46bdc6" stroke-width="4.0" stroke-linecap="butt" d="M327.5 61.916668L339.5 61.916668" fill-rule="nonzero"/><path fill="#1a1a1a" d="M348.42188 65.916664L348.42188 57.322914L351.67188 57.322914Q352.51562 57.322914 352.96875 57.40104Q353.60938 57.510414 354.03125 57.80729Q354.46875 58.104164 354.71875 58.635414Q354.98438 59.166664 354.98438 59.80729Q354.98438 60.90104 354.28125 61.666664Q353.59375 62.416664 351.76562 62.416664L349.5625 62.416664L349.5625 65.916664L348.42188 65.916664ZM349.5625 61.416664L351.78125 61.416664Q352.89062 61.416664 353.34375 61.010414Q353.8125 60.58854 353.8125 59.83854Q353.8125 59.30729 353.53125 58.93229Q353.26562 58.541664 352.82812 58.416664Q352.53125 58.33854 351.76562 58.33854L349.5625 58.33854L349.5625 61.416664ZM360.35938 65.15104Q359.76562 65.65104 359.21875 65.854164Q358.6875 66.05729 358.0625 66.05729Q357.03125 66.05729 356.48438 65.55729Q355.9375 65.05729 355.9375 64.27604Q355.9375 63.822914 356.14062 63.447914Q356.34375 63.05729 356.6875 62.83854Q357.03125 62.604164 357.45312 62.49479Q357.75 62.40104 358.39062 62.322914Q359.65625 62.18229 360.26562 61.96354Q360.26562 61.74479 360.26562 61.697914Q360.26562 61.041664 359.96875 60.77604Q359.5625 60.43229 358.76562 60.43229Q358.03125 60.43229 357.67188 60.697914Q357.3125 60.947914 357.14062 61.604164L356.10938 61.46354Q356.25 60.80729 356.57812 60.40104Q356.90625 59.99479 357.51562 59.77604Q358.125 59.55729 358.92188 59.55729Q359.71875 59.55729 360.21875 59.74479Q360.71875 59.93229 360.95312 60.21354Q361.1875 60.49479 361.28125 60.93229Q361.32812 61.197914 361.32812 61.90104L361.32812 63.30729Q361.32812 64.77604 361.39062 65.166664Q361.46875 65.55729 361.67188 65.916664L360.5625 65.916664Q360.40625 65.58854 360.35938 65.15104ZM360.26562 62.791664Q359.6875 63.02604 358.54688 63.197914Q357.89062 63.291664 357.625 63.416664Q357.35938 63.52604 357.20312 63.74479Q357.0625 63.96354 357.0625 64.24479Q357.0625 64.666664 357.375 64.947914Q357.70312 65.229164 358.3125 65.229164Q358.92188 65.229164 359.39062 64.96354Q359.875 64.697914 360.09375 64.229164Q360.26562 63.86979 360.26562 63.18229L360.26562 62.791664ZM363.28125 65.916664L363.28125 59.697914L364.23438 59.697914L364.23438 60.635414Q364.59375 59.979164 364.89062 59.77604Q365.20312 59.55729 365.57812 59.55729Q366.10938 59.55729 366.65625 59.885414L366.29688 60.86979Q365.90625 60.635414 365.53125 60.635414Q365.17188 60.635414 364.89062 60.854164Q364.625 61.05729 364.51562 61.43229Q364.32812 61.99479 364.32812 62.65104L364.32812 65.916664L363.28125 65.916664ZM371.26562 68.30729L371.26562 65.260414Q371.01562 65.604164 370.5625 65.83854Q370.125 66.05729 369.625 66.05729Q368.51562 66.05729 367.71875 65.18229Q366.92188 64.291664 366.92188 62.74479Q366.92188 61.80729 367.25 61.072914Q367.57812 60.322914 368.1875 59.947914Q368.8125 59.55729 369.54688 59.55729Q370.70312 59.55729 371.35938 60.52604L371.35938 59.697914L372.3125 59.697914L372.3125 68.30729L371.26562 68.30729ZM368.0 62.791664Q368.0 63.99479 368.5 64.58854Q369.01562 65.18229 369.71875 65.18229Q370.39062 65.18229 370.875 64.61979Q371.35938 64.041664 371.35938 62.885414Q371.35938 61.635414 370.84375 61.010414Q370.34375 60.385414 369.64062 60.385414Q368.96875 60.385414 368.48438 60.979164Q368.0 61.55729 368.0 62.791664ZM378.375 65.916664L378.375 64.99479Q377.64062 66.05729 376.39062 66.05729Q375.84375 66.05729 375.35938 65.854164Q374.89062 65.635414 374.65625 65.322914Q374.42188 64.99479 374.32812 64.52604Q374.26562 64.229164 374.26562 63.541664L374.26562 59.697914L375.32812 59.697914L375.32812 63.15104Q375.32812 63.96354 375.39062 64.260414Q375.48438 64.666664 375.79688 64.916664Q376.125 65.15104 376.60938 65.15104Q377.07812 65.15104 377.48438 64.916664Q377.90625 64.666664 378.07812 64.24479Q378.26562 63.822914 378.26562 63.02604L378.26562 59.697914L379.3125 59.697914L379.3125 65.916664L378.375 65.916664ZM385.54688 63.916664L386.64062 64.041664Q386.39062 64.99479 385.6875 65.52604Q384.98438 66.05729 383.90625 66.05729Q382.54688 66.05729 381.73438 65.21354Q380.9375 64.36979 380.9375 62.854164Q380.9375 61.291664 381.75 60.43229Q382.5625 59.55729 383.84375 59.55729Q385.09375 59.55729 385.875 60.40104Q386.67188 61.24479 386.67188 62.791664Q386.67188 62.885414 386.67188 63.072914L382.03125 63.072914Q382.09375 64.104164 382.60938 64.65104Q383.125 65.18229 383.90625 65.18229Q384.48438 65.18229 384.89062 64.885414Q385.3125 64.572914 385.54688 63.916664ZM382.09375 62.21354L385.5625 62.21354Q385.5 61.416664 385.17188 61.02604Q384.65625 60.416664 383.85938 60.416664Q383.125 60.416664 382.625 60.90104Q382.14062 61.385414 382.09375 62.21354ZM390.59375 64.979164L390.75 65.90104Q390.29688 65.99479 389.95312 65.99479Q389.375 65.99479 389.0625 65.822914Q388.75 65.635414 388.60938 65.33854Q388.48438 65.041664 388.48438 64.08854L388.48438 60.510414L387.71875 60.510414L387.71875 59.697914L388.48438 59.697914L388.48438 58.15104L389.53125 57.52604L389.53125 59.697914L390.59375 59.697914L390.59375 60.510414L389.53125 60.510414L389.53125 64.15104Q389.53125 64.604164 389.57812 64.729164Q389.64062 64.854164 389.76562 64.93229Q389.89062 65.010414 390.125 65.010414Q390.3125 65.010414 390.59375 64.979164ZM391.39062 65.916664L391.39062 57.322914L393.10938 57.322914L395.14062 63.40104Q395.42188 64.260414 395.54688 64.68229Q395.6875 64.21354 396.0 63.30729L398.0625 57.322914L399.59375 57.322914L399.59375 65.916664L398.5 65.916664L398.5 58.729164L396.0 65.916664L394.96875 65.916664L392.48438 58.604164L392.48438 65.916664L391.39062 65.916664ZM404.54688 63.916664L405.64062 64.041664Q405.39062 64.99479 404.6875 65.52604Q403.98438 66.05729 402.90625 66.05729Q401.54688 66.05729 400.73438 65.21354Q399.9375 64.36979 399.9375 62.854164Q399.9375 61.291664 400.75 60.43229Q401.5625 59.55729 402.84375 59.55729Q404.09375 59.55729 404.875 60.40104Q405.67188 61.24479 405.67188 62.791664Q405.67188 62.885414 405.67188 63.072914L401.03125 63.072914Q401.09375 64.104164 401.60938 64.65104Q402.125 65.18229 402.90625 65.18229Q403.48438 65.18229 403.89062 64.885414Q404.3125 64.572914 404.54688 63.916664ZM401.09375 62.21354L404.5625 62.21354Q404.5 61.416664 404.17188 61.02604Q403.65625 60.416664 402.85938 60.416664Q402.125 60.416664 401.625 60.90104Q401.14062 61.385414 401.09375 62.21354ZM407.28125 65.916664L407.28125 59.697914L408.23438 59.697914L408.23438 60.635414Q408.59375 59.979164 408.89062 59.77604Q409.20312 59.55729 409.57812 59.55729Q410.10938 59.55729 410.65625 59.885414L410.29688 60.86979Q409.90625 60.635414 409.53125 60.635414Q409.17188 60.635414 408.89062 60.854164Q408.625 61.05729 408.51562 61.43229Q408.32812 61.99479 408.32812 62.65104L408.32812 65.916664L407.28125 65.916664ZM411.09375 66.43229L412.125 66.58854Q412.1875 67.05729 412.48438 67.27604Q412.875 67.572914 413.54688 67.572914Q414.28125 67.572914 414.67188 67.27604Q415.07812 66.979164 415.21875 66.46354Q415.3125 66.135414 415.29688 65.104164Q414.60938 65.916664 413.57812 65.916664Q412.29688 65.916664 411.59375 64.99479Q410.89062 64.05729 410.89062 62.77604Q410.89062 61.885414 411.20312 61.135414Q411.53125 60.36979 412.14062 59.96354Q412.75 59.55729 413.57812 59.55729Q414.6875 59.55729 415.40625 60.447914L415.40625 59.697914L416.375 59.697914L416.375 65.072914Q416.375 66.52604 416.07812 67.135414Q415.78125 67.74479 415.14062 68.08854Q414.5 68.447914 413.5625 68.447914Q412.45312 68.447914 411.76562 67.947914Q411.07812 67.447914 411.09375 66.43229ZM411.96875 62.697914Q411.96875 63.916664 412.45312 64.479164Q412.9375 65.041664 413.67188 65.041664Q414.40625 65.041664 414.89062 64.479164Q415.39062 63.916664 415.39062 62.729164Q415.39062 61.58854 414.875 61.010414Q414.375 60.43229 413.65625 60.43229Q412.95312 60.43229 412.45312 61.010414Q411.96875 61.572914 411.96875 62.697914ZM422.54688 63.916664L423.64062 64.041664Q423.39062 64.99479 422.6875 65.52604Q421.98438 66.05729 420.90625 66.05729Q419.54688 66.05729 418.73438 65.21354Q417.9375 64.36979 417.9375 62.854164Q417.9375 61.291664 418.75 60.43229Q419.5625 59.55729 420.84375 59.55729Q422.09375 59.55729 422.875 60.40104Q423.67188 61.24479 423.67188 62.791664Q423.67188 62.885414 423.67188 63.072914L419.03125 63.072914Q419.09375 64.104164 419.60938 64.65104Q420.125 65.18229 420.90625 65.18229Q421.48438 65.18229 421.89062 64.885414Q422.3125 64.572914 422.54688 63.916664ZM419.09375 62.21354L422.5625 62.21354Q422.5 61.416664 422.17188 61.02604Q421.65625 60.416664 420.85938 60.416664Q420.125 60.416664 419.625 60.90104Q419.14062 61.385414 419.09375 62.21354Z" fill-rule="nonzero"/><path fill="#757575" d="M20.128124 37.55L20.128124 23.2375L26.471874 23.2375Q28.378124 23.2375 29.378124 23.628124Q30.378124 24.003124 30.971874 24.9875Q31.565624 25.95625 31.565624 27.14375Q31.565624 28.659374 30.58125 29.70625Q29.596874 30.753124 27.534374 31.034374Q28.284374 31.39375 28.675 31.753124Q29.503124 32.503124 30.253124 33.659374L32.7375 37.55L30.3625 37.55L28.45625 34.565624Q27.628124 33.284374 27.096874 32.596874Q26.565624 31.909374 26.128124 31.64375Q25.70625 31.3625 25.26875 31.253124Q24.940624 31.190624 24.221874 31.190624L22.01875 31.190624L22.01875 37.55L20.128124 37.55ZM22.01875 29.55L26.096874 29.55Q27.39375 29.55 28.1125 29.284374Q28.846874 29.01875 29.221874 28.425Q29.6125 27.83125 29.6125 27.14375Q29.6125 26.128124 28.878124 25.471874Q28.14375 24.815624 26.55 24.815624L22.01875 24.815624L22.01875 29.55ZM40.659374 37.55L40.659374 36.01875Q39.45625 37.784374 37.378124 37.784374Q36.45625 37.784374 35.659374 37.440624Q34.8625 37.08125 34.471874 36.55Q34.096874 36.01875 33.940624 35.2375Q33.83125 34.721874 33.83125 33.596874L33.83125 27.175L35.58125 27.175L35.58125 32.925Q35.58125 34.3 35.690624 34.784374Q35.8625 35.471874 36.39375 35.878124Q36.940624 36.26875 37.721874 36.26875Q38.51875 36.26875 39.20625 35.8625Q39.909374 35.45625 40.190624 34.76875Q40.4875 34.065624 40.4875 32.7375L40.4875 27.175L42.2375 27.175L42.2375 37.55L40.659374 37.55ZM43.8625 37.55L43.8625 27.175L45.45625 27.175L45.45625 28.659374Q46.596874 26.940624 48.753124 26.940624Q49.690624 26.940624 50.471874 27.284374Q51.26875 27.6125 51.659374 28.159374Q52.05 28.70625 52.20625 29.45625Q52.3 29.95625 52.3 31.175L52.3 37.55L50.534374 37.55L50.534374 31.2375Q50.534374 30.159374 50.33125 29.628124Q50.128124 29.096874 49.596874 28.784374Q49.08125 28.471874 48.378124 28.471874Q47.253124 28.471874 46.440624 29.190624Q45.628124 29.89375 45.628124 31.878124L45.628124 37.55L43.8625 37.55ZM57.70625 35.971874L57.95625 37.534374Q57.221874 37.690624 56.628124 37.690624Q55.675 37.690624 55.14375 37.39375Q54.628124 37.08125 54.409374 36.596874Q54.190624 36.096874 54.190624 34.51875L54.190624 28.55L52.909374 28.55L52.909374 27.175L54.190624 27.175L54.190624 24.6125L55.940624 23.55L55.940624 27.175L57.70625 27.175L57.70625 28.55L55.940624 28.55L55.940624 34.6125Q55.940624 35.3625 56.034374 35.58125Q56.128124 35.784374 56.33125 35.925Q56.55 36.05 56.940624 36.05Q57.221874 36.05 57.70625 35.971874ZM59.878124 25.253124L59.878124 23.2375L61.64375 23.2375L61.64375 25.253124L59.878124 25.253124ZM59.878124 37.55L59.878124 27.175L61.64375 27.175L61.64375 37.55L59.878124 37.55ZM63.8625 37.55L63.8625 27.175L65.44063 27.175L65.44063 28.628124Q65.925 27.878124 66.7375 27.409374Q67.55 26.940624 68.58125 26.940624Q69.7375 26.940624 70.47188 27.425Q71.20625 27.89375 71.51875 28.753124Q72.75313 26.940624 74.72188 26.940624Q76.26875 26.940624 77.09688 27.8Q77.925 28.659374 77.925 30.425L77.925 37.55L76.175 37.55L76.175 31.01875Q76.175 29.95625 76.00313 29.503124Q75.83125 29.034374 75.37813 28.753124Q74.94063 28.471874 74.33125 28.471874Q73.2375 28.471874 72.50313 29.20625Q71.78438 29.925 71.78438 31.51875L71.78438 37.55L70.03438 37.55L70.03438 30.815624Q70.03438 29.64375 69.59688 29.065624Q69.175 28.471874 68.19063 28.471874Q67.45625 28.471874 66.81563 28.8625Q66.19063 29.253124 65.90938 30.003124Q65.62813 30.753124 65.62813 32.175L65.62813 37.55L63.8625 37.55ZM86.97188 34.20625L88.78438 34.440624Q88.3625 36.01875 87.19063 36.909374Q86.03438 37.784374 84.22188 37.784374Q81.95625 37.784374 80.6125 36.39375Q79.28438 34.9875 79.28438 32.45625Q79.28438 29.83125 80.62813 28.39375Q81.97188 26.940624 84.12813 26.940624Q86.20625 26.940624 87.51875 28.3625Q88.84688 29.76875 88.84688 32.346874Q88.84688 32.503124 88.83125 32.815624L81.09688 32.815624Q81.19063 34.51875 82.06563 35.425Q82.94063 36.33125 84.2375 36.33125Q85.20625 36.33125 85.87813 35.83125Q86.56563 35.315624 86.97188 34.20625ZM81.19063 31.3625L86.9875 31.3625Q86.87813 30.065624 86.33125 29.409374Q85.4875 28.39375 84.14375 28.39375Q82.94063 28.39375 82.1125 29.20625Q81.28438 30.003124 81.19063 31.3625ZM100.22188 41.753124Q98.76875 39.925 97.76875 37.471874Q96.76875 35.003124 96.76875 32.3625Q96.76875 30.034374 97.51875 27.909374Q98.39375 25.440624 100.22188 22.9875L101.4875 22.9875Q100.3 25.01875 99.925 25.89375Q99.33125 27.2375 98.9875 28.70625Q98.56563 30.534374 98.56563 32.378124Q98.56563 37.065624 101.4875 41.753124L100.22188 41.753124ZM103.8625 37.55L103.8625 27.175L105.44063 27.175L105.44063 28.628124Q105.925 27.878124 106.7375 27.409374Q107.55 26.940624 108.58125 26.940624Q109.7375 26.940624 110.47188 27.425Q111.20625 27.89375 111.51875 28.753124Q112.75313 26.940624 114.72188 26.940624Q116.26875 26.940624 117.09688 27.8Q117.925 28.659374 117.925 30.425L117.925 37.55L116.175 37.55L116.175 31.01875Q116.175 29.95625 116.00313 29.503124Q115.83125 29.034374 115.37813 28.753124Q114.94063 28.471874 114.33125 28.471874Q113.2375 28.471874 112.50313 29.20625Q111.78438 29.925 111.78438 31.51875L111.78438 37.55L110.03438 37.55L110.03438 30.815624Q110.03438 29.64375 109.59688 29.065624Q109.175 28.471874 108.19063 28.471874Q107.45625 28.471874 106.81563 28.8625Q106.19063 29.253124 105.90938 30.003124Q105.62813 30.753124 105.62813 32.175L105.62813 37.55L103.8625 37.55ZM119.15938 34.45625L120.90938 34.175Q121.05 35.221874 121.72188 35.784374Q122.39375 36.33125 123.59688 36.33125Q124.8 36.33125 125.37813 35.846874Q125.97188 35.346874 125.97188 34.690624Q125.97188 34.096874 125.45625 33.753124Q125.09688 33.51875 123.65938 33.159374Q121.72188 32.659374 120.97188 32.315624Q120.2375 31.95625 119.84688 31.33125Q119.45625 30.690624 119.45625 29.925Q119.45625 29.2375 119.76875 28.64375Q120.09688 28.05 120.64375 27.659374Q121.05 27.3625 121.75313 27.159374Q122.47188 26.940624 123.28438 26.940624Q124.50313 26.940624 125.425 27.3Q126.34688 27.64375 126.78438 28.253124Q127.22188 28.846874 127.39375 29.846874L125.675 30.08125Q125.55 29.284374 124.9875 28.846874Q124.425 28.39375 123.40938 28.39375Q122.19063 28.39375 121.675 28.8Q121.15938 29.190624 121.15938 29.721874Q121.15938 30.065624 121.37813 30.346874Q121.58125 30.628124 122.05 30.815624Q122.31563 30.909374 123.59688 31.253124Q125.47188 31.753124 126.20625 32.08125Q126.94063 32.39375 127.3625 33.003124Q127.78438 33.596874 127.78438 34.503124Q127.78438 35.378124 127.26875 36.159374Q126.75313 36.940624 125.78438 37.3625Q124.81563 37.784374 123.59688 37.784374Q121.58125 37.784374 120.51875 36.940624Q119.45625 36.096874 119.15938 34.45625ZM131.01875 41.753124L129.76875 41.753124Q132.675 37.065624 132.675 32.378124Q132.675 30.534374 132.26875 28.7375Q131.925 27.26875 131.33125 25.925Q130.95625 25.034374 129.76875 22.9875L131.01875 22.9875Q132.8625 25.440624 133.7375 27.909374Q134.4875 30.034374 134.4875 32.3625Q134.4875 35.003124 133.47188 37.471874Q132.47188 39.925 131.01875 41.753124Z" fill-rule="nonzero"/></svg>